
<svg>
	<defs>
		<g id="img-results">
			<path xmlns="http://www.w3.org/2000/svg" fill="#AA009E" fill-rule="evenodd" d="M286.061 0.602949C395.417 8.67464 402.197 112.83 475.441 167.669C560.234 231.155 747.541 252.364 735.44 337.058C723.322 421.873 545.932 432.665 432.088 471.091C313.246 511.204 192.364 603.094 76.2546 559.556C-39.4385 516.173 14.3027 399.709 5.86208 311.266C-0.0559337 249.255 -12.2472 188.439 35.7575 135.215C93.914 70.7359 174.047 -7.66499 286.061 0.602949Z" clip-rule="evenodd"/><path xmlns="http://www.w3.org/2000/svg" fill="#BE2E00" fill-rule="evenodd" d="M540.657 97.0015C633.887 96.5032 663.102 220.433 714.07 298.5C755.518 361.985 824.598 424.128 801.346 496.292C778.83 566.176 685.562 568.695 617.859 597.103C557.599 622.388 502.766 661.485 438.73 648.446C346.185 629.603 224.256 605.842 205.848 513.21C187.492 420.84 310.524 373.721 369.553 300.341C427.97 227.723 447.46 97.4996 540.657 97.0015Z" clip-rule="evenodd"/>
		</g>
		<g id="img-trening-image-right">
			<path xmlns="http://www.w3.org/2000/svg" fill="#9C1AB1" fill-rule="evenodd" d="M349.385 50.8743C416.445 59.1127 489.117 31.7948 540.429 75.7489C603.036 129.378 648.305 211.787 631.438 292.478C614.327 374.332 536.976 425.027 460.395 458.617C387.817 490.451 309.484 492.363 234.548 466.564C143.711 435.292 43.3306 396.085 13.5005 304.765C-18.5461 206.659 6.42836 82.4949 88.7608 20.2608C162.176 -35.2327 258.043 39.6528 349.385 50.8743Z" clip-rule="evenodd"/>
		</g>
		<g id="img-trening-image-left">
			<path xmlns="http://www.w3.org/2000/svg" fill="#B21B1B" fill-rule="evenodd" d="M258.139 0.0100334C346.772 0.728096 435.007 45.5893 488.068 140.974C539.395 233.241 540.606 355.896 517.906 466.975C496.55 571.474 444.284 656.947 372.515 706.404C298.185 757.626 208.569 784.017 135.006 730.835C64.1376 679.601 48.0277 562.627 28.536 457.725C8.27001 348.657 -22.0561 230.441 24.7064 137.22C74.6447 37.6672 168.784 -0.713879 258.139 0.0100334Z" clip-rule="evenodd"/>
		</g>
		<g id="img-trening">
			<path xmlns="http://www.w3.org/2000/svg" fill="#080C8D" fill-rule="evenodd" d="M379.842 2.13539C493.261 15.8948 529.836 120.023 590.98 194.886C639.035 253.722 703.883 310.324 687.374 378.663C670.245 449.569 587.582 492.21 509.532 532.046C407.291 584.228 301.05 667.44 186.097 634.508C66.7788 600.325 34.7079 485.778 11.4765 389.359C-10.2531 299.174 -5.59005 205.038 64.7932 131.052C138.743 53.3158 256.257 -12.8571 379.842 2.13539Z" clip-rule="evenodd"/>
		</g>
		<g id="img-youllget">
			<path xmlns="http://www.w3.org/2000/svg" fill="#080C8D" fill-rule="evenodd" d="M390.159 60.1354C276.74 73.8948 240.165 178.023 179.021 252.886C130.966 311.722 66.1178 368.324 82.6267 436.663C99.7556 507.569 182.419 550.21 260.469 590.046C362.71 642.228 468.951 725.44 583.904 692.508C703.222 658.325 735.293 543.778 758.524 447.359C780.254 357.174 775.591 263.038 705.208 189.052C631.258 111.316 513.744 45.1429 390.159 60.1354Z" clip-rule="evenodd"/><path xmlns="http://www.w3.org/2000/svg" fill="#4903BC" fill-rule="evenodd" d="M285.608 50.8743C218.548 59.1127 145.877 31.7948 94.5638 75.7489C31.9568 129.378 -13.3121 211.787 3.55554 292.478C20.6662 374.332 98.0175 425.027 174.598 458.617C247.177 490.451 325.509 492.363 400.446 466.564C491.282 435.292 591.663 396.085 621.493 304.765C653.539 206.659 628.565 82.4949 546.232 20.2608C472.817 -35.2327 376.95 39.6528 285.608 50.8743Z" clip-rule="evenodd"/>
		</g>
		<g id="img-header-image-left">
			<path xmlns="http://www.w3.org/2000/svg" fill="#991AB1" fill-rule="evenodd" d="M349.385 50.8743C416.445 59.1127 489.117 31.7948 540.429 75.7489C603.036 129.378 648.305 211.787 631.438 292.478C614.327 374.332 536.976 425.027 460.395 458.617C387.817 490.451 309.484 492.363 234.548 466.564C143.711 435.292 43.3306 396.085 13.5005 304.765C-18.5461 206.659 6.42836 82.4949 88.7608 20.2608C162.176 -35.2327 258.043 39.6528 349.385 50.8743Z" clip-rule="evenodd"/>
		</g>
		<g id="img-header-left">
			<path xmlns="http://www.w3.org/2000/svg" fill="#1B6AB2" fill-rule="evenodd" d="M258.139 0.0100334C346.772 0.728096 435.007 45.5893 488.068 140.974C539.395 233.241 540.606 355.896 517.906 466.975C496.55 571.474 444.284 656.947 372.515 706.404C298.185 757.626 208.569 784.017 135.006 730.835C64.1376 679.601 48.0277 562.627 28.536 457.726C8.27001 348.657 -22.0561 230.441 24.7064 137.22C74.6447 37.6672 168.784 -0.713879 258.139 0.0100334Z" clip-rule="evenodd"/><path xmlns="http://www.w3.org/2000/svg" fill="#080C8D" fill-rule="evenodd" d="M827.842 120.135C941.261 133.895 977.836 238.023 1038.98 312.886C1087.04 371.722 1151.88 428.324 1135.37 496.663C1118.25 567.569 1035.58 610.21 957.532 650.046C855.291 702.228 749.05 785.44 634.097 752.508C514.779 718.325 482.708 603.778 459.477 507.359C437.747 417.174 442.41 323.038 512.793 249.052C586.743 171.316 704.257 105.143 827.842 120.135Z" clip-rule="evenodd"/>
		</g>
		<g id="img-header-right">
			<path xmlns="http://www.w3.org/2000/svg" fill="#AA009E" fill-rule="evenodd" d="M286.062 0.602949C395.418 8.67464 402.197 112.83 475.441 167.669C560.234 231.155 747.541 252.364 735.441 337.058C723.322 421.873 545.932 432.665 432.088 471.091C313.246 511.204 192.364 603.094 76.2546 559.556C-39.4385 516.173 14.3027 399.709 5.86208 311.266C-0.055934 249.255 -12.2472 188.439 35.7575 135.215C93.914 70.7359 174.047 -7.66499 286.062 0.602949Z" clip-rule="evenodd"/><path xmlns="http://www.w3.org/2000/svg" fill="#7400BE" fill-rule="evenodd" d="M540.657 97.0015C633.887 96.5032 663.102 220.433 714.07 298.5C755.518 361.985 824.598 424.128 801.346 496.292C778.83 566.176 685.562 568.695 617.859 597.103C557.599 622.388 502.766 661.485 438.73 648.446C346.185 629.603 224.256 605.842 205.848 513.21C187.492 420.84 310.524 373.721 369.553 300.341C427.97 227.723 447.46 97.4996 540.657 97.0015Z" clip-rule="evenodd"/>
		</g>
	</defs>
</svg>
