<svg width="2928" height="1551" viewBox="0 0 2928 1551" fill="none" xmlns="http://www.w3.org/2000/svg">
<g filter="url(#filter0_f_461_149)">
<path fill-rule="evenodd" clip-rule="evenodd" d="M508.139 250.01C596.772 250.728 685.007 295.589 738.068 390.974C789.395 483.241 790.606 605.896 767.906 716.975C746.55 821.474 694.284 906.947 622.515 956.404C548.185 1007.63 458.569 1034.02 385.006 980.835C314.138 929.601 298.028 812.627 278.536 707.726C258.27 598.657 227.944 480.441 274.706 387.22C324.645 287.667 418.784 249.286 508.139 250.01Z" fill="#1B6AB2"/>
</g>
<g filter="url(#filter1_f_461_149)">
<path fill-rule="evenodd" clip-rule="evenodd" d="M2157.06 649.603C2266.42 657.675 2273.2 761.83 2346.44 816.669C2431.23 880.155 2618.54 901.364 2606.44 986.058C2594.32 1070.87 2416.93 1081.66 2303.09 1120.09C2184.25 1160.2 2063.36 1252.09 1947.25 1208.56C1831.56 1165.17 1885.3 1048.71 1876.86 960.266C1870.94 898.255 1858.75 837.439 1906.76 784.215C1964.91 719.736 2045.05 641.335 2157.06 649.603Z" fill="#AA009E"/>
</g>
<g filter="url(#filter2_f_461_149)">
<path fill-rule="evenodd" clip-rule="evenodd" d="M760.385 701.874C827.445 710.113 900.117 682.795 951.429 726.749C1014.04 780.378 1059.31 862.787 1042.44 943.478C1025.33 1025.33 947.976 1076.03 871.395 1109.62C798.817 1141.45 720.484 1143.36 645.548 1117.56C554.711 1086.29 454.331 1047.09 424.5 955.765C392.454 857.659 417.428 733.495 499.761 671.261C573.176 615.767 669.043 690.653 760.385 701.874Z" fill="#991AB1"/>
</g>
<g filter="url(#filter3_f_461_149)">
<path fill-rule="evenodd" clip-rule="evenodd" d="M1077.84 370.135C1191.26 383.895 1227.84 488.023 1288.98 562.886C1337.04 621.722 1401.88 678.324 1385.37 746.663C1368.25 817.569 1285.58 860.21 1207.53 900.046C1105.29 952.228 999.05 1035.44 884.097 1002.51C764.779 968.325 732.708 853.778 709.477 757.359C687.747 667.174 692.41 573.038 762.793 499.052C836.743 421.316 954.257 355.143 1077.84 370.135Z" fill="#080C8D"/>
</g>
<g filter="url(#filter4_f_461_149)">
<path fill-rule="evenodd" clip-rule="evenodd" d="M2411.66 746.001C2504.89 745.503 2534.1 869.433 2585.07 947.5C2626.52 1010.99 2695.6 1073.13 2672.35 1145.29C2649.83 1215.18 2556.56 1217.7 2488.86 1246.1C2428.6 1271.39 2373.77 1310.49 2309.73 1297.45C2217.19 1278.6 2095.26 1254.84 2076.85 1162.21C2058.49 1069.84 2181.52 1022.72 2240.55 949.341C2298.97 876.723 2318.46 746.5 2411.66 746.001Z" fill="#7400BE"/>
</g>
<defs>
<filter id="filter0_f_461_149" x="0" y="0" width="1032" height="1260" filterUnits="userSpaceOnUse" color-interpolation-filters="sRGB">
<feFlood flood-opacity="0" result="BackgroundImageFix"/>
<feBlend mode="normal" in="SourceGraphic" in2="BackgroundImageFix" result="shape"/>
<feGaussianBlur stdDeviation="125" result="effect1_foregroundBlur_461_149"/>
</filter>
<filter id="filter1_f_461_149" x="1621" y="399" width="1236" height="1071" filterUnits="userSpaceOnUse" color-interpolation-filters="sRGB">
<feFlood flood-opacity="0" result="BackgroundImageFix"/>
<feBlend mode="normal" in="SourceGraphic" in2="BackgroundImageFix" result="shape"/>
<feGaussianBlur stdDeviation="125" result="effect1_foregroundBlur_461_149"/>
</filter>
<filter id="filter2_f_461_149" x="161" y="401" width="1134.99" height="984.361" filterUnits="userSpaceOnUse" color-interpolation-filters="sRGB">
<feFlood flood-opacity="0" result="BackgroundImageFix"/>
<feBlend mode="normal" in="SourceGraphic" in2="BackgroundImageFix" result="shape"/>
<feGaussianBlur stdDeviation="125" result="effect1_foregroundBlur_461_149"/>
</filter>
<filter id="filter3_f_461_149" x="448" y="118" width="1190" height="1142" filterUnits="userSpaceOnUse" color-interpolation-filters="sRGB">
<feFlood flood-opacity="0" result="BackgroundImageFix"/>
<feBlend mode="normal" in="SourceGraphic" in2="BackgroundImageFix" result="shape"/>
<feGaussianBlur stdDeviation="125" result="effect1_foregroundBlur_461_149"/>
</filter>
<filter id="filter4_f_461_149" x="1825" y="496" width="1102.01" height="1054.04" filterUnits="userSpaceOnUse" color-interpolation-filters="sRGB">
<feFlood flood-opacity="0" result="BackgroundImageFix"/>
<feBlend mode="normal" in="SourceGraphic" in2="BackgroundImageFix" result="shape"/>
<feGaussianBlur stdDeviation="125" result="effect1_foregroundBlur_461_149"/>
</filter>
</defs>
</svg>
