<svg xmlns="http://www.w3.org/2000/svg" width="1920" height="997" viewBox="0 0 1920 997" fill="none">
  <g filter="url(#filter0_di_366_1053)">
    <path d="M0 -111H1920V737C1920 792.228 1875.26 837 1820.04 837C1636.85 837 1258.5 837 1175.5 837C1065 837 1115 989 960 989C805 989 861 837 721.5 837C618.226 837 272.435 837 99.8045 837C44.576 837 0 792.228 0 737V-111Z" fill="#111111"/>
    <path d="M3.5 -107.5H1916.5V737C1916.5 790.297 1873.33 833.5 1820.04 833.5H1818.96H1817.88H1816.8H1815.71H1814.61H1813.52H1812.41H1811.31H1810.2H1809.08H1807.96H1806.84H1805.71H1804.58H1803.45H1802.31H1801.16H1800.01H1798.86H1797.71H1796.55H1795.38H1794.21H1793.04H1791.86H1790.68H1789.5H1788.31H1787.12H1785.92H1784.73H1783.52H1782.32H1781.1H1779.89H1778.67H1777.45H1776.22H1775H1773.76H1772.53H1771.29H1770.04H1768.8H1767.55H1766.29H1765.03H1763.77H1762.51H1761.24H1759.97H1758.7H1757.42H1756.14H1754.85H1753.57H1752.28H1750.98H1749.68H1748.38H1747.08H1745.77H1744.46H1743.15H1741.84H1740.52H1739.2H1737.87H1736.54H1735.21H1733.88H1732.54H1731.2H1729.86H1728.51H1727.17H1725.81H1724.46H1723.1H1721.75H1720.38H1719.02H1717.65H1716.28H1714.91H1713.53H1712.16H1710.78H1709.39H1708.01H1706.62H1705.23H1703.84H1702.44H1701.04H1699.64H1698.24H1696.84H1695.43H1694.02H1692.61H1691.2H1689.78H1688.36H1686.94H1685.52H1684.09H1682.67H1681.24H1679.81H1678.37H1676.94H1675.5H1674.06H1672.62H1671.18H1669.73H1668.29H1666.84H1665.39H1663.94H1662.48H1661.03H1659.57H1658.11H1656.65H1655.18H1653.72H1652.25H1650.78H1649.31H1647.84H1646.37H1644.9H1643.42H1641.94H1640.46H1638.98H1637.5H1636.02H1634.54H1633.05H1631.56H1630.07H1628.58H1627.09H1625.6H1624.11H1622.61H1621.12H1619.62H1618.12H1616.62H1615.12H1613.62H1612.11H1610.61H1609.11H1607.6H1606.09H1604.58H1603.08H1601.57H1600.06H1598.54H1597.03H1595.52H1594H1592.49H1590.97H1589.46H1587.94H1586.42H1584.91H1583.39H1581.87H1580.35H1578.83H1577.3H1575.78H1574.26H1572.74H1571.21H1569.69H1568.17H1566.64H1565.12H1563.59H1562.06H1560.54H1559.01H1557.49H1555.96H1554.43H1552.9H1551.38H1549.85H1548.32H1546.79H1545.26H1543.74H1542.21H1540.68H1539.15H1537.62H1536.09H1534.57H1533.04H1531.51H1529.98H1528.45H1526.93H1525.4H1523.87H1522.34H1520.82H1519.29H1517.76H1516.24H1514.71H1513.19H1511.66H1510.14H1508.61H1507.09H1505.57H1504.04H1502.52H1501H1499.48H1497.96H1496.44H1494.92H1493.4H1491.88H1490.37H1488.85H1487.33H1485.82H1484.3H1482.79H1481.28H1479.77H1478.26H1476.75H1475.24H1473.73H1472.22H1470.71H1469.21H1467.7H1466.2H1464.7H1463.2H1461.7H1460.2H1458.7H1457.2H1455.71H1454.22H1452.72H1451.23H1449.74H1448.25H1446.76H1445.28H1443.79H1442.31H1440.83H1439.34H1437.86H1436.39H1434.91H1433.44H1431.96H1430.49H1429.02H1427.55H1426.08H1424.62H1423.16H1421.69H1420.23H1418.77H1417.32H1415.86H1414.41H1412.96H1411.51H1410.06H1408.61H1407.17H1405.73H1404.29H1402.85H1401.42H1399.98H1398.55H1397.12H1395.69H1394.27H1392.84H1391.42H1390H1388.59H1387.17H1385.76H1384.35H1382.94H1381.53H1380.13H1378.73H1377.33H1375.94H1374.54H1373.15H1371.76H1370.37H1368.99H1367.61H1366.23H1364.85H1363.48H1362.11H1360.74H1359.38H1358.01H1356.65H1355.29H1353.94H1352.59H1351.24H1349.89H1348.55H1347.21H1345.87H1344.53H1343.2H1341.87H1340.55H1339.22H1337.9H1336.59H1335.27H1333.96H1332.65H1331.35H1330.05H1328.75H1327.45H1326.16H1324.87H1323.59H1322.3H1321.02H1319.75H1318.48H1317.21H1315.94H1314.68H1313.42H1312.17H1310.91H1309.67H1308.42H1307.18H1305.94H1304.71H1303.48H1302.25H1301.03H1299.81H1298.59H1297.38H1296.17H1294.96H1293.76H1292.57H1291.37H1290.18H1289H1287.82H1286.64H1285.46H1284.29H1283.13H1281.97H1280.81H1279.65H1278.5H1277.36H1276.22H1275.08H1273.95H1272.82H1271.69H1270.57H1269.45H1268.34H1267.23H1266.13H1265.03H1263.93H1262.84H1261.76H1260.68H1259.6H1258.53H1257.46H1256.39H1255.33H1254.28H1253.23H1252.18H1251.14H1250.1H1249.07H1248.05H1247.02H1246H1244.99H1243.98H1242.98H1241.98H1240.99H1240H1239.01H1238.03H1237.06H1236.09H1235.13H1234.17H1233.21H1232.26H1231.32H1230.38H1229.45H1228.52H1227.59H1226.67H1225.76H1224.85H1223.95H1223.05H1222.16H1221.27H1220.39H1219.51H1218.64H1217.77H1216.91H1216.06H1215.21H1214.36H1213.53H1212.69H1211.86H1211.04H1210.23H1209.41H1208.61H1207.81H1207.02H1206.23H1205.44H1204.67H1203.9H1203.13H1202.37H1201.62H1200.87H1200.13H1199.39H1198.66H1197.94H1197.22H1196.51H1195.8H1195.1H1194.4H1193.72H1193.03H1192.36H1191.69H1191.02H1190.37H1189.71H1189.07H1188.43H1187.8H1187.17H1186.55H1185.94H1185.33H1184.73H1184.13H1183.54H1182.96H1182.39H1181.82H1181.25H1180.7H1180.15H1179.61H1179.07H1178.54H1178.02H1177.5H1176.99H1176.49H1175.99H1175.5C1146.9 833.5 1128.38 843.409 1114.45 858.364C1103.07 870.578 1094.76 886.198 1086.42 901.883C1084.75 905.037 1083.07 908.194 1081.36 911.326C1071.06 930.256 1059.62 948.686 1041.41 962.459C1023.29 976.167 998.136 985.5 960 985.5C921.871 985.5 897.092 976.171 879.08 962.465C860.953 948.67 849.362 930.227 837.938 911.199C837.313 910.157 836.688 909.113 836.062 908.068C825.362 890.198 814.446 871.968 798.085 858.082C780.584 843.227 757.094 833.5 721.5 833.5H720.892H720.279H719.66H719.035H718.405H717.77H717.129H716.483H715.831H715.174H714.512H713.844H713.171H712.493H711.809H711.12H710.426H709.727H709.022H708.312H707.597H706.877H706.152H705.421H704.686H703.945H703.2H702.449H701.693H700.932H700.166H699.396H698.62H697.839H697.054H696.263H695.468H694.668H693.863H693.053H692.238H691.419H690.594H689.765H688.932H688.093H687.25H686.402H685.55H684.693H683.831H682.965H682.094H681.218H680.338H679.454H678.565H677.671H676.773H675.87H674.964H674.052H673.136H672.216H671.292H670.363H669.43H668.492H667.551H666.605H665.654H664.7H663.741H662.778H661.811H660.84H659.865H658.885H657.901H656.914H655.922H654.926H653.926H652.922H651.915H650.903H649.887H648.867H647.844H646.816H645.785H644.75H643.711H642.668H641.621H640.571H639.516H638.458H637.397H636.331H635.262H634.189H633.113H632.033H630.949H629.862H628.771H627.676H626.578H625.477H624.372H623.263H622.151H621.036H619.917H618.795H617.669H616.54H615.408H614.272H613.133H611.99H610.845H609.696H608.544H607.388H606.23H605.068H603.903H602.735H601.563H600.389H599.212H598.031H596.847H595.661H594.471H593.278H592.083H590.884H589.682H588.478H587.27H586.06H584.847H583.631H582.412H581.19H579.966H578.738H577.508H576.276H575.04H573.802H572.561H571.317H570.071H568.822H567.571H566.316H565.06H563.801H562.539H561.274H560.008H558.738H557.467H556.192H554.916H553.637H552.355H551.072H549.785H548.497H547.206H545.913H544.618H543.32H542.02H540.718H539.414H538.107H536.798H535.488H534.175H532.859H531.542H530.223H528.902H527.578H526.253H524.926H523.596H522.265H520.932H519.597H518.26H516.921H515.58H514.237H512.892H511.546H510.198H508.848H507.496H506.143H504.788H503.431H502.072H500.712H499.35H497.987H496.622H495.255H493.887H492.517H491.145H489.772H488.398H487.022H485.645H484.266H482.886H481.504H480.121H478.737H477.351H475.964H474.576H473.186H471.795H470.403H469.01H467.615H466.219H464.822H463.424H462.025H460.624H459.222H457.82H456.416H455.011H453.605H452.199H450.791H449.382H447.972H446.561H445.15H443.737H442.324H440.909H439.494H438.078H436.661H435.244H433.825H432.406H430.986H429.566H428.144H426.722H425.3H423.876H422.453H421.028H419.603H418.177H416.751H415.324H413.897H412.469H411.041H409.612H408.183H406.753H405.323H403.893H402.462H401.031H399.6H398.168H396.736H395.304H393.871H392.438H391.005H389.572H388.139H386.705H385.272H383.838H382.404H380.97H379.536H378.102H376.668H375.233H373.799H372.365H370.931H369.497H368.063H366.629H365.195H363.762H362.328H360.895H359.462H358.029H356.596H355.164H353.732H352.3H350.869H349.437H348.006H346.576H345.146H343.716H342.287H340.858H339.429H338.001H336.574H335.147H333.72H332.294H330.869H329.444H328.02H326.596H325.174H323.751H322.33H320.909H319.489H318.069H316.65H315.232H313.815H312.399H310.983H309.569H308.155H306.742H305.33H303.919H302.509H301.099H299.691H298.284H296.877H295.472H294.068H292.665H291.263H289.862H288.462H287.063H285.666H284.269H282.874H281.48H280.088H278.696H277.306H275.917H274.529H273.143H271.758H270.374H268.992H267.611H266.232H264.854H263.478H262.103H260.729H259.357H257.987H256.618H255.25H253.884H252.52H251.158H249.797H248.438H247.08H245.724H244.37H243.017H241.667H240.318H238.971H237.625H236.282H234.94H233.6H232.262H230.926H229.592H228.26H226.93H225.602H224.276H222.951H221.629H220.309H218.991H217.675H216.361H215.049H213.74H212.432H211.127H209.824H208.523H207.225H205.928H204.634H203.342H202.053H200.766H199.481H198.198H196.918H195.641H194.365H193.093H191.822H190.554H189.289H188.026H186.766H185.508H184.253H183H181.75H180.503H179.258H178.016H176.777H175.54H174.306H173.075H171.846H170.62H169.397H168.177H166.96H165.746H164.534H163.325H162.12H160.917H159.717H158.52H157.326H156.135H154.947H153.762H152.58H151.401H150.226H149.053H147.884H146.717H145.554H144.394H143.237H142.084H140.933H139.786H138.643H137.502H136.365H135.231H134.101H132.973H131.85H130.729H129.612H128.499H127.389H126.282H125.179H124.08H122.984H121.891H120.803H119.717H118.636H117.558H116.483H115.413H114.346H113.282H112.223H111.167H110.115H109.066H108.022H106.981H105.944H104.911H103.882H102.857H101.835H100.818H99.8045C46.518 833.5 3.5 790.304 3.5 737V-107.5Z" stroke="white" stroke-width="7"/>
  </g>
  <defs>
    <filter id="filter0_di_366_1053" x="-4" y="-111" width="1928" height="1108" filterUnits="userSpaceOnUse" color-interpolation-filters="sRGB">
      <feFlood flood-opacity="0" result="BackgroundImageFix"/>
      <feColorMatrix in="SourceAlpha" type="matrix" values="0 0 0 0 0 0 0 0 0 0 0 0 0 0 0 0 0 0 127 0" result="hardAlpha"/>
      <feOffset dy="4"/>
      <feGaussianBlur stdDeviation="2"/>
      <feComposite in2="hardAlpha" operator="out"/>
      <feColorMatrix type="matrix" values="0 0 0 0 1 0 0 0 0 1 0 0 0 0 1 0 0 0 0.4 0"/>
      <feBlend mode="normal" in2="BackgroundImageFix" result="effect1_dropShadow_366_1053"/>
      <feBlend mode="normal" in="SourceGraphic" in2="effect1_dropShadow_366_1053" result="shape"/>
      <feColorMatrix in="SourceAlpha" type="matrix" values="0 0 0 0 0 0 0 0 0 0 0 0 0 0 0 0 0 0 127 0" result="hardAlpha"/>
      <feOffset dy="4"/>
      <feGaussianBlur stdDeviation="2"/>
      <feComposite in2="hardAlpha" operator="arithmetic" k2="-1" k3="1"/>
      <feColorMatrix type="matrix" values="0 0 0 0 1 0 0 0 0 1 0 0 0 0 1 0 0 0 0.25 0"/>
      <feBlend mode="normal" in2="shape" result="effect2_innerShadow_366_1053"/>
    </filter>
  </defs>
</svg>