<svg width="1307" height="1152" viewBox="0 0 1307 1152" fill="none" xmlns="http://www.w3.org/2000/svg">
<g filter="url(#filter0_f_516_755)">
<path fill-rule="evenodd" clip-rule="evenodd" d="M536.061 250.603C645.417 258.675 652.197 362.83 725.441 417.669C810.234 481.155 997.541 502.364 985.44 587.058C973.322 671.873 795.932 682.665 682.088 721.091C563.246 761.204 442.364 853.094 326.255 809.556C210.562 766.173 264.303 649.709 255.862 561.266C249.944 499.255 237.753 438.439 285.757 385.215C343.914 320.736 424.047 242.335 536.061 250.603Z" fill="#AA009E"/>
</g>
<g filter="url(#filter1_f_516_755)">
<path fill-rule="evenodd" clip-rule="evenodd" d="M790.657 347.001C883.887 346.503 913.102 470.433 964.07 548.5C1005.52 611.985 1074.6 674.128 1051.35 746.292C1028.83 816.176 935.562 818.695 867.859 847.103C807.599 872.388 752.766 911.485 688.73 898.446C596.185 879.603 474.256 855.842 455.848 763.21C437.492 670.84 560.524 623.721 619.553 550.341C677.97 477.723 697.46 347.5 790.657 347.001Z" fill="#BE2E00"/>
</g>
<defs>
<filter id="filter0_f_516_755" x="0" y="0" width="1236" height="1071" filterUnits="userSpaceOnUse" color-interpolation-filters="sRGB">
<feFlood flood-opacity="0" result="BackgroundImageFix"/>
<feBlend mode="normal" in="SourceGraphic" in2="BackgroundImageFix" result="shape"/>
<feGaussianBlur stdDeviation="125" result="effect1_foregroundBlur_516_755"/>
</filter>
<filter id="filter1_f_516_755" x="204" y="97" width="1102.01" height="1054.04" filterUnits="userSpaceOnUse" color-interpolation-filters="sRGB">
<feFlood flood-opacity="0" result="BackgroundImageFix"/>
<feBlend mode="normal" in="SourceGraphic" in2="BackgroundImageFix" result="shape"/>
<feGaussianBlur stdDeviation="125" result="effect1_foregroundBlur_516_755"/>
</filter>
</defs>
</svg>
