<svg width="242" height="242" fill="none" xmlns="http://www.w3.org/2000/svg"><path d="M228.9 120.133l2.167 1.167a6.992 6.992 0 00-.71 1.473 7.98 7.98 0 00-.37 1.52 5.333 5.333 0 00-.028 1.356c.059.421.175.759.348 1.015a.944.944 0 00.73.428c.346.032.608-.091.787-.369.188-.266.304-.632.347-1.097l.27-2.906 2.353.219-.245 2.645c-.041.433.015.777.166 1.031a.821.821 0 00.665.421.805.805 0 00.694-.246c.192-.19.336-.454.434-.795.107-.339.171-.726.189-1.161a5.642 5.642 0 00-.118-1.369 6.901 6.901 0 00-.411-1.397l2.49-.719c.307.804.492 1.634.554 2.491a9.568 9.568 0 01-.131 2.476 7.168 7.168 0 01-.738 2.125c-.331.624-.741 1.104-1.23 1.441a2.405 2.405 0 01-1.661.435 2.488 2.488 0 01-1.404-.572 2.972 2.972 0 01-.88-1.277c-.192-.52-.258-1.104-.198-1.753l.675.144c-.07.747-.26 1.384-.571 1.912-.312.538-.709.938-1.191 1.198-.473.273-1.002.382-1.586.328a2.586 2.586 0 01-1.436-.575c-.396-.321-.716-.749-.961-1.284a6.025 6.025 0 01-.487-1.814 8.695 8.695 0 01-.017-2.113c.07-.746.232-1.495.487-2.246.254-.741.593-1.451 1.017-2.132z" fill="url(#paint0_linear_366_2023)"/><path d="M224.72 144.675a6.314 6.314 0 01.837-1.848c.363-.531.82-.956 1.372-1.276.548-.309 1.203-.493 1.964-.551.758-.048 1.629.065 2.613.34.659.184 1.25.411 1.773.681.522.27.982.584 1.378.943.404.372.733.791.986 1.257.251.476.426.999.527 1.568.1.57.123 1.197.067 1.881l-.367 4.348-2.61-.289.324-3.768c.019-.231.034-.487.044-.766a3.46 3.46 0 00-.076-.817 2.557 2.557 0 00-.299-.811c-.153-.257-.385-.496-.696-.718-.303-.209-.705-.384-1.208-.524a3.5 3.5 0 00-.365-.085 1.956 1.956 0 01-.311-.036 5.718 5.718 0 01-.491-.12l1.001-.618c.37.374.658.776.865 1.207.204.44.326.914.365 1.421a4.664 4.664 0 01-.179 1.609c-.231.827-.591 1.493-1.082 1.999a3.386 3.386 0 01-1.7.998c-.646.17-1.324.155-2.036-.044-.837-.233-1.501-.644-1.991-1.232-.48-.586-.785-1.291-.915-2.117-.123-.813-.053-1.691.21-2.632zm2.239.709a1.8 1.8 0 00-.03.956c.073.303.22.564.441.784.221.219.493.374.818.465.335.093.643.1.925.021.281-.079.527-.231.736-.455.206-.213.357-.492.454-.837.096-.346.114-.674.054-.984a1.613 1.613 0 00-.379-.765 1.568 1.568 0 00-.77-.452 1.918 1.918 0 00-.956-.03c-.313.07-.585.214-.815.432-.223.231-.382.52-.478.865z" fill="url(#paint1_linear_366_2023)"/><path d="M221.853 155.114c.274-.698.66-1.235 1.158-1.612.508-.372 1.122-.569 1.843-.59.726-.007 1.575.18 2.546.561.981.385 1.733.82 2.254 1.305.532.489.855 1.036.968 1.641.108.614.018 1.291-.272 2.029a4.24 4.24 0 01-1.329 1.825 3.983 3.983 0 01-2.043.879c-.77.118-1.59.007-2.46-.335-.87-.341-1.552-.819-2.047-1.433a3.986 3.986 0 01-.9-2.034 4.368 4.368 0 01.282-2.236zm-.776-6.276l11.167 4.383-1.078 2.746-1.396-.548-2.71-1.081-2.79-.92-4.325-1.697 1.132-2.883zm3.306 6.568a1.766 1.766 0 00-.112.954c.048.323.19.618.423.884.23.277.552.497.967.66.415.163.801.221 1.158.174.352-.037.656-.157.911-.36.251-.193.44-.452.567-.776a1.85 1.85 0 00.118-.969 1.862 1.862 0 00-.423-.884c-.234-.267-.558-.482-.973-.645-.415-.162-.799-.225-1.152-.189-.357.047-.66.167-.911.36a1.86 1.86 0 00-.573.791z" fill="url(#paint2_linear_366_2023)"/><path d="M218.206 164.691l1.473.736.459-.007 2.712 1.355c.437.218.841.25 1.21.094.374-.141.707-.503.998-1.086.19-.379.319-.795.386-1.247.078-.447.078-.86 0-1.239l2.347.007c.069.593.025 1.239-.13 1.939a8.364 8.364 0 01-.692 2.005c-.642 1.283-1.433 2.126-2.376 2.53-.938.418-2.034.313-3.288-.313l-4.388-2.193 1.289-2.581zm1.035-2.398c.315-.632.689-1.113 1.122-1.444.432-.331.891-.52 1.377-.569.481-.039.95.056 1.407.284.486.243.844.573 1.072.991.233.433.314.953.241 1.56-.063.612-.299 1.327-.707 2.143l-.932 1.867-1.444-.722.744-1.487c.223-.447.308-.799.254-1.057a.806.806 0 00-.452-.554.788.788 0 00-.721-.014c-.238.112-.438.328-.598.649-.15.301-.214.61-.189.926.029.33.17.631.423.903l-1.21-.131c-.472-.417-.742-.911-.81-1.479-.063-.554.078-1.176.423-1.866z" fill="url(#paint3_linear_366_2023)"/><path d="M215.266 170.836l6.05 3.634-.931.221 1.813-3.018 2.11 1.267-4.516 7.517-2.109-1.267 1.813-3.018.234.939-6.05-3.634 1.586-2.641z" fill="url(#paint4_linear_366_2023)"/><path d="M214.379 183.969c-.699.942-1.437 1.514-2.215 1.714-.777.201-1.548.023-2.312-.533-.791-.576-1.204-1.319-1.239-2.232-.033-.897.323-1.848 1.067-2.852l2.818-3.875 7.145 5.197-1.813 2.491-2.214-1.611-1.237 1.701zm-2.804-2.907c-.217.299-.316.583-.297.852.019.27.174.51.464.721.298.217.57.287.815.209.238-.068.473-.253.705-.554l.825-1.134-1.674-1.218-.838 1.124z" fill="url(#paint5_linear_366_2023)"/><path d="M201.736 190.207a6.3 6.3 0 011.601-1.246 4.18 4.18 0 011.808-.491c.63-.018 1.295.124 1.996.426.693.311 1.411.816 2.154 1.517.498.47.915.946 1.252 1.428.337.483.597.975.781 1.477.184.517.28 1.041.288 1.571 0 .538-.088 1.082-.264 1.633a7.376 7.376 0 01-.816 1.696l-2.349 3.677-2.176-1.47 2.041-3.184c.125-.196.257-.415.396-.657.131-.235.236-.488.312-.759.085-.264.123-.549.114-.856-.017-.3-.111-.62-.282-.961-.171-.325-.446-.667-.825-1.025a3.704 3.704 0 00-.284-.245 2.076 2.076 0 01-.259-.177 5.758 5.758 0 01-.379-.335l1.174-.081c.153.503.221.993.204 1.47a4.092 4.092 0 01-.339 1.429 4.632 4.632 0 01-.906 1.34c-.589.625-1.219 1.047-1.889 1.266a3.385 3.385 0 01-1.969.092c-.65-.15-1.244-.479-1.781-.986-.633-.597-1.029-1.269-1.189-2.018-.152-.741-.094-1.508.175-2.3.27-.776.74-1.52 1.411-2.231zm1.652 1.67c-.247.26-.404.538-.472.832-.076.302-.067.601.026.899.093.297.262.561.507.792.253.239.523.388.809.449.286.061.574.041.863-.059.282-.093.546-.27.792-.531a2.13 2.13 0 00.506-.845c.083-.294.09-.579.021-.854a1.58 1.58 0 00-.472-.758 1.917 1.917 0 00-.832-.472 1.712 1.712 0 00-.923.004 1.994 1.994 0 00-.825.543z" fill="url(#paint6_linear_366_2023)"/><path d="M198.789 194.463l5.776 6.684-2.331 2.015-3.026-3.503.227 5.922-2.158 1.865-5.777-6.684 2.343-2.025 3.038 3.515-.263-5.913 2.171-1.876z" fill="url(#paint7_linear_366_2023)"/><path d="M191.428 201.495l1.365 2.13a11.53 11.53 0 01-.191.096l-.146.105c-.221.158-.355.334-.403.529-.05.21-.036.434.041.673.069.245.181.505.338.78.155.29.339.593.551.909l2.039 3.07-6.493 4.651-5.144-7.182 2.518-1.803 4.119 5.751-.965-.171 2.876-2.06-.103.976-1.136-1.753a17.895 17.895 0 01-1.09-1.886c-.294-.578-.485-1.116-.574-1.614a2.534 2.534 0 01.112-1.383c.161-.409.475-.782.944-1.117.168-.12.37-.239.607-.355.223-.119.467-.235.735-.346z" fill="url(#paint8_linear_366_2023)"/><path d="M178.895 210.277c.898-.531 1.783-.827 2.656-.888.868-.046 1.664.115 2.386.483.719.384 1.302.954 1.75 1.712.448.758.668 1.536.66 2.336a4.312 4.312 0 01-.68 2.276c-.438.713-1.054 1.304-1.849 1.774-.749.442-1.523.691-2.323.747a4.053 4.053 0 01-2.261-.463c-.713-.373-1.318-.981-1.816-1.823a4.813 4.813 0 01-.176-.332c-.063-.127-.12-.244-.171-.353l6.02-3.556.829 1.403-4.603 2.719.779-.99c.195.352.437.613.727.782.28.176.583.262.909.258.317.002.634-.091.953-.278.318-.188.557-.424.717-.708.151-.279.215-.588.191-.927-.018-.33-.13-.668-.334-1.014l-.24-.407c-.222-.375-.487-.653-.797-.836a1.898 1.898 0 00-1.047-.234c-.373.031-.76.166-1.163.403-.374.221-.661.461-.863.718a3.487 3.487 0 00-.501.978l-2.266-.63a4.209 4.209 0 01.8-1.722c.412-.521.983-.997 1.713-1.428z" fill="url(#paint9_linear_366_2023)"/><path d="M172.781 214.184l3.108 6.337-.901-.32 3.161-1.551 1.084 2.21-7.874 3.862-1.084-2.21 3.161-1.551-.313.917-3.108-6.337 2.766-1.357z" fill="url(#paint10_linear_366_2023)"/><path d="M158.511 222.175l-.363 2.434a7.006 7.006 0 00-1.626-.168 7.885 7.885 0 00-1.556.167c-.49.104-.918.248-1.286.433-.375.198-.654.422-.836.671a.942.942 0 00-.155.832c.087.337.291.542.614.615.314.087.697.072 1.15-.045l2.824-.731.592 2.288-2.572.666c-.421.109-.725.278-.913.506a.82.82 0 00-.171.768c.07.274.226.463.467.57.243.116.542.162.895.138a4.437 4.437 0 001.156-.215 5.7 5.7 0 001.249-.575c.419-.244.811-.53 1.175-.86l1.519 2.098a8.67 8.67 0 01-2.155 1.366 9.556 9.556 0 01-2.374.716 7.155 7.155 0 01-2.249.026c-.7-.099-1.29-.322-1.773-.669a2.402 2.402 0 01-.972-1.415 2.488 2.488 0 01.062-1.515c.178-.484.479-.904.903-1.26.424-.357.952-.617 1.583-.781l.092.684c-.725.188-1.389.225-1.991.111-.612-.111-1.123-.349-1.532-.715a2.609 2.609 0 01-.846-1.38 2.6 2.6 0 01.055-1.547c.167-.481.461-.927.882-1.339.421-.412.935-.77 1.541-1.072a8.644 8.644 0 011.983-.732 9.787 9.787 0 012.278-.304c.783-.012 1.566.066 2.35.234z" fill="url(#paint11_linear_366_2023)"/><path d="M142.787 225.29l.271 1.624.276.367.5 2.99c.08.482.292.827.635 1.034.335.22.823.276 1.466.168.418-.069.83-.21 1.235-.421.408-.2.742-.443 1.002-.729l1.376 1.902c-.44.404-.988.749-1.645 1.035a8.299 8.299 0 01-2.029.62c-1.414.236-2.562.092-3.443-.433-.89-.513-1.45-1.46-1.681-2.843l-.809-4.839 2.846-.475zm2.548-.575c.697-.116 1.306-.096 1.828.059.521.155.945.415 1.27.779.315.366.514.801.598 1.305.09.536.033 1.019-.171 1.45-.212.443-.585.814-1.119 1.112-.533.309-1.249.539-2.149.69l-2.058.343-.266-1.591 1.64-.274c.493-.083.828-.221 1.005-.416a.807.807 0 00.182-.691.79.79 0 00-.413-.592c-.231-.127-.523-.161-.877-.102a1.741 1.741 0 00-.86.392c-.25.218-.41.509-.482.873l-.606-1.055c.061-.627.301-1.136.721-1.525.41-.377.996-.629 1.757-.757z" fill="url(#paint12_linear_366_2023)"/><path d="M133.722 226.563a6.304 6.304 0 012.022.163 4.166 4.166 0 011.664.858c.477.412.872.966 1.185 1.662.302.697.49 1.554.565 2.573.05.683.036 1.316-.041 1.899a6.462 6.462 0 01-.42 1.616 4.902 4.902 0 01-.849 1.354 5.315 5.315 0 01-1.297 1.026 7.39 7.39 0 01-1.747.701l-4.215 1.126-.613-2.553 3.655-.971c.225-.06.47-.133.736-.218.255-.084.503-.2.743-.349.24-.137.461-.322.662-.555a2.44 2.44 0 00.44-.898c.094-.356.122-.794.084-1.314a3.472 3.472 0 00-.044-.373 2.122 2.122 0 01-.072-.305 6.04 6.04 0 01-.053-.503l.92.734a4.472 4.472 0 01-.842 1.222 4.09 4.09 0 01-1.214.824 4.611 4.611 0 01-1.574.377c-.856.063-1.605-.051-2.248-.341a3.381 3.381 0 01-1.514-1.262c-.378-.549-.594-1.193-.648-1.93-.064-.867.098-1.63.485-2.291.388-.649.949-1.175 1.682-1.578.723-.391 1.572-.622 2.548-.694zm.09 2.347a1.82 1.82 0 00-.91.296 1.626 1.626 0 00-.587.68 1.84 1.84 0 00-.161.927c.026.347.123.64.293.878.17.238.396.417.677.538.271.122.585.17.942.144.358-.026.673-.12.944-.282a1.62 1.62 0 00.592-.615c.134-.25.189-.543.165-.879a1.939 1.939 0 00-.296-.91c-.172-.27-.4-.477-.683-.62a2 2 0 00-.976-.157z" fill="url(#paint13_linear_366_2023)"/><path d="M122.603 227.389c.75.024 1.386.206 1.908.549.522.353.913.865 1.175 1.536.251.682.36 1.544.328 2.587-.032 1.053-.189 1.907-.47 2.562-.282.665-.688 1.153-1.22 1.462-.542.31-1.209.452-2.002.428a4.26 4.26 0 01-2.166-.638 3.983 3.983 0 01-1.515-1.628c-.37-.686-.541-1.496-.512-2.43.029-.934.249-1.737.661-2.409a3.986 3.986 0 011.613-1.532c.663-.349 1.397-.511 2.2-.487zm5.649-2.842l-.37 11.991-2.949-.091.046-1.499.107-2.916-.073-2.937.144-4.644 3.095.096zm-5.073 5.323a1.774 1.774 0 00-.936.215 1.713 1.713 0 00-.69.696c-.184.31-.282.688-.296 1.133-.014.445.061.828.225 1.148.154.32.369.566.646.738.267.171.574.262.921.273.348.011.665-.061.953-.215.276-.155.506-.387.69-.697.173-.309.266-.687.279-1.132.014-.446-.055-.828-.209-1.148a1.855 1.855 0 00-.645-.738 1.85 1.85 0 00-.938-.273z" fill="url(#paint14_linear_366_2023)"/><path d="M112.417 227.182l-.197 1.634.162.43-.361 3.01c-.058.486.048.876.319 1.171.259.305.712.496 1.359.574.421.05.856.031 1.304-.057a3.33 3.33 0 001.167-.418l.785 2.212c-.535.264-1.159.441-1.87.531a8.29 8.29 0 01-2.121.024c-1.424-.171-2.485-.632-3.182-1.383-.71-.742-.982-1.809-.815-3.201l.585-4.871 2.865.344zm2.606.165c.702.084 1.281.274 1.738.57.457.295.79.664 1 1.105.199.439.268.913.207 1.42-.065.539-.255.987-.572 1.343-.328.366-.791.617-1.387.753-.598.147-1.35.166-2.256.057l-2.071-.248.192-1.602 1.651.198c.496.059.856.021 1.081-.117a.807.807 0 00.369-.612.79.79 0 00-.23-.684c-.186-.187-.456-.301-.812-.344a1.737 1.737 0 00-.936.134 1.502 1.502 0 00-.708.703l-.285-1.183c.234-.585.608-1.006 1.12-1.261.5-.247 1.133-.324 1.899-.232z" fill="url(#paint15_linear_366_2023)"/><path d="M105.699 226.501l-1.376 6.922-.522-.802 3.454.687-.48 2.414-8.601-1.709.48-2.414 3.453.686-.805.538 1.375-6.923 3.022.601z" fill="url(#paint16_linear_366_2023)"/><path d="M93.047 230.101c-1.123-.339-1.91-.84-2.363-1.504-.451-.664-.545-1.449-.28-2.357.273-.939.833-1.579 1.68-1.921.833-.334 1.848-.321 3.045.039l4.6 1.34-2.472 8.482-2.957-.862.766-2.629-2.019-.588zm1.786-3.622c-.355-.104-.655-.101-.902.008-.247.109-.42.336-.521.68-.103.355-.077.634.078.838.146.201.4.36.761.477l1.346.392.58-1.988-1.342-.407z" fill="url(#paint17_linear_366_2023)"/><path d="M82.918 220.318a6.29 6.29 0 011.71 1.092c.473.434.829.947 1.067 1.539.228.587.316 1.262.266 2.023-.06.757-.297 1.603-.709 2.538a9.334 9.334 0 01-.926 1.658 6.443 6.443 0 01-1.13 1.23 4.893 4.893 0 01-1.385.797 5.359 5.359 0 01-1.627.298 7.424 7.424 0 01-1.87-.201l-4.252-.983.657-2.543 3.683.858c.227.052.477.103.752.153.265.045.538.059.82.04.276-.008.558-.068.845-.179.276-.116.546-.312.81-.587.25-.27.48-.644.69-1.121.062-.139.107-.256.137-.35a2.08 2.08 0 01.08-.303c.034-.104.097-.26.189-.469l.468 1.079a4.482 4.482 0 01-1.317.685 4.1 4.1 0 01-1.459.158 4.644 4.644 0 01-1.567-.405c-.785-.346-1.394-.798-1.825-1.356a3.387 3.387 0 01-.745-1.825c-.076-.663.035-1.333.333-2.009.35-.795.852-1.394 1.503-1.795.648-.392 1.39-.593 2.226-.605.822-.006 1.68.189 2.576.583zm-1.022 2.115a1.808 1.808 0 00-.942-.166c-.31.03-.59.138-.838.326a1.836 1.836 0 00-.577.743 1.69 1.69 0 00-.152.912c.038.29.153.555.345.793.181.235.436.424.764.569.329.145.65.209.966.194.305-.02.576-.108.812-.266.235-.157.42-.39.557-.698.136-.309.19-.623.166-.943a1.707 1.707 0 00-.313-.867 1.993 1.993 0 00-.788-.597z" fill="url(#paint18_linear_366_2023)"/><path d="M77.995 218.991l-4.353 7.688-2.68-1.518 2.28-4.028-5.5 2.205-2.483-1.405 4.353-7.688 2.695 1.526-2.289 4.043 5.48-2.236 2.497 1.413z" fill="url(#paint19_linear_366_2023)"/><path d="M68.904 214.426l-1.548 2a8.69 8.69 0 01-.155-.147 77.67 77.67 0 01-.147-.102c-.224-.155-.435-.223-.634-.202a1.226 1.226 0 00-.62.264c-.208.146-.415.34-.622.58a10.3 10.3 0 00-.67.824l-2.209 2.951-6.56-4.555 5.039-7.257 2.543 1.767-4.034 5.81-.163-.966 2.905 2.018-.954.23 1.27-1.658c.48-.633.95-1.186 1.411-1.659.446-.471.889-.832 1.328-1.083a2.533 2.533 0 011.34-.359c.44.014.896.186 1.37.514.169.118.349.269.538.454.187.169.377.361.572.576z" fill="url(#paint20_linear_366_2023)"/><path d="M56.454 205.585c.802.667 1.378 1.402 1.729 2.203.335.803.451 1.606.347 2.411-.12.805-.461 1.546-1.024 2.222-.564.677-1.223 1.146-1.978 1.407a4.299 4.299 0 01-2.373.124c-.818-.172-1.582-.554-2.292-1.145-.668-.556-1.163-1.202-1.484-1.936a4.062 4.062 0 01-.324-2.286c.112-.797.481-1.571 1.107-2.323.07-.083.154-.176.253-.277.099-.102.19-.195.275-.28l5.373 4.475-1.043 1.253-4.108-3.422 1.194.401c-.266.301-.43.617-.492.947-.071.323-.05.637.062.943.105.299.299.567.583.804.284.236.586.382.908.438.313.048.625.005.937-.132.304-.128.585-.346.843-.655l.302-.364c.278-.334.451-.677.52-1.031.06-.36.016-.715-.132-1.064-.155-.341-.411-.661-.77-.96-.334-.278-.656-.469-.967-.571a3.46 3.46 0 00-1.09-.144l-.167-2.346a4.202 4.202 0 011.891.175c.63.213 1.27.59 1.92 1.133z" fill="url(#paint21_linear_366_2023)"/><path d="M50.737 201.15l-4.917 5.062-.002-.956 2.525 2.453-1.715 1.765-6.29-6.11 1.715-1.765 2.525 2.453-.968.014 4.918-5.063 2.21 2.147z" fill="url(#paint22_linear_366_2023)"/><path d="M35.96 187.393l-2.428.396a7.021 7.021 0 00-.336-1.6 7.987 7.987 0 00-.633-1.432 5.342 5.342 0 00-.805-1.092c-.303-.297-.601-.494-.894-.592a.946.946 0 00-.84.106c-.293.186-.426.443-.399.772.013.326.145.687.394 1.082l1.557 2.467-1.998 1.262-1.418-2.247c-.233-.368-.486-.606-.76-.716a.826.826 0 00-.784.071.806.806 0 00-.4.619c-.037.267.01.565.14.894.121.335.307.68.557 1.036.25.356.56.694.93 1.014a6.89 6.89 0 001.176.857l-1.535 2.087a8.7 8.7 0 01-1.958-1.637 9.534 9.534 0 01-1.405-2.043 7.152 7.152 0 01-.71-2.134c-.12-.696-.087-1.327.096-1.892a2.399 2.399 0 011.052-1.357c.46-.29.946-.424 1.461-.403a2.976 2.976 0 011.476.476c.47.295.878.718 1.226 1.27l-.623.296c-.4-.634-.638-1.255-.713-1.863-.081-.617-.01-1.176.214-1.677.208-.504.56-.913 1.057-1.226a2.588 2.588 0 011.49-.419c.508.013 1.023.157 1.544.432.52.275 1.018.655 1.49 1.141a8.66 8.66 0 011.302 1.665c.4.634.728 1.326.984 2.077.25.742.414 1.512.494 2.31z" fill="url(#paint23_linear_366_2023)"/><path d="M28.195 173.379l-1.465.752-.265.375-2.697 1.385c-.435.223-.699.53-.792.92-.107.385-.012.867.286 1.447.193.377.452.727.776 1.049a3.33 3.33 0 001 .733l-1.394 1.888c-.518-.296-1.014-.713-1.486-1.252a8.274 8.274 0 01-1.207-1.744c-.656-1.276-.867-2.413-.635-3.412.217-1.003.95-1.825 2.196-2.466l4.364-2.242 1.319 2.567zm1.322 2.253c.323.628.49 1.214.5 1.758.01.544-.108 1.027-.356 1.447a2.622 2.622 0 01-1.061.967c-.483.248-.961.341-1.433.278-.487-.068-.954-.31-1.4-.728-.457-.413-.894-1.026-1.31-1.838l-.954-1.856 1.435-.737.76 1.479c.228.445.462.722.702.831a.808.808 0 00.714-.037.788.788 0 00.438-.574c.05-.258-.006-.546-.17-.865a1.736 1.736 0 00-.634-.7 1.5 1.5 0 00-.98-.194l.822-.898c.616-.133 1.173-.059 1.672.222.484.277.902.758 1.255 1.445z" fill="url(#paint24_linear_366_2023)"/><path d="M24.26 165.263a6.3 6.3 0 01.459 1.976 4.181 4.181 0 01-.313 1.847c-.248.579-.656 1.123-1.225 1.632-.572.499-1.333.939-2.28 1.319a9.344 9.344 0 01-1.822.538 6.465 6.465 0 01-1.668.089 4.883 4.883 0 01-1.547-.398 5.344 5.344 0 01-1.372-.925 7.38 7.38 0 01-1.197-1.452l-2.352-3.675 2.248-1.358 2.034 3.188c.125.196.268.407.43.635.158.218.343.419.557.602.204.188.448.342.73.463.279.11.609.159.99.147.367-.019.793-.125 1.277-.319.141-.057.255-.108.342-.155.073-.052.162-.106.27-.161a5.84 5.84 0 01.462-.203l-.42 1.099a4.495 4.495 0 01-1.42-.431 4.107 4.107 0 01-1.154-.907 4.647 4.647 0 01-.836-1.386c-.32-.796-.439-1.545-.357-2.245.073-.696.32-1.305.743-1.826.41-.527.957-.928 1.643-1.203.807-.324 1.583-.401 2.33-.232.737.173 1.408.547 2.014 1.124.592.57 1.07 1.309 1.434 2.217zm-2.209.798a1.807 1.807 0 00-.558-.777 1.63 1.63 0 00-.826-.354c-.31-.04-.62.003-.933.128-.322.13-.571.312-.747.546a1.58 1.58 0 00-.307.808c-.035.295.015.609.149.942.133.332.318.604.554.813.233.2.488.326.767.378.278.052.574.015.886-.11a1.92 1.92 0 00.778-.558 1.71 1.71 0 00.383-.838 2 2 0 00-.146-.978z" fill="url(#paint25_linear_366_2023)"/><path d="M20.2 155.291c.207.721.227 1.382.06 1.984-.176.605-.544 1.135-1.103 1.589-.572.447-1.36.815-2.362 1.103-1.013.291-1.875.403-2.584.335-.72-.064-1.308-.302-1.765-.714-.46-.421-.8-1.013-1.02-1.776a4.256 4.256 0 01-.054-2.257 3.984 3.984 0 011.088-1.94c.539-.562 1.258-.972 2.156-1.23.898-.258 1.73-.294 2.496-.107a3.987 3.987 0 011.952 1.067 4.36 4.36 0 011.136 1.946zm4.433 4.51l-11.53 3.313-.815-2.836 1.441-.414 2.81-.79 2.774-.967 4.465-1.283.855 2.977zm-6.619-3.203a1.773 1.773 0 00-.491-.826 1.717 1.717 0 00-.874-.444c-.351-.08-.74-.058-1.169.065-.428.123-.77.311-1.024.565a1.712 1.712 0 00-.505.841 1.77 1.77 0 00.021.96c.097.334.262.615.497.841.231.216.523.364.873.445.348.069.736.042 1.165-.081.428-.123.77-.306 1.029-.55.255-.254.423-.534.504-.84.079-.317.07-.642-.026-.976z" fill="url(#paint26_linear_366_2023)"/><path d="M17.306 145.653l-1.616.315-.359.286-2.976.579c-.48.093-.819.314-1.017.663-.21.34-.253.83-.128 1.47.08.416.232.824.454 1.223.21.402.463.729.755.982l-1.864 1.426c-.416-.428-.775-.967-1.079-1.617a8.279 8.279 0 01-.674-2.011c-.274-1.407-.16-2.559.34-3.453.49-.904 1.421-1.489 2.797-1.757l4.816-.938.551 2.832zm.643 2.532c.135.693.132 1.303-.01 1.828-.14.526-.39.956-.744 1.291a2.63 2.63 0 01-1.289.633c-.533.104-1.018.06-1.454-.132-.448-.201-.829-.564-1.142-1.09-.323-.523-.572-1.233-.746-2.129l-.4-2.048 1.585-.308.317 1.631c.096.491.243.822.443.994.197.161.43.215.696.163a.79.79 0 00.58-.428c.121-.234.147-.527.079-.879a1.736 1.736 0 00-.415-.849 1.506 1.506 0 00-.886-.459l1.039-.634c.628.044 1.143.27 1.544.679.388.401.655.98.803 1.737z" fill="url(#paint27_linear_366_2023)"/><path d="M15.897 139.066l-7.01.814.602-.743.406 3.498-2.445.284-1.011-8.711 2.444-.284.407 3.497-.76-.601 7.011-.814.356 3.06z" fill="url(#paint28_linear_366_2023)"/><path d="M8.576 128.023c-.02-1.174.216-2.077.71-2.71s1.213-.962 2.158-.988c.978-.026 1.759.312 2.343 1.013.573.691.871 1.662.894 2.911l.13 4.79-8.832.239-.083-3.079 2.737-.074-.057-2.102zm3.995.593c-.01-.369-.105-.655-.284-.857-.18-.201-.448-.297-.807-.288-.369.01-.627.121-.773.331-.147.2-.22.49-.222.87l.038 1.401 2.07-.055-.022-1.402z" fill="url(#paint29_linear_366_2023)"/><path d="M14.786 114.997a6.31 6.31 0 01-.516 1.962 4.19 4.19 0 01-1.14 1.487c-.489.397-1.103.687-1.844.872-.74.174-1.617.208-2.633.102a9.284 9.284 0 01-1.861-.375 6.399 6.399 0 01-1.517-.699 4.855 4.855 0 01-1.183-1.074 5.32 5.32 0 01-.781-1.458 7.393 7.393 0 01-.381-1.843l-.366-4.348 2.622-.152.311 3.769c.02.231.048.486.084.763.038.266.109.53.212.792.093.261.237.511.43.75.195.227.464.425.807.592.333.155.76.259 1.278.314a3.6 3.6 0 00.375.022c.088-.012.193-.018.313-.016.109 0 .277.013.504.036l-.884.776a4.458 4.458 0 01-1.055-1.044 4.093 4.093 0 01-.597-1.341 4.642 4.642 0 01-.093-1.615c.089-.854.333-1.572.732-2.153a3.387 3.387 0 011.51-1.268c.607-.275 1.279-.374 2.014-.297.864.09 1.587.384 2.17.882.57.496.989 1.141 1.256 1.934.257.781.334 1.657.233 2.63zm-2.326-.325a1.812 1.812 0 00-.13-.948 1.621 1.621 0 00-.567-.698 1.831 1.831 0 00-.884-.322 1.696 1.696 0 00-.915.134 1.58 1.58 0 00-.65.571 1.93 1.93 0 00-.307.902c-.037.357 0 .683.11.979.113.285.28.515.502.691.222.176.5.282.835.317a1.94 1.94 0 00.948-.13c.297-.122.54-.31.731-.563a2 2 0 00.327-.933z" fill="url(#paint30_linear_366_2023)"/><path d="M14.517 109.979l-8.652-1.787.623-3.017 4.534.937-3.785-4.561.577-2.793 8.652 1.788-.627 3.033-4.55-.94 3.808 4.531-.58 2.809z" fill="url(#paint31_linear_366_2023)"/><path d="M16.04 99.904l-2.377-.868c.033-.07.064-.134.094-.193l.052-.172c.08-.26.08-.48 0-.665a1.226 1.226 0 00-.44-.51 3.485 3.485 0 00-.74-.416 10.25 10.25 0 00-.99-.39l-3.482-1.209 2.35-7.633 8.444 2.6-.912 2.96-6.76-2.082.871-.448-1.04 3.38-.51-.838 1.965.707c.749.265 1.419.545 2.01.84.584.283 1.062.595 1.434.937.372.342.622.731.749 1.168.12.424.095.91-.075 1.461a4.31 4.31 0 01-.268.65c-.105.23-.23.47-.376.72z" fill="url(#paint32_linear_366_2023)"/><path d="M20.718 85.172c-.395.965-.922 1.735-1.58 2.311-.665.561-1.397.913-2.195 1.056-.804.129-1.614.026-2.428-.308-.815-.334-1.46-.821-1.937-1.463a4.31 4.31 0 01-.832-2.226c-.082-.832.053-1.675.403-2.53.33-.804.796-1.47 1.4-1.998a4.06 4.06 0 012.082-.996c.794-.133 1.643-.014 2.548.357.1.041.215.094.341.157.127.064.243.123.35.179l-2.652 6.47-1.508-.618 2.027-4.947-.022 1.259c-.368-.162-.719-.224-1.052-.184a1.65 1.65 0 00-.881.343c-.254.19-.45.456-.59.797-.141.342-.19.675-.146.998.048.313.184.598.408.854.214.252.507.454.879.607l.437.179c.402.165.782.227 1.14.185.361-.051.686-.2.975-.446.279-.25.506-.59.684-1.023.165-.402.25-.767.254-1.094a3.487 3.487 0 00-.19-1.082l2.186-.865c.272.57.406 1.188.402 1.856-.014.663-.181 1.387-.503 2.172z" fill="url(#paint33_linear_366_2023)"/><path d="M23.044 78.726L16.73 75.57l.912-.292-1.574 3.15-2.202-1.1 3.92-7.845 2.201 1.1-1.573 3.15-.307-.919 6.314 3.155-1.377 2.756z" fill="url(#paint34_linear_366_2023)"/><path d="M31.517 60.58l-1.118-2.193a7.07 7.07 0 001.422-.806 8.025 8.025 0 001.17-1.04c.338-.369.603-.735.795-1.1.19-.378.288-.722.292-1.031a.943.943 0 00-.357-.767c-.266-.224-.552-.272-.857-.145-.306.111-.61.346-.91.704l-1.876 2.235-1.81-1.52 1.708-2.034c.28-.333.43-.647.45-.942a.823.823 0 00-.307-.725.805.805 0 00-.71-.193c-.267.047-.536.182-.81.407-.282.217-.554.5-.817.846a5.65 5.65 0 00-.682 1.194c-.2.441-.353.902-.458 1.382l-2.455-.827a8.7 8.7 0 01.962-2.363 9.545 9.545 0 011.517-1.96 7.154 7.154 0 011.816-1.328c.628-.325 1.238-.486 1.832-.484a2.4 2.4 0 011.613.587c.417.35.693.773.829 1.27a2.974 2.974 0 01-.003 1.55c-.139.537-.417 1.055-.836 1.555l-.472-.503c.482-.574 1-.99 1.557-1.247.563-.265 1.117-.367 1.662-.307.544.045 1.04.256 1.49.633.424.357.709.787.853 1.29.143.49.163 1.024.06 1.604a6.036 6.036 0 01-.633 1.767 8.684 8.684 0 01-1.189 1.747 9.767 9.767 0 01-1.679 1.57c-.63.464-1.314.856-2.05 1.175z" fill="url(#paint35_linear_366_2023)"/><path d="M42.886 48.47l-1.16-1.169-.437-.14-2.136-2.151c-.344-.347-.716-.506-1.116-.477-.4.014-.83.25-1.294.71a4.15 4.15 0 00-.764 1.058c-.217.399-.349.79-.396 1.174l-2.222-.757c.125-.584.373-1.182.744-1.796a8.28 8.28 0 011.297-1.678c1.018-1.01 2.038-1.556 3.06-1.637 1.023-.096 2.028.354 3.015 1.348l3.457 3.482-2.048 2.033zm-1.746 1.94c-.501.498-1.01.834-1.525 1.009-.515.175-1.011.207-1.487.098a2.624 2.624 0 01-1.242-.719c-.383-.386-.616-.813-.699-1.282-.083-.484.008-1.003.27-1.555.256-.56.708-1.161 1.356-1.804l1.48-1.47 1.137 1.145-1.18 1.171c-.354.352-.547.659-.579.92a.806.806 0 00.251.67.789.789 0 00.68.244c.26-.03.519-.17.773-.424a1.74 1.74 0 00.475-.816c.079-.323.041-.653-.111-.992l1.105.511c.313.547.41 1.1.293 1.661-.117.545-.45 1.09-.997 1.633z" fill="url(#paint36_linear_366_2023)"/><path d="M49.106 42.536a6.303 6.303 0 01-1.742 1.038 4.18 4.18 0 01-1.855.265c-.627-.06-1.27-.283-1.928-.67-.65-.393-1.3-.983-1.95-1.77a9.308 9.308 0 01-1.067-1.572 6.452 6.452 0 01-.593-1.561 4.871 4.871 0 01-.092-1.595 5.32 5.32 0 01.463-1.588 7.39 7.39 0 011.019-1.582l2.784-3.36 1.978 1.727-2.417 2.908c-.149.18-.306.38-.474.604-.16.216-.294.454-.404.714-.116.251-.189.53-.218.836-.02.3.033.628.161.988.13.344.36.717.693 1.119.097.117.18.21.251.279.072.053.15.122.235.207.078.077.19.203.335.38l-1.175-.066a4.488 4.488 0 01-.021-1.484c.084-.478.255-.937.512-1.375a4.645 4.645 0 011.065-1.22c.662-.546 1.339-.887 2.03-1.022a3.382 3.382 0 011.966.151c.626.23 1.175.629 1.646 1.198.554.67.864 1.387.93 2.15.06.754-.092 1.507-.457 2.26-.363.737-.921 1.418-1.675 2.04zm-1.433-1.861c.276-.229.467-.485.57-.768a1.62 1.62 0 00.086-.895 1.836 1.836 0 00-.406-.849 1.69 1.69 0 00-.747-.545 1.58 1.58 0 00-.864-.048c-.291.058-.575.2-.851.43a2.12 2.12 0 00-.606.775 1.62 1.62 0 00-.127.845c.035.281.16.552.375.811.215.26.47.45.768.57.297.122.602.158.916.11a1.99 1.99 0 00.886-.436z" fill="url(#paint37_linear_366_2023)"/><path d="M57.747 35.326c-.623.416-1.247.637-1.871.661-.63.016-1.246-.174-1.85-.568-.6-.41-1.19-1.048-1.768-1.916-.586-.877-.954-1.663-1.105-2.359-.157-.705-.11-1.338.144-1.899.261-.567.722-1.07 1.382-1.51a4.254 4.254 0 012.133-.739 3.983 3.983 0 012.18.446c.699.343 1.308.904 1.827 1.68.519.778.806 1.56.86 2.346a3.983 3.983 0 01-.423 2.184c-.337.67-.84 1.227-1.509 1.674zM54.8 40.92l-6.661-9.977 2.453-1.639.833 1.248 1.606 2.435 1.765 2.35 2.58 3.863-2.576 1.72zm1.04-7.28c.288-.192.5-.432.636-.718a1.71 1.71 0 00.158-.968c-.03-.358-.17-.723-.417-1.094-.247-.37-.53-.638-.85-.804a1.71 1.71 0 00-.954-.225 1.77 1.77 0 00-.909.312 1.858 1.858 0 00-.65.729 1.86 1.86 0 00-.158.967c.04.353.183.714.43 1.085.248.37.527.642.837.813.32.166.638.24.954.225.326-.02.633-.128.922-.321z" fill="url(#paint38_linear_366_2023)"/><path d="M66.153 29.569l-.79-1.445-.38-.255-1.456-2.66c-.234-.43-.547-.686-.94-.768-.387-.098-.867.01-1.44.323a4.149 4.149 0 00-1.027.803 3.314 3.314 0 00-.707 1.018l-1.924-1.344c.282-.526.687-1.032 1.213-1.518a8.283 8.283 0 011.712-1.252c1.259-.688 2.39-.93 3.395-.723 1.008.191 1.85.902 2.522 2.132l2.354 4.305-2.532 1.384zm-2.218 1.38c-.62.339-1.2.52-1.745.545-.543.025-1.029-.081-1.456-.318a2.624 2.624 0 01-.993-1.036c-.26-.477-.366-.952-.315-1.425.055-.489.285-.962.692-1.419.4-.467 1.002-.92 1.802-1.357l1.831-1.001.774 1.415-1.459.798c-.438.24-.709.48-.812.723a.806.806 0 00.056.713c.13.238.325.38.584.423.26.044.547-.02.861-.192a1.74 1.74 0 00.684-.652c.164-.288.22-.616.168-.984l.919.798c.149.612.09 1.17-.18 1.677-.263.49-.734.921-1.41 1.292z" fill="url(#paint39_linear_366_2023)"/><path d="M71.507 26.46l-2.918-6.426.892.347-3.206 1.456-1.018-2.241 7.985-3.626 1.018 2.241-3.206 1.456.34-.907 2.918 6.426-2.805 1.274z" fill="url(#paint40_linear_366_2023)"/><path d="M79.873 16.05c1.111-.378 2.044-.428 2.797-.15.753.278 1.286.863 1.598 1.755.323.923.239 1.77-.252 2.54-.483.756-1.317 1.336-2.5 1.738l-4.523 1.582-2.917-8.34 2.908-1.016.904 2.585 1.985-.695zm.651 3.985c.349-.122.592-.3.73-.532.137-.232.147-.517.028-.856-.122-.348-.305-.56-.55-.636-.235-.079-.534-.06-.897.055l-1.323.462.684 1.954 1.328-.447z" fill="url(#paint41_linear_366_2023)"/><path d="M93.464 18.155a6.301 6.301 0 01-2.026.11 4.18 4.18 0 01-1.764-.628c-.528-.344-.993-.84-1.396-1.488-.393-.65-.694-1.475-.905-2.475a9.324 9.324 0 01-.214-1.887 6.451 6.451 0 01.2-1.658c.144-.53.364-1.015.66-1.455a5.33 5.33 0 011.149-1.191 7.39 7.39 0 011.637-.928l4.026-1.68.95 2.448-3.493 1.452c-.214.09-.448.194-.7.314a3.475 3.475 0 00-.69.444c-.22.169-.413.382-.58.64-.158.255-.264.571-.317.949-.046.365-.014.802.093 1.313.031.149.062.27.093.363.04.08.077.178.112.293.033.104.073.268.12.491l-1.01-.603c.161-.5.385-.942.67-1.324a4.107 4.107 0 011.094-.98 4.645 4.645 0 011.509-.584c.84-.177 1.598-.165 2.273.037.674.192 1.23.54 1.67 1.048.448.494.749 1.103.9 1.826.18.85.122 1.629-.174 2.335-.297.696-.782 1.292-1.455 1.79-.664.483-1.475.826-2.432 1.028zm-.404-2.314a1.81 1.81 0 00.862-.415c.235-.204.398-.456.491-.753.093-.297.105-.61.035-.94a1.692 1.692 0 00-.408-.83 1.58 1.58 0 00-.743-.443 1.923 1.923 0 00-.952-.016c-.351.074-.65.209-.898.405a1.621 1.621 0 00-.504.69c-.1.265-.115.562-.046.892.07.33.208.617.415.862s.46.42.76.523c.308.09.637.099.988.025z" fill="url(#paint42_linear_366_2023)"/><path d="M98.966 16.197l-.918-8.787 3.064-.32.481 4.604 3.199-4.988 2.837-.296.918 8.786-3.08.322-.483-4.62-3.165 5.001-2.853.298z" fill="url(#paint43_linear_366_2023)"/><path d="M108.914 14.617l.101-2.528.212.03.18-.002c.271-.003.482-.07.633-.203.161-.143.279-.334.352-.574a3.5 3.5 0 00.17-.833c.039-.327.062-.68.069-1.06l.088-3.686 7.986-.092.102 8.833-3.097.036-.081-7.073.692.693-3.537.04.644-.74-.074 2.087a17.404 17.404 0 01-.187 2.17c-.09.642-.241 1.193-.453 1.652a2.54 2.54 0 01-.884 1.07c-.367.243-.838.368-1.414.375a4.318 4.318 0 01-.702-.057 8.364 8.364 0 01-.8-.138z" fill="url(#paint44_linear_366_2023)"/><path d="M124.159 14.552c-1.04-.08-1.935-.346-2.685-.797-.738-.46-1.297-1.048-1.678-1.764-.369-.726-.519-1.528-.451-2.406.067-.877.334-1.641.798-2.292a4.308 4.308 0 011.863-1.474c.767-.334 1.611-.464 2.532-.393.867.067 1.644.307 2.331.72.688.401 1.217.96 1.587 1.675.37.715.517 1.56.442 2.536a5.762 5.762 0 01-.045.372l-.063.388-6.972-.54.126-1.624 5.33.412-1.205.364c.042-.4-.007-.752-.147-1.057a1.646 1.646 0 00-.598-.733 1.83 1.83 0 00-.939-.318 1.92 1.92 0 00-.994.168 1.657 1.657 0 00-.688.65c-.175.28-.277.622-.308 1.023l-.037.47c-.033.434.025.815.174 1.142.16.329.401.593.723.792.324.188.718.3 1.184.337.433.033.806.002 1.119-.094a3.48 3.48 0 00.971-.513l1.495 1.816a4.2 4.2 0 01-1.643.951c-.636.191-1.377.254-2.222.189z" fill="url(#paint45_linear_366_2023)"/><path d="M131.532 14.827l1.083-6.974.555.779-3.479-.54.378-2.433 8.665 1.346-.377 2.432-3.479-.54.781-.572-1.082 6.974-3.045-.472z" fill="url(#paint46_linear_366_2023)"/><path d="M155.125 18.517l1.813-1.665c.341.43.728.814 1.159 1.153a7.97 7.97 0 001.315.848c.446.226.871.383 1.273.47.416.082.773.083 1.072.004a.94.94 0 00.643-.55c.144-.316.114-.605-.09-.864-.19-.265-.498-.495-.923-.688l-2.657-1.206.977-2.152 2.419 1.098c.396.18.739.24 1.028.18a.825.825 0 00.617-.49.81.81 0 00-.006-.736c-.116-.243-.319-.467-.609-.67-.285-.213-.63-.4-1.035-.56a5.638 5.638 0 00-1.333-.336 6.876 6.876 0 00-1.454-.07l.137-2.587c.86-.027 1.705.07 2.535.292a9.55 9.55 0 012.296.935 7.153 7.153 0 011.766 1.393c.482.517.801 1.062.959 1.634a2.403 2.403 0 01-.133 1.712 2.486 2.486 0 01-1.001 1.14 2.97 2.97 0 01-1.494.413c-.554.01-1.128-.119-1.722-.388l.358-.59c.682.31 1.222.698 1.619 1.165.406.471.654.977.742 1.519.103.535.033 1.07-.209 1.605a2.6 2.6 0 01-1.014 1.169c-.433.269-.942.431-1.529.487a6.04 6.04 0 01-1.872-.134 8.672 8.672 0 01-2.002-.676 9.763 9.763 0 01-1.963-1.196 10.451 10.451 0 01-1.682-1.659z" fill="url(#paint47_linear_366_2023)"/><path d="M169.4 25.981l.811-1.432.017-.46 1.493-2.638c.241-.425.293-.826.157-1.203-.121-.381-.466-.732-1.033-1.053a4.155 4.155 0 00-1.225-.45 3.32 3.32 0 00-1.238-.064l.129-2.344c.595-.037 1.238.04 1.929.23a8.272 8.272 0 011.966.796c1.249.706 2.05 1.54 2.404 2.503.369.958.208 2.047-.482 3.267l-2.417 4.27-2.511-1.422zm-2.342-1.157c-.614-.348-1.075-.747-1.383-1.195-.308-.45-.474-.918-.497-1.406a2.629 2.629 0 01.356-1.39c.268-.473.616-.812 1.045-1.019.444-.21.968-.264 1.571-.16.608.095 1.309.367 2.104.817l1.815 1.027-.795 1.405-1.447-.82c-.435-.246-.782-.349-1.042-.309a.806.806 0 00-.577.423.79.79 0 00-.051.72c.099.244.305.454.617.63.293.166.598.245.915.237.331-.012.639-.137.924-.375l-.193 1.201c-.442.45-.948.694-1.52.732-.556.035-1.17-.138-1.842-.518z" fill="url(#paint48_linear_366_2023)"/><path d="M177.495 30.805a6.294 6.294 0 01-1.465-1.403 4.177 4.177 0 01-.748-1.718c-.11-.62-.066-1.299.132-2.036.206-.73.602-1.515 1.188-2.351a9.355 9.355 0 011.231-1.447 6.447 6.447 0 011.347-.987c.485-.257.99-.428 1.513-.513a5.336 5.336 0 011.655.024 7.4 7.4 0 011.796.56l3.979 1.791-1.139 2.366-3.446-1.556a16.477 16.477 0 00-.708-.297 3.466 3.466 0 00-.796-.198 2.544 2.544 0 00-.864.012c-.294.06-.597.199-.909.418-.297.216-.596.538-.895.965-.087.125-.154.23-.201.317a2.026 2.026 0 01-.138.282 5.389 5.389 0 01-.276.423l-.25-1.15c.475-.224.95-.363 1.425-.415a4.1 4.1 0 011.462.128c.491.131.977.366 1.458.702.703.492 1.212 1.054 1.527 1.685a3.38 3.38 0 01.376 1.935c-.054.665-.293 1.3-.717 1.905-.498.713-1.106 1.202-1.823 1.47-.712.258-1.479.311-2.301.16-.808-.154-1.612-.511-2.413-1.072zm1.412-1.876c.294.205.592.32.892.345.31.031.605-.02.886-.156.28-.135.517-.34.71-.617.199-.285.308-.573.327-.865a1.582 1.582 0 00-.184-.845 1.926 1.926 0 00-.64-.707 2.124 2.124 0 00-.909-.378 1.62 1.62 0 00-.848.103c-.262.109-.489.301-.683.577a1.924 1.924 0 00-.345.892c-.038.319.008.623.137.912.145.287.364.533.657.739z" fill="url(#paint49_linear_366_2023)"/><path d="M186.167 36.768c-.569-.488-.95-1.03-1.142-1.623-.185-.603-.168-1.248.049-1.935.232-.688.688-1.428 1.367-2.22.687-.8 1.345-1.366 1.974-1.7.637-.341 1.259-.466 1.867-.373.617.099 1.226.407 1.828.923a4.254 4.254 0 011.286 1.855 3.98 3.98 0 01.158 2.22c-.141.765-.517 1.503-1.125 2.212-.609.71-1.284 1.197-2.027 1.461a3.983 3.983 0 01-2.217.181 4.344 4.344 0 01-2.018-1.001zm-6.182-1.33l7.811-9.106 2.239 1.921-.976 1.139-1.912 2.203-1.787 2.333-3.025 3.526-2.35-2.017zm7.289-.963c.264.227.552.367.865.42.32.06.645.024.974-.11.337-.125.651-.357.941-.695.29-.339.471-.684.545-1.036a1.708 1.708 0 00-.041-.98c-.1-.3-.282-.564-.545-.79a1.862 1.862 0 00-.877-.43 1.86 1.86 0 00-.974.109c-.329.133-.639.369-.929.707-.29.338-.476.68-.557 1.025-.073.352-.06.679.04.98.108.307.294.574.558.8z" fill="url(#paint50_linear_366_2023)"/><path d="M193.936 43.257l1.176-1.152.143-.436 2.167-2.12c.35-.342.512-.713.485-1.113-.011-.4-.244-.833-.7-1.299a4.155 4.155 0 00-1.052-.772 3.322 3.322 0 00-1.172-.405l.774-2.216c.582.13 1.179.382 1.79.758a8.267 8.267 0 011.668 1.309c1.003 1.025 1.542 2.049 1.615 3.072.089 1.023-.368 2.024-1.37 3.005l-3.507 3.43-2.017-2.061zm-1.929-1.762c-.494-.505-.827-1.015-.998-1.532-.171-.517-.2-1.013-.087-1.488.12-.468.363-.88.728-1.237.388-.38.817-.61 1.287-.689.485-.08 1.002.015 1.553.282.558.26 1.156.716 1.795 1.368l1.459 1.491-1.154 1.129-1.163-1.188c-.349-.358-.654-.553-.915-.587a.804.804 0 00-.671.247.786.786 0 00-.25.677c.028.261.167.52.418.777.236.24.507.401.813.481.322.08.653.046.993-.104l-.519 1.1c-.549.31-1.104.404-1.663.282-.545-.121-1.087-.457-1.626-1.009z" fill="url(#paint51_linear_366_2023)"/><path d="M198.815 48.047l5.407-4.536-.095.951-2.263-2.697 1.885-1.582 5.637 6.718-1.885 1.582-2.263-2.697.964.084-5.406 4.537-1.981-2.36z" fill="url(#paint52_linear_366_2023)"/><path d="M210.932 53.114c.664.968.964 1.852.901 2.652-.064.8-.483 1.471-1.257 2.013-.801.561-1.639.71-2.513.446-.859-.26-1.643-.906-2.35-1.936l-2.748-3.927 7.238-5.065 1.767 2.524-2.244 1.57 1.206 1.723zm-3.661 1.706c.212.303.449.489.709.558.261.07.538.002.832-.204.303-.212.457-.446.464-.702.012-.248-.086-.53-.295-.848l-.804-1.149-1.696 1.187.79 1.158z" fill="url(#paint53_linear_366_2023)"/><path d="M212.712 67.01a6.284 6.284 0 01-.655-1.921 4.185 4.185 0 01.126-1.869c.188-.601.54-1.183 1.054-1.747.52-.554 1.233-1.067 2.138-1.54a9.284 9.284 0 011.758-.718 6.455 6.455 0 011.65-.256 4.871 4.871 0 011.58.24c.508.176.994.437 1.457.783.464.346.909.788 1.337 1.325l2.709 3.42-2.1 1.577-2.344-2.968a16.622 16.622 0 00-.491-.589 3.47 3.47 0 00-.616-.543 2.538 2.538 0 00-.772-.387 2.453 2.453 0 00-1-.047c-.363.055-.776.204-1.238.445-.135.07-.243.134-.325.189-.067.06-.151.121-.252.186a5.92 5.92 0 01-.44.25l.307-1.137a4.48 4.48 0 011.456.287c.451.182.864.444 1.24.787.375.343.699.774.971 1.294.398.761.591 1.494.58 2.199-.002.7-.187 1.33-.556 1.891-.354.566-.859 1.02-1.514 1.362-.77.403-1.535.558-2.295.465-.75-.098-1.456-.404-2.116-.917-.646-.508-1.196-1.195-1.649-2.062zm2.117-1.017c.166.318.377.557.633.718.261.17.547.26.858.269a1.85 1.85 0 00.915-.221 1.69 1.69 0 00.688-.618c.151-.25.226-.529.226-.835a1.93 1.93 0 00-.243-.922 2.13 2.13 0 00-.634-.754 1.621 1.621 0 00-.8-.299 1.574 1.574 0 00-.871.199 1.926 1.926 0 00-.718.632c-.18.266-.279.557-.297.873-.004.321.077.64.243.958z" fill="url(#paint54_linear_366_2023)"/><path d="M215.768 71.136l8.199-3.288 1.147 2.859-4.296 1.723 5.674 1.71 1.061 2.648-8.199 3.289-1.153-2.874 4.312-1.73-5.677-1.674-1.068-2.663z" fill="url(#paint55_linear_366_2023)"/><path d="M220.233 80.802l2.462-.582.028.212.05.173c.076.26.198.445.366.555.181.117.397.179.648.185a3.49 3.49 0 00.848-.06c.325-.05.672-.123 1.04-.219l3.573-.905 2.235 7.667-8.482 2.472-.866-2.973 6.791-1.98-.481.854-.99-3.396.887.421-2.03.49a17.68 17.68 0 01-2.141.403c-.643.085-1.214.088-1.713.007a2.54 2.54 0 01-1.268-.564c-.333-.288-.58-.709-.741-1.261a4.261 4.261 0 01-.133-.692 8.134 8.134 0 01-.083-.807z" fill="url(#paint56_linear_366_2023)"/><path d="M224.336 95.337c-.203-1.023-.189-1.957.042-2.8.244-.836.66-1.533 1.246-2.093.6-.55 1.331-.912 2.195-1.084.863-.171 1.671-.121 2.423.15a4.31 4.31 0 011.922 1.397c.528.648.882 1.425 1.062 2.331.169.853.148 1.666-.064 2.44a4.065 4.065 0 01-1.186 1.98c-.588.549-1.362.918-2.322 1.11-.106.02-.23.04-.371.056-.14.017-.27.032-.39.044l-1.362-6.858 1.599-.318 1.041 5.244-.676-1.062c.396-.068.723-.21.979-.427.258-.207.439-.464.544-.773a1.83 1.83 0 00.053-.99 1.922 1.922 0 00-.431-.912 1.66 1.66 0 00-.811-.487c-.318-.093-.673-.1-1.068-.021l-.463.092c-.427.085-.778.243-1.053.475a1.891 1.891 0 00-.567.91c-.094.363-.096.773-.004 1.231.084.426.215.777.391 1.052.19.284.442.55.757.797l-1.345 1.93a4.2 4.2 0 01-1.36-1.326c-.355-.56-.615-1.257-.781-2.088z" fill="url(#paint57_linear_366_2023)"/><path d="M226.021 102.397l7.008-.842-.6.746-.42-3.496 2.444-.294 1.045 8.707-2.444.294-.419-3.496.761.598-7.008.841-.367-3.058z" fill="url(#paint58_linear_366_2023)"/><defs><linearGradient id="paint0_linear_366_2023" x1="241.492" y1="126.426" x2="225.56" y2="124.947" gradientUnits="userSpaceOnUse"><stop stop-color="#AC3CDC"/></linearGradient><linearGradient id="paint1_linear_366_2023" x1="238.453" y1="148.396" x2="223.042" y2="144.094" gradientUnits="userSpaceOnUse"><stop stop-color="#AC3CDC"/></linearGradient><linearGradient id="paint2_linear_366_2023" x1="235.355" y1="159.434" x2="220.461" y2="153.589" gradientUnits="userSpaceOnUse"><stop stop-color="#AC3CDC"/></linearGradient><linearGradient id="paint3_linear_366_2023" x1="231.304" y1="169.799" x2="216.991" y2="162.647" gradientUnits="userSpaceOnUse"><stop stop-color="#AC3CDC"/></linearGradient><linearGradient id="paint4_linear_366_2023" x1="226.48" y1="179.356" x2="212.764" y2="171.117" gradientUnits="userSpaceOnUse"><stop stop-color="#AC3CDC"/></linearGradient><linearGradient id="paint5_linear_366_2023" x1="221.456" y1="187.676" x2="208.517" y2="178.264" gradientUnits="userSpaceOnUse"><stop stop-color="#AC3CDC"/></linearGradient><linearGradient id="paint6_linear_366_2023" x1="212.16" y1="199.892" x2="200.522" y2="188.912" gradientUnits="userSpaceOnUse"><stop stop-color="#AC3CDC"/></linearGradient><linearGradient id="paint7_linear_366_2023" x1="204.3" y1="208.204" x2="193.838" y2="196.098" gradientUnits="userSpaceOnUse"><stop stop-color="#AC3CDC"/></linearGradient><linearGradient id="paint8_linear_366_2023" x1="195.197" y1="216.016" x2="185.88" y2="203.009" gradientUnits="userSpaceOnUse"><stop stop-color="#AC3CDC"/></linearGradient><linearGradient id="paint9_linear_366_2023" x1="186.347" y1="222.305" x2="178.209" y2="208.529" gradientUnits="userSpaceOnUse"><stop stop-color="#AC3CDC"/></linearGradient><linearGradient id="paint10_linear_366_2023" x1="177.573" y1="227.427" x2="170.528" y2="213.062" gradientUnits="userSpaceOnUse"><stop stop-color="#AC3CDC"/></linearGradient><linearGradient id="paint11_linear_366_2023" x1="156.859" y1="236.154" x2="152.85" y2="220.665" gradientUnits="userSpaceOnUse"><stop stop-color="#AC3CDC"/></linearGradient><linearGradient id="paint12_linear_366_2023" x1="146.361" y1="238.887" x2="143.725" y2="223.105" gradientUnits="userSpaceOnUse"><stop stop-color="#AC3CDC"/></linearGradient><linearGradient id="paint13_linear_366_2023" x1="134.872" y1="240.746" x2="133.7" y2="224.788" gradientUnits="userSpaceOnUse"><stop stop-color="#AC3CDC"/></linearGradient><linearGradient id="paint14_linear_366_2023" x1="123.077" y1="241.557" x2="123.571" y2="225.565" gradientUnits="userSpaceOnUse"><stop stop-color="#AC3CDC"/></linearGradient><linearGradient id="paint15_linear_366_2023" x1="112.024" y1="241.235" x2="113.931" y2="225.349" gradientUnits="userSpaceOnUse"><stop stop-color="#AC3CDC"/></linearGradient><linearGradient id="paint16_linear_366_2023" x1="101.471" y1="239.934" x2="104.589" y2="224.241" gradientUnits="userSpaceOnUse"><stop stop-color="#AC3CDC"/></linearGradient><linearGradient id="paint17_linear_366_2023" x1="91.954" y1="238.015" x2="96.431" y2="222.654" gradientUnits="userSpaceOnUse"><stop stop-color="#AC3CDC"/></linearGradient><linearGradient id="paint18_linear_366_2023" x1="77.279" y1="233.382" x2="83.731" y2="218.74" gradientUnits="userSpaceOnUse"><stop stop-color="#AC3CDC"/></linearGradient><linearGradient id="paint19_linear_366_2023" x1="66.908" y1="228.802" x2="74.79" y2="214.879" gradientUnits="userSpaceOnUse"><stop stop-color="#AC3CDC"/></linearGradient><linearGradient id="paint20_linear_366_2023" x1="56.49" y1="222.849" x2="65.616" y2="209.707" gradientUnits="userSpaceOnUse"><stop stop-color="#AC3CDC"/></linearGradient><linearGradient id="paint21_linear_366_2023" x1="47.63" y1="216.645" x2="57.87" y2="204.352" gradientUnits="userSpaceOnUse"><stop stop-color="#AC3CDC"/></linearGradient><linearGradient id="paint22_linear_366_2023" x1="39.886" y1="210.127" x2="51.034" y2="198.65" gradientUnits="userSpaceOnUse"><stop stop-color="#AC3CDC"/></linearGradient><linearGradient id="paint23_linear_366_2023" x1="22.143" y1="190.08" x2="35.673" y2="181.541" gradientUnits="userSpaceOnUse"><stop stop-color="#AC3CDC"/></linearGradient><linearGradient id="paint24_linear_366_2023" x1="16.329" y1="180.919" x2="30.561" y2="173.608" gradientUnits="userSpaceOnUse"><stop stop-color="#AC3CDC"/></linearGradient><linearGradient id="paint25_linear_366_2023" x1="11.095" y1="170.66" x2="25.945" y2="164.704" gradientUnits="userSpaceOnUse"><stop stop-color="#AC3CDC"/></linearGradient><linearGradient id="paint26_linear_366_2023" x1="6.855" y1="160.074" x2="22.233" y2="155.655" gradientUnits="userSpaceOnUse"><stop stop-color="#AC3CDC"/></linearGradient><linearGradient id="paint27_linear_366_2023" x1="3.81" y1="149.59" x2="19.515" y2="146.532" gradientUnits="userSpaceOnUse"><stop stop-color="#AC3CDC"/></linearGradient><linearGradient id="paint28_linear_366_2023" x1="1.814" y1="139.162" x2="17.707" y2="137.316" gradientUnits="userSpaceOnUse"><stop stop-color="#AC3CDC"/></linearGradient><linearGradient id="paint29_linear_366_2023" x1=".707" y1="129.4" x2="16.701" y2="128.968" gradientUnits="userSpaceOnUse"><stop stop-color="#AC3CDC"/></linearGradient><linearGradient id="paint30_linear_366_2023" x1=".623" y1="113.626" x2="16.537" y2="115.289" gradientUnits="userSpaceOnUse"><stop stop-color="#AC3CDC"/></linearGradient><linearGradient id="paint31_linear_366_2023" x1="1.78" y1="102.432" x2="17.45" y2="105.669" gradientUnits="userSpaceOnUse"><stop stop-color="#AC3CDC"/></linearGradient><linearGradient id="paint32_linear_366_2023" x1="4.246" y1="90.63" x2="19.538" y2="95.339" gradientUnits="userSpaceOnUse"><stop stop-color="#AC3CDC"/></linearGradient><linearGradient id="paint33_linear_366_2023" x1="7.515" y1="80.083" x2="22.32" y2="86.15" gradientUnits="userSpaceOnUse"><stop stop-color="#AC3CDC"/></linearGradient><linearGradient id="paint34_linear_366_2023" x1="11.204" y1="71.1" x2="25.516" y2="78.252" gradientUnits="userSpaceOnUse"><stop stop-color="#AC3CDC"/></linearGradient><linearGradient id="paint35_linear_366_2023" x1="24.746" y1="48.239" x2="37.003" y2="58.523" gradientUnits="userSpaceOnUse"><stop stop-color="#AC3CDC"/></linearGradient><linearGradient id="paint36_linear_366_2023" x1="32.111" y1="39.44" x2="43.383" y2="50.794" gradientUnits="userSpaceOnUse"><stop stop-color="#AC3CDC"/></linearGradient><linearGradient id="paint37_linear_366_2023" x1="39.956" y1="31.639" x2="50.151" y2="43.97" gradientUnits="userSpaceOnUse"><stop stop-color="#AC3CDC"/></linearGradient><linearGradient id="paint38_linear_366_2023" x1="49.135" y1="24.066" x2="58.019" y2="37.373" gradientUnits="userSpaceOnUse"><stop stop-color="#AC3CDC"/></linearGradient><linearGradient id="paint39_linear_366_2023" x1="58.309" y1="17.902" x2="65.985" y2="31.94" gradientUnits="userSpaceOnUse"><stop stop-color="#AC3CDC"/></linearGradient><linearGradient id="paint40_linear_366_2023" x1="67.111" y1="13.081" x2="73.727" y2="27.649" gradientUnits="userSpaceOnUse"><stop stop-color="#AC3CDC"/></linearGradient><linearGradient id="paint41_linear_366_2023" x1="76.164" y1="8.973" x2="81.446" y2="24.076" gradientUnits="userSpaceOnUse"><stop stop-color="#AC3CDC"/></linearGradient><linearGradient id="paint42_linear_366_2023" x1="90.426" y1="4.254" x2="93.723" y2="19.911" gradientUnits="userSpaceOnUse"><stop stop-color="#AC3CDC"/></linearGradient><linearGradient id="paint43_linear_366_2023" x1="102.3" y1="1.773" x2="103.962" y2="17.686" gradientUnits="userSpaceOnUse"><stop stop-color="#AC3CDC"/></linearGradient><linearGradient id="paint44_linear_366_2023" x1="114.144" y1=".556" x2="114.329" y2="16.554" gradientUnits="userSpaceOnUse"><stop stop-color="#AC3CDC"/></linearGradient><linearGradient id="paint45_linear_366_2023" x1="124.952" y1=".424" x2="123.719" y2="16.376" gradientUnits="userSpaceOnUse"><stop stop-color="#AC3CDC"/></linearGradient><linearGradient id="paint46_linear_366_2023" x1="135.191" y1="1.227" x2="132.736" y2="17.038" gradientUnits="userSpaceOnUse"><stop stop-color="#AC3CDC"/></linearGradient><linearGradient id="paint47_linear_366_2023" x1="165.195" y1="8.681" x2="158.58" y2="23.249" gradientUnits="userSpaceOnUse"><stop stop-color="#AC3CDC"/></linearGradient><linearGradient id="paint48_linear_366_2023" x1="175.179" y1="13.165" x2="167.296" y2="27.088" gradientUnits="userSpaceOnUse"><stop stop-color="#AC3CDC"/></linearGradient><linearGradient id="paint49_linear_366_2023" x1="185.564" y1="19.086" x2="176.39" y2="32.194" gradientUnits="userSpaceOnUse"><stop stop-color="#AC3CDC"/></linearGradient><linearGradient id="paint50_linear_366_2023" x1="194.687" y1="25.438" x2="184.269" y2="37.581" gradientUnits="userSpaceOnUse"><stop stop-color="#AC3CDC"/></linearGradient><linearGradient id="paint51_linear_366_2023" x1="203.044" y1="32.547" x2="191.607" y2="43.737" gradientUnits="userSpaceOnUse"><stop stop-color="#AC3CDC"/></linearGradient><linearGradient id="paint52_linear_366_2023" x1="210.523" y1="40.219" x2="198.266" y2="50.504" gradientUnits="userSpaceOnUse"><stop stop-color="#AC3CDC"/></linearGradient><linearGradient id="paint53_linear_366_2023" x1="216.739" y1="47.628" x2="203.631" y2="56.802" gradientUnits="userSpaceOnUse"><stop stop-color="#AC3CDC"/></linearGradient><linearGradient id="paint54_linear_366_2023" x1="225.269" y1="60.319" x2="211.091" y2="67.734" gradientUnits="userSpaceOnUse"><stop stop-color="#AC3CDC"/></linearGradient><linearGradient id="paint55_linear_366_2023" x1="230.554" y1="70.393" x2="215.704" y2="76.349" gradientUnits="userSpaceOnUse"><stop stop-color="#AC3CDC"/></linearGradient><linearGradient id="paint56_linear_366_2023" x1="235.183" y1="82.062" x2="219.822" y2="86.538" gradientUnits="userSpaceOnUse"><stop stop-color="#AC3CDC"/></linearGradient><linearGradient id="paint57_linear_366_2023" x1="238.154" y1="92.288" x2="222.46" y2="95.405" gradientUnits="userSpaceOnUse"><stop stop-color="#AC3CDC"/></linearGradient><linearGradient id="paint58_linear_366_2023" x1="240.104" y1="102.246" x2="224.218" y2="104.153" gradientUnits="userSpaceOnUse"><stop stop-color="#AC3CDC"/></linearGradient></defs></svg>