<svg width="242" height="242" fill="none" xmlns="http://www.w3.org/2000/svg"><path d="M228.9 120.133l2.167 1.167a6.992 6.992 0 00-.71 1.473 7.98 7.98 0 00-.37 1.52 5.333 5.333 0 00-.028 1.356c.059.421.175.759.348 1.015a.944.944 0 00.73.428c.346.032.608-.091.787-.369.188-.266.304-.632.347-1.097l.27-2.906 2.353.219-.245 2.645c-.041.433.015.777.166 1.031a.821.821 0 00.665.421.805.805 0 00.694-.246c.192-.19.336-.454.434-.795.107-.339.171-.726.189-1.161a5.642 5.642 0 00-.118-1.369 6.901 6.901 0 00-.411-1.397l2.49-.719c.307.804.492 1.634.554 2.491a9.568 9.568 0 01-.131 2.476 7.168 7.168 0 01-.738 2.125c-.331.624-.741 1.104-1.23 1.441a2.405 2.405 0 01-1.661.435 2.488 2.488 0 01-1.404-.572 2.972 2.972 0 01-.88-1.277c-.192-.52-.258-1.104-.198-1.753l.675.144c-.07.747-.26 1.384-.571 1.912-.312.538-.709.938-1.191 1.198-.473.273-1.002.382-1.586.328a2.586 2.586 0 01-1.436-.575c-.396-.321-.716-.749-.961-1.284a6.025 6.025 0 01-.487-1.814 8.695 8.695 0 01-.017-2.113c.07-.746.232-1.495.487-2.246.254-.741.593-1.451 1.017-2.132z" fill="url(#paint0_linear_366_1941)"/><path d="M224.718 144.675a6.29 6.29 0 01.838-1.848 4.172 4.172 0 011.371-1.276c.549-.309 1.204-.493 1.965-.551.758-.048 1.629.065 2.613.34.659.184 1.25.411 1.772.681.523.27.982.584 1.379.943.403.372.732.791.986 1.257.25.476.426.999.526 1.568.101.57.123 1.197.068 1.881l-.368 4.348-2.61-.289.324-3.768c.02-.231.035-.487.045-.766a3.462 3.462 0 00-.077-.817 2.554 2.554 0 00-.298-.811c-.154-.257-.386-.496-.696-.718-.303-.209-.706-.384-1.208-.524a3.5 3.5 0 00-.365-.085 1.967 1.967 0 01-.312-.036 5.906 5.906 0 01-.491-.12l1.002-.618c.369.374.657.776.864 1.207.205.44.326.914.365 1.421a4.638 4.638 0 01-.178 1.609c-.231.827-.592 1.493-1.083 1.999a3.377 3.377 0 01-1.7.998c-.645.17-1.324.155-2.035-.044-.838-.233-1.501-.644-1.992-1.232-.479-.586-.784-1.291-.915-2.117-.123-.813-.053-1.691.21-2.632zm2.239.709a1.82 1.82 0 00-.03.956c.074.303.221.564.441.784.221.219.494.374.818.465.335.093.643.1.925.021.282-.079.527-.231.736-.455.206-.213.358-.492.454-.837.097-.346.115-.674.055-.984a1.622 1.622 0 00-.379-.765 1.567 1.567 0 00-.771-.452 1.917 1.917 0 00-.956-.03c-.313.07-.584.214-.815.432-.222.231-.381.52-.478.865z" fill="url(#paint1_linear_366_1941)"/><path d="M221.852 155.114c.274-.698.66-1.235 1.158-1.612.508-.372 1.122-.569 1.843-.59.726-.007 1.575.18 2.546.561.981.385 1.733.82 2.254 1.305.532.489.855 1.036.968 1.641.108.614.018 1.291-.272 2.029a4.24 4.24 0 01-1.329 1.825 3.983 3.983 0 01-2.043.879c-.77.118-1.59.007-2.46-.335-.87-.341-1.552-.819-2.046-1.433a3.98 3.98 0 01-.901-2.034 4.368 4.368 0 01.282-2.236zm-.776-6.276l11.167 4.383-1.078 2.746-1.395-.548-2.711-1.081-2.79-.92-4.325-1.697 1.132-2.883zm3.306 6.568a1.766 1.766 0 00-.112.954c.048.323.19.618.423.884.23.277.552.497.967.66.415.163.801.221 1.158.174.352-.037.656-.157.911-.36.251-.193.44-.452.567-.776a1.85 1.85 0 00.118-.969 1.862 1.862 0 00-.423-.884c-.234-.267-.558-.482-.973-.645-.415-.162-.799-.225-1.152-.189-.356.047-.66.167-.911.36a1.86 1.86 0 00-.573.791z" fill="url(#paint2_linear_366_1941)"/><path d="M218.204 164.691l1.473.736.459-.007 2.712 1.355c.438.218.841.25 1.21.094.374-.141.707-.503.999-1.086.189-.379.318-.795.386-1.247.077-.447.077-.86-.001-1.239l2.348.007c.068.593.024 1.239-.131 1.939a8.321 8.321 0 01-.692 2.005c-.641 1.283-1.433 2.126-2.376 2.53-.938.418-2.033.313-3.287-.313l-4.389-2.193 1.289-2.581zm1.035-2.398c.316-.632.69-1.113 1.122-1.444.433-.331.892-.52 1.378-.569.481-.039.95.056 1.407.284.486.243.843.573 1.071.991.234.433.314.953.241 1.56-.063.612-.298 1.327-.706 2.143l-.933 1.867-1.443-.722.743-1.487c.223-.447.308-.799.255-1.057a.808.808 0 00-.452-.554.79.79 0 00-.722-.014c-.238.112-.437.328-.598.649-.15.301-.213.61-.189.926.029.33.17.631.423.903l-1.21-.131c-.471-.417-.741-.911-.809-1.479-.064-.554.077-1.176.422-1.866z" fill="url(#paint3_linear_366_1941)"/><path d="M215.267 170.836l6.05 3.634-.931.221 1.813-3.018 2.11 1.267-4.516 7.517-2.109-1.267 1.813-3.018.234.939-6.05-3.634 1.586-2.641z" fill="url(#paint4_linear_366_1941)"/><path d="M214.378 183.969c-.699.943-1.438 1.514-2.215 1.715-.777.2-1.548.022-2.313-.534-.791-.575-1.204-1.319-1.239-2.231-.032-.897.323-1.848 1.067-2.852l2.819-3.876 7.144 5.197-1.812 2.492-2.214-1.611-1.237 1.7zm-2.804-2.906c-.218.299-.317.583-.297.852.019.269.173.509.463.72.299.217.571.287.815.21.238-.069.473-.254.706-.555l.825-1.134-1.674-1.217-.838 1.124z" fill="url(#paint5_linear_366_1941)"/><path d="M201.736 190.207a6.3 6.3 0 011.601-1.246 4.18 4.18 0 011.808-.491c.63-.018 1.295.124 1.996.426.693.311 1.411.816 2.154 1.517.498.47.915.946 1.252 1.428.337.483.597.975.781 1.477.184.517.28 1.041.288 1.571 0 .538-.088 1.082-.264 1.633a7.376 7.376 0 01-.816 1.696l-2.349 3.677-2.176-1.47 2.041-3.184c.125-.196.257-.415.396-.657.131-.235.236-.488.312-.759.085-.264.123-.549.114-.856-.017-.3-.111-.62-.282-.961-.171-.325-.446-.667-.825-1.025a3.704 3.704 0 00-.284-.245 2.076 2.076 0 01-.259-.177 5.758 5.758 0 01-.379-.335l1.174-.081c.153.503.221.993.204 1.47a4.092 4.092 0 01-.339 1.429 4.632 4.632 0 01-.906 1.34c-.589.625-1.219 1.047-1.889 1.266a3.385 3.385 0 01-1.969.092c-.65-.15-1.244-.479-1.781-.986-.633-.597-1.029-1.269-1.189-2.018-.152-.741-.094-1.508.175-2.3.27-.776.74-1.52 1.411-2.231zm1.652 1.67c-.247.26-.404.538-.472.832-.076.302-.067.601.026.899.093.297.262.561.507.792.253.239.523.388.809.449.286.061.574.041.863-.059.282-.093.546-.27.792-.531a2.13 2.13 0 00.506-.845c.083-.294.09-.579.021-.854a1.58 1.58 0 00-.472-.758 1.917 1.917 0 00-.832-.472 1.712 1.712 0 00-.923.004 1.994 1.994 0 00-.825.543z" fill="url(#paint6_linear_366_1941)"/><path d="M198.788 194.464l5.776 6.684-2.331 2.014-3.026-3.502.227 5.921-2.158 1.866-5.777-6.684 2.343-2.026 3.038 3.515-.263-5.913 2.171-1.875z" fill="url(#paint7_linear_366_1941)"/><path d="M191.428 201.495l1.365 2.13a7.052 7.052 0 01-.191.097l-.146.104c-.221.159-.355.335-.403.53a1.23 1.23 0 00.041.672c.069.245.181.505.338.78.155.291.339.594.551.909l2.039 3.071-6.493 4.651-5.144-7.182 2.518-1.804 4.119 5.751-.965-.171 2.876-2.06-.103.976-1.136-1.753a17.795 17.795 0 01-1.09-1.886c-.294-.578-.485-1.116-.574-1.613a2.532 2.532 0 01.112-1.383c.161-.41.475-.782.944-1.118.168-.12.37-.238.607-.355.223-.119.467-.234.735-.346z" fill="url(#paint8_linear_366_1941)"/><path d="M178.893 210.277c.898-.531 1.783-.827 2.656-.888.869-.046 1.664.115 2.387.483.718.384 1.301.954 1.749 1.712.448.758.668 1.536.661 2.336a4.305 4.305 0 01-.681 2.276c-.437.713-1.054 1.304-1.849 1.774-.748.442-1.523.691-2.322.747a4.057 4.057 0 01-2.262-.463c-.713-.373-1.318-.981-1.815-1.823a4.786 4.786 0 01-.177-.332 44.434 44.434 0 01-.171-.353l6.021-3.556.829 1.403-4.603 2.719.778-.99c.195.352.437.613.727.782.28.176.583.262.91.258.316.002.634-.091.952-.278a1.93 1.93 0 00.718-.708 1.66 1.66 0 00.19-.927c-.018-.33-.129-.668-.334-1.014l-.24-.407c-.221-.375-.487-.653-.797-.836a1.897 1.897 0 00-1.046-.234c-.373.031-.761.166-1.163.403-.375.221-.662.461-.863.718a3.488 3.488 0 00-.502.978l-2.265-.63a4.183 4.183 0 01.8-1.722c.411-.521.982-.997 1.712-1.428z" fill="url(#paint9_linear_366_1941)"/><path d="M172.783 214.184l3.108 6.337-.902-.32 3.161-1.551 1.084 2.21-7.873 3.862-1.084-2.21 3.161-1.551-.313.917-3.108-6.337 2.766-1.357z" fill="url(#paint10_linear_366_1941)"/><path d="M158.51 222.175l-.363 2.434a7.006 7.006 0 00-1.626-.168 7.895 7.895 0 00-1.557.167 5.32 5.32 0 00-1.285.433c-.375.198-.654.422-.836.671a.943.943 0 00-.156.832c.088.337.292.542.614.615.315.087.698.072 1.15-.045l2.825-.731.592 2.288-2.572.666c-.421.109-.725.278-.913.506a.824.824 0 00-.172.768.808.808 0 00.468.57c.243.116.541.162.894.138a4.436 4.436 0 001.157-.215c.415-.13.831-.322 1.248-.575.42-.244.812-.53 1.175-.86l1.52 2.098a8.689 8.689 0 01-2.155 1.366 9.568 9.568 0 01-2.374.716 7.156 7.156 0 01-2.249.026c-.7-.099-1.291-.322-1.773-.669a2.407 2.407 0 01-.973-1.415 2.488 2.488 0 01.063-1.515c.178-.484.479-.904.903-1.26.424-.357.951-.617 1.583-.781l.092.684c-.726.188-1.389.225-1.991.111-.613-.111-1.123-.349-1.532-.715a2.609 2.609 0 01-.846-1.38 2.584 2.584 0 01.055-1.547c.167-.481.461-.927.882-1.339.421-.412.935-.77 1.541-1.072a8.653 8.653 0 011.982-.732 9.803 9.803 0 012.279-.304c.783-.012 1.566.066 2.35.234z" fill="url(#paint11_linear_366_1941)"/><path d="M142.786 225.29l.271 1.624.276.367.5 2.99c.081.482.292.827.635 1.034.335.22.823.276 1.466.168.418-.069.83-.21 1.235-.421.408-.2.742-.443 1.002-.729l1.376 1.902c-.44.404-.988.749-1.645 1.035a8.299 8.299 0 01-2.029.62c-1.414.236-2.562.092-3.443-.433-.89-.513-1.45-1.46-1.681-2.843l-.809-4.839 2.846-.475zm2.548-.575c.697-.116 1.306-.096 1.828.059.521.155.945.415 1.27.779.315.366.514.801.598 1.305.09.536.033 1.019-.171 1.45-.212.443-.585.814-1.119 1.112-.533.309-1.249.539-2.149.69l-2.058.343-.266-1.591 1.64-.274c.493-.083.828-.221 1.005-.416a.807.807 0 00.182-.691.79.79 0 00-.413-.592c-.231-.127-.523-.161-.877-.102a1.741 1.741 0 00-.86.392c-.25.218-.41.509-.482.873l-.606-1.055c.061-.627.301-1.136.721-1.525.41-.377.996-.629 1.757-.757z" fill="url(#paint12_linear_366_1941)"/><path d="M133.722 226.563a6.304 6.304 0 012.022.163 4.166 4.166 0 011.664.858c.477.412.872.966 1.185 1.662.302.697.49 1.554.565 2.573.05.683.036 1.316-.041 1.899a6.462 6.462 0 01-.42 1.616 4.902 4.902 0 01-.849 1.354 5.315 5.315 0 01-1.297 1.026 7.39 7.39 0 01-1.747.701l-4.215 1.126-.613-2.553 3.655-.971c.225-.06.47-.133.736-.218.255-.084.503-.2.743-.349.24-.137.461-.322.662-.555a2.44 2.44 0 00.44-.898c.094-.356.122-.794.084-1.314a3.472 3.472 0 00-.044-.373 2.122 2.122 0 01-.072-.305 6.04 6.04 0 01-.053-.503l.92.734a4.472 4.472 0 01-.842 1.222 4.09 4.09 0 01-1.214.824 4.611 4.611 0 01-1.574.377c-.856.063-1.605-.051-2.248-.341a3.381 3.381 0 01-1.514-1.262c-.378-.549-.594-1.193-.648-1.93-.064-.867.098-1.63.485-2.291.388-.649.949-1.175 1.682-1.578.723-.391 1.572-.622 2.548-.694zm.09 2.347a1.82 1.82 0 00-.91.296 1.626 1.626 0 00-.587.68 1.84 1.84 0 00-.161.927c.026.347.123.64.293.878.17.238.396.417.677.538.271.122.585.17.942.144.358-.026.673-.12.944-.282a1.62 1.62 0 00.592-.615c.134-.25.189-.543.165-.879a1.939 1.939 0 00-.296-.91c-.172-.27-.4-.477-.683-.62a2 2 0 00-.976-.157z" fill="url(#paint13_linear_366_1941)"/><path d="M122.603 227.39c.749.023 1.385.206 1.907.548.522.353.914.865 1.176 1.537.251.681.36 1.544.328 2.586-.033 1.054-.19 1.908-.471 2.562-.281.666-.688 1.153-1.219 1.463-.542.309-1.21.452-2.003.427a4.256 4.256 0 01-2.165-.637 3.988 3.988 0 01-1.516-1.629c-.37-.685-.54-1.495-.512-2.429.029-.934.25-1.737.662-2.41a3.986 3.986 0 011.613-1.532c.663-.349 1.396-.511 2.2-.486zm5.649-2.843l-.371 11.991-2.949-.091.047-1.499.106-2.915-.072-2.938.143-4.643 3.096.095zm-5.073 5.323a1.767 1.767 0 00-.937.216 1.713 1.713 0 00-.69.696c-.183.31-.282.687-.296 1.132-.013.446.062.828.226 1.149a1.754 1.754 0 001.567 1.01c.347.011.665-.061.952-.215.277-.154.507-.386.69-.696.173-.31.266-.688.28-1.133.014-.445-.056-.828-.209-1.148a1.853 1.853 0 00-.646-.737 1.856 1.856 0 00-.937-.274z" fill="url(#paint14_linear_366_1941)"/><path d="M112.419 227.182l-.197 1.634.162.43-.361 3.01c-.059.486.048.876.319 1.171.259.305.712.496 1.359.574.421.05.856.031 1.304-.057a3.33 3.33 0 001.167-.418l.785 2.212c-.536.264-1.159.441-1.87.531a8.29 8.29 0 01-2.121.024c-1.424-.171-2.485-.632-3.183-1.383-.709-.742-.981-1.809-.814-3.201l.585-4.871 2.865.344zm2.606.165c.702.084 1.281.274 1.738.57.457.295.79.664 1 1.105.199.439.268.913.207 1.42-.065.539-.255.987-.572 1.343-.328.366-.791.617-1.387.753-.598.147-1.35.166-2.256.057l-2.071-.248.192-1.602 1.651.198c.496.059.856.021 1.081-.117a.807.807 0 00.369-.612.79.79 0 00-.23-.684c-.186-.187-.456-.301-.813-.344a1.735 1.735 0 00-.935.134 1.502 1.502 0 00-.708.703l-.285-1.183c.234-.585.608-1.006 1.12-1.261.5-.247 1.133-.324 1.899-.232z" fill="url(#paint15_linear_366_1941)"/><path d="M105.7 226.501l-1.375 6.922-.522-.802 3.453.687-.48 2.414-8.6-1.709.479-2.414 3.453.686-.805.538 1.376-6.923 3.021.601z" fill="url(#paint16_linear_366_1941)"/><path d="M93.049 230.101c-1.124-.339-1.912-.84-2.363-1.503-.452-.664-.546-1.45-.281-2.357.274-.939.834-1.58 1.68-1.921.834-.335 1.848-.322 3.045.038l4.6 1.341-2.471 8.481-2.958-.862.767-2.628-2.02-.589zm1.786-3.622c-.355-.103-.656-.1-.903.009s-.42.336-.52.68c-.104.355-.078.634.078.838.145.2.399.359.76.476l1.347.392.579-1.987-1.341-.408z" fill="url(#paint17_linear_366_1941)"/><path d="M82.92 220.319a6.313 6.313 0 011.71 1.091c.473.435.829.948 1.067 1.539.227.588.316 1.262.266 2.024-.06.757-.297 1.603-.709 2.537a9.299 9.299 0 01-.926 1.658 6.44 6.44 0 01-1.13 1.23 4.845 4.845 0 01-1.384.797c-.507.181-1.05.28-1.628.298a7.333 7.333 0 01-1.87-.201l-4.252-.983.657-2.542 3.683.857c.227.052.477.104.752.153.265.046.538.059.82.041.276-.009.558-.069.845-.18.276-.116.547-.311.81-.587.25-.27.48-.643.69-1.121.062-.139.107-.255.137-.349a1.91 1.91 0 01.08-.303c.034-.104.097-.26.189-.469l.468 1.079a4.478 4.478 0 01-1.317.684 4.1 4.1 0 01-1.459.159 4.646 4.646 0 01-1.567-.406c-.785-.346-1.394-.798-1.825-1.356a3.381 3.381 0 01-.745-1.825c-.076-.663.035-1.332.333-2.008.35-.796.852-1.394 1.503-1.796.648-.391 1.39-.593 2.226-.604.822-.006 1.68.188 2.575.583zm-1.022 2.114a1.818 1.818 0 00-.942-.165c-.31.029-.59.138-.838.325a1.834 1.834 0 00-.577.743 1.71 1.71 0 00-.153.913c.039.29.154.554.346.793.181.234.436.424.764.569.328.144.65.209.966.193.305-.019.576-.108.812-.265.235-.158.42-.391.557-.699a1.94 1.94 0 00.166-.942 1.711 1.711 0 00-.313-.868 2.002 2.002 0 00-.788-.597z" fill="url(#paint18_linear_366_1941)"/><path d="M77.993 218.991l-4.352 7.688-2.681-1.518 2.28-4.028-5.5 2.205-2.482-1.405 4.353-7.688 2.694 1.526-2.288 4.043 5.48-2.236 2.496 1.413z" fill="url(#paint19_linear_366_1941)"/><path d="M68.903 214.426l-1.548 2a8.342 8.342 0 01-.155-.147 55.943 55.943 0 01-.148-.102c-.223-.155-.434-.223-.633-.202a1.225 1.225 0 00-.62.264c-.208.146-.415.34-.622.58-.221.243-.445.518-.67.824l-2.209 2.951-6.56-4.555 5.039-7.257 2.543 1.767-4.034 5.81-.163-.966 2.905 2.018-.954.23 1.27-1.658c.48-.633.95-1.186 1.411-1.659.446-.471.889-.832 1.327-1.083a2.533 2.533 0 011.341-.359c.44.014.896.186 1.37.514.17.118.349.269.538.454.187.169.377.361.572.576z" fill="url(#paint20_linear_366_1941)"/><path d="M56.454 205.585c.802.667 1.378 1.402 1.729 2.203.335.803.451 1.606.347 2.411-.12.805-.461 1.546-1.024 2.222-.564.677-1.223 1.146-1.978 1.407a4.299 4.299 0 01-2.373.124c-.818-.172-1.582-.554-2.292-1.145-.668-.556-1.163-1.202-1.484-1.936a4.062 4.062 0 01-.324-2.286c.112-.797.481-1.571 1.107-2.323.07-.083.154-.176.253-.277.099-.102.19-.195.275-.28l5.373 4.475-1.043 1.253-4.108-3.422 1.194.401c-.266.301-.43.617-.492.947-.071.323-.05.637.062.943.105.299.299.567.583.804.284.236.586.382.908.438.313.048.625.005.937-.132.304-.128.585-.346.843-.655l.302-.364c.278-.334.451-.677.52-1.031.06-.36.016-.715-.132-1.064-.155-.341-.411-.661-.77-.96-.334-.278-.656-.469-.967-.571a3.46 3.46 0 00-1.09-.144l-.167-2.346a4.202 4.202 0 011.891.175c.63.213 1.27.59 1.92 1.133z" fill="url(#paint21_linear_366_1941)"/><path d="M50.738 201.15l-4.917 5.062-.003-.956 2.526 2.453-1.715 1.765-6.29-6.11 1.714-1.765 2.526 2.453-.968.014 4.917-5.063 2.21 2.147z" fill="url(#paint22_linear_366_1941)"/><path d="M35.96 187.393l-2.429.396a7.027 7.027 0 00-.335-1.6 7.946 7.946 0 00-.633-1.431 5.345 5.345 0 00-.805-1.092c-.303-.297-.601-.494-.894-.592a.942.942 0 00-.84.105c-.294.186-.427.443-.399.773.013.326.144.686.394 1.081l1.557 2.468-1.999 1.261-1.418-2.247c-.232-.367-.485-.606-.76-.715a.823.823 0 00-.784.071.806.806 0 00-.4.618c-.036.268.01.566.14.895.122.334.308.68.558 1.036.25.356.56.693.93 1.013.359.326.751.611 1.176.857l-1.535 2.087a8.693 8.693 0 01-1.958-1.636 9.53 9.53 0 01-1.405-2.043 7.162 7.162 0 01-.711-2.134c-.118-.697-.086-1.327.097-1.893a2.403 2.403 0 011.051-1.357c.46-.29.947-.424 1.462-.402.515.022 1.007.18 1.476.476.469.295.877.718 1.225 1.269l-.622.297c-.4-.634-.638-1.255-.713-1.863-.081-.617-.01-1.176.213-1.677a2.614 2.614 0 011.058-1.226 2.59 2.59 0 011.489-.42c.51.013 1.024.157 1.545.432.52.276 1.017.656 1.49 1.141a8.67 8.67 0 011.302 1.665c.4.634.728 1.327.984 2.078.25.742.414 1.511.494 2.309z" fill="url(#paint23_linear_366_1941)"/><path d="M28.195 173.379l-1.464.752-.266.375-2.696 1.385c-.435.223-.7.53-.792.92-.108.385-.013.867.285 1.447.194.377.453.727.777 1.049a3.33 3.33 0 001 .733l-1.394 1.888c-.519-.296-1.014-.713-1.486-1.252a8.278 8.278 0 01-1.208-1.744c-.655-1.276-.867-2.413-.634-3.412.217-1.003.95-1.825 2.196-2.466l4.364-2.242 1.319 2.567zm1.322 2.253c.323.628.49 1.214.5 1.758.012.544-.107 1.027-.355 1.447a2.622 2.622 0 01-1.061.967c-.484.248-.961.341-1.433.278-.487-.068-.954-.31-1.4-.728-.457-.413-.894-1.026-1.311-1.838l-.953-1.856 1.435-.737.76 1.479c.228.445.462.722.701.831a.808.808 0 00.714-.037.788.788 0 00.439-.574c.05-.258-.006-.546-.17-.865a1.736 1.736 0 00-.635-.7 1.5 1.5 0 00-.979-.194l.822-.898c.615-.133 1.173-.059 1.672.222.484.277.902.758 1.254 1.445z" fill="url(#paint24_linear_366_1941)"/><path d="M24.258 165.263a6.3 6.3 0 01.459 1.976 4.183 4.183 0 01-.313 1.847c-.248.579-.656 1.123-1.224 1.632-.573.499-1.333.939-2.281 1.319a9.344 9.344 0 01-1.822.538 6.465 6.465 0 01-1.668.089 4.882 4.882 0 01-1.547-.398 5.344 5.344 0 01-1.372-.925 7.38 7.38 0 01-1.197-1.452l-2.352-3.675 2.248-1.358 2.034 3.188c.125.196.268.407.43.635.158.218.344.419.558.602.204.188.447.342.73.463.278.11.608.159.99.147.367-.019.792-.125 1.276-.319.142-.057.256-.108.342-.155.073-.052.163-.106.27-.161a5.84 5.84 0 01.462-.203l-.42 1.099a4.494 4.494 0 01-1.42-.431 4.107 4.107 0 01-1.153-.907 4.647 4.647 0 01-.837-1.386c-.32-.796-.438-1.545-.356-2.245.072-.696.32-1.305.743-1.826.409-.527.956-.928 1.642-1.203.807-.324 1.584-.401 2.33-.232.737.173 1.408.547 2.014 1.124.592.57 1.07 1.309 1.434 2.217zm-2.209.798a1.806 1.806 0 00-.557-.777 1.63 1.63 0 00-.827-.354 1.84 1.84 0 00-.932.128c-.323.13-.572.312-.747.546a1.58 1.58 0 00-.308.808 1.92 1.92 0 00.149.942c.133.332.318.604.555.813.232.2.487.326.766.378.278.052.574.015.887-.11.312-.125.571-.311.777-.558a1.71 1.71 0 00.383-.838 1.998 1.998 0 00-.146-.978z" fill="url(#paint25_linear_366_1941)"/><path d="M20.2 155.292c.208.721.228 1.382.062 1.984-.177.604-.545 1.134-1.104 1.589-.573.447-1.36.814-2.363 1.102-1.013.292-1.874.403-2.583.336-.72-.065-1.308-.303-1.765-.714-.46-.422-.8-1.014-1.02-1.776a4.255 4.255 0 01-.054-2.257 3.986 3.986 0 011.087-1.941c.54-.562 1.259-.972 2.157-1.23.898-.258 1.73-.293 2.496-.106a3.98 3.98 0 011.952 1.067c.535.524.913 1.173 1.136 1.946zm4.434 4.509l-11.53 3.313-.815-2.835 1.441-.414 2.809-.79 2.775-.967 4.464-1.283.856 2.976zm-6.619-3.203a1.77 1.77 0 00-.492-.825 1.702 1.702 0 00-.873-.444c-.351-.08-.74-.059-1.169.064-.428.123-.77.312-1.025.566a1.714 1.714 0 00-.504.84c-.082.306-.075.626.021.961.096.334.262.614.496.841.232.216.523.364.874.444.348.07.736.043 1.164-.08.428-.123.771-.307 1.03-.55.254-.254.422-.534.504-.841.079-.316.07-.641-.026-.976z" fill="url(#paint26_linear_366_1941)"/><path d="M17.308 145.654l-1.616.314-.36.286-2.975.58c-.48.093-.82.314-1.017.662-.21.34-.254.83-.13 1.47.082.416.233.824.455 1.224.211.401.463.729.756.982l-1.865 1.425c-.415-.428-.775-.967-1.078-1.616a8.278 8.278 0 01-.674-2.011c-.274-1.408-.16-2.559.34-3.454.489-.903 1.42-1.489 2.797-1.757l4.815-.937.552 2.832zm.642 2.531c.135.694.132 1.303-.01 1.829-.14.526-.389.956-.744 1.291a2.628 2.628 0 01-1.288.633c-.534.103-1.018.059-1.454-.133-.449-.2-.83-.563-1.142-1.089-.324-.524-.572-1.234-.747-2.13l-.399-2.048 1.584-.308.318 1.632c.096.491.243.822.442.993.198.161.43.216.697.164a.79.79 0 00.58-.429c.12-.234.147-.527.078-.879a1.743 1.743 0 00-.414-.849 1.5 1.5 0 00-.886-.458l1.039-.634c.628.043 1.143.27 1.543.679.388.4.656.979.803 1.736z" fill="url(#paint27_linear_366_1941)"/><path d="M15.898 139.066l-7.01.814.602-.743.406 3.498-2.444.284-1.012-8.711 2.445-.284.406 3.497-.76-.601 7.011-.814.356 3.06z" fill="url(#paint28_linear_366_1941)"/><path d="M8.576 128.023c-.02-1.174.216-2.077.71-2.71s1.213-.962 2.158-.988c.978-.026 1.759.312 2.343 1.013.573.691.871 1.662.894 2.911l.13 4.79-8.832.239-.083-3.079 2.737-.074-.057-2.102zm3.995.593c-.01-.369-.105-.655-.284-.857-.18-.201-.448-.297-.807-.288-.369.01-.627.121-.773.331-.147.2-.22.49-.222.87l.038 1.401 2.07-.055-.022-1.402z" fill="url(#paint29_linear_366_1941)"/><path d="M14.786 114.997a6.31 6.31 0 01-.516 1.962 4.19 4.19 0 01-1.14 1.487c-.489.397-1.103.687-1.844.872-.74.174-1.617.208-2.633.102a9.284 9.284 0 01-1.861-.375 6.399 6.399 0 01-1.517-.699 4.855 4.855 0 01-1.183-1.074 5.32 5.32 0 01-.781-1.458 7.393 7.393 0 01-.381-1.843l-.366-4.348 2.622-.152.311 3.769c.02.231.048.486.084.763.038.266.109.53.212.792.093.261.237.511.43.75.195.227.464.425.807.592.333.155.76.259 1.278.314a3.6 3.6 0 00.375.022c.088-.012.193-.018.313-.016.109 0 .277.013.504.036l-.884.776a4.458 4.458 0 01-1.055-1.044 4.093 4.093 0 01-.597-1.341 4.642 4.642 0 01-.093-1.615c.089-.854.333-1.572.732-2.153a3.387 3.387 0 011.51-1.268c.607-.275 1.279-.374 2.014-.297.864.09 1.587.384 2.17.882.57.496.989 1.141 1.256 1.934.257.781.334 1.657.233 2.63zm-2.326-.325a1.812 1.812 0 00-.13-.948 1.621 1.621 0 00-.567-.698 1.831 1.831 0 00-.884-.322 1.696 1.696 0 00-.915.134 1.58 1.58 0 00-.65.571 1.93 1.93 0 00-.307.902c-.037.357 0 .683.11.979.113.285.28.515.502.691.222.176.5.282.835.317a1.94 1.94 0 00.948-.13c.297-.122.54-.31.731-.563a2 2 0 00.327-.933z" fill="url(#paint30_linear_366_1941)"/><path d="M14.518 109.979l-8.652-1.787.623-3.017 4.534.937-3.785-4.561.577-2.793 8.652 1.788-.627 3.033-4.55-.94 3.808 4.531-.58 2.809z" fill="url(#paint31_linear_366_1941)"/><path d="M16.04 99.904l-2.377-.868c.033-.07.064-.134.094-.193l.052-.172c.08-.26.08-.48 0-.665a1.226 1.226 0 00-.44-.51 3.485 3.485 0 00-.74-.416 10.25 10.25 0 00-.99-.39l-3.482-1.209 2.35-7.633 8.444 2.6-.912 2.96-6.76-2.082.871-.448-1.04 3.38-.51-.838 1.965.707c.749.265 1.419.545 2.01.84.584.283 1.062.595 1.434.937.372.342.622.731.749 1.168.12.424.095.91-.075 1.461a4.31 4.31 0 01-.268.65c-.105.23-.23.47-.376.72z" fill="url(#paint32_linear_366_1941)"/><path d="M20.72 85.172c-.395.966-.922 1.736-1.581 2.312-.665.56-1.396.913-2.194 1.056-.805.128-1.614.025-2.428-.309-.815-.333-1.46-.821-1.937-1.463a4.31 4.31 0 01-.832-2.225c-.082-.832.052-1.676.402-2.53.33-.805.797-1.47 1.4-1.999a4.06 4.06 0 012.082-.996c.795-.133 1.644-.013 2.55.358.1.04.213.093.34.157l.35.178-2.652 6.47-1.508-.617 2.027-4.947-.023 1.258c-.368-.162-.718-.224-1.052-.184a1.65 1.65 0 00-.88.344c-.254.19-.451.455-.591.797a1.93 1.93 0 00-.145.998c.048.313.184.597.408.853.213.252.506.455.878.607l.438.18c.402.164.782.226 1.14.185.361-.052.686-.2.975-.446.278-.25.506-.591.683-1.023.165-.403.25-.767.255-1.094a3.487 3.487 0 00-.19-1.082l2.186-.866A4.22 4.22 0 0121.223 83c-.014.664-.181 1.388-.503 2.172z" fill="url(#paint33_linear_366_1941)"/><path d="M23.044 78.726l-6.313-3.155.911-.292-1.574 3.15-2.202-1.1 3.92-7.845 2.202 1.1-1.574 3.15-.306-.919 6.313 3.155-1.377 2.756z" fill="url(#paint34_linear_366_1941)"/><path d="M31.516 60.58L30.4 58.388a7.07 7.07 0 001.422-.806 8.025 8.025 0 001.17-1.04c.338-.369.603-.735.795-1.1.19-.378.287-.722.291-1.031a.943.943 0 00-.356-.767c-.266-.224-.552-.272-.857-.145-.307.111-.61.346-.91.704l-1.876 2.235-1.81-1.52 1.707-2.034c.28-.333.43-.647.45-.942a.823.823 0 00-.306-.725.805.805 0 00-.711-.193c-.266.047-.536.182-.81.407a4.5 4.5 0 00-.816.846c-.263.347-.49.745-.683 1.194-.2.441-.352.902-.457 1.382l-2.456-.827a8.7 8.7 0 01.962-2.363 9.545 9.545 0 011.518-1.96 7.156 7.156 0 011.816-1.328c.627-.325 1.238-.486 1.832-.484a2.4 2.4 0 011.613.587c.416.35.692.773.828 1.27a2.975 2.975 0 01-.003 1.55c-.138.537-.417 1.055-.836 1.555l-.472-.503c.482-.574 1.001-.99 1.557-1.247.563-.265 1.117-.367 1.662-.307a2.612 2.612 0 011.49.633c.425.357.71.787.854 1.29.143.49.163 1.024.059 1.604a6.036 6.036 0 01-.632 1.767 8.684 8.684 0 01-1.19 1.747 9.767 9.767 0 01-1.678 1.57c-.63.464-1.314.856-2.05 1.175z" fill="url(#paint35_linear_366_1941)"/><path d="M42.887 48.47l-1.16-1.168-.437-.14-2.136-2.152c-.345-.347-.717-.505-1.117-.476-.4.014-.83.25-1.293.71-.3.298-.556.65-.765 1.057-.216.4-.348.79-.396 1.174l-2.221-.757c.125-.583.373-1.182.744-1.795a8.282 8.282 0 011.297-1.678c1.018-1.01 2.038-1.556 3.06-1.637 1.022-.096 2.027.353 3.015 1.348l3.456 3.482-2.047 2.032zm-1.748 1.942c-.5.497-1.01.834-1.525 1.008-.515.175-1.01.208-1.487.099a2.624 2.624 0 01-1.242-.72c-.383-.385-.615-.812-.698-1.281-.083-.485.007-1.003.27-1.555.256-.56.708-1.162 1.355-1.805l1.481-1.47 1.137 1.145-1.18 1.172c-.355.352-.548.658-.58.92a.806.806 0 00.252.67.789.789 0 00.679.244c.261-.03.519-.171.773-.424a1.74 1.74 0 00.476-.817c.078-.322.04-.653-.112-.991l1.105.51c.313.548.41 1.101.294 1.662-.118.545-.45 1.09-.998 1.633z" fill="url(#paint36_linear_366_1941)"/><path d="M49.105 42.536a6.301 6.301 0 01-1.742 1.038 4.18 4.18 0 01-1.854.265c-.627-.06-1.27-.283-1.928-.67-.65-.393-1.3-.983-1.95-1.77a9.308 9.308 0 01-1.067-1.572 6.447 6.447 0 01-.593-1.561 4.869 4.869 0 01-.092-1.595 5.32 5.32 0 01.463-1.588A7.39 7.39 0 0141.36 33.5l2.785-3.36 1.978 1.727-2.418 2.908c-.148.18-.306.38-.474.604-.16.216-.294.454-.403.714-.117.251-.19.53-.218.836-.021.3.033.628.16.988.13.344.361.717.693 1.119.097.117.181.21.252.279.072.053.15.122.235.207.077.077.189.203.334.38l-1.174-.066a4.488 4.488 0 01-.022-1.484c.084-.478.255-.937.513-1.375a4.647 4.647 0 011.065-1.22c.661-.546 1.338-.887 2.03-1.022a3.382 3.382 0 011.965.151c.627.23 1.176.629 1.646 1.198.554.67.865 1.387.931 2.15.06.754-.093 1.507-.457 2.26-.363.737-.922 1.418-1.675 2.04zm-1.432-1.861c.276-.229.466-.485.57-.768.113-.29.141-.589.085-.895a1.836 1.836 0 00-.406-.849 1.69 1.69 0 00-.747-.545 1.58 1.58 0 00-.863-.048c-.291.058-.575.2-.852.43a2.12 2.12 0 00-.606.775 1.62 1.62 0 00-.126.845c.035.281.16.552.374.811.215.26.471.45.768.57.298.122.603.158.916.11.315-.062.61-.208.887-.436z" fill="url(#paint37_linear_366_1941)"/><path d="M57.746 35.326c-.624.417-1.248.637-1.872.662-.63.015-1.246-.174-1.849-.569-.6-.41-1.19-1.048-1.769-1.915-.585-.877-.953-1.663-1.104-2.36-.157-.705-.11-1.337.143-1.898.262-.567.723-1.07 1.382-1.511a4.255 4.255 0 012.134-.738 3.984 3.984 0 012.179.446c.7.343 1.309.903 1.827 1.68.52.777.806 1.56.86 2.346a3.983 3.983 0 01-.423 2.184c-.337.669-.84 1.227-1.508 1.673zm-2.949 5.594l-6.66-9.977 2.453-1.638.832 1.247 1.607 2.436 1.765 2.35 2.579 3.863-2.576 1.72zm1.04-7.279a1.77 1.77 0 00.637-.719 1.71 1.71 0 00.157-.967c-.03-.359-.169-.724-.416-1.094-.248-.37-.531-.639-.85-.804a1.71 1.71 0 00-.955-.226 1.77 1.77 0 00-.908.313c-.29.193-.506.436-.65.728a1.857 1.857 0 00-.158.968c.04.352.182.714.43 1.084.247.37.526.642.837.814.32.165.637.24.954.225.325-.021.633-.129.922-.322z" fill="url(#paint38_linear_366_1941)"/><path d="M66.155 29.569l-.79-1.445-.381-.255-1.455-2.66c-.235-.43-.548-.686-.94-.768-.388-.098-.868.01-1.44.323a4.147 4.147 0 00-1.028.803 3.316 3.316 0 00-.707 1.018l-1.924-1.344c.283-.526.687-1.032 1.214-1.518a8.28 8.28 0 011.712-1.252c1.258-.688 2.39-.93 3.394-.723 1.009.191 1.85.902 2.522 2.132l2.354 4.305-2.531 1.384zm-2.218 1.38c-.62.339-1.201.52-1.745.545-.544.025-1.03-.081-1.456-.318a2.623 2.623 0 01-.994-1.036c-.26-.477-.365-.952-.315-1.425.055-.489.286-.962.692-1.419.401-.467 1.002-.92 1.803-1.357l1.83-1.001.775 1.415-1.46.798c-.438.24-.708.48-.811.723a.806.806 0 00.055.713c.13.238.325.38.585.423.259.044.546-.02.86-.192a1.74 1.74 0 00.684-.652c.165-.288.22-.616.168-.984l.92.798c.148.612.089 1.17-.18 1.677-.264.49-.734.921-1.411 1.292z" fill="url(#paint39_linear_366_1941)"/><path d="M71.51 26.46l-2.919-6.426.892.347-3.206 1.456-1.018-2.241 7.985-3.626 1.017 2.241-3.205 1.456.34-.907 2.918 6.426-2.805 1.274z" fill="url(#paint40_linear_366_1941)"/><path d="M79.873 16.05c1.112-.378 2.044-.428 2.797-.15.754.278 1.286.863 1.598 1.755.323.923.24 1.77-.251 2.54-.484.756-1.317 1.336-2.5 1.738l-4.524 1.582-2.916-8.34 2.908-1.016.904 2.585 1.984-.695zm.652 3.985c.348-.122.591-.3.729-.532.137-.232.147-.517.029-.856-.122-.348-.306-.56-.55-.636-.236-.079-.535-.06-.897.055l-1.323.462.683 1.954 1.329-.447z" fill="url(#paint41_linear_366_1941)"/><path d="M93.463 18.155a6.301 6.301 0 01-2.025.11 4.18 4.18 0 01-1.765-.628c-.528-.344-.993-.84-1.396-1.488-.392-.65-.694-1.475-.904-2.475a9.324 9.324 0 01-.214-1.887 6.451 6.451 0 01.2-1.658 4.87 4.87 0 01.66-1.455 5.33 5.33 0 011.148-1.191 7.39 7.39 0 011.637-.928l4.027-1.68.949 2.448-3.492 1.452c-.215.09-.448.194-.7.314a3.477 3.477 0 00-.69.444 2.55 2.55 0 00-.581.64c-.158.255-.263.571-.317.949-.045.365-.014.802.094 1.313.03.149.062.27.093.363.039.08.076.178.111.293.033.104.073.268.12.491l-1.01-.603c.162-.5.385-.942.671-1.324a4.103 4.103 0 011.093-.98 4.645 4.645 0 011.51-.584c.84-.177 1.597-.165 2.273.037.673.192 1.23.54 1.67 1.048.448.494.748 1.103.9 1.826.18.85.121 1.629-.174 2.335-.298.696-.783 1.292-1.456 1.79-.664.483-1.474.826-2.431 1.028zm-.403-2.314c.35-.074.638-.212.862-.415.234-.204.398-.456.49-.753.094-.297.105-.61.036-.94a1.69 1.69 0 00-.408-.83 1.58 1.58 0 00-.743-.443 1.923 1.923 0 00-.953-.016 2.12 2.12 0 00-.897.405 1.62 1.62 0 00-.505.69c-.1.265-.114.562-.045.892.07.33.208.617.415.862s.46.42.76.523c.307.09.637.099.988.025z" fill="url(#paint42_linear_366_1941)"/><path d="M98.967 16.197l-.918-8.787 3.064-.32.481 4.604 3.199-4.988 2.837-.296.918 8.786-3.08.322-.483-4.62-3.165 5.001-2.853.298z" fill="url(#paint43_linear_366_1941)"/><path d="M108.912 14.617l.101-2.528.213.03.179-.002c.272-.003.483-.07.633-.203a1.22 1.22 0 00.352-.574 3.5 3.5 0 00.17-.833c.04-.327.063-.68.069-1.06l.088-3.686 7.986-.092.102 8.833-3.096.036-.082-7.073.692.693-3.536.04.643-.74-.073 2.087a17.794 17.794 0 01-.187 2.17c-.091.642-.242 1.193-.454 1.652a2.54 2.54 0 01-.884 1.07c-.367.243-.838.368-1.414.375a4.307 4.307 0 01-.701-.057 8.382 8.382 0 01-.801-.138z" fill="url(#paint44_linear_366_1941)"/><path d="M131.532 14.827l1.083-6.974.555.779-3.479-.54.378-2.433 8.665 1.346-.377 2.432-3.479-.54.781-.572-1.082 6.974-3.045-.472z" fill="url(#paint45_linear_366_1941)"/><path d="M155.124 18.517l1.812-1.665c.342.43.729.814 1.16 1.153.43.339.869.621 1.315.848.446.226.87.383 1.272.47.417.082.774.083 1.073.004a.943.943 0 00.643-.55c.144-.316.114-.605-.091-.864-.19-.265-.497-.495-.923-.688l-2.656-1.206.977-2.152 2.419 1.098c.396.18.738.24 1.028.18a.822.822 0 00.616-.49.807.807 0 00-.005-.736c-.116-.243-.319-.467-.609-.67-.285-.213-.63-.4-1.035-.56a5.65 5.65 0 00-1.333-.336 6.876 6.876 0 00-1.454-.07l.137-2.587a8.695 8.695 0 012.534.292 9.544 9.544 0 012.297.935c.7.402 1.289.866 1.766 1.393.481.517.801 1.062.958 1.634a2.398 2.398 0 01-.132 1.712 2.492 2.492 0 01-1.001 1.14 2.97 2.97 0 01-1.494.413c-.554.01-1.128-.119-1.722-.388l.357-.59c.683.31 1.223.698 1.62 1.165.406.471.654.977.742 1.519a2.609 2.609 0 01-.21 1.605 2.588 2.588 0 01-1.014 1.169c-.432.269-.942.431-1.528.487a6.04 6.04 0 01-1.872-.134 8.672 8.672 0 01-2.002-.676 9.77 9.77 0 01-1.964-1.196 10.486 10.486 0 01-1.681-1.659z" fill="url(#paint46_linear_366_1941)"/><path d="M169.4 25.981l.811-1.432.016-.46 1.494-2.638c.241-.425.293-.826.157-1.203-.122-.381-.466-.732-1.034-1.053a4.144 4.144 0 00-1.225-.45 3.315 3.315 0 00-1.237-.064l.128-2.344c.596-.037 1.239.04 1.93.23a8.29 8.29 0 011.966.796c1.248.706 2.049 1.54 2.404 2.503.369.958.208 2.047-.483 3.267l-2.417 4.27-2.51-1.422zm-2.342-1.157c-.615-.348-1.076-.747-1.384-1.195-.307-.45-.473-.918-.497-1.406a2.62 2.62 0 01.357-1.39c.267-.473.616-.812 1.045-1.019.444-.21.967-.264 1.57-.16.608.095 1.31.367 2.104.817l1.816 1.027-.795 1.405-1.447-.82c-.435-.246-.783-.349-1.043-.309a.806.806 0 00-.576.423.79.79 0 00-.052.72c.1.244.305.454.617.63.293.166.598.245.915.237.332-.012.64-.137.925-.375l-.194 1.201c-.441.45-.948.694-1.519.732-.557.035-1.171-.138-1.842-.518z" fill="url(#paint47_linear_366_1941)"/><path d="M177.496 30.805a6.294 6.294 0 01-1.465-1.403 4.177 4.177 0 01-.748-1.718c-.11-.62-.066-1.299.132-2.036.206-.73.602-1.515 1.188-2.351a9.355 9.355 0 011.231-1.447 6.447 6.447 0 011.347-.987c.485-.257.99-.428 1.513-.513a5.336 5.336 0 011.655.024 7.4 7.4 0 011.796.56l3.979 1.791-1.139 2.366-3.446-1.556a16.477 16.477 0 00-.708-.297 3.466 3.466 0 00-.796-.198 2.544 2.544 0 00-.864.012c-.294.06-.597.199-.909.418-.297.216-.596.538-.895.965-.087.125-.154.23-.201.317a2.026 2.026 0 01-.138.282 5.389 5.389 0 01-.276.423l-.25-1.15c.475-.224.95-.363 1.425-.415a4.1 4.1 0 011.462.128c.491.131.977.366 1.458.702.703.492 1.212 1.054 1.527 1.685a3.38 3.38 0 01.376 1.935c-.054.665-.293 1.3-.717 1.905-.498.713-1.106 1.202-1.823 1.47-.712.258-1.479.311-2.301.16-.808-.154-1.612-.511-2.413-1.072zm1.412-1.876c.294.205.592.32.892.345.31.031.605-.02.886-.156.28-.135.517-.34.71-.617.199-.285.308-.573.327-.865a1.582 1.582 0 00-.184-.845 1.926 1.926 0 00-.64-.707 2.124 2.124 0 00-.909-.378 1.62 1.62 0 00-.848.103c-.262.109-.489.301-.683.577a1.924 1.924 0 00-.345.892c-.038.319.008.623.137.912.145.287.364.533.657.739z" fill="url(#paint48_linear_366_1941)"/><path d="M186.167 36.768c-.569-.488-.949-1.03-1.141-1.623-.185-.603-.169-1.248.049-1.935.232-.688.688-1.428 1.367-2.22.686-.8 1.344-1.366 1.974-1.7.637-.341 1.259-.466 1.867-.373.616.099 1.226.407 1.828.923a4.254 4.254 0 011.286 1.855c.262.712.315 1.452.158 2.22-.142.765-.517 1.503-1.125 2.212-.609.71-1.284 1.197-2.027 1.461a3.983 3.983 0 01-2.217.181c-.736-.144-1.408-.477-2.019-1.001zm-6.182-1.33l7.812-9.106 2.239 1.921-.977 1.139-1.912 2.203-1.786 2.333-3.025 3.526-2.351-2.017zm7.29-.963c.264.227.552.367.864.42.321.06.646.024.975-.11.337-.125.65-.357.94-.695.291-.339.472-.684.545-1.036a1.7 1.7 0 00-.04-.98 1.77 1.77 0 00-.546-.79 1.859 1.859 0 00-.876-.43 1.863 1.863 0 00-.975.109c-.329.133-.638.369-.928.707-.29.338-.476.68-.557 1.025-.074.352-.06.679.04.98.108.307.294.574.558.8z" fill="url(#paint49_linear_366_1941)"/><path d="M193.934 43.257l1.177-1.152.143-.436 2.167-2.12c.35-.342.511-.713.485-1.113-.011-.4-.245-.833-.701-1.299a4.137 4.137 0 00-1.052-.772 3.31 3.31 0 00-1.171-.405l.774-2.216c.582.13 1.179.382 1.789.758a8.273 8.273 0 011.669 1.309c1.003 1.025 1.541 2.049 1.615 3.072.088 1.023-.368 2.024-1.37 3.005l-3.507 3.43-2.018-2.061zm-1.928-1.762c-.494-.505-.827-1.015-.998-1.532-.171-.517-.2-1.013-.087-1.488.12-.468.363-.88.728-1.237.388-.38.817-.61 1.287-.689.485-.08 1.002.015 1.553.282.558.26 1.156.716 1.794 1.368l1.459 1.491-1.153 1.129-1.163-1.188c-.349-.358-.655-.553-.915-.587a.807.807 0 00-.672.247.788.788 0 00-.249.677c.028.261.167.52.418.777.236.24.507.401.813.481a1.5 1.5 0 00.992-.104l-.519 1.1c-.549.31-1.103.404-1.663.282-.544-.121-1.086-.457-1.625-1.009z" fill="url(#paint50_linear_366_1941)"/><path d="M198.815 48.047l5.406-4.536-.095.951-2.263-2.697 1.885-1.582 5.637 6.718-1.885 1.582-2.263-2.697.964.084-5.406 4.537-1.98-2.36z" fill="url(#paint51_linear_366_1941)"/><path d="M210.932 53.114c.664.968.964 1.852.901 2.652-.063.8-.482 1.472-1.257 2.014-.801.56-1.639.71-2.513.446-.859-.261-1.642-.907-2.35-1.937l-2.747-3.926 7.238-5.065 1.766 2.523-2.243 1.57 1.205 1.723zm-3.66 1.706c.212.303.448.49.709.559.261.07.538.001.832-.204.302-.212.457-.447.463-.703.013-.247-.086-.53-.295-.848l-.804-1.148-1.696 1.187.791 1.157z" fill="url(#paint52_linear_366_1941)"/><path d="M212.71 67.01a6.284 6.284 0 01-.655-1.921 4.185 4.185 0 01.126-1.869c.188-.601.54-1.183 1.055-1.747.519-.554 1.232-1.067 2.137-1.54a9.284 9.284 0 011.758-.718 6.456 6.456 0 011.651-.256 4.87 4.87 0 011.579.24c.508.176.994.437 1.458.783a7.38 7.38 0 011.336 1.325l2.709 3.42-2.1 1.577-2.343-2.968a17.889 17.889 0 00-.492-.589 3.499 3.499 0 00-.615-.543 2.555 2.555 0 00-.773-.387 2.453 2.453 0 00-1-.047c-.363.055-.776.204-1.238.445-.135.07-.243.134-.325.189-.067.06-.151.121-.252.186a5.92 5.92 0 01-.44.25l.307-1.137a4.52 4.52 0 011.457.287c.45.182.863.444 1.239.787.375.343.699.774.971 1.294.398.761.591 1.494.58 2.199-.002.7-.187 1.33-.556 1.891-.354.566-.859 1.02-1.514 1.362-.77.403-1.535.558-2.295.465-.75-.098-1.456-.404-2.116-.917-.646-.508-1.196-1.195-1.649-2.062zm2.117-1.017c.167.318.377.557.633.718.261.17.547.26.858.269a1.85 1.85 0 00.915-.221 1.69 1.69 0 00.688-.618c.151-.25.226-.529.226-.835a1.93 1.93 0 00-.243-.922 2.12 2.12 0 00-.634-.754 1.621 1.621 0 00-.8-.299 1.574 1.574 0 00-.871.199 1.926 1.926 0 00-.718.632c-.18.266-.279.557-.297.873-.004.321.077.64.243.958z" fill="url(#paint53_linear_366_1941)"/><path d="M215.77 71.136l8.199-3.288 1.147 2.859-4.297 1.723 5.674 1.71 1.062 2.648-8.199 3.289-1.153-2.874 4.311-1.73-5.676-1.674-1.068-2.663z" fill="url(#paint54_linear_366_1941)"/><path d="M220.233 80.802l2.462-.582.028.212.05.173c.076.26.198.445.366.555.181.117.397.179.648.185.254.016.537-.004.848-.06.326-.05.672-.123 1.04-.219l3.573-.905 2.235 7.667-8.481 2.472-.867-2.973 6.792-1.98-.482.854-.989-3.396.886.421-2.03.49a17.76 17.76 0 01-2.141.403c-.643.085-1.214.088-1.713.007a2.54 2.54 0 01-1.268-.564c-.332-.288-.579-.709-.741-1.261a4.372 4.372 0 01-.133-.692 8.444 8.444 0 01-.083-.807z" fill="url(#paint55_linear_366_1941)"/><path d="M224.338 95.337c-.203-1.023-.189-1.957.042-2.8.244-.836.659-1.533 1.246-2.093.599-.55 1.331-.912 2.194-1.084.863-.171 1.671-.121 2.423.15.765.28 1.406.746 1.923 1.397.527.648.881 1.425 1.061 2.331.169.853.148 1.666-.064 2.44a4.056 4.056 0 01-1.185 1.98c-.589.549-1.363.918-2.322 1.11-.107.02-.23.04-.371.056-.141.017-.271.032-.39.044l-1.363-6.858 1.599-.318 1.042 5.244-.677-1.062c.397-.068.723-.21.979-.427.258-.207.44-.464.545-.773a1.83 1.83 0 00.052-.99 1.92 1.92 0 00-.43-.912 1.664 1.664 0 00-.812-.487c-.317-.093-.673-.1-1.067-.021l-.464.092c-.426.085-.777.243-1.052.475a1.891 1.891 0 00-.567.91c-.094.363-.096.773-.005 1.231.085.426.215.777.392 1.052.189.284.441.55.756.797l-1.345 1.93a4.2 4.2 0 01-1.36-1.326c-.355-.56-.615-1.257-.78-2.088z" fill="url(#paint56_linear_366_1941)"/><path d="M226.022 102.397l7.007-.842-.6.746-.419-3.496 2.443-.294 1.046 8.707-2.444.294-.42-3.496.762.598-7.008.841-.367-3.058z" fill="url(#paint57_linear_366_1941)"/><defs><linearGradient id="paint0_linear_366_1941" x1="241.492" y1="126.426" x2="225.56" y2="124.947" gradientUnits="userSpaceOnUse"><stop stop-color="#0145D4"/></linearGradient><linearGradient id="paint1_linear_366_1941" x1="238.452" y1="148.396" x2="223.041" y2="144.094" gradientUnits="userSpaceOnUse"><stop stop-color="#0145D4"/></linearGradient><linearGradient id="paint2_linear_366_1941" x1="235.354" y1="159.434" x2="220.46" y2="153.589" gradientUnits="userSpaceOnUse"><stop stop-color="#0145D4"/></linearGradient><linearGradient id="paint3_linear_366_1941" x1="231.302" y1="169.799" x2="216.99" y2="162.647" gradientUnits="userSpaceOnUse"><stop stop-color="#0145D4"/></linearGradient><linearGradient id="paint4_linear_366_1941" x1="226.481" y1="179.356" x2="212.765" y2="171.117" gradientUnits="userSpaceOnUse"><stop stop-color="#0145D4"/></linearGradient><linearGradient id="paint5_linear_366_1941" x1="221.455" y1="187.677" x2="208.516" y2="178.265" gradientUnits="userSpaceOnUse"><stop stop-color="#0145D4"/></linearGradient><linearGradient id="paint6_linear_366_1941" x1="212.16" y1="199.892" x2="200.522" y2="188.912" gradientUnits="userSpaceOnUse"><stop stop-color="#0145D4"/></linearGradient><linearGradient id="paint7_linear_366_1941" x1="204.299" y1="208.204" x2="193.837" y2="196.099" gradientUnits="userSpaceOnUse"><stop stop-color="#0145D4"/></linearGradient><linearGradient id="paint8_linear_366_1941" x1="195.197" y1="216.017" x2="185.88" y2="203.01" gradientUnits="userSpaceOnUse"><stop stop-color="#0145D4"/></linearGradient><linearGradient id="paint9_linear_366_1941" x1="186.345" y1="222.305" x2="178.207" y2="208.529" gradientUnits="userSpaceOnUse"><stop stop-color="#0145D4"/></linearGradient><linearGradient id="paint10_linear_366_1941" x1="177.575" y1="227.427" x2="170.529" y2="213.062" gradientUnits="userSpaceOnUse"><stop stop-color="#0145D4"/></linearGradient><linearGradient id="paint11_linear_366_1941" x1="156.858" y1="236.154" x2="152.849" y2="220.665" gradientUnits="userSpaceOnUse"><stop stop-color="#0145D4"/></linearGradient><linearGradient id="paint12_linear_366_1941" x1="146.36" y1="238.887" x2="143.724" y2="223.105" gradientUnits="userSpaceOnUse"><stop stop-color="#0145D4"/></linearGradient><linearGradient id="paint13_linear_366_1941" x1="134.872" y1="240.746" x2="133.7" y2="224.788" gradientUnits="userSpaceOnUse"><stop stop-color="#0145D4"/></linearGradient><linearGradient id="paint14_linear_366_1941" x1="123.077" y1="241.558" x2="123.571" y2="225.566" gradientUnits="userSpaceOnUse"><stop stop-color="#0145D4"/></linearGradient><linearGradient id="paint15_linear_366_1941" x1="112.026" y1="241.235" x2="113.933" y2="225.349" gradientUnits="userSpaceOnUse"><stop stop-color="#0145D4"/></linearGradient><linearGradient id="paint16_linear_366_1941" x1="101.472" y1="239.934" x2="104.59" y2="224.241" gradientUnits="userSpaceOnUse"><stop stop-color="#0145D4"/></linearGradient><linearGradient id="paint17_linear_366_1941" x1="91.956" y1="238.015" x2="96.432" y2="222.654" gradientUnits="userSpaceOnUse"><stop stop-color="#0145D4"/></linearGradient><linearGradient id="paint18_linear_366_1941" x1="77.281" y1="233.382" x2="83.733" y2="218.741" gradientUnits="userSpaceOnUse"><stop stop-color="#0145D4"/></linearGradient><linearGradient id="paint19_linear_366_1941" x1="66.906" y1="228.802" x2="74.789" y2="214.879" gradientUnits="userSpaceOnUse"><stop stop-color="#0145D4"/></linearGradient><linearGradient id="paint20_linear_366_1941" x1="56.489" y1="222.849" x2="65.615" y2="209.707" gradientUnits="userSpaceOnUse"><stop stop-color="#0145D4"/></linearGradient><linearGradient id="paint21_linear_366_1941" x1="47.63" y1="216.645" x2="57.87" y2="204.352" gradientUnits="userSpaceOnUse"><stop stop-color="#0145D4"/></linearGradient><linearGradient id="paint22_linear_366_1941" x1="39.887" y1="210.127" x2="51.035" y2="198.65" gradientUnits="userSpaceOnUse"><stop stop-color="#0145D4"/></linearGradient><linearGradient id="paint23_linear_366_1941" x1="22.142" y1="190.081" x2="35.673" y2="181.541" gradientUnits="userSpaceOnUse"><stop stop-color="#0145D4"/></linearGradient><linearGradient id="paint24_linear_366_1941" x1="16.329" y1="180.919" x2="30.562" y2="173.608" gradientUnits="userSpaceOnUse"><stop stop-color="#0145D4"/></linearGradient><linearGradient id="paint25_linear_366_1941" x1="11.093" y1="170.66" x2="25.943" y2="164.704" gradientUnits="userSpaceOnUse"><stop stop-color="#0145D4"/></linearGradient><linearGradient id="paint26_linear_366_1941" x1="6.855" y1="160.074" x2="22.233" y2="155.656" gradientUnits="userSpaceOnUse"><stop stop-color="#0145D4"/></linearGradient><linearGradient id="paint27_linear_366_1941" x1="3.812" y1="149.591" x2="19.517" y2="146.533" gradientUnits="userSpaceOnUse"><stop stop-color="#0145D4"/></linearGradient><linearGradient id="paint28_linear_366_1941" x1="1.815" y1="139.162" x2="17.708" y2="137.316" gradientUnits="userSpaceOnUse"><stop stop-color="#0145D4"/></linearGradient><linearGradient id="paint29_linear_366_1941" x1=".707" y1="129.4" x2="16.701" y2="128.968" gradientUnits="userSpaceOnUse"><stop stop-color="#0145D4"/></linearGradient><linearGradient id="paint30_linear_366_1941" x1=".623" y1="113.626" x2="16.537" y2="115.289" gradientUnits="userSpaceOnUse"><stop stop-color="#0145D4"/></linearGradient><linearGradient id="paint31_linear_366_1941" x1="1.781" y1="102.432" x2="17.451" y2="105.669" gradientUnits="userSpaceOnUse"><stop stop-color="#0145D4"/></linearGradient><linearGradient id="paint32_linear_366_1941" x1="4.246" y1="90.63" x2="19.538" y2="95.339" gradientUnits="userSpaceOnUse"><stop stop-color="#0145D4"/></linearGradient><linearGradient id="paint33_linear_366_1941" x1="7.517" y1="80.084" x2="22.322" y2="86.151" gradientUnits="userSpaceOnUse"><stop stop-color="#0145D4"/></linearGradient><linearGradient id="paint34_linear_366_1941" x1="11.204" y1="71.1" x2="25.517" y2="78.252" gradientUnits="userSpaceOnUse"><stop stop-color="#0145D4"/></linearGradient><linearGradient id="paint35_linear_366_1941" x1="24.746" y1="48.239" x2="37.002" y2="58.523" gradientUnits="userSpaceOnUse"><stop stop-color="#0145D4"/></linearGradient><linearGradient id="paint36_linear_366_1941" x1="32.111" y1="39.44" x2="43.384" y2="50.795" gradientUnits="userSpaceOnUse"><stop stop-color="#0145D4"/></linearGradient><linearGradient id="paint37_linear_366_1941" x1="39.956" y1="31.639" x2="50.151" y2="43.97" gradientUnits="userSpaceOnUse"><stop stop-color="#0145D4"/></linearGradient><linearGradient id="paint38_linear_366_1941" x1="49.133" y1="24.067" x2="58.017" y2="37.373" gradientUnits="userSpaceOnUse"><stop stop-color="#0145D4"/></linearGradient><linearGradient id="paint39_linear_366_1941" x1="58.31" y1="17.902" x2="65.987" y2="31.94" gradientUnits="userSpaceOnUse"><stop stop-color="#0145D4"/></linearGradient><linearGradient id="paint40_linear_366_1941" x1="67.113" y1="13.081" x2="73.728" y2="27.649" gradientUnits="userSpaceOnUse"><stop stop-color="#0145D4"/></linearGradient><linearGradient id="paint41_linear_366_1941" x1="76.165" y1="8.973" x2="81.447" y2="24.076" gradientUnits="userSpaceOnUse"><stop stop-color="#0145D4"/></linearGradient><linearGradient id="paint42_linear_366_1941" x1="90.425" y1="4.254" x2="93.723" y2="19.911" gradientUnits="userSpaceOnUse"><stop stop-color="#0145D4"/></linearGradient><linearGradient id="paint43_linear_366_1941" x1="102.301" y1="1.773" x2="103.963" y2="17.686" gradientUnits="userSpaceOnUse"><stop stop-color="#0145D4"/></linearGradient><linearGradient id="paint44_linear_366_1941" x1="114.142" y1=".556" x2="114.328" y2="16.554" gradientUnits="userSpaceOnUse"><stop stop-color="#0145D4"/></linearGradient><linearGradient id="paint45_linear_366_1941" x1="135.191" y1="1.227" x2="132.736" y2="17.038" gradientUnits="userSpaceOnUse"><stop stop-color="#0145D4"/></linearGradient><linearGradient id="paint46_linear_366_1941" x1="165.194" y1="8.681" x2="158.579" y2="23.249" gradientUnits="userSpaceOnUse"><stop stop-color="#0145D4"/></linearGradient><linearGradient id="paint47_linear_366_1941" x1="175.179" y1="13.165" x2="167.296" y2="27.088" gradientUnits="userSpaceOnUse"><stop stop-color="#0145D4"/></linearGradient><linearGradient id="paint48_linear_366_1941" x1="185.565" y1="19.086" x2="176.391" y2="32.194" gradientUnits="userSpaceOnUse"><stop stop-color="#0145D4"/></linearGradient><linearGradient id="paint49_linear_366_1941" x1="194.687" y1="25.438" x2="184.269" y2="37.581" gradientUnits="userSpaceOnUse"><stop stop-color="#0145D4"/></linearGradient><linearGradient id="paint50_linear_366_1941" x1="203.042" y1="32.547" x2="191.606" y2="43.737" gradientUnits="userSpaceOnUse"><stop stop-color="#0145D4"/></linearGradient><linearGradient id="paint51_linear_366_1941" x1="210.522" y1="40.219" x2="198.265" y2="50.504" gradientUnits="userSpaceOnUse"><stop stop-color="#0145D4"/></linearGradient><linearGradient id="paint52_linear_366_1941" x1="216.74" y1="47.628" x2="203.631" y2="56.802" gradientUnits="userSpaceOnUse"><stop stop-color="#0145D4"/></linearGradient><linearGradient id="paint53_linear_366_1941" x1="225.267" y1="60.319" x2="211.09" y2="67.734" gradientUnits="userSpaceOnUse"><stop stop-color="#0145D4"/></linearGradient><linearGradient id="paint54_linear_366_1941" x1="230.556" y1="70.393" x2="215.706" y2="76.349" gradientUnits="userSpaceOnUse"><stop stop-color="#0145D4"/></linearGradient><linearGradient id="paint55_linear_366_1941" x1="235.183" y1="82.062" x2="219.822" y2="86.538" gradientUnits="userSpaceOnUse"><stop stop-color="#0145D4"/></linearGradient><linearGradient id="paint56_linear_366_1941" x1="238.155" y1="92.288" x2="222.462" y2="95.405" gradientUnits="userSpaceOnUse"><stop stop-color="#0145D4"/></linearGradient><linearGradient id="paint57_linear_366_1941" x1="240.104" y1="102.246" x2="224.219" y2="104.153" gradientUnits="userSpaceOnUse"><stop stop-color="#0145D4"/></linearGradient></defs></svg>