<svg width="21" height="23" fill="none" xmlns="http://www.w3.org/2000/svg"><path d="M1.341.845a1.72 1.72 0 00-.395 1.2v18.914a1.73 1.73 0 00.395 1.2l.065.064 10.592-10.6v-.25L1.406.78 1.34.845z" fill="url(#paint0_linear_366_2671)"/><path d="M15.531 15.156l-3.533-3.533v-.251l3.533-3.526.08.043 4.186 2.377c1.2.675 1.2 1.788 0 2.47l-4.187 2.377-.079.043z" fill="url(#paint1_linear_366_2671)"/><path d="M15.61 15.114l-3.59-3.591L1.34 22.158a1.437 1.437 0 001.76.05l12.488-7.094" fill="url(#paint2_linear_366_2671)"/><path d="M15.61 7.89L3.1.786a1.386 1.386 0 00-1.76.058L11.999 11.5l3.611-3.61z" fill="url(#paint3_linear_366_2671)"/><path opacity=".1" d="M15.53 15.034L3.1 22.086a1.437 1.437 0 01-1.716 0l-.065.065.065.064a1.436 1.436 0 001.716 0l12.488-7.095-.057-.086z" fill="#000"/><path opacity=".07" d="M1.341 22.043a1.745 1.745 0 01-.395-1.206v.122a1.73 1.73 0 00.395 1.2l.065-.065-.065-.05zm18.456-9.436l-4.266 2.428.08.078 4.186-2.405a1.516 1.516 0 00.897-1.235 1.587 1.587 0 01-.897 1.134z" fill="#000"/><path opacity=".3" d="M3.1.916l16.697 9.472a1.58 1.58 0 01.897 1.113 1.5 1.5 0 00-.897-1.235L3.1.787C1.923.112.946.672.946 2.044v.122C.946.8 1.923.234 3.101.916z" fill="#fff"/><defs><linearGradient id="paint0_linear_366_2671" x1="11.064" y1="1.843" x2="-3.291" y2="16.198" gradientUnits="userSpaceOnUse"><stop stop-color="#008EFF"/><stop offset=".01" stop-color="#008FFF"/><stop offset=".26" stop-color="#00ACFF"/><stop offset=".51" stop-color="#00C0FF"/><stop offset=".76" stop-color="#00CDFF"/><stop offset="1" stop-color="#00D1FF"/></linearGradient><linearGradient id="paint1_linear_366_2671" x1="19.94" y1="11.501" x2="-.756" y2="11.501" gradientUnits="userSpaceOnUse"><stop stop-color="#FFD800"/><stop offset="1" stop-color="#FF8A00"/></linearGradient><linearGradient id="paint2_linear_366_2671" x1="13.649" y1="13.462" x2="-5.811" y2="32.923" gradientUnits="userSpaceOnUse"><stop stop-color="#FF3A44"/><stop offset="1" stop-color="#B11162"/></linearGradient><linearGradient id="paint3_linear_366_2671" x1="-1.345" y1="-5.453" x2="7.351" y2="3.236" gradientUnits="userSpaceOnUse"><stop stop-color="#328E71"/><stop offset=".07" stop-color="#2D9571"/><stop offset=".48" stop-color="#15BD74"/><stop offset=".8" stop-color="#06D575"/><stop offset="1" stop-color="#00DE76"/></linearGradient></defs></svg>