<svg width="242" height="242" viewBox="0 0 242 242" fill="none" xmlns="http://www.w3.org/2000/svg">
<path d="M228.9 120.133L231.067 121.3C230.773 121.763 230.536 122.254 230.357 122.773C230.178 123.291 230.055 123.798 229.987 124.293C229.919 124.789 229.91 125.241 229.959 125.649C230.018 126.07 230.134 126.408 230.307 126.664C230.48 126.92 230.723 127.063 231.037 127.092C231.383 127.124 231.645 127.001 231.824 126.723C232.012 126.457 232.128 126.091 232.171 125.626L232.441 122.72L234.794 122.939L234.549 125.584C234.508 126.017 234.564 126.361 234.715 126.615C234.866 126.869 235.087 127.009 235.38 127.036C235.661 127.063 235.892 126.98 236.074 126.79C236.266 126.6 236.41 126.336 236.508 125.995C236.615 125.656 236.679 125.269 236.697 124.834C236.716 124.399 236.676 123.943 236.579 123.465C236.492 122.987 236.355 122.522 236.168 122.068L238.658 121.349C238.965 122.153 239.15 122.983 239.212 123.84C239.274 124.697 239.231 125.522 239.081 126.316C238.93 127.11 238.685 127.818 238.343 128.441C238.012 129.065 237.602 129.545 237.113 129.882C236.622 130.229 236.068 130.374 235.452 130.317C234.911 130.267 234.443 130.076 234.048 129.745C233.653 129.414 233.36 128.988 233.168 128.468C232.976 127.948 232.91 127.364 232.97 126.715L233.645 126.859C233.575 127.606 233.385 128.243 233.074 128.771C232.762 129.309 232.365 129.709 231.883 129.969C231.41 130.242 230.881 130.351 230.297 130.297C229.745 130.246 229.266 130.054 228.861 129.722C228.465 129.401 228.145 128.973 227.9 128.438C227.655 127.902 227.492 127.298 227.413 126.624C227.322 125.961 227.316 125.257 227.396 124.511C227.466 123.765 227.628 123.016 227.883 122.265C228.137 121.524 228.476 120.814 228.9 120.133Z" fill="url(#paint0_linear_366_1941)"/>
<path d="M224.718 144.675C224.911 143.984 225.19 143.368 225.556 142.827C225.918 142.296 226.375 141.871 226.927 141.551C227.476 141.242 228.131 141.058 228.892 141C229.65 140.952 230.521 141.065 231.505 141.34C232.164 141.524 232.755 141.751 233.277 142.021C233.8 142.291 234.259 142.605 234.656 142.964C235.059 143.336 235.388 143.755 235.642 144.221C235.892 144.697 236.068 145.22 236.168 145.789C236.269 146.359 236.291 146.986 236.236 147.67L235.868 152.018L233.258 151.729L233.582 147.961C233.602 147.73 233.617 147.474 233.627 147.195C233.634 146.926 233.609 146.654 233.55 146.378C233.502 146.106 233.403 145.835 233.252 145.567C233.098 145.31 232.866 145.071 232.556 144.849C232.253 144.64 231.85 144.465 231.348 144.325C231.202 144.284 231.08 144.256 230.983 144.24C230.893 144.238 230.789 144.226 230.671 144.204C230.564 144.185 230.4 144.145 230.18 144.084L231.182 143.466C231.551 143.84 231.839 144.242 232.046 144.673C232.251 145.113 232.372 145.587 232.411 146.094C232.45 146.602 232.391 147.138 232.233 147.703C232.002 148.53 231.641 149.196 231.15 149.702C230.67 150.211 230.103 150.544 229.45 150.7C228.805 150.87 228.126 150.855 227.415 150.656C226.577 150.423 225.914 150.012 225.423 149.424C224.944 148.838 224.639 148.133 224.508 147.307C224.385 146.494 224.455 145.616 224.718 144.675ZM226.957 145.384C226.861 145.729 226.851 146.048 226.927 146.34C227.001 146.643 227.148 146.904 227.368 147.124C227.589 147.343 227.862 147.498 228.186 147.589C228.521 147.682 228.829 147.689 229.111 147.61C229.393 147.531 229.638 147.379 229.847 147.155C230.053 146.942 230.205 146.663 230.301 146.318C230.398 145.972 230.416 145.644 230.356 145.334C230.293 145.035 230.166 144.779 229.977 144.569C229.788 144.358 229.531 144.207 229.206 144.117C228.882 144.026 228.563 144.016 228.25 144.087C227.937 144.157 227.666 144.301 227.435 144.519C227.213 144.75 227.054 145.039 226.957 145.384Z" fill="url(#paint1_linear_366_1941)"/>
<path d="M221.852 155.114C222.126 154.416 222.512 153.879 223.01 153.502C223.518 153.13 224.132 152.933 224.853 152.912C225.579 152.905 226.428 153.092 227.399 153.473C228.38 153.858 229.132 154.293 229.653 154.778C230.185 155.267 230.508 155.814 230.621 156.419C230.729 157.033 230.639 157.71 230.349 158.448C230.056 159.197 229.613 159.805 229.02 160.273C228.434 160.755 227.753 161.048 226.977 161.152C226.207 161.27 225.387 161.159 224.517 160.817C223.647 160.476 222.965 159.998 222.471 159.384C221.972 158.78 221.672 158.102 221.57 157.35C221.465 156.608 221.559 155.862 221.852 155.114ZM221.076 148.838L232.243 153.221L231.165 155.967L229.77 155.419L227.059 154.338L224.269 153.418L219.944 151.721L221.076 148.838ZM224.382 155.406C224.255 155.73 224.217 156.048 224.27 156.36C224.318 156.683 224.46 156.978 224.693 157.244C224.923 157.521 225.245 157.741 225.66 157.904C226.075 158.067 226.461 158.125 226.818 158.078C227.17 158.041 227.474 157.921 227.729 157.718C227.98 157.525 228.169 157.266 228.296 156.942C228.423 156.619 228.463 156.296 228.414 155.973C228.362 155.661 228.22 155.366 227.991 155.089C227.757 154.822 227.433 154.607 227.018 154.444C226.603 154.282 226.219 154.219 225.866 154.255C225.51 154.302 225.206 154.422 224.955 154.615C224.7 154.819 224.509 155.082 224.382 155.406Z" fill="url(#paint2_linear_366_1941)"/>
<path d="M218.204 164.691L219.677 165.427L220.136 165.42L222.848 166.775C223.286 166.993 223.689 167.025 224.058 166.869C224.432 166.728 224.765 166.366 225.057 165.783C225.246 165.404 225.375 164.988 225.443 164.536C225.52 164.089 225.52 163.676 225.442 163.297L227.79 163.304C227.858 163.897 227.814 164.543 227.659 165.243C227.508 165.957 227.278 166.625 226.967 167.248C226.326 168.531 225.534 169.374 224.591 169.778C223.653 170.196 222.558 170.091 221.304 169.465L216.915 167.272L218.204 164.691ZM219.239 162.293C219.555 161.661 219.929 161.18 220.361 160.849C220.794 160.518 221.253 160.329 221.739 160.28C222.22 160.241 222.689 160.336 223.146 160.564C223.632 160.807 223.989 161.137 224.217 161.555C224.451 161.988 224.531 162.508 224.458 163.115C224.395 163.727 224.16 164.442 223.752 165.258L222.819 167.125L221.376 166.403L222.119 164.916C222.342 164.469 222.427 164.117 222.374 163.859C222.315 163.611 222.165 163.427 221.922 163.305C221.679 163.184 221.438 163.179 221.2 163.291C220.962 163.403 220.763 163.619 220.602 163.94C220.452 164.241 220.389 164.55 220.413 164.866C220.442 165.196 220.583 165.497 220.836 165.769L219.626 165.638C219.155 165.221 218.885 164.727 218.817 164.159C218.753 163.605 218.894 162.983 219.239 162.293Z" fill="url(#paint3_linear_366_1941)"/>
<path d="M215.267 170.836L221.317 174.47L220.386 174.691L222.199 171.673L224.309 172.94L219.793 180.457L217.684 179.19L219.497 176.172L219.731 177.111L213.681 173.477L215.267 170.836Z" fill="url(#paint4_linear_366_1941)"/>
<path d="M214.378 183.969C213.679 184.912 212.94 185.483 212.163 185.684C211.386 185.884 210.615 185.706 209.85 185.15C209.059 184.575 208.646 183.831 208.611 182.919C208.579 182.022 208.934 181.071 209.678 180.067L212.497 176.191L219.641 181.388L217.829 183.88L215.615 182.269L214.378 183.969ZM211.574 181.063C211.356 181.362 211.257 181.646 211.277 181.915C211.296 182.184 211.45 182.424 211.74 182.635C212.039 182.852 212.311 182.922 212.555 182.845C212.793 182.776 213.028 182.591 213.261 182.29L214.086 181.156L212.412 179.939L211.574 181.063Z" fill="url(#paint5_linear_366_1941)"/>
<path d="M201.736 190.207C202.228 189.685 202.762 189.27 203.337 188.961C203.905 188.66 204.508 188.496 205.145 188.47C205.775 188.452 206.44 188.594 207.141 188.896C207.834 189.207 208.552 189.712 209.295 190.413C209.793 190.883 210.21 191.359 210.547 191.841C210.884 192.324 211.144 192.816 211.328 193.318C211.512 193.835 211.608 194.359 211.616 194.889C211.616 195.427 211.528 195.971 211.352 196.522C211.176 197.073 210.904 197.638 210.536 198.218L208.187 201.895L206.011 200.425L208.052 197.241C208.177 197.045 208.309 196.826 208.448 196.584C208.579 196.349 208.684 196.096 208.76 195.825C208.845 195.561 208.883 195.276 208.874 194.969C208.857 194.669 208.763 194.349 208.592 194.008C208.421 193.683 208.146 193.341 207.767 192.983C207.656 192.879 207.561 192.797 207.483 192.738C207.405 192.694 207.318 192.635 207.224 192.561C207.137 192.494 207.011 192.382 206.845 192.226L208.019 192.145C208.172 192.648 208.24 193.138 208.223 193.615C208.199 194.1 208.086 194.576 207.884 195.044C207.683 195.511 207.38 195.958 206.978 196.384C206.389 197.009 205.759 197.431 205.089 197.65C204.427 197.877 203.77 197.907 203.12 197.742C202.47 197.592 201.876 197.263 201.339 196.756C200.706 196.159 200.31 195.487 200.15 194.738C199.998 193.997 200.056 193.23 200.325 192.438C200.595 191.662 201.065 190.918 201.736 190.207ZM203.388 191.877C203.141 192.137 202.984 192.415 202.916 192.709C202.84 193.011 202.849 193.31 202.942 193.608C203.035 193.905 203.204 194.169 203.449 194.4C203.702 194.639 203.972 194.788 204.258 194.849C204.544 194.91 204.832 194.89 205.121 194.79C205.403 194.697 205.667 194.52 205.913 194.259C206.159 193.998 206.327 193.717 206.419 193.414C206.502 193.12 206.509 192.835 206.44 192.56C206.37 192.286 206.213 192.033 205.968 191.802C205.723 191.57 205.446 191.413 205.136 191.33C204.826 191.247 204.518 191.248 204.213 191.334C203.909 191.435 203.634 191.616 203.388 191.877Z" fill="url(#paint6_linear_366_1941)"/>
<path d="M198.788 194.464L204.564 201.148L202.233 203.162L199.207 199.66L199.434 205.581L197.276 207.447L191.499 200.763L193.842 198.737L196.88 202.252L196.617 196.339L198.788 194.464Z" fill="url(#paint7_linear_366_1941)"/>
<path d="M191.428 201.495L192.793 203.625C192.725 203.661 192.661 203.693 192.602 203.722C192.549 203.76 192.501 203.795 192.456 203.826C192.235 203.985 192.101 204.161 192.053 204.356C192.003 204.565 192.017 204.79 192.094 205.028C192.163 205.273 192.275 205.533 192.432 205.808C192.587 206.099 192.771 206.402 192.983 206.717L195.022 209.788L188.529 214.439L183.385 207.257L185.903 205.453L190.022 211.204L189.057 211.033L191.933 208.973L191.83 209.949L190.694 208.196C190.259 207.532 189.896 206.904 189.604 206.31C189.31 205.732 189.119 205.194 189.03 204.697C188.941 204.199 188.978 203.738 189.142 203.314C189.303 202.904 189.617 202.532 190.086 202.196C190.254 202.076 190.456 201.958 190.693 201.841C190.916 201.722 191.16 201.607 191.428 201.495Z" fill="url(#paint8_linear_366_1941)"/>
<path d="M178.893 210.277C179.791 209.746 180.676 209.45 181.549 209.389C182.418 209.343 183.213 209.504 183.936 209.872C184.654 210.256 185.237 210.826 185.685 211.584C186.133 212.342 186.353 213.12 186.346 213.92C186.335 214.734 186.108 215.493 185.665 216.196C185.228 216.909 184.611 217.5 183.816 217.97C183.068 218.412 182.293 218.661 181.494 218.717C180.699 218.783 179.946 218.628 179.232 218.254C178.519 217.881 177.914 217.273 177.417 216.431C177.361 216.337 177.303 216.227 177.24 216.099C177.178 215.972 177.121 215.855 177.069 215.746L183.09 212.19L183.919 213.593L179.316 216.312L180.094 215.322C180.289 215.674 180.531 215.935 180.821 216.104C181.101 216.28 181.404 216.366 181.731 216.362C182.047 216.364 182.365 216.271 182.683 216.084C183.001 215.896 183.24 215.66 183.401 215.376C183.552 215.097 183.615 214.788 183.591 214.449C183.573 214.119 183.462 213.781 183.257 213.435L183.017 213.028C182.796 212.653 182.53 212.375 182.22 212.192C181.901 212.015 181.552 211.937 181.174 211.958C180.801 211.989 180.413 212.124 180.011 212.361C179.636 212.582 179.349 212.822 179.148 213.079C178.943 213.352 178.775 213.678 178.646 214.057L176.381 213.427C176.508 212.809 176.774 212.235 177.181 211.705C177.592 211.184 178.163 210.708 178.893 210.277Z" fill="url(#paint9_linear_366_1941)"/>
<path d="M172.783 214.184L175.891 220.521L174.989 220.201L178.15 218.65L179.234 220.86L171.361 224.722L170.277 222.512L173.438 220.961L173.125 221.878L170.017 215.541L172.783 214.184Z" fill="url(#paint10_linear_366_1941)"/>
<path d="M158.51 222.175L158.147 224.609C157.611 224.49 157.069 224.433 156.521 224.441C155.972 224.448 155.454 224.503 154.964 224.608C154.475 224.712 154.047 224.856 153.679 225.041C153.304 225.239 153.025 225.463 152.843 225.712C152.66 225.962 152.608 226.239 152.687 226.544C152.775 226.881 152.979 227.086 153.301 227.159C153.616 227.246 153.999 227.231 154.451 227.114L157.276 226.383L157.868 228.671L155.296 229.337C154.875 229.446 154.571 229.615 154.383 229.843C154.195 230.071 154.138 230.327 154.211 230.611C154.282 230.885 154.438 231.074 154.679 231.181C154.922 231.297 155.22 231.343 155.573 231.319C155.929 231.306 156.315 231.234 156.73 231.104C157.145 230.974 157.561 230.782 157.978 230.529C158.398 230.285 158.79 229.999 159.153 229.669L160.673 231.767C160.021 232.329 159.303 232.784 158.518 233.133C157.733 233.482 156.941 233.721 156.144 233.849C155.346 233.977 154.596 233.985 153.895 233.875C153.195 233.776 152.604 233.553 152.122 233.206C151.629 232.862 151.305 232.39 151.149 231.791C151.013 231.265 151.034 230.76 151.212 230.276C151.39 229.792 151.691 229.372 152.115 229.016C152.539 228.659 153.066 228.399 153.698 228.235L153.79 228.919C153.064 229.107 152.401 229.144 151.799 229.03C151.186 228.919 150.676 228.681 150.267 228.315C149.85 227.963 149.568 227.503 149.421 226.935C149.282 226.398 149.3 225.883 149.476 225.388C149.643 224.907 149.937 224.461 150.358 224.049C150.779 223.637 151.293 223.279 151.899 222.977C152.492 222.666 153.153 222.422 153.881 222.245C154.607 222.057 155.367 221.956 156.16 221.941C156.943 221.929 157.726 222.007 158.51 222.175Z" fill="url(#paint11_linear_366_1941)"/>
<path d="M142.786 225.29L143.057 226.914L143.333 227.281L143.833 230.271C143.914 230.753 144.125 231.098 144.468 231.305C144.803 231.525 145.291 231.581 145.934 231.473C146.352 231.404 146.764 231.263 147.169 231.052C147.577 230.852 147.911 230.609 148.171 230.323L149.547 232.225C149.107 232.629 148.559 232.974 147.902 233.26C147.235 233.559 146.559 233.765 145.873 233.88C144.459 234.116 143.311 233.972 142.43 233.447C141.54 232.934 140.98 231.987 140.749 230.604L139.94 225.765L142.786 225.29ZM145.334 224.715C146.031 224.599 146.64 224.619 147.162 224.774C147.683 224.929 148.107 225.189 148.432 225.553C148.747 225.919 148.946 226.354 149.03 226.858C149.12 227.394 149.063 227.877 148.859 228.308C148.647 228.751 148.274 229.122 147.74 229.42C147.207 229.729 146.491 229.959 145.591 230.11L143.533 230.453L143.267 228.862L144.907 228.588C145.4 228.505 145.735 228.367 145.912 228.172C146.078 227.979 146.138 227.749 146.094 227.481C146.049 227.213 145.911 227.015 145.681 226.889C145.45 226.762 145.158 226.728 144.804 226.787C144.472 226.843 144.185 226.973 143.944 227.179C143.694 227.397 143.534 227.688 143.462 228.052L142.856 226.997C142.917 226.37 143.157 225.861 143.577 225.472C143.987 225.095 144.573 224.843 145.334 224.715Z" fill="url(#paint12_linear_366_1941)"/>
<path d="M133.722 226.563C134.437 226.511 135.111 226.565 135.744 226.726C136.366 226.887 136.921 227.173 137.408 227.584C137.885 227.996 138.28 228.55 138.593 229.246C138.895 229.943 139.083 230.8 139.158 231.819C139.208 232.502 139.194 233.135 139.117 233.718C139.04 234.301 138.9 234.84 138.697 235.334C138.483 235.84 138.2 236.291 137.848 236.688C137.485 237.085 137.053 237.427 136.551 237.714C136.049 238.002 135.467 238.235 134.804 238.415L130.589 239.541L129.976 236.988L133.631 236.017C133.856 235.957 134.101 235.884 134.367 235.799C134.622 235.715 134.87 235.599 135.11 235.45C135.35 235.313 135.571 235.128 135.772 234.895C135.962 234.663 136.109 234.364 136.212 233.997C136.306 233.641 136.334 233.203 136.296 232.683C136.285 232.531 136.27 232.407 136.252 232.31C136.224 232.225 136.2 232.123 136.18 232.005C136.162 231.898 136.144 231.73 136.127 231.502L137.047 232.236C136.821 232.71 136.54 233.117 136.205 233.458C135.86 233.799 135.455 234.074 134.991 234.282C134.527 234.491 134.002 234.617 133.417 234.659C132.561 234.722 131.812 234.608 131.169 234.318C130.528 234.038 130.023 233.618 129.655 233.056C129.277 232.507 129.061 231.863 129.007 231.126C128.943 230.259 129.105 229.496 129.492 228.835C129.88 228.186 130.441 227.66 131.174 227.257C131.897 226.866 132.746 226.635 133.722 226.563ZM133.812 228.91C133.455 228.937 133.151 229.035 132.902 229.206C132.643 229.377 132.447 229.604 132.315 229.886C132.183 230.168 132.13 230.477 132.154 230.813C132.18 231.16 132.277 231.453 132.447 231.691C132.617 231.929 132.843 232.108 133.124 232.229C133.395 232.351 133.709 232.399 134.066 232.373C134.424 232.347 134.739 232.253 135.01 232.091C135.271 231.93 135.468 231.725 135.602 231.476C135.736 231.226 135.791 230.933 135.767 230.597C135.742 230.261 135.643 229.958 135.471 229.687C135.299 229.417 135.071 229.21 134.788 229.067C134.495 228.936 134.17 228.884 133.812 228.91Z" fill="url(#paint13_linear_366_1941)"/>
<path d="M122.603 227.39C123.352 227.413 123.988 227.596 124.51 227.938C125.032 228.291 125.424 228.803 125.686 229.475C125.937 230.156 126.046 231.019 126.014 232.061C125.981 233.115 125.824 233.969 125.543 234.623C125.262 235.289 124.855 235.776 124.324 236.086C123.782 236.395 123.114 236.538 122.321 236.513C121.517 236.488 120.796 236.276 120.156 235.876C119.505 235.486 118.999 234.943 118.64 234.247C118.27 233.562 118.1 232.752 118.128 231.818C118.157 230.884 118.378 230.081 118.79 229.408C119.191 228.736 119.729 228.225 120.403 227.876C121.066 227.527 121.799 227.365 122.603 227.39ZM128.252 224.547L127.881 236.538L124.932 236.447L124.979 234.948L125.085 232.033L125.013 229.095L125.156 224.452L128.252 224.547ZM123.179 229.87C122.831 229.859 122.519 229.931 122.242 230.086C121.955 230.24 121.725 230.472 121.552 230.782C121.369 231.092 121.27 231.469 121.256 231.914C121.243 232.36 121.318 232.742 121.482 233.063C121.635 233.383 121.85 233.629 122.128 233.8C122.394 233.972 122.701 234.063 123.049 234.073C123.396 234.084 123.714 234.012 124.001 233.858C124.278 233.704 124.508 233.472 124.691 233.162C124.864 232.852 124.957 232.474 124.971 232.029C124.985 231.584 124.915 231.201 124.762 230.881C124.598 230.561 124.383 230.315 124.116 230.144C123.839 229.972 123.526 229.881 123.179 229.87Z" fill="url(#paint14_linear_366_1941)"/>
<path d="M112.419 227.182L112.222 228.816L112.384 229.246L112.023 232.256C111.964 232.742 112.071 233.132 112.342 233.427C112.601 233.732 113.054 233.923 113.701 234.001C114.122 234.051 114.557 234.032 115.005 233.944C115.452 233.866 115.841 233.727 116.172 233.526L116.957 235.738C116.421 236.002 115.798 236.179 115.087 236.269C114.364 236.368 113.657 236.376 112.966 236.293C111.542 236.122 110.481 235.661 109.783 234.91C109.074 234.168 108.802 233.101 108.969 231.709L109.554 226.838L112.419 227.182ZM115.025 227.347C115.727 227.431 116.306 227.621 116.763 227.917C117.22 228.212 117.553 228.581 117.763 229.022C117.962 229.461 118.031 229.935 117.97 230.442C117.905 230.981 117.715 231.429 117.398 231.785C117.07 232.151 116.607 232.402 116.011 232.538C115.413 232.685 114.661 232.704 113.755 232.595L111.684 232.347L111.876 230.745L113.527 230.943C114.023 231.002 114.383 230.964 114.608 230.826C114.821 230.688 114.944 230.484 114.977 230.214C115.009 229.944 114.932 229.716 114.747 229.53C114.561 229.343 114.291 229.229 113.934 229.186C113.6 229.146 113.288 229.19 112.999 229.32C112.698 229.459 112.462 229.693 112.291 230.023L112.006 228.84C112.24 228.255 112.614 227.834 113.126 227.579C113.626 227.332 114.259 227.255 115.025 227.347Z" fill="url(#paint15_linear_366_1941)"/>
<path d="M105.7 226.501L104.325 233.423L103.803 232.621L107.256 233.308L106.776 235.722L98.1753 234.013L98.6549 231.599L102.108 232.285L101.303 232.823L102.679 225.9L105.7 226.501Z" fill="url(#paint16_linear_366_1941)"/>
<path d="M93.0489 230.101C91.9252 229.762 91.1375 229.261 90.6858 228.598C90.234 227.934 90.1404 227.148 90.4049 226.241C90.6786 225.302 91.2387 224.661 92.0854 224.32C92.9185 223.985 93.9334 223.998 95.1301 224.358L99.7308 225.699L97.259 234.18L94.3014 233.318L95.0676 230.69L93.0489 230.101ZM94.8346 226.479C94.4799 226.376 94.1791 226.379 93.9322 226.488C93.6854 226.597 93.5118 226.824 93.4114 227.168C93.3081 227.523 93.3342 227.802 93.4898 228.006C93.6351 228.206 93.8887 228.365 94.2508 228.482L95.5966 228.874L96.1758 226.887L94.8346 226.479Z" fill="url(#paint17_linear_366_1941)"/>
<path d="M82.9194 220.319C83.5757 220.608 84.1456 220.972 84.6292 221.41C85.1028 221.845 85.4585 222.358 85.6965 222.949C85.9245 223.537 86.0133 224.211 85.9627 224.973C85.9022 225.73 85.666 226.576 85.2541 227.51C84.9781 228.137 84.6692 228.689 84.3276 229.168C83.986 229.647 83.6094 230.057 83.1978 230.398C82.7719 230.745 82.3105 231.011 81.8135 231.195C81.3065 231.376 80.764 231.475 80.1859 231.493C79.6078 231.512 78.9842 231.445 78.3151 231.292L74.0637 230.309L74.721 227.767L78.4044 228.624C78.6307 228.676 78.8813 228.728 79.1562 228.777C79.4211 228.823 79.6943 228.836 79.9755 228.818C80.2524 228.809 80.5342 228.749 80.8207 228.638C81.0972 228.522 81.3675 228.327 81.6314 228.051C81.881 227.781 82.111 227.408 82.3213 226.93C82.3827 226.791 82.4281 226.675 82.4576 226.581C82.4727 226.492 82.4995 226.391 82.5377 226.278C82.5716 226.174 82.6345 226.018 82.7266 225.809L83.195 226.888C82.7723 227.2 82.3334 227.429 81.8782 227.572C81.413 227.712 80.9266 227.764 80.419 227.731C79.9113 227.697 79.389 227.562 78.8521 227.325C78.0665 226.979 77.4583 226.527 77.0273 225.969C76.592 225.421 76.3435 224.813 76.2818 224.144C76.2058 223.481 76.3167 222.812 76.6147 222.136C76.9653 221.34 77.4665 220.742 78.1184 220.34C78.7659 219.949 79.5078 219.747 80.3441 219.736C81.166 219.73 82.0245 219.924 82.9194 220.319ZM81.8984 222.433C81.5702 222.289 81.2561 222.234 80.9561 222.268C80.6462 222.297 80.3669 222.406 80.1181 222.593C79.8693 222.78 79.677 223.028 79.5412 223.336C79.401 223.654 79.3501 223.959 79.3885 224.249C79.4269 224.539 79.542 224.803 79.7336 225.042C79.9153 225.276 80.1702 225.466 80.4983 225.611C80.8265 225.755 81.1483 225.82 81.4638 225.804C81.7694 225.785 82.0399 225.696 82.2756 225.539C82.5112 225.381 82.6969 225.148 82.8327 224.84C82.9686 224.532 83.0239 224.218 82.9986 223.898C82.9733 223.578 82.8692 223.289 82.6864 223.03C82.4892 222.777 82.2265 222.578 81.8984 222.433Z" fill="url(#paint18_linear_366_1941)"/>
<path d="M77.9933 218.991L73.6408 226.679L70.96 225.161L73.2406 221.133L67.7402 223.338L65.258 221.933L69.6105 214.245L72.3055 215.771L70.0168 219.814L75.4969 217.578L77.9933 218.991Z" fill="url(#paint19_linear_366_1941)"/>
<path d="M68.9033 214.426L67.3552 216.426C67.2989 216.374 67.2471 216.325 67.1998 216.279C67.1462 216.242 67.0971 216.208 67.0525 216.177C66.8294 216.022 66.6181 215.954 66.4188 215.975C66.2043 215.998 65.9977 216.086 65.7989 216.239C65.5911 216.385 65.384 216.579 65.1774 216.819C64.9558 217.062 64.7321 217.337 64.5062 217.643L62.298 220.594L55.7378 216.039L60.7767 208.782L63.3204 210.549L59.2856 216.359L59.1231 215.393L62.0283 217.411L61.0744 217.641L62.3447 215.983C62.824 215.35 63.2941 214.797 63.7553 214.324C64.2013 213.853 64.6437 213.492 65.0825 213.241C65.5213 212.99 65.9682 212.87 66.4232 212.882C66.863 212.896 67.3194 213.068 67.7925 213.396C67.9621 213.514 68.1416 213.665 68.331 213.85C68.5177 214.019 68.7085 214.211 68.9033 214.426Z" fill="url(#paint20_linear_366_1941)"/>
<path d="M56.4544 205.585C57.2559 206.252 57.8321 206.987 58.1829 207.788C58.5184 208.591 58.634 209.394 58.5299 210.199C58.4104 211.004 58.069 211.745 57.5057 212.421C56.9424 213.098 56.283 213.567 55.5276 213.828C54.7568 214.092 53.9659 214.133 53.1547 213.952C52.3366 213.78 51.5727 213.398 50.863 212.807C50.195 212.251 49.7003 211.605 49.3787 210.871C49.0502 210.144 48.9422 209.383 49.0547 208.585C49.1673 207.788 49.5365 207.014 50.1624 206.262C50.2319 206.179 50.3161 206.086 50.4149 205.985C50.5136 205.883 50.6054 205.79 50.6903 205.705L56.0631 210.18L55.0199 211.433L50.912 208.011L52.1058 208.412C51.8402 208.713 51.6761 209.029 51.6135 209.359C51.5426 209.682 51.5636 209.996 51.6763 210.302C51.7808 210.601 51.9749 210.869 52.2588 211.106C52.5427 211.342 52.8453 211.488 53.1667 211.544C53.4798 211.592 53.7921 211.549 54.1037 211.412C54.4084 211.284 54.6894 211.066 54.9467 210.757L55.2492 210.393C55.5274 210.059 55.7005 209.716 55.7686 209.362C55.8284 209.002 55.7845 208.647 55.6369 208.298C55.4824 207.957 55.2256 207.637 54.8666 207.338C54.5326 207.06 54.2105 206.869 53.9002 206.767C53.5746 206.665 53.2115 206.617 52.8108 206.623L52.6433 204.277C53.268 204.189 53.8983 204.248 54.5341 204.452C55.1631 204.665 55.8031 205.042 56.4544 205.585Z" fill="url(#paint21_linear_366_1941)"/>
<path d="M50.738 201.15L45.8205 206.212L45.8181 205.256L48.3435 207.709L46.6286 209.474L40.3384 203.364L42.0533 201.599L44.5788 204.052L43.6107 204.066L48.5282 199.003L50.738 201.15Z" fill="url(#paint22_linear_366_1941)"/>
<path d="M35.9606 187.393L33.5313 187.789C33.4817 187.242 33.3699 186.709 33.196 186.189C33.0221 185.669 32.811 185.192 32.5626 184.758C32.3141 184.324 32.0459 183.96 31.7578 183.666C31.4547 183.369 31.1567 183.172 30.8637 183.074C30.5707 182.976 30.2909 183.011 30.0244 183.179C29.7304 183.365 29.5973 183.622 29.6253 183.952C29.6382 184.278 29.7694 184.638 30.0188 185.033L31.5759 187.501L29.5773 188.762L28.1593 186.515C27.9273 186.148 27.674 185.909 27.3994 185.8C27.1247 185.691 26.8634 185.714 26.6153 185.871C26.3763 186.022 26.2431 186.228 26.2154 186.489C26.1786 186.757 26.2254 187.055 26.3558 187.384C26.4771 187.718 26.6629 188.064 26.9133 188.42C27.1636 188.776 27.4732 189.113 27.8421 189.433C28.2017 189.759 28.594 190.044 29.019 190.29L27.4835 192.377C26.7501 191.928 26.0975 191.382 25.5257 190.741C24.9539 190.1 24.4855 189.419 24.1207 188.698C23.7558 187.977 23.5189 187.266 23.4098 186.564C23.2916 185.867 23.324 185.237 23.5069 184.671C23.6841 184.097 24.0346 183.645 24.5584 183.314C25.0178 183.024 25.505 182.89 26.02 182.912C26.535 182.934 27.0269 183.092 27.4959 183.388C27.9648 183.683 28.3733 184.106 28.7213 184.657L28.0988 184.954C27.6987 184.32 27.461 183.699 27.3857 183.091C27.3047 182.474 27.376 181.915 27.5995 181.414C27.8081 180.91 28.1605 180.501 28.6567 180.188C29.1254 179.892 29.6218 179.752 30.1459 179.768C30.6551 179.781 31.1701 179.925 31.6907 180.2C32.2114 180.476 32.7084 180.856 33.1816 181.341C33.6583 181.811 34.0921 182.366 34.4831 183.006C34.8832 183.64 35.2111 184.333 35.4666 185.084C35.7164 185.826 35.881 186.595 35.9606 187.393Z" fill="url(#paint23_linear_366_1941)"/>
<path d="M28.1955 173.379L26.7311 174.131L26.4654 174.506L23.7687 175.891C23.3337 176.114 23.0697 176.421 22.9768 176.811C22.8692 177.196 22.9643 177.678 23.2622 178.258C23.4559 178.635 23.7148 178.985 24.0391 179.307C24.3537 179.634 24.6868 179.878 25.0385 180.04L23.6447 181.928C23.1264 181.632 22.631 181.215 22.1586 180.676C21.6715 180.132 21.2692 179.551 20.9514 178.932C20.296 177.656 20.0844 176.519 20.3165 175.52C20.534 174.517 21.2662 173.695 22.5131 173.054L26.8773 170.812L28.1955 173.379ZM29.5175 175.632C29.8403 176.26 30.007 176.846 30.0178 177.39C30.0285 177.934 29.9099 178.417 29.6617 178.837C29.4086 179.248 29.0549 179.571 28.6006 179.804C28.1173 180.052 27.6396 180.145 27.1675 180.082C26.6808 180.014 26.2141 179.772 25.7673 179.354C25.3108 178.941 24.8741 178.328 24.457 177.516L23.5037 175.66L24.9391 174.923L25.6987 176.402C25.9271 176.847 26.161 177.124 26.4003 177.233C26.6347 177.332 26.8727 177.32 27.1143 177.196C27.3559 177.072 27.5021 176.881 27.5528 176.622C27.6034 176.364 27.5468 176.076 27.383 175.757C27.2291 175.457 27.0175 175.224 26.7484 175.057C26.4647 174.885 26.1384 174.82 25.7695 174.863L26.5908 173.965C27.2065 173.832 27.7638 173.906 28.2626 174.187C28.7467 174.464 29.165 174.945 29.5175 175.632Z" fill="url(#paint24_linear_366_1941)"/>
<path d="M24.258 165.263C24.525 165.929 24.678 166.587 24.7169 167.239C24.7518 167.881 24.6475 168.496 24.4039 169.086C24.1563 169.665 23.7482 170.209 23.1796 170.718C22.607 171.217 21.8467 171.657 20.8987 172.037C20.2633 172.292 19.6561 172.471 19.0771 172.575C18.498 172.678 17.9422 172.708 17.4094 172.664C16.8625 172.614 16.3468 172.481 15.8624 172.266C15.3738 172.04 14.9165 171.732 14.4904 171.341C14.0642 170.95 13.6652 170.466 13.2934 169.889L10.9412 166.214L13.1888 164.856L15.2227 168.044C15.348 168.24 15.4915 168.451 15.6531 168.679C15.8107 168.897 15.9966 169.098 16.2106 169.281C16.4146 169.469 16.6579 169.623 16.9405 169.744C17.2191 169.854 17.5491 169.903 17.9304 169.891C18.2976 169.872 18.7233 169.766 19.2074 169.572C19.3486 169.515 19.4626 169.464 19.5493 169.417C19.6219 169.365 19.7116 169.311 19.8185 169.256C19.9153 169.206 20.0696 169.138 20.2814 169.053L19.8617 170.152C19.3411 170.08 18.8677 169.936 18.4418 169.721C18.0118 169.495 17.6271 169.193 17.2877 168.814C16.9484 168.435 16.6695 167.973 16.451 167.428C16.1315 166.632 16.0127 165.883 16.0948 165.183C16.1668 164.487 16.4144 163.878 16.8376 163.357C17.2468 162.83 17.7942 162.429 18.48 162.154C19.2869 161.83 20.0636 161.753 20.8104 161.922C21.5471 162.095 22.2184 162.469 22.8243 163.046C23.416 163.616 23.894 164.355 24.258 165.263ZM22.0492 166.061C21.9158 165.728 21.7299 165.469 21.4916 165.284C21.2493 165.088 20.9737 164.971 20.6649 164.93C20.3562 164.89 20.0455 164.933 19.7328 165.058C19.4101 165.188 19.1611 165.37 18.9857 165.604C18.8104 165.838 18.7077 166.108 18.6778 166.412C18.6437 166.707 18.6935 167.021 18.827 167.354C18.9605 167.686 19.1453 167.958 19.3816 168.167C19.6139 168.367 19.8692 168.493 20.1478 168.545C20.4263 168.597 20.7219 168.56 21.0345 168.435C21.3471 168.31 21.6063 168.124 21.8118 167.877C22.0174 167.631 22.1453 167.351 22.1955 167.039C22.2315 166.72 22.1827 166.394 22.0492 166.061Z" fill="url(#paint25_linear_366_1941)"/>
<path d="M20.2005 155.292C20.4076 156.013 20.428 156.674 20.2617 157.276C20.085 157.88 19.7171 158.41 19.158 158.865C18.5855 159.312 17.798 159.679 16.7954 159.967C15.7823 160.259 14.9213 160.37 14.2122 160.303C13.4926 160.238 12.9042 160 12.4468 159.589C11.9865 159.167 11.6467 158.575 11.4277 157.813C11.2056 157.04 11.1873 156.288 11.3728 155.556C11.5448 154.817 11.9073 154.17 12.4603 153.615C12.9997 153.053 13.7186 152.643 14.6167 152.385C15.5149 152.127 16.347 152.092 17.113 152.279C17.876 152.455 18.5265 152.811 19.0647 153.346C19.5998 153.87 19.9784 154.519 20.2005 155.292ZM24.6336 159.801L13.1036 163.114L12.2889 160.279L13.7301 159.865L16.5388 159.075L19.3136 158.108L23.7784 156.825L24.6336 159.801ZM18.015 156.598C17.919 156.264 17.7551 155.989 17.5235 155.773C17.2888 155.546 16.9975 155.398 16.6496 155.329C16.2987 155.249 15.9092 155.27 15.481 155.393C15.0528 155.516 14.7113 155.705 14.4564 155.959C14.1986 156.203 14.0303 156.483 13.9517 156.799C13.87 157.105 13.8772 157.425 13.9733 157.76C14.0693 158.094 14.2346 158.374 14.4693 158.601C14.701 158.817 14.9923 158.965 15.3432 159.045C15.6911 159.115 16.0791 159.088 16.5073 158.965C16.9355 158.842 17.2785 158.658 17.5364 158.415C17.7912 158.161 17.9595 157.881 18.0411 157.574C18.1197 157.258 18.1111 156.933 18.015 156.598Z" fill="url(#paint26_linear_366_1941)"/>
<path d="M17.3079 145.654L15.692 145.968L15.3325 146.254L12.3566 146.834C11.8766 146.927 11.5377 147.148 11.3399 147.496C11.1293 147.836 11.0863 148.326 11.2109 148.966C11.2919 149.382 11.4433 149.79 11.665 150.19C11.8761 150.591 12.128 150.919 12.4208 151.172L10.5563 152.597C10.1408 152.169 9.78122 151.63 9.47765 150.981C9.16134 150.323 8.93674 149.653 8.80383 148.97C8.5297 147.562 8.6432 146.411 9.14431 145.516C9.63268 144.613 10.5648 144.027 11.9408 143.759L16.7565 142.822L17.3079 145.654ZM17.9503 148.185C18.0853 148.879 18.0821 149.488 17.9409 150.014C17.7997 150.54 17.5514 150.97 17.1959 151.305C16.8384 151.629 16.409 151.84 15.9076 151.938C15.3743 152.041 14.8897 151.997 14.4538 151.805C14.0052 151.605 13.6245 151.242 13.3118 150.716C12.9884 150.192 12.7395 149.482 12.5651 148.586L12.1663 146.538L13.7502 146.23L14.068 147.862C14.1635 148.353 14.311 148.684 14.5104 148.855C14.7078 149.016 14.9398 149.071 15.2065 149.019C15.4731 148.967 15.6667 148.824 15.7873 148.59C15.9078 148.356 15.9338 148.063 15.8653 147.711C15.8009 147.381 15.6628 147.098 15.4508 146.862C15.2262 146.618 14.9307 146.465 14.5645 146.404L15.6035 145.77C16.2319 145.813 16.7465 146.04 17.1472 146.449C17.5351 146.849 17.8028 147.428 17.9503 148.185Z" fill="url(#paint27_linear_366_1941)"/>
<path d="M15.8979 139.066L8.8873 139.88L9.49021 139.137L9.89641 142.635L7.4516 142.919L6.43987 134.208L8.88468 133.924L9.29087 137.421L8.53188 136.82L15.5425 136.006L15.8979 139.066Z" fill="url(#paint28_linear_366_1941)"/>
<path d="M8.57648 128.023C8.55564 126.849 8.79212 125.946 9.28593 125.313C9.77973 124.68 10.4991 124.351 11.4442 124.325C12.4218 124.299 13.2027 124.637 13.7869 125.338C14.36 126.029 14.658 127 14.6809 128.249L14.8103 133.039L5.97917 133.278L5.89595 130.199L8.63329 130.125L8.57648 128.023ZM12.5711 128.616C12.5611 128.247 12.4664 127.961 12.287 127.759C12.1077 127.558 11.8387 127.462 11.4803 127.471C11.111 127.481 10.853 127.592 10.7066 127.802C10.5598 128.002 10.4861 128.292 10.4855 128.672L10.5234 130.073L12.5926 130.018L12.5711 128.616Z" fill="url(#paint29_linear_366_1941)"/>
<path d="M14.7859 114.997C14.7113 115.71 14.5392 116.364 14.2695 116.959C14.001 117.542 13.6214 118.038 13.1309 118.446C12.6415 118.843 12.0266 119.133 11.2862 119.318C10.5469 119.492 9.66931 119.526 8.6534 119.42C7.97252 119.349 7.35189 119.224 6.79151 119.045C6.23112 118.867 5.72559 118.634 5.27489 118.346C4.81452 118.047 4.42036 117.689 4.09242 117.272C3.76561 116.845 3.50502 116.359 3.31064 115.814C3.11626 115.269 2.98923 114.655 2.92954 113.971L2.56439 109.623L5.18604 109.471L5.49698 113.24C5.5165 113.471 5.54457 113.726 5.58119 114.003C5.61894 114.269 5.68967 114.533 5.79339 114.795C5.88631 115.056 6.02955 115.306 6.22312 115.545C6.41782 115.772 6.68672 115.97 7.02982 116.137C7.36324 116.292 7.78934 116.396 8.3081 116.451C8.45941 116.466 8.58426 116.474 8.68266 116.473C8.77138 116.461 8.87574 116.455 8.99575 116.457C9.10496 116.457 9.27304 116.47 9.5 116.493L8.61588 117.269C8.18906 116.963 7.83757 116.615 7.56141 116.225C7.28638 115.825 7.08724 115.378 6.964 114.884C6.84076 114.391 6.80962 113.852 6.87059 113.269C6.95979 112.415 7.20409 111.697 7.60348 111.116C7.99206 110.534 8.4951 110.112 9.11258 109.848C9.72039 109.573 10.3917 109.474 11.1267 109.551C11.9913 109.641 12.7144 109.935 13.2961 110.433C13.867 110.929 14.2858 111.574 14.5526 112.367C14.8097 113.148 14.8875 114.024 14.7859 114.997ZM12.4599 114.672C12.4972 114.315 12.4537 113.999 12.3295 113.724C12.2064 113.438 12.0177 113.205 11.7633 113.026C11.5089 112.846 11.2142 112.739 10.8792 112.704C10.5333 112.668 10.2282 112.713 9.96382 112.838C9.69944 112.963 9.48288 113.154 9.31416 113.409C9.14656 113.654 9.04413 113.955 9.00687 114.311C8.96961 114.668 9.00655 114.994 9.1177 115.29C9.22997 115.575 9.39708 115.805 9.61904 115.981C9.841 116.157 10.1195 116.263 10.4545 116.298C10.7896 116.333 11.1055 116.289 11.4023 116.168C11.6991 116.046 11.9427 115.858 12.133 115.605C12.3137 115.34 12.4226 115.029 12.4599 114.672Z" fill="url(#paint30_linear_366_1941)"/>
<path d="M14.5177 109.979L5.86602 108.192L6.48937 105.175L11.0227 106.112L7.23805 101.551L7.81522 98.7581L16.4669 100.546L15.8402 103.579L11.2909 102.639L15.0981 107.17L14.5177 109.979Z" fill="url(#paint31_linear_366_1941)"/>
<path d="M16.0392 99.9039L13.6631 99.0357C13.6958 98.9662 13.727 98.9019 13.7566 98.8428C13.7758 98.7805 13.7933 98.7234 13.8093 98.6714C13.8893 98.4118 13.8893 98.1901 13.8095 98.0064C13.7224 97.809 13.5759 97.6388 13.3698 97.4958C13.1669 97.3423 12.9197 97.2037 12.6281 97.0798C12.3293 96.9423 11.9998 96.8124 11.6395 96.6901L8.1573 95.4814L10.5077 87.8482L18.9509 90.4481L18.0395 93.4079L11.2787 91.3261L12.1501 90.8781L11.1091 94.2585L10.6 93.4195L12.5652 94.127C13.3137 94.3916 13.9836 94.6717 14.5747 94.9674C15.1586 95.2496 15.6367 95.5617 16.0089 95.9037C16.3812 96.2457 16.6307 96.6352 16.7577 97.0723C16.8774 97.4957 16.8525 97.9826 16.6831 98.5331C16.6223 98.7304 16.5328 98.9473 16.4145 99.1837C16.3098 99.413 16.1847 99.653 16.0392 99.9039Z" fill="url(#paint32_linear_366_1941)"/>
<path d="M20.7202 85.1722C20.3246 86.1375 19.7975 86.9079 19.1389 87.4835C18.4743 88.0449 17.7428 88.3969 16.9446 88.5395C16.1404 88.668 15.331 88.5653 14.5166 88.2315C13.7021 87.8978 13.0565 87.41 12.5796 86.7684C12.0968 86.1125 11.8195 85.3706 11.7478 84.5427C11.666 83.7106 11.8003 82.8672 12.1505 82.0126C12.4802 81.2082 12.9469 80.5422 13.5506 80.0145C14.1444 79.4828 14.8383 79.1506 15.6325 79.0181C16.4266 78.8855 17.2762 79.0047 18.1811 79.3755C18.2816 79.4167 18.3952 79.4691 18.5218 79.5328C18.6484 79.5964 18.7649 79.6559 18.8714 79.7113L16.2198 86.1816L14.7116 85.5635L16.7389 80.6165L16.7162 81.8755C16.3483 81.713 15.9977 81.6515 15.6644 81.6911C15.3352 81.7206 15.0417 81.8351 14.7837 82.0347C14.5299 82.2243 14.3329 82.49 14.1928 82.8319C14.0527 83.1738 14.0045 83.5063 14.0482 83.8295C14.096 84.1427 14.2318 84.4274 14.4557 84.6835C14.6695 84.9355 14.9624 85.1378 15.3344 85.2902L15.7718 85.4695C16.174 85.6343 16.5538 85.696 16.9114 85.6547C17.273 85.6032 17.5981 85.4546 17.8867 85.2088C18.1653 84.959 18.3932 84.6178 18.5704 84.1855C18.7352 83.7833 18.82 83.4188 18.8248 83.0919C18.8236 82.7509 18.76 82.3901 18.6341 82.0097L20.8207 81.1443C21.0924 81.7136 21.2264 82.3322 21.2228 83.0001C21.2091 83.6639 21.0416 84.3879 20.7202 85.1722Z" fill="url(#paint33_linear_366_1941)"/>
<path d="M23.0443 78.7257L16.7308 75.571L17.642 75.2792L16.0682 78.4286L13.8665 77.3284L17.7863 69.4841L19.988 70.5842L18.4142 73.7336L18.1079 72.8153L24.4213 75.97L23.0443 78.7257Z" fill="url(#paint34_linear_366_1941)"/>
<path d="M31.5163 60.5805L30.3989 58.3874C30.9047 58.1735 31.3786 57.9045 31.8208 57.5805C32.2629 57.2564 32.653 56.9099 32.991 56.541C33.3289 56.172 33.5938 55.8056 33.7857 55.4418C33.9762 55.0626 34.0734 54.7186 34.0772 54.4097C34.081 54.1009 33.9623 53.8451 33.7209 53.6426C33.4545 53.4191 33.1687 53.3708 32.8636 53.4977C32.5571 53.6094 32.2537 53.8442 31.9534 54.2021L30.0779 56.4371L28.2674 54.9179L29.9753 52.8827C30.2547 52.5497 30.4046 52.2358 30.4251 51.9409C30.4456 51.646 30.3434 51.4043 30.1187 51.2157C29.9023 51.0341 29.6653 50.9699 29.4077 51.0233C29.1418 51.0697 28.8721 51.2051 28.5987 51.4296C28.3169 51.6471 28.0446 51.9293 27.7818 52.2762C27.5191 52.6231 27.2917 53.021 27.0995 53.4697C26.899 53.9115 26.7465 54.3722 26.6419 54.8518L24.1863 54.0253C24.3909 53.1899 24.7115 52.4021 25.1481 51.662C25.5847 50.9219 26.0906 50.2683 26.6658 49.7013C27.2409 49.1342 27.8463 48.6917 28.4818 48.3739C29.109 48.0491 29.7196 47.8877 30.3137 47.8897C30.9148 47.8834 31.4525 48.0793 31.927 48.4775C32.3432 48.8267 32.6193 49.2499 32.7554 49.7471C32.8914 50.2443 32.8903 50.7611 32.7522 51.2977C32.614 51.8343 32.3353 52.3523 31.9162 52.8517L31.4442 52.3492C31.9262 51.7749 32.4452 51.3593 33.0012 51.1024C33.5642 50.8372 34.1183 50.7347 34.6634 50.795C35.2073 50.84 35.704 51.0511 36.1535 51.4283C36.578 51.7845 36.8624 52.2147 37.0068 52.7188C37.1498 53.2077 37.1696 53.742 37.066 54.3218C36.9625 54.9016 36.7518 55.4908 36.4339 56.0894C36.1313 56.6866 35.7349 57.2689 35.2446 57.8363C34.7627 58.4107 34.203 58.934 33.5655 59.4062C32.9351 59.8702 32.252 60.2616 31.5163 60.5805Z" fill="url(#paint35_linear_366_1941)"/>
<path d="M42.8869 48.4702L41.727 47.3019L41.2896 47.162L39.1536 45.0104C38.8091 44.6634 38.437 44.5045 38.0373 44.5338C37.6377 44.5477 37.2066 44.7844 36.7439 45.2437C36.4431 45.5423 36.1883 45.8948 35.9794 46.3013C35.7628 46.7001 35.6307 47.0915 35.5832 47.4755L33.3615 46.7182C33.4866 46.1347 33.7346 45.5363 34.1057 44.9229C34.4768 44.2942 34.9091 43.7349 35.4027 43.2449C36.4206 42.2344 37.4407 41.6887 38.4629 41.6079C39.4852 41.5117 40.4901 41.961 41.4777 42.9558L44.9343 46.4376L42.8869 48.4702ZM41.1394 50.4117C40.6382 50.9093 40.1298 51.2455 39.6144 51.4204C39.0989 51.5952 38.6032 51.628 38.1272 51.5187C37.6589 51.4017 37.2449 51.162 36.8851 50.7996C36.5023 50.414 36.2695 49.9867 36.1867 49.5177C36.1039 49.0333 36.1941 48.515 36.4574 47.9627C36.713 47.4027 37.1647 46.8012 37.8125 46.1581L39.2931 44.6882L40.43 45.8334L39.2501 47.0047C38.8954 47.3569 38.7021 47.6635 38.6705 47.9247C38.6465 48.1781 38.7302 48.4013 38.9216 48.5941C39.113 48.7869 39.3394 48.8684 39.6007 48.8386C39.8621 48.8088 40.12 48.6676 40.3745 48.4149C40.6135 48.1776 40.772 47.9054 40.85 47.5983C40.928 47.2759 40.8908 46.9454 40.7383 46.6067L41.8429 47.1179C42.156 47.6646 42.2539 48.2181 42.1366 48.7786C42.0193 49.3238 41.687 49.8681 41.1394 50.4117Z" fill="url(#paint36_linear_366_1941)"/>
<path d="M49.1055 42.5357C48.5528 42.9927 47.972 43.3389 47.363 43.5745C46.7625 43.8031 46.1444 43.8912 45.5088 43.8386C44.8815 43.7792 44.2389 43.5562 43.5809 43.1696C42.9313 42.7761 42.2811 42.1858 41.6302 41.3986C41.194 40.871 40.8384 40.3472 40.5636 39.8271C40.2887 39.3071 40.0911 38.7867 39.9707 38.2659C39.8517 37.7298 39.821 37.1982 39.8787 36.6711C39.9448 36.1371 40.0992 35.6076 40.3419 35.0826C40.5846 34.5576 40.9241 34.0303 41.3602 33.5005L44.1447 30.1408L46.1227 31.8681L43.7052 34.7763C43.557 34.9552 43.399 35.1563 43.2312 35.3797C43.0718 35.5961 42.9373 35.8342 42.8278 36.094C42.7113 36.3453 42.6386 36.624 42.6096 36.93C42.5889 37.2291 42.6426 37.5583 42.7706 37.9178C42.9001 38.2619 43.131 38.635 43.4633 39.037C43.5603 39.1542 43.6441 39.2471 43.7148 39.3155C43.7869 39.3686 43.8653 39.4378 43.9498 39.523C44.0274 39.5998 44.1389 39.7262 44.2844 39.9021L43.1096 39.837C43.0198 39.3191 43.0127 38.8244 43.0882 38.3531C43.1722 37.8748 43.343 37.4163 43.6007 36.9777C43.8584 36.539 44.2134 36.1327 44.6656 35.7588C45.3272 35.2118 46.004 34.8708 46.696 34.7357C47.3811 34.5923 48.0362 34.6428 48.6613 34.8873C49.2879 35.1165 49.8366 35.5158 50.3075 36.0853C50.8614 36.7553 51.1717 37.4716 51.2383 38.2343C51.298 38.9886 51.1455 39.7421 50.7809 40.4948C50.4177 41.2322 49.8592 41.9125 49.1055 42.5357ZM47.6727 40.6748C47.9491 40.4463 48.1393 40.1903 48.2433 39.9069C48.3557 39.6166 48.384 39.3182 48.3282 39.0119C48.2723 38.7056 48.137 38.4227 47.9224 38.1631C47.7008 37.8951 47.4518 37.7132 47.1753 37.6176C46.8988 37.5219 46.6108 37.5062 46.3115 37.5704C46.0205 37.6277 45.7368 37.7706 45.4604 37.9991C45.184 38.2276 44.982 38.4863 44.8543 38.7752C44.7349 39.0572 44.6928 39.3388 44.7279 39.6199C44.763 39.9011 44.8878 40.1715 45.1025 40.4311C45.3171 40.6907 45.5731 40.881 45.8704 41.0018C46.1676 41.1226 46.4729 41.1592 46.7861 41.1117C47.1008 41.0489 47.3963 40.9033 47.6727 40.6748Z" fill="url(#paint37_linear_366_1941)"/>
<path d="M57.7456 35.3264C57.122 35.7427 56.4983 35.9631 55.8745 35.9876C55.2446 36.0031 54.6281 35.8136 54.0251 35.4192C53.4251 35.0097 52.8355 34.3712 52.2563 33.5036C51.671 32.627 51.3028 31.8406 51.1517 31.1445C50.9945 30.4394 51.0423 29.8065 51.2951 29.2457C51.5569 28.679 52.0177 28.1754 52.6774 27.7349C53.3462 27.2884 54.0573 27.0423 54.8107 26.9966C55.5671 26.9359 56.2936 27.0846 56.99 27.4428C57.6894 27.7859 58.2986 28.346 58.8174 29.1233C59.3363 29.9005 59.6232 30.6824 59.6779 31.4689C59.7417 32.2495 59.6005 32.9774 59.2544 33.6527C58.9173 34.322 58.4144 34.8799 57.7456 35.3264ZM54.7972 40.9204L48.1362 30.9431L50.5899 29.305L51.4225 30.5521L53.029 32.9877L54.7936 35.3373L57.3729 39.2008L54.7972 40.9204ZM55.8367 33.6414C56.1259 33.4483 56.3383 33.2086 56.4737 32.9222C56.6182 32.6297 56.6707 32.3072 56.6313 31.9546C56.6009 31.596 56.462 31.2314 56.2147 30.8609C55.9673 30.4904 55.6838 30.2223 55.3642 30.0568C55.0537 29.8852 54.7357 29.8101 54.4102 29.8314C54.0938 29.8467 53.791 29.9508 53.5018 30.1439C53.2126 30.337 52.9957 30.5797 52.8513 30.8722C52.7158 31.1586 52.6633 31.4811 52.6937 31.8397C52.7331 32.1923 52.8765 32.5538 53.1239 32.9244C53.3712 33.2949 53.6502 33.566 53.9607 33.7376C54.2803 33.9031 54.5983 33.9782 54.9147 33.963C55.2402 33.9417 55.5475 33.8345 55.8367 33.6414Z" fill="url(#paint38_linear_366_1941)"/>
<path d="M66.1548 29.5687L65.365 28.1243L64.9835 27.8685L63.529 25.2084C63.2944 24.7794 62.981 24.5235 62.589 24.4406C62.2012 24.3431 61.7213 24.4507 61.1493 24.7635C60.7774 24.9668 60.4347 25.2347 60.1211 25.5672C59.8023 25.8901 59.5668 26.2295 59.4145 26.5852L57.4905 25.2408C57.7726 24.715 58.1771 24.209 58.7039 23.7228C59.2349 23.2218 59.8056 22.8045 60.4158 22.4708C61.6743 21.7827 62.8057 21.5417 63.8102 21.7479C64.819 21.9393 65.6597 22.65 66.3322 23.8799L68.6861 28.1846L66.1548 29.5687ZM63.937 30.9487C63.3173 31.2876 62.7356 31.4694 62.1918 31.4943C61.6481 31.5191 61.1628 31.413 60.7359 31.1758C60.3185 30.9334 59.9872 30.5882 59.7422 30.1401C59.4815 29.6634 59.3765 29.1882 59.4272 28.7147C59.4822 28.2264 59.7128 27.7535 60.1191 27.296C60.5201 26.829 61.121 26.3766 61.9219 25.9386L63.7524 24.9376L64.5266 26.3534L63.0679 27.1511C62.6294 27.3909 62.3586 27.6319 62.2557 27.8739C62.1622 28.1108 62.1807 28.3484 62.311 28.5867C62.4414 28.8251 62.6362 28.9663 62.8956 29.0102C63.1549 29.0542 63.4419 28.9901 63.7565 28.8181C64.0521 28.6565 64.2799 28.439 64.4401 28.1656C64.6046 27.8775 64.6606 27.5497 64.6082 27.182L65.5274 27.9798C65.6764 28.5919 65.6167 29.1509 65.3484 29.6567C65.0844 30.1479 64.6139 30.5785 63.937 30.9487Z" fill="url(#paint39_linear_366_1941)"/>
<path d="M71.5091 26.4602L68.591 20.034L69.4826 20.381L66.2769 21.8366L65.2592 19.5956L73.2438 15.9699L74.2614 18.211L71.0557 19.6666L71.396 18.7603L74.3141 25.1865L71.5091 26.4602Z" fill="url(#paint40_linear_366_1941)"/>
<path d="M79.8734 16.0494C80.9847 15.6722 81.9171 15.6224 82.6703 15.9001C83.4236 16.1777 83.9562 16.7627 84.2683 17.6551C84.5912 18.5782 84.5074 19.4249 84.0169 20.195C83.5331 20.9513 82.6997 21.5306 81.5165 21.9328L76.993 23.5147L74.0767 15.1756L76.9846 14.1586L77.8886 16.7435L79.8734 16.0494ZM80.5247 20.0349C80.8734 19.9129 81.1165 19.7358 81.254 19.5035C81.3915 19.2713 81.4011 18.9859 81.2827 18.6474C81.1607 18.2987 80.9772 18.0866 80.7321 18.0111C80.4973 17.9321 80.1985 17.9502 79.8359 18.0655L78.5128 18.5282L79.1961 20.4822L80.5247 20.0349Z" fill="url(#paint41_linear_366_1941)"/>
<path d="M93.4635 18.1547C92.7618 18.3025 92.0865 18.3392 91.4379 18.2648C90.7999 18.1882 90.2117 17.9789 89.6733 17.637C89.1455 17.2929 88.6801 16.7968 88.2771 16.1487C87.8848 15.4985 87.5833 14.6736 87.3728 13.674C87.2318 13.0041 87.1604 12.3751 87.1586 11.7869C87.1569 11.1987 87.2238 10.6461 87.3592 10.1289C87.503 9.59895 87.7229 9.11399 88.0189 8.67409C88.3255 8.23194 88.7083 7.83485 89.1672 7.48279C89.6261 7.13074 90.1717 6.8215 90.8041 6.55506L94.8309 4.87415L95.7797 7.32282L92.2876 8.77452C92.0733 8.86408 91.8399 8.96875 91.5875 9.08853C91.3458 9.20608 91.116 9.3544 90.8983 9.5335C90.6784 9.70197 90.4845 9.91493 90.3166 10.1724C90.1594 10.4276 90.0539 10.7441 90.0002 11.1218C89.9549 11.4867 89.986 11.9244 90.0935 12.4348C90.1248 12.5836 90.1559 12.7048 90.1867 12.7983C90.2259 12.8789 90.2631 12.9765 90.2984 13.0912C90.3314 13.1953 90.3714 13.359 90.4184 13.5823L89.4085 12.9788C89.5697 12.4785 89.7932 12.0372 90.0792 11.6549C90.3757 11.2704 90.7401 10.9438 91.1721 10.6752C91.6041 10.4065 92.1072 10.2117 92.6814 10.0908C93.5214 9.91388 94.2792 9.92641 94.9547 10.1284C95.628 10.3197 96.1846 10.6689 96.6245 11.1759C97.0728 11.6701 97.3731 12.2787 97.5254 13.0017C97.7045 13.8524 97.6464 14.6309 97.3509 15.3372C97.0533 16.0328 96.5681 16.6292 95.8954 17.1262C95.2312 17.6103 94.4205 17.9532 93.4635 18.1547ZM93.0596 15.8411C93.4105 15.7672 93.6979 15.629 93.9217 15.4264C94.1562 15.2215 94.3199 14.9705 94.4127 14.6733C94.5056 14.3762 94.5173 14.0628 94.4479 13.7331C94.3763 13.3929 94.2403 13.1161 94.0399 12.9029C93.8395 12.6897 93.5919 12.542 93.2969 12.4597C93.0126 12.3752 92.695 12.37 92.3441 12.4439C91.9932 12.5178 91.6941 12.6529 91.4468 12.8494C91.21 13.0436 91.0419 13.2733 90.9423 13.5386C90.8427 13.8039 90.8276 14.1014 90.897 14.431C90.9664 14.7606 91.1047 15.048 91.3118 15.2931C91.5189 15.5382 91.7721 15.7125 92.0715 15.816C92.3793 15.9067 92.7087 15.915 93.0596 15.8411Z" fill="url(#paint42_linear_366_1941)"/>
<path d="M98.967 16.197L98.0491 7.41046L101.113 7.09037L101.594 11.6944L104.793 6.70591L107.63 6.40953L108.548 15.1961L105.468 15.5179L104.985 10.8976L101.82 15.899L98.967 16.197Z" fill="url(#paint43_linear_366_1941)"/>
<path d="M108.912 14.617L109.013 12.0892C109.09 12.0992 109.16 12.1093 109.226 12.1194C109.291 12.1186 109.351 12.1179 109.405 12.1173C109.677 12.1142 109.888 12.0465 110.038 11.9144C110.2 11.7712 110.317 11.5797 110.39 11.3398C110.474 11.0997 110.531 10.822 110.56 10.5065C110.6 10.18 110.623 9.82655 110.629 9.44612L110.717 5.76114L118.703 5.66866L118.805 14.5025L115.709 14.5383L115.627 7.46476L116.319 8.15767L112.783 8.19863L113.426 7.45764L113.353 9.54499C113.329 10.3386 113.267 11.0619 113.166 11.7151C113.075 12.3574 112.924 12.9079 112.712 13.3668C112.5 13.8256 112.205 14.1822 111.828 14.4366C111.461 14.6799 110.99 14.8049 110.414 14.8115C110.208 14.8139 109.974 14.7949 109.713 14.7545C109.462 14.7248 109.196 14.679 108.912 14.617Z" fill="url(#paint44_linear_366_1941)"/>
<path d="M131.532 14.8267L132.615 7.85253L133.17 8.63154L129.691 8.09142L130.069 5.65931L138.734 7.00461L138.357 9.43672L134.878 8.8966L135.659 8.32514L134.577 15.2993L131.532 14.8267Z" fill="url(#paint45_linear_366_1941)"/>
<path d="M155.124 18.5171L156.936 16.8518C157.278 17.2815 157.665 17.6658 158.096 18.0047C158.526 18.3436 158.965 18.6262 159.411 18.8527C159.857 19.0792 160.281 19.2359 160.683 19.323C161.1 19.4047 161.457 19.4059 161.756 19.3266C162.054 19.2474 162.269 19.0643 162.399 18.7774C162.543 18.4608 162.513 18.1725 162.308 17.9127C162.118 17.6475 161.811 17.4183 161.385 17.2251L158.729 16.0188L159.706 13.8668L162.125 14.9653C162.521 15.145 162.863 15.2051 163.153 15.1457C163.443 15.0862 163.648 14.9229 163.769 14.6558C163.886 14.3985 163.884 14.153 163.764 13.9192C163.648 13.6756 163.445 13.4521 163.155 13.249C162.87 13.036 162.525 12.8495 162.12 12.6896C161.715 12.5297 161.271 12.4174 160.787 12.3529C160.308 12.2784 159.823 12.2552 159.333 12.2833L159.47 9.69589C160.329 9.66859 161.174 9.76584 162.004 9.98765C162.835 10.2095 163.6 10.5212 164.301 10.923C165.001 11.3247 165.59 11.789 166.067 12.3158C166.548 12.8327 166.868 13.3776 167.025 13.9504C167.193 14.5276 167.149 15.0983 166.893 15.6622C166.668 16.1569 166.334 16.5366 165.892 16.8011C165.45 17.0657 164.952 17.2035 164.398 17.2145C163.844 17.2255 163.27 17.0962 162.676 16.8267L163.033 16.237C163.716 16.547 164.256 16.9353 164.653 17.4019C165.059 17.873 165.307 18.3792 165.395 18.9206C165.498 19.4565 165.428 19.9916 165.185 20.5259C164.956 21.0305 164.618 21.42 164.171 21.6945C163.739 21.9636 163.229 22.1261 162.643 22.1821C162.057 22.238 161.433 22.1933 160.771 22.0479C160.114 21.9168 159.447 21.6914 158.769 21.3715C158.086 21.0615 157.431 20.6629 156.805 20.1757C156.189 19.693 155.629 19.1401 155.124 18.5171Z" fill="url(#paint46_linear_366_1941)"/>
<path d="M169.4 25.9812L170.211 24.5486L170.227 24.0896L171.721 21.4514C171.962 21.0258 172.014 20.6246 171.878 20.2478C171.756 19.8668 171.412 19.5158 170.844 19.1945C170.476 18.9858 170.067 18.8358 169.619 18.7445C169.177 18.6439 168.764 18.6226 168.382 18.6807L168.51 16.337C169.106 16.2996 169.749 16.3766 170.44 16.5679C171.145 16.7551 171.801 17.0201 172.406 17.3627C173.654 18.0694 174.455 18.9039 174.81 19.8661C175.179 20.8243 175.018 21.9133 174.327 23.1332L171.91 27.4026L169.4 25.9812ZM167.058 24.824C166.443 24.476 165.982 24.0775 165.674 23.6286C165.367 23.1796 165.201 22.7113 165.177 22.2234C165.163 21.741 165.282 21.2775 165.534 20.8331C165.801 20.3603 166.15 20.0206 166.579 19.814C167.023 19.6033 167.546 19.55 168.149 19.6541C168.757 19.7487 169.459 20.0209 170.253 20.4706L172.069 21.4985L171.274 22.9027L169.827 22.0836C169.392 21.8373 169.044 21.7343 168.784 21.7744C168.534 21.8199 168.342 21.9608 168.208 22.1972C168.074 22.4336 168.057 22.6736 168.156 22.9172C168.256 23.1607 168.461 23.3708 168.773 23.5475C169.066 23.7135 169.371 23.7924 169.688 23.7844C170.02 23.7723 170.328 23.6471 170.613 23.4088L170.419 24.6104C169.978 25.0597 169.471 25.3036 168.9 25.3423C168.343 25.3769 167.729 25.2041 167.058 24.824Z" fill="url(#paint47_linear_366_1941)"/>
<path d="M177.496 30.8049C176.908 30.3937 176.42 29.9259 176.031 29.4017C175.651 28.8836 175.401 28.3112 175.283 27.6845C175.173 27.0641 175.217 26.3853 175.415 25.6481C175.621 24.9173 176.017 24.1334 176.603 23.2965C176.996 22.7357 177.406 22.2536 177.834 21.8502C178.262 21.4469 178.711 21.118 179.181 20.8633C179.666 20.606 180.171 20.435 180.694 20.3504C181.226 20.272 181.778 20.2799 182.349 20.3742C182.919 20.4685 183.518 20.6554 184.145 20.9349L188.124 22.7251L186.985 25.0914L183.539 23.5348C183.327 23.4396 183.091 23.3408 182.831 23.2384C182.58 23.1423 182.315 23.076 182.035 23.0396C181.762 22.9942 181.474 22.9982 181.171 23.0517C180.877 23.1114 180.574 23.2507 180.262 23.4697C179.965 23.6861 179.666 24.0079 179.367 24.4353C179.28 24.5599 179.213 24.6654 179.166 24.7518C179.134 24.8354 179.088 24.9294 179.028 25.0335C178.975 25.1288 178.883 25.2699 178.752 25.4568L178.502 24.3072C178.977 24.0828 179.452 23.9443 179.927 23.8917C180.41 23.8454 180.897 23.8881 181.389 24.0198C181.88 24.1515 182.366 24.3855 182.847 24.722C183.55 25.2142 184.059 25.7759 184.374 26.407C184.694 27.0292 184.82 27.6742 184.75 28.3418C184.696 29.0068 184.457 29.642 184.033 30.2474C183.535 30.9596 182.927 31.4493 182.21 31.7164C181.498 31.9747 180.731 32.0282 179.909 31.8769C179.101 31.723 178.297 31.3657 177.496 30.8049ZM178.908 28.9286C179.202 29.1343 179.5 29.2495 179.8 29.2744C180.11 29.3055 180.405 29.2534 180.686 29.1181C180.966 28.9827 181.203 28.7771 181.396 28.5011C181.595 28.2162 181.704 27.9278 181.723 27.6358C181.742 27.3438 181.68 27.062 181.539 26.7905C181.406 26.5253 181.193 26.2898 180.899 26.0842C180.605 25.8786 180.302 25.7527 179.99 25.7064C179.686 25.6664 179.403 25.7007 179.142 25.8093C178.88 25.918 178.653 26.1103 178.459 26.3863C178.266 26.6622 178.151 26.9596 178.114 27.2783C178.076 27.597 178.122 27.901 178.251 28.1903C178.396 28.4769 178.615 28.723 178.908 28.9286Z" fill="url(#paint48_linear_366_1941)"/>
<path d="M186.167 36.768C185.598 36.2798 185.218 35.7386 185.026 35.1445C184.841 34.5421 184.857 33.8974 185.075 33.2104C185.307 32.5222 185.763 31.7822 186.442 30.9905C187.128 30.1905 187.786 29.6238 188.416 29.2906C189.053 28.949 189.675 28.8244 190.283 28.9166C190.899 29.0159 191.509 29.3238 192.111 29.8403C192.721 30.3638 193.15 30.9822 193.397 31.6954C193.659 32.4074 193.712 33.147 193.555 33.9142C193.413 34.6803 193.038 35.4179 192.43 36.1272C191.821 36.8365 191.146 37.3235 190.403 37.5884C189.669 37.8603 188.93 37.9207 188.186 37.7695C187.45 37.6254 186.778 37.2915 186.167 36.768ZM179.985 35.4375L187.797 26.3325L190.036 28.2535L189.059 29.3916L187.147 31.5954L185.361 33.9283L182.336 37.454L179.985 35.4375ZM187.275 34.4754C187.539 34.7018 187.827 34.8416 188.139 34.8948C188.46 34.9551 188.785 34.9187 189.114 34.7856C189.451 34.6597 189.764 34.4276 190.054 34.0895C190.345 33.7513 190.526 33.4061 190.599 33.0537C190.681 32.7084 190.668 32.3819 190.559 32.0743C190.459 31.7737 190.277 31.5102 190.013 31.2837C189.749 31.0573 189.457 30.914 189.137 30.8537C188.824 30.8006 188.5 30.837 188.162 30.9629C187.833 31.096 187.524 31.3316 187.234 31.6697C186.944 32.0078 186.758 32.3495 186.677 32.6949C186.603 33.0472 186.617 33.3737 186.717 33.6743C186.825 33.982 187.011 34.249 187.275 34.4754Z" fill="url(#paint49_linear_366_1941)"/>
<path d="M193.934 43.2566L195.111 42.1053L195.254 41.6689L197.421 39.5486C197.771 39.2066 197.932 38.8357 197.906 38.4358C197.895 38.0361 197.661 37.6033 197.205 37.1373C196.909 36.8343 196.558 36.5769 196.153 36.3651C195.756 36.1456 195.366 36.0107 194.982 35.9604L195.756 33.7443C196.338 33.8736 196.935 34.126 197.545 34.5015C198.171 34.8771 198.728 35.3135 199.214 35.8106C200.217 36.8358 200.755 37.8598 200.829 38.8826C200.917 39.9056 200.461 40.9073 199.459 41.8876L195.952 45.3188L193.934 43.2566ZM192.006 41.4951C191.512 40.9903 191.179 40.4795 191.008 39.9628C190.837 39.4461 190.808 38.9501 190.921 38.475C191.041 38.0075 191.284 37.5952 191.649 37.2381C192.037 36.8581 192.466 36.6284 192.936 36.549C193.421 36.4697 193.938 36.5638 194.489 36.831C195.047 37.0907 195.645 37.5467 196.283 38.1992L197.742 39.6904L196.589 40.8189L195.426 39.6306C195.077 39.2733 194.771 39.0779 194.511 39.0443C194.257 39.0185 194.034 39.1006 193.839 39.2906C193.645 39.4805 193.562 39.7063 193.59 39.9679C193.618 40.2295 193.757 40.4884 194.008 40.7447C194.244 40.9855 194.515 41.146 194.821 41.2261C195.143 41.3065 195.474 41.2717 195.813 41.1217L195.294 42.2226C194.745 42.5316 194.191 42.6255 193.631 42.5041C193.087 42.3829 192.545 42.0466 192.006 41.4951Z" fill="url(#paint50_linear_366_1941)"/>
<path d="M198.815 48.0473L204.221 43.5105L204.126 44.4625L201.863 41.7655L203.748 40.1834L209.385 46.9009L207.5 48.483L205.237 45.786L206.201 45.8704L200.795 50.4071L198.815 48.0473Z" fill="url(#paint51_linear_366_1941)"/>
<path d="M210.932 53.1143C211.596 54.082 211.896 54.966 211.833 55.7663C211.77 56.5666 211.351 57.2378 210.576 57.7799C209.775 58.3406 208.937 58.4892 208.063 58.2256C207.204 57.9647 206.421 57.3192 205.713 56.2891L202.966 52.363L210.204 47.2976L211.97 49.8215L209.727 51.3916L210.932 53.1143ZM207.272 54.8204C207.484 55.1231 207.72 55.3092 207.981 55.3787C208.242 55.4481 208.519 55.3801 208.813 55.1745C209.115 54.9626 209.27 54.7285 209.276 54.4721C209.289 54.2247 209.19 53.942 208.981 53.6242L208.177 52.4757L206.481 53.6626L207.272 54.8204Z" fill="url(#paint52_linear_366_1941)"/>
<path d="M212.71 67.0091C212.377 66.3736 212.159 65.7335 212.055 65.089C211.956 64.4541 211.998 63.8312 212.181 63.2203C212.369 62.619 212.721 62.0367 213.236 61.4732C213.755 60.9193 214.468 60.4057 215.373 59.9322C215.979 59.6149 216.565 59.3758 217.131 59.2148C217.697 59.0538 218.247 58.9684 218.782 58.9586C219.331 58.9534 219.857 59.0337 220.361 59.1995C220.869 59.3749 221.355 59.6358 221.819 59.9821C222.282 60.3285 222.727 60.7699 223.155 61.3065L225.864 64.7273L223.764 66.304L221.421 63.3358C221.276 63.1537 221.112 62.9575 220.929 62.747C220.75 62.5461 220.545 62.3651 220.314 62.2041C220.092 62.038 219.834 61.9091 219.541 61.8172C219.253 61.735 218.919 61.7192 218.541 61.7699C218.178 61.8251 217.765 61.9736 217.303 62.2154C217.168 62.2859 217.06 62.3486 216.978 62.4036C216.911 62.4631 216.827 62.5254 216.726 62.5905C216.635 62.6504 216.488 62.7333 216.286 62.8391L216.593 61.7034C217.119 61.723 217.604 61.8186 218.05 61.9903C218.5 62.1716 218.913 62.4338 219.289 62.7769C219.664 63.12 219.988 63.5515 220.26 64.0715C220.658 64.8322 220.851 65.565 220.84 66.27C220.838 66.9699 220.653 67.6003 220.284 68.1611C219.93 68.7265 219.425 69.1805 218.77 69.5229C218 69.9258 217.235 70.0808 216.475 69.9877C215.725 69.8897 215.019 69.5842 214.359 69.0713C213.713 68.5631 213.163 67.8757 212.71 67.0091ZM214.827 65.9934C214.994 66.3112 215.204 66.5503 215.46 66.7109C215.721 66.8811 216.007 66.9707 216.318 66.9796C216.629 66.9885 216.934 66.9149 217.233 66.7587C217.541 66.5976 217.77 66.3917 217.921 66.141C218.072 65.8904 218.147 65.612 218.147 65.3058C218.151 65.0092 218.07 64.7021 217.904 64.3843C217.738 64.0665 217.526 63.8152 217.27 63.6304C217.019 63.4551 216.752 63.3555 216.47 63.3315C216.188 63.3075 215.897 63.3735 215.599 63.5297C215.3 63.6858 215.061 63.8967 214.881 64.1625C214.701 64.4282 214.602 64.7192 214.584 65.0355C214.58 65.3564 214.661 65.6757 214.827 65.9934Z" fill="url(#paint53_linear_366_1941)"/>
<path d="M215.77 71.1363L223.969 67.8475L225.116 70.7067L220.819 72.43L226.493 74.1408L227.555 76.7882L219.356 80.077L218.203 77.2026L222.514 75.4733L216.838 73.7988L215.77 71.1363Z" fill="url(#paint54_linear_366_1941)"/>
<path d="M220.233 80.8016L222.695 80.2199C222.706 80.2959 222.715 80.3668 222.723 80.4324C222.742 80.495 222.758 80.5524 222.773 80.6046C222.849 80.8654 222.971 81.0505 223.139 81.1601C223.32 81.2771 223.536 81.3386 223.787 81.3448C224.041 81.3613 224.324 81.3412 224.635 81.2843C224.961 81.2348 225.307 81.1621 225.675 81.0661L229.248 80.1606L231.483 87.8284L223.002 90.3003L222.135 87.327L228.927 85.3477L228.445 86.2011L227.456 82.8053L228.342 83.226L226.312 83.7159C225.541 83.9066 224.828 84.0409 224.171 84.119C223.528 84.2045 222.957 84.2068 222.458 84.1259C221.959 84.0449 221.537 83.8568 221.19 83.5616C220.858 83.2738 220.611 82.8534 220.449 82.3005C220.392 82.1023 220.347 81.8719 220.316 81.6094C220.277 81.3603 220.25 81.0911 220.233 80.8016Z" fill="url(#paint55_linear_366_1941)"/>
<path d="M224.338 95.3367C224.135 94.3135 224.149 93.3801 224.38 92.5365C224.624 91.7015 225.039 91.0041 225.626 90.4443C226.225 89.8932 226.957 89.5318 227.82 89.3603C228.683 89.1888 229.491 89.2388 230.243 89.5105C231.008 89.7906 231.649 90.256 232.166 90.9066C232.693 91.5552 233.047 92.3324 233.227 93.2383C233.396 94.091 233.375 94.904 233.163 95.6773C232.962 96.4485 232.567 97.1086 231.978 97.6577C231.389 98.2067 230.615 98.5765 229.656 98.7671C229.549 98.7883 229.426 98.8073 229.285 98.8242C229.144 98.841 229.014 98.8558 228.895 98.8684L227.532 92.0099L229.131 91.6923L230.173 96.9361L229.496 95.874C229.893 95.8063 230.219 95.6639 230.475 95.4469C230.733 95.2405 230.915 94.9829 231.02 94.674C231.127 94.3758 231.144 94.0455 231.072 93.6831C231 93.3207 230.857 93.0169 230.642 92.7715C230.429 92.5368 230.158 92.3745 229.83 92.2846C229.513 92.1925 229.157 92.1857 228.763 92.264L228.299 92.3561C227.873 92.4408 227.522 92.5992 227.247 92.8311C226.974 93.0737 226.785 93.3771 226.68 93.7414C226.586 94.1036 226.584 94.5138 226.675 94.9721C226.76 95.3984 226.89 95.7492 227.067 96.0243C227.256 96.308 227.508 96.5736 227.823 96.8212L226.478 98.7503C225.937 98.4256 225.484 97.9839 225.118 97.4251C224.763 96.8642 224.503 96.1681 224.338 95.3367Z" fill="url(#paint56_linear_366_1941)"/>
<path d="M226.022 102.397L233.029 101.555L232.429 102.301L232.01 98.8049L234.453 98.5115L235.499 107.218L233.055 107.512L232.635 104.016L233.397 104.614L226.389 105.455L226.022 102.397Z" fill="url(#paint57_linear_366_1941)"/>
<defs>
<linearGradient id="paint0_linear_366_1941" x1="241.492" y1="126.426" x2="225.56" y2="124.947" gradientUnits="userSpaceOnUse">
<stop stop-color="#0145D4"/>
</linearGradient>
<linearGradient id="paint1_linear_366_1941" x1="238.452" y1="148.396" x2="223.041" y2="144.094" gradientUnits="userSpaceOnUse">
<stop stop-color="#0145D4"/>
</linearGradient>
<linearGradient id="paint2_linear_366_1941" x1="235.354" y1="159.434" x2="220.46" y2="153.589" gradientUnits="userSpaceOnUse">
<stop stop-color="#0145D4"/>
</linearGradient>
<linearGradient id="paint3_linear_366_1941" x1="231.302" y1="169.799" x2="216.99" y2="162.647" gradientUnits="userSpaceOnUse">
<stop stop-color="#0145D4"/>
</linearGradient>
<linearGradient id="paint4_linear_366_1941" x1="226.481" y1="179.356" x2="212.765" y2="171.117" gradientUnits="userSpaceOnUse">
<stop stop-color="#0145D4"/>
</linearGradient>
<linearGradient id="paint5_linear_366_1941" x1="221.455" y1="187.677" x2="208.516" y2="178.265" gradientUnits="userSpaceOnUse">
<stop stop-color="#0145D4"/>
</linearGradient>
<linearGradient id="paint6_linear_366_1941" x1="212.16" y1="199.892" x2="200.522" y2="188.912" gradientUnits="userSpaceOnUse">
<stop stop-color="#0145D4"/>
</linearGradient>
<linearGradient id="paint7_linear_366_1941" x1="204.299" y1="208.204" x2="193.837" y2="196.099" gradientUnits="userSpaceOnUse">
<stop stop-color="#0145D4"/>
</linearGradient>
<linearGradient id="paint8_linear_366_1941" x1="195.197" y1="216.017" x2="185.88" y2="203.01" gradientUnits="userSpaceOnUse">
<stop stop-color="#0145D4"/>
</linearGradient>
<linearGradient id="paint9_linear_366_1941" x1="186.345" y1="222.305" x2="178.207" y2="208.529" gradientUnits="userSpaceOnUse">
<stop stop-color="#0145D4"/>
</linearGradient>
<linearGradient id="paint10_linear_366_1941" x1="177.575" y1="227.427" x2="170.529" y2="213.062" gradientUnits="userSpaceOnUse">
<stop stop-color="#0145D4"/>
</linearGradient>
<linearGradient id="paint11_linear_366_1941" x1="156.858" y1="236.154" x2="152.849" y2="220.665" gradientUnits="userSpaceOnUse">
<stop stop-color="#0145D4"/>
</linearGradient>
<linearGradient id="paint12_linear_366_1941" x1="146.36" y1="238.887" x2="143.724" y2="223.105" gradientUnits="userSpaceOnUse">
<stop stop-color="#0145D4"/>
</linearGradient>
<linearGradient id="paint13_linear_366_1941" x1="134.872" y1="240.746" x2="133.7" y2="224.788" gradientUnits="userSpaceOnUse">
<stop stop-color="#0145D4"/>
</linearGradient>
<linearGradient id="paint14_linear_366_1941" x1="123.077" y1="241.558" x2="123.571" y2="225.566" gradientUnits="userSpaceOnUse">
<stop stop-color="#0145D4"/>
</linearGradient>
<linearGradient id="paint15_linear_366_1941" x1="112.026" y1="241.235" x2="113.933" y2="225.349" gradientUnits="userSpaceOnUse">
<stop stop-color="#0145D4"/>
</linearGradient>
<linearGradient id="paint16_linear_366_1941" x1="101.472" y1="239.934" x2="104.59" y2="224.241" gradientUnits="userSpaceOnUse">
<stop stop-color="#0145D4"/>
</linearGradient>
<linearGradient id="paint17_linear_366_1941" x1="91.9555" y1="238.015" x2="96.4323" y2="222.654" gradientUnits="userSpaceOnUse">
<stop stop-color="#0145D4"/>
</linearGradient>
<linearGradient id="paint18_linear_366_1941" x1="77.281" y1="233.382" x2="83.733" y2="218.741" gradientUnits="userSpaceOnUse">
<stop stop-color="#0145D4"/>
</linearGradient>
<linearGradient id="paint19_linear_366_1941" x1="66.9062" y1="228.802" x2="74.789" y2="214.879" gradientUnits="userSpaceOnUse">
<stop stop-color="#0145D4"/>
</linearGradient>
<linearGradient id="paint20_linear_366_1941" x1="56.4887" y1="222.849" x2="65.6147" y2="209.707" gradientUnits="userSpaceOnUse">
<stop stop-color="#0145D4"/>
</linearGradient>
<linearGradient id="paint21_linear_366_1941" x1="47.6295" y1="216.645" x2="57.8696" y2="204.352" gradientUnits="userSpaceOnUse">
<stop stop-color="#0145D4"/>
</linearGradient>
<linearGradient id="paint22_linear_366_1941" x1="39.8866" y1="210.127" x2="51.0347" y2="198.65" gradientUnits="userSpaceOnUse">
<stop stop-color="#0145D4"/>
</linearGradient>
<linearGradient id="paint23_linear_366_1941" x1="22.1424" y1="190.081" x2="35.673" y2="181.541" gradientUnits="userSpaceOnUse">
<stop stop-color="#0145D4"/>
</linearGradient>
<linearGradient id="paint24_linear_366_1941" x1="16.3295" y1="180.919" x2="30.5617" y2="173.608" gradientUnits="userSpaceOnUse">
<stop stop-color="#0145D4"/>
</linearGradient>
<linearGradient id="paint25_linear_366_1941" x1="11.0928" y1="170.66" x2="25.9428" y2="164.704" gradientUnits="userSpaceOnUse">
<stop stop-color="#0145D4"/>
</linearGradient>
<linearGradient id="paint26_linear_366_1941" x1="6.85548" y1="160.074" x2="22.2333" y2="155.656" gradientUnits="userSpaceOnUse">
<stop stop-color="#0145D4"/>
</linearGradient>
<linearGradient id="paint27_linear_366_1941" x1="3.81153" y1="149.591" x2="19.5166" y2="146.533" gradientUnits="userSpaceOnUse">
<stop stop-color="#0145D4"/>
</linearGradient>
<linearGradient id="paint28_linear_366_1941" x1="1.81498" y1="139.162" x2="17.7081" y2="137.316" gradientUnits="userSpaceOnUse">
<stop stop-color="#0145D4"/>
</linearGradient>
<linearGradient id="paint29_linear_366_1941" x1="0.706887" y1="129.4" x2="16.701" y2="128.968" gradientUnits="userSpaceOnUse">
<stop stop-color="#0145D4"/>
</linearGradient>
<linearGradient id="paint30_linear_366_1941" x1="0.623436" y1="113.626" x2="16.5368" y2="115.289" gradientUnits="userSpaceOnUse">
<stop stop-color="#0145D4"/>
</linearGradient>
<linearGradient id="paint31_linear_366_1941" x1="1.78145" y1="102.432" x2="17.4505" y2="105.669" gradientUnits="userSpaceOnUse">
<stop stop-color="#0145D4"/>
</linearGradient>
<linearGradient id="paint32_linear_366_1941" x1="4.24621" y1="90.63" x2="19.5377" y2="95.3386" gradientUnits="userSpaceOnUse">
<stop stop-color="#0145D4"/>
</linearGradient>
<linearGradient id="paint33_linear_366_1941" x1="7.51701" y1="80.0836" x2="22.322" y2="86.1509" gradientUnits="userSpaceOnUse">
<stop stop-color="#0145D4"/>
</linearGradient>
<linearGradient id="paint34_linear_366_1941" x1="11.2042" y1="71.1001" x2="25.5168" y2="78.2519" gradientUnits="userSpaceOnUse">
<stop stop-color="#0145D4"/>
</linearGradient>
<linearGradient id="paint35_linear_366_1941" x1="24.7459" y1="48.2385" x2="37.0024" y2="58.5233" gradientUnits="userSpaceOnUse">
<stop stop-color="#0145D4"/>
</linearGradient>
<linearGradient id="paint36_linear_366_1941" x1="32.1113" y1="39.4402" x2="43.3839" y2="50.795" gradientUnits="userSpaceOnUse">
<stop stop-color="#0145D4"/>
</linearGradient>
<linearGradient id="paint37_linear_366_1941" x1="39.9557" y1="31.6391" x2="50.151" y2="43.9702" gradientUnits="userSpaceOnUse">
<stop stop-color="#0145D4"/>
</linearGradient>
<linearGradient id="paint38_linear_366_1941" x1="49.1332" y1="24.0665" x2="58.0171" y2="37.3734" gradientUnits="userSpaceOnUse">
<stop stop-color="#0145D4"/>
</linearGradient>
<linearGradient id="paint39_linear_366_1941" x1="58.3103" y1="17.9019" x2="65.9868" y2="31.9401" gradientUnits="userSpaceOnUse">
<stop stop-color="#0145D4"/>
</linearGradient>
<linearGradient id="paint40_linear_366_1941" x1="67.1129" y1="13.0807" x2="73.7282" y2="27.649" gradientUnits="userSpaceOnUse">
<stop stop-color="#0145D4"/>
</linearGradient>
<linearGradient id="paint41_linear_366_1941" x1="76.1648" y1="8.97296" x2="81.4466" y2="24.076" gradientUnits="userSpaceOnUse">
<stop stop-color="#0145D4"/>
</linearGradient>
<linearGradient id="paint42_linear_366_1941" x1="90.4254" y1="4.25424" x2="93.7227" y2="19.9108" gradientUnits="userSpaceOnUse">
<stop stop-color="#0145D4"/>
</linearGradient>
<linearGradient id="paint43_linear_366_1941" x1="102.301" y1="1.77256" x2="103.963" y2="17.686" gradientUnits="userSpaceOnUse">
<stop stop-color="#0145D4"/>
</linearGradient>
<linearGradient id="paint44_linear_366_1941" x1="114.142" y1="0.55552" x2="114.328" y2="16.5544" gradientUnits="userSpaceOnUse">
<stop stop-color="#0145D4"/>
</linearGradient>
<linearGradient id="paint45_linear_366_1941" x1="135.191" y1="1.22702" x2="132.736" y2="17.0376" gradientUnits="userSpaceOnUse">
<stop stop-color="#0145D4"/>
</linearGradient>
<linearGradient id="paint46_linear_366_1941" x1="165.194" y1="8.68075" x2="158.579" y2="23.2491" gradientUnits="userSpaceOnUse">
<stop stop-color="#0145D4"/>
</linearGradient>
<linearGradient id="paint47_linear_366_1941" x1="175.179" y1="13.165" x2="167.296" y2="27.0884" gradientUnits="userSpaceOnUse">
<stop stop-color="#0145D4"/>
</linearGradient>
<linearGradient id="paint48_linear_366_1941" x1="185.565" y1="19.0858" x2="176.391" y2="32.1944" gradientUnits="userSpaceOnUse">
<stop stop-color="#0145D4"/>
</linearGradient>
<linearGradient id="paint49_linear_366_1941" x1="194.687" y1="25.438" x2="184.269" y2="37.5815" gradientUnits="userSpaceOnUse">
<stop stop-color="#0145D4"/>
</linearGradient>
<linearGradient id="paint50_linear_366_1941" x1="203.042" y1="32.547" x2="191.606" y2="43.7367" gradientUnits="userSpaceOnUse">
<stop stop-color="#0145D4"/>
</linearGradient>
<linearGradient id="paint51_linear_366_1941" x1="210.522" y1="40.2193" x2="198.265" y2="50.5042" gradientUnits="userSpaceOnUse">
<stop stop-color="#0145D4"/>
</linearGradient>
<linearGradient id="paint52_linear_366_1941" x1="216.74" y1="47.6282" x2="203.631" y2="56.8022" gradientUnits="userSpaceOnUse">
<stop stop-color="#0145D4"/>
</linearGradient>
<linearGradient id="paint53_linear_366_1941" x1="225.267" y1="60.3186" x2="211.09" y2="67.7343" gradientUnits="userSpaceOnUse">
<stop stop-color="#0145D4"/>
</linearGradient>
<linearGradient id="paint54_linear_366_1941" x1="230.556" y1="70.393" x2="215.706" y2="76.3493" gradientUnits="userSpaceOnUse">
<stop stop-color="#0145D4"/>
</linearGradient>
<linearGradient id="paint55_linear_366_1941" x1="235.183" y1="82.0616" x2="219.822" y2="86.5384" gradientUnits="userSpaceOnUse">
<stop stop-color="#0145D4"/>
</linearGradient>
<linearGradient id="paint56_linear_366_1941" x1="238.155" y1="92.2876" x2="222.462" y2="95.4054" gradientUnits="userSpaceOnUse">
<stop stop-color="#0145D4"/>
</linearGradient>
<linearGradient id="paint57_linear_366_1941" x1="240.104" y1="102.246" x2="224.219" y2="104.153" gradientUnits="userSpaceOnUse">
<stop stop-color="#0145D4"/>
</linearGradient>
</defs>
</svg>
