<svg width="21" height="23" viewBox="0 0 21 23" fill="none" xmlns="http://www.w3.org/2000/svg">
<g id="g56">
<path id="path40" d="M1.34126 0.844872C1.06201 1.17991 0.920789 1.6087 0.9463 2.04411V20.959C0.922233 21.3942 1.06328 21.8225 1.34126 22.1582L1.40589 22.2229L11.9979 11.6236V11.3723L1.40589 0.780243L1.34126 0.844872Z" fill="url(#paint0_linear_366_2671)"/>
<path id="path42" d="M15.5312 15.1562L11.998 11.6231V11.3717L15.5312 7.84584L15.6102 7.88893L19.7968 10.2659C20.9961 10.9409 20.9961 12.054 19.7968 12.7362L15.6102 15.1131L15.5312 15.1562Z" fill="url(#paint1_linear_366_2671)"/>
<path id="path44" d="M15.6096 15.1135L12.0191 11.523L1.34082 22.1581C1.58695 22.3604 1.89339 22.4752 2.2119 22.4843C2.53041 22.4934 2.8429 22.3963 3.10018 22.2083L15.5881 15.1135" fill="url(#paint2_linear_366_2671)"/>
<path id="path46" d="M15.6096 7.88929L3.10018 0.787194C2.84566 0.59151 2.53109 0.490261 2.21021 0.500739C1.88933 0.511217 1.58204 0.632771 1.34082 0.844643L11.9975 11.5014L15.6096 7.88929Z" fill="url(#paint3_linear_366_2671)"/>
<path id="path48" opacity="0.1" d="M15.5306 15.0344L3.10024 22.0862C2.85228 22.2709 2.55132 22.3707 2.2421 22.3707C1.93288 22.3707 1.63192 22.2709 1.38397 22.0862L1.31934 22.1508L1.38397 22.2154C1.63192 22.4002 1.93288 22.5 2.2421 22.5C2.55132 22.5 2.85228 22.4002 3.10024 22.2154L15.5881 15.1205L15.5306 15.0344Z" fill="black"/>
<path id="path50" opacity="0.07" d="M1.34097 22.0434C1.06258 21.7051 0.921615 21.2744 0.946085 20.837V20.959C0.922022 21.3943 1.06305 21.8226 1.34097 22.1583L1.40559 22.0937L1.34097 22.0434Z" fill="black"/>
<path id="path52" opacity="0.07" d="M19.7968 12.6072L15.5312 15.0345L15.6102 15.1134L19.7968 12.7078C20.0423 12.5998 20.2548 12.4285 20.4125 12.2115C20.5703 11.9945 20.6675 11.7395 20.6944 11.4726C20.6454 11.7194 20.5385 11.9509 20.3824 12.1482C20.2263 12.3454 20.0256 12.5028 19.7968 12.6072Z" fill="black"/>
<path id="path54" opacity="0.3" d="M3.10061 0.916323L19.7966 10.3881C20.0232 10.49 20.2226 10.6439 20.3785 10.8373C20.5345 11.0307 20.6427 11.2581 20.6942 11.5012C20.6688 11.2338 20.5721 10.9782 20.4142 10.7609C20.2563 10.5437 20.043 10.3728 19.7966 10.266L3.10061 0.787064C1.92291 0.112045 0.946289 0.672167 0.946289 2.04375V2.16582C0.946289 0.801426 1.92291 0.234123 3.10061 0.916323Z" fill="white"/>
</g>
<defs>
<linearGradient id="paint0_linear_366_2671" x1="11.0644" y1="1.84304" x2="-3.29052" y2="16.198" gradientUnits="userSpaceOnUse">
<stop stop-color="#008EFF"/>
<stop offset="0.01" stop-color="#008FFF"/>
<stop offset="0.26" stop-color="#00ACFF"/>
<stop offset="0.51" stop-color="#00C0FF"/>
<stop offset="0.76" stop-color="#00CDFF"/>
<stop offset="1" stop-color="#00D1FF"/>
</linearGradient>
<linearGradient id="paint1_linear_366_2671" x1="19.9404" y1="11.501" x2="-0.755717" y2="11.501" gradientUnits="userSpaceOnUse">
<stop stop-color="#FFD800"/>
<stop offset="1" stop-color="#FF8A00"/>
</linearGradient>
<linearGradient id="paint2_linear_366_2671" x1="13.6492" y1="13.4619" x2="-5.81134" y2="32.9226" gradientUnits="userSpaceOnUse">
<stop stop-color="#FF3A44"/>
<stop offset="1" stop-color="#B11162"/>
</linearGradient>
<linearGradient id="paint3_linear_366_2671" x1="-1.3449" y1="-5.45317" x2="7.35139" y2="3.23593" gradientUnits="userSpaceOnUse">
<stop stop-color="#328E71"/>
<stop offset="0.07" stop-color="#2D9571"/>
<stop offset="0.48" stop-color="#15BD74"/>
<stop offset="0.8" stop-color="#06D575"/>
<stop offset="1" stop-color="#00DE76"/>
</linearGradient>
</defs>
</svg>
