<svg width="408" height="188" viewBox="0 0 408 188" fill="none" xmlns="http://www.w3.org/2000/svg">
<path d="M123 100.235L123.94 93.8034L123.94 93.8034L123 100.235ZM290 77.5002L292.361 83.5565L290 77.5002ZM407.323 22.0058C408.155 18.5138 405.999 15.0081 402.507 14.1758L345.601 0.611785C342.109 -0.220566 338.604 1.93551 337.771 5.42754C336.939 8.91956 339.095 12.4252 342.587 13.2575L393.17 25.3144L381.113 75.8973C380.281 79.3893 382.437 82.8949 385.929 83.7273C389.421 84.5597 392.926 82.4036 393.759 78.9115L407.323 22.0058ZM7.0006 194C13.1856 195.999 13.185 196.001 13.1845 196.003C13.1845 196.003 13.1842 196.004 13.1842 196.004C13.1843 196.003 13.1849 196.001 13.186 195.998C13.1882 195.991 13.1925 195.978 13.1989 195.959C13.2116 195.92 13.2327 195.857 13.262 195.769C13.3208 195.595 13.4129 195.324 13.5388 194.965C13.7906 194.246 14.1771 193.173 14.7016 191.798C15.7512 189.048 17.3497 185.101 19.5217 180.389C23.8762 170.941 30.4818 158.533 39.508 146.542C57.648 122.445 84.5698 101.188 122.06 106.667L123.94 93.8034C79.6029 87.3235 48.5247 112.949 29.1219 138.724C19.3766 151.67 12.3251 164.945 7.71532 174.947C5.40508 179.959 3.69472 184.179 2.55583 187.164C1.98612 188.657 1.55863 189.843 1.2699 190.667C1.12551 191.079 1.01576 191.401 0.940206 191.625C0.902428 191.738 0.873195 191.826 0.852452 191.889C0.84208 191.92 0.833833 191.945 0.8277 191.964C0.824632 191.974 0.822094 191.981 0.820085 191.988C0.819079 191.991 0.817966 191.994 0.817466 191.996C0.816485 191.999 0.815637 192.001 7.0006 194ZM122.06 106.667C187.33 116.206 231.485 107.281 292.361 83.5565L287.64 71.4439C228.238 94.594 186.402 102.932 123.94 93.8034L122.06 106.667ZM292.361 83.5565C317.762 73.6572 345.804 59.2462 367.384 47.3874C378.199 41.4441 387.441 36.114 393.983 32.2677C397.255 30.3442 399.853 28.7907 401.636 27.7159C402.528 27.1785 403.217 26.7607 403.684 26.4761C403.918 26.3338 404.096 26.2248 404.217 26.1507C404.277 26.1137 404.324 26.0855 404.355 26.0661C404.371 26.0565 404.383 26.0491 404.391 26.0439C404.395 26.0413 404.399 26.0393 404.401 26.0379C404.402 26.0372 404.403 26.0365 404.404 26.0362C404.405 26.0357 404.405 26.0353 401 20.4987C397.595 14.962 397.595 14.9619 397.595 14.962C397.594 14.9622 397.594 14.9624 397.593 14.9629C397.592 14.9637 397.59 14.9651 397.587 14.9671C397.58 14.971 397.57 14.9772 397.556 14.9857C397.529 15.0026 397.487 15.0284 397.43 15.063C397.317 15.1321 397.147 15.2361 396.922 15.3733C396.471 15.6477 395.8 16.0548 394.927 16.5812C393.18 17.634 390.622 19.1634 387.394 21.0612C380.937 24.8575 371.806 30.1235 361.123 35.9944C339.705 47.764 312.247 61.8538 287.64 71.4439L292.361 83.5565Z" fill="white"/>
</svg>
