<svg width="242" height="242" viewBox="0 0 242 242" fill="none" xmlns="http://www.w3.org/2000/svg">
<path d="M228.9 120.132L231.067 121.299C230.773 121.763 230.536 122.254 230.357 122.772C230.178 123.29 230.055 123.797 229.987 124.293C229.919 124.789 229.91 125.241 229.959 125.649C230.018 126.069 230.134 126.408 230.307 126.664C230.48 126.92 230.723 127.062 231.037 127.091C231.383 127.124 231.645 127.001 231.824 126.723C232.012 126.456 232.128 126.091 232.171 125.625L232.441 122.72L234.794 122.939L234.549 125.584C234.508 126.017 234.564 126.36 234.715 126.614C234.866 126.869 235.087 127.009 235.38 127.036C235.661 127.062 235.892 126.98 236.074 126.79C236.266 126.6 236.41 126.335 236.508 125.995C236.615 125.656 236.679 125.269 236.697 124.834C236.716 124.399 236.676 123.943 236.579 123.464C236.492 122.987 236.355 122.521 236.168 122.068L238.658 121.349C238.965 122.153 239.15 122.983 239.212 123.84C239.274 124.697 239.231 125.522 239.081 126.316C238.93 127.109 238.685 127.818 238.343 128.441C238.012 129.065 237.602 129.545 237.113 129.882C236.622 130.229 236.068 130.374 235.452 130.317C234.911 130.267 234.443 130.076 234.048 129.745C233.653 129.413 233.36 128.988 233.168 128.468C232.976 127.948 232.91 127.364 232.97 126.714L233.645 126.859C233.575 127.605 233.385 128.243 233.074 128.77C232.762 129.309 232.365 129.708 231.883 129.969C231.41 130.242 230.881 130.351 230.297 130.297C229.745 130.246 229.266 130.054 228.861 129.722C228.465 129.401 228.145 128.973 227.9 128.437C227.655 127.902 227.492 127.297 227.413 126.624C227.322 125.961 227.316 125.257 227.396 124.511C227.466 123.764 227.628 123.016 227.883 122.264C228.137 121.524 228.476 120.813 228.9 120.132Z" fill="url(#paint0_linear_1_1285)"/>
<path d="M224.72 144.675C224.913 143.984 225.192 143.368 225.557 142.827C225.92 142.296 226.377 141.871 226.929 141.551C227.477 141.242 228.132 141.058 228.893 141C229.651 140.952 230.522 141.065 231.506 141.34C232.165 141.524 232.756 141.751 233.279 142.021C233.801 142.291 234.261 142.605 234.657 142.964C235.061 143.336 235.39 143.755 235.643 144.221C235.894 144.697 236.069 145.22 236.17 145.789C236.27 146.359 236.293 146.986 236.237 147.67L235.87 152.018L233.26 151.729L233.584 147.961C233.603 147.73 233.618 147.474 233.628 147.195C233.636 146.926 233.61 146.654 233.552 146.378C233.504 146.106 233.404 145.835 233.253 145.567C233.1 145.31 232.868 145.071 232.557 144.849C232.254 144.64 231.852 144.465 231.349 144.325C231.203 144.284 231.081 144.256 230.984 144.24C230.894 144.238 230.791 144.226 230.673 144.204C230.565 144.185 230.401 144.145 230.182 144.084L231.183 143.466C231.553 143.84 231.841 144.242 232.048 144.673C232.252 145.113 232.374 145.587 232.413 146.094C232.451 146.602 232.392 147.138 232.234 147.703C232.003 148.53 231.643 149.196 231.152 149.702C230.671 150.211 230.104 150.544 229.452 150.7C228.806 150.87 228.128 150.855 227.416 150.656C226.579 150.423 225.915 150.012 225.425 149.424C224.945 148.838 224.64 148.133 224.51 147.307C224.387 146.494 224.457 145.616 224.72 144.675ZM226.959 145.384C226.862 145.729 226.852 146.048 226.929 146.34C227.002 146.643 227.149 146.904 227.37 147.124C227.591 147.343 227.863 147.498 228.188 147.589C228.523 147.682 228.831 147.689 229.113 147.61C229.394 147.531 229.64 147.379 229.849 147.155C230.055 146.942 230.206 146.663 230.303 146.318C230.399 145.972 230.417 145.644 230.357 145.334C230.294 145.035 230.168 144.779 229.978 144.569C229.789 144.358 229.532 144.207 229.208 144.117C228.883 144.026 228.565 144.016 228.252 144.087C227.939 144.157 227.667 144.301 227.437 144.519C227.214 144.75 227.055 145.039 226.959 145.384Z" fill="url(#paint1_linear_1_1285)"/>
<path d="M221.853 155.114C222.127 154.416 222.513 153.879 223.011 153.502C223.519 153.13 224.133 152.933 224.854 152.912C225.58 152.905 226.429 153.092 227.4 153.473C228.381 153.858 229.133 154.293 229.654 154.778C230.186 155.267 230.509 155.814 230.622 156.419C230.73 157.033 230.64 157.71 230.35 158.448C230.057 159.197 229.614 159.805 229.021 160.273C228.435 160.755 227.754 161.048 226.978 161.152C226.208 161.27 225.388 161.159 224.518 160.817C223.648 160.476 222.966 159.998 222.471 159.384C221.973 158.78 221.673 158.102 221.571 157.35C221.466 156.608 221.56 155.862 221.853 155.114ZM221.077 148.838L232.244 153.221L231.166 155.967L229.77 155.419L227.06 154.338L224.27 153.418L219.945 151.721L221.077 148.838ZM224.383 155.406C224.256 155.73 224.218 156.048 224.271 156.36C224.319 156.683 224.461 156.978 224.694 157.244C224.924 157.521 225.246 157.741 225.661 157.904C226.076 158.067 226.462 158.125 226.819 158.078C227.171 158.041 227.475 157.921 227.73 157.718C227.981 157.525 228.17 157.266 228.297 156.942C228.424 156.619 228.464 156.296 228.415 155.973C228.363 155.661 228.221 155.366 227.992 155.089C227.758 154.822 227.434 154.607 227.019 154.444C226.604 154.282 226.22 154.219 225.867 154.255C225.51 154.302 225.207 154.422 224.956 154.615C224.701 154.819 224.51 155.082 224.383 155.406Z" fill="url(#paint2_linear_1_1285)"/>
<path d="M218.206 164.691L219.679 165.427L220.138 165.42L222.85 166.775C223.287 166.993 223.691 167.025 224.06 166.869C224.434 166.728 224.767 166.366 225.058 165.783C225.248 165.404 225.377 164.988 225.444 164.536C225.522 164.089 225.522 163.676 225.444 163.297L227.791 163.304C227.86 163.897 227.816 164.543 227.661 165.243C227.51 165.957 227.279 166.625 226.969 167.248C226.327 168.531 225.536 169.374 224.593 169.778C223.655 170.196 222.559 170.091 221.305 169.465L216.917 167.272L218.206 164.691ZM219.241 162.293C219.556 161.661 219.93 161.18 220.363 160.849C220.795 160.518 221.254 160.329 221.74 160.28C222.221 160.241 222.69 160.336 223.147 160.564C223.633 160.807 223.991 161.137 224.219 161.555C224.452 161.988 224.533 162.508 224.46 163.115C224.397 163.727 224.161 164.442 223.753 165.258L222.821 167.125L221.377 166.403L222.121 164.916C222.344 164.469 222.429 164.117 222.375 163.859C222.317 163.611 222.166 163.427 221.923 163.305C221.68 163.184 221.44 163.179 221.202 163.291C220.964 163.403 220.764 163.619 220.604 163.94C220.454 164.241 220.39 164.55 220.415 164.866C220.444 165.196 220.585 165.497 220.838 165.769L219.628 165.638C219.156 165.221 218.886 164.727 218.818 164.159C218.755 163.605 218.896 162.983 219.241 162.293Z" fill="url(#paint3_linear_1_1285)"/>
<path d="M215.266 170.836L221.316 174.47L220.385 174.691L222.198 171.673L224.308 172.94L219.792 180.457L217.683 179.19L219.496 176.172L219.73 177.111L213.68 173.477L215.266 170.836Z" fill="url(#paint4_linear_1_1285)"/>
<path d="M214.379 183.969C213.68 184.911 212.942 185.483 212.164 185.683C211.387 185.884 210.616 185.706 209.852 185.15C209.061 184.574 208.648 183.831 208.613 182.918C208.58 182.021 208.936 181.07 209.68 180.066L212.498 176.191L219.643 181.388L217.83 183.879L215.616 182.268L214.379 183.969ZM211.575 181.062C211.358 181.361 211.259 181.645 211.278 181.914C211.297 182.184 211.452 182.424 211.742 182.635C212.04 182.852 212.312 182.922 212.557 182.844C212.795 182.776 213.03 182.591 213.262 182.29L214.087 181.156L212.413 179.938L211.575 181.062Z" fill="url(#paint5_linear_1_1285)"/>
<path d="M201.736 190.207C202.229 189.685 202.762 189.27 203.338 188.961C203.905 188.66 204.508 188.496 205.145 188.47C205.775 188.452 206.44 188.594 207.141 188.896C207.834 189.207 208.552 189.712 209.295 190.413C209.793 190.883 210.21 191.359 210.547 191.841C210.884 192.324 211.144 192.816 211.328 193.318C211.512 193.835 211.608 194.359 211.616 194.889C211.616 195.427 211.528 195.971 211.352 196.522C211.176 197.073 210.904 197.638 210.537 198.218L208.187 201.895L206.012 200.425L208.052 197.241C208.177 197.045 208.309 196.826 208.448 196.584C208.58 196.349 208.684 196.096 208.76 195.825C208.845 195.561 208.883 195.276 208.874 194.969C208.858 194.669 208.764 194.349 208.592 194.008C208.421 193.683 208.146 193.341 207.767 192.983C207.656 192.879 207.562 192.797 207.483 192.738C207.405 192.694 207.319 192.635 207.224 192.561C207.138 192.494 207.011 192.382 206.846 192.226L208.019 192.145C208.172 192.648 208.24 193.138 208.223 193.615C208.199 194.1 208.086 194.576 207.884 195.044C207.683 195.511 207.381 195.958 206.978 196.384C206.389 197.009 205.759 197.431 205.089 197.65C204.427 197.877 203.771 197.907 203.12 197.742C202.47 197.592 201.876 197.263 201.339 196.756C200.707 196.159 200.31 195.487 200.15 194.738C199.998 193.997 200.056 193.23 200.325 192.438C200.595 191.662 201.065 190.918 201.736 190.207ZM203.388 191.877C203.142 192.137 202.984 192.415 202.916 192.709C202.84 193.011 202.849 193.31 202.942 193.608C203.035 193.905 203.205 194.169 203.45 194.4C203.703 194.639 203.972 194.788 204.258 194.849C204.544 194.91 204.832 194.89 205.121 194.79C205.403 194.697 205.667 194.52 205.913 194.259C206.159 193.998 206.328 193.717 206.419 193.414C206.503 193.12 206.51 192.835 206.44 192.56C206.371 192.286 206.213 192.033 205.968 191.802C205.723 191.57 205.446 191.413 205.136 191.33C204.826 191.247 204.519 191.248 204.214 191.334C203.909 191.435 203.634 191.616 203.388 191.877Z" fill="url(#paint6_linear_1_1285)"/>
<path d="M198.789 194.463L204.565 201.147L202.234 203.162L199.208 199.659L199.435 205.581L197.277 207.446L191.5 200.762L193.843 198.737L196.881 202.252L196.618 196.339L198.789 194.463Z" fill="url(#paint7_linear_1_1285)"/>
<path d="M191.428 201.495L192.793 203.625C192.725 203.66 192.661 203.693 192.602 203.722C192.549 203.76 192.5 203.794 192.456 203.826C192.235 203.984 192.101 204.161 192.053 204.355C192.003 204.565 192.017 204.789 192.094 205.028C192.162 205.273 192.275 205.533 192.432 205.808C192.587 206.098 192.77 206.401 192.983 206.717L195.022 209.788L188.529 214.438L183.385 207.256L185.902 205.453L190.022 211.204L189.057 211.033L191.932 208.973L191.83 209.949L190.694 208.196C190.259 207.532 189.895 206.904 189.604 206.31C189.31 205.732 189.119 205.194 189.03 204.697C188.94 204.199 188.978 203.738 189.141 203.313C189.303 202.904 189.617 202.531 190.085 202.196C190.253 202.076 190.456 201.957 190.693 201.841C190.915 201.722 191.16 201.607 191.428 201.495Z" fill="url(#paint8_linear_1_1285)"/>
<path d="M178.895 210.277C179.793 209.746 180.678 209.45 181.551 209.389C182.419 209.343 183.215 209.504 183.937 209.872C184.656 210.256 185.239 210.826 185.687 211.584C186.135 212.342 186.355 213.12 186.347 213.92C186.336 214.734 186.109 215.493 185.667 216.196C185.229 216.909 184.613 217.5 183.818 217.97C183.069 218.412 182.295 218.661 181.495 218.717C180.701 218.783 179.947 218.628 179.234 218.254C178.521 217.881 177.916 217.273 177.418 216.431C177.363 216.337 177.304 216.227 177.242 216.099C177.179 215.972 177.122 215.855 177.071 215.746L183.091 212.19L183.92 213.593L179.317 216.312L180.096 215.322C180.291 215.674 180.533 215.935 180.823 216.104C181.103 216.28 181.406 216.366 181.732 216.362C182.049 216.364 182.366 216.271 182.685 216.084C183.003 215.896 183.242 215.66 183.402 215.376C183.553 215.097 183.617 214.788 183.593 214.449C183.575 214.119 183.463 213.781 183.259 213.435L183.019 213.028C182.797 212.653 182.532 212.375 182.222 212.192C181.903 212.015 181.554 211.937 181.175 211.958C180.802 211.989 180.415 212.124 180.012 212.361C179.638 212.582 179.351 212.822 179.149 213.079C178.944 213.352 178.777 213.678 178.648 214.057L176.382 213.427C176.51 212.809 176.776 212.235 177.182 211.705C177.594 211.184 178.165 210.708 178.895 210.277Z" fill="url(#paint9_linear_1_1285)"/>
<path d="M172.781 214.184L175.889 220.521L174.988 220.201L178.149 218.65L179.233 220.86L171.359 224.722L170.275 222.512L173.436 220.961L173.123 221.878L170.015 215.541L172.781 214.184Z" fill="url(#paint10_linear_1_1285)"/>
<path d="M158.511 222.175L158.148 224.609C157.612 224.49 157.07 224.433 156.522 224.441C155.974 224.448 155.455 224.503 154.966 224.608C154.476 224.712 154.048 224.856 153.68 225.041C153.305 225.239 153.026 225.463 152.844 225.712C152.661 225.962 152.61 226.239 152.689 226.544C152.776 226.881 152.98 227.086 153.303 227.159C153.617 227.246 154 227.231 154.453 227.114L157.277 226.383L157.869 228.671L155.297 229.337C154.876 229.446 154.572 229.615 154.384 229.843C154.196 230.071 154.139 230.327 154.213 230.611C154.283 230.885 154.439 231.074 154.68 231.181C154.923 231.297 155.222 231.343 155.575 231.319C155.93 231.306 156.316 231.234 156.731 231.104C157.146 230.974 157.563 230.782 157.98 230.529C158.399 230.285 158.791 229.999 159.155 229.669L160.674 231.767C160.023 232.329 159.304 232.784 158.519 233.133C157.734 233.482 156.943 233.721 156.145 233.849C155.347 233.977 154.598 233.985 153.896 233.875C153.196 233.776 152.606 233.553 152.123 233.206C151.63 232.862 151.306 232.39 151.151 231.791C151.015 231.265 151.035 230.76 151.213 230.276C151.391 229.792 151.692 229.372 152.116 229.016C152.54 228.659 153.068 228.399 153.699 228.235L153.791 228.919C153.066 229.107 152.402 229.144 151.8 229.03C151.188 228.919 150.677 228.681 150.268 228.315C149.851 227.963 149.569 227.503 149.422 226.935C149.284 226.398 149.302 225.883 149.477 225.388C149.644 224.907 149.938 224.461 150.359 224.049C150.78 223.637 151.294 223.279 151.9 222.977C152.493 222.666 153.154 222.422 153.883 222.245C154.608 222.057 155.368 221.956 156.161 221.941C156.944 221.929 157.727 222.007 158.511 222.175Z" fill="url(#paint11_linear_1_1285)"/>
<path d="M142.787 225.29L143.058 226.914L143.334 227.281L143.834 230.271C143.914 230.753 144.126 231.098 144.469 231.305C144.804 231.525 145.292 231.581 145.935 231.473C146.353 231.404 146.765 231.263 147.17 231.052C147.578 230.852 147.912 230.609 148.172 230.323L149.548 232.225C149.108 232.629 148.56 232.974 147.903 233.26C147.236 233.559 146.56 233.765 145.874 233.88C144.46 234.116 143.312 233.972 142.431 233.447C141.541 232.934 140.981 231.987 140.75 230.604L139.941 225.765L142.787 225.29ZM145.335 224.715C146.032 224.599 146.641 224.619 147.163 224.774C147.684 224.929 148.108 225.189 148.433 225.553C148.748 225.919 148.947 226.354 149.031 226.858C149.121 227.394 149.064 227.877 148.86 228.308C148.648 228.751 148.275 229.122 147.741 229.42C147.208 229.729 146.492 229.959 145.592 230.11L143.534 230.453L143.268 228.862L144.908 228.588C145.401 228.505 145.736 228.367 145.913 228.172C146.079 227.979 146.139 227.749 146.095 227.481C146.05 227.213 145.912 227.015 145.682 226.889C145.451 226.762 145.159 226.728 144.805 226.787C144.473 226.843 144.186 226.973 143.945 227.179C143.695 227.397 143.535 227.688 143.463 228.052L142.857 226.997C142.918 226.37 143.158 225.861 143.578 225.472C143.988 225.095 144.574 224.843 145.335 224.715Z" fill="url(#paint12_linear_1_1285)"/>
<path d="M133.722 226.563C134.437 226.511 135.111 226.565 135.744 226.726C136.366 226.887 136.921 227.173 137.408 227.584C137.885 227.996 138.28 228.55 138.593 229.246C138.895 229.943 139.083 230.8 139.158 231.819C139.208 232.502 139.194 233.135 139.117 233.718C139.04 234.301 138.9 234.84 138.697 235.334C138.483 235.84 138.2 236.291 137.848 236.688C137.485 237.085 137.053 237.427 136.551 237.714C136.049 238.002 135.467 238.235 134.804 238.415L130.589 239.541L129.976 236.988L133.631 236.017C133.856 235.957 134.101 235.884 134.367 235.799C134.622 235.715 134.87 235.599 135.11 235.45C135.35 235.313 135.571 235.128 135.772 234.895C135.962 234.663 136.109 234.364 136.212 233.997C136.306 233.641 136.334 233.203 136.296 232.683C136.285 232.531 136.27 232.407 136.252 232.31C136.224 232.225 136.2 232.123 136.18 232.005C136.162 231.898 136.144 231.73 136.127 231.502L137.047 232.236C136.821 232.71 136.54 233.117 136.205 233.458C135.86 233.799 135.455 234.074 134.991 234.282C134.527 234.491 134.002 234.617 133.417 234.659C132.561 234.722 131.812 234.608 131.169 234.318C130.528 234.038 130.023 233.618 129.655 233.056C129.277 232.507 129.061 231.863 129.007 231.126C128.943 230.259 129.105 229.496 129.492 228.835C129.88 228.186 130.441 227.66 131.174 227.257C131.897 226.866 132.746 226.635 133.722 226.563ZM133.812 228.91C133.455 228.937 133.151 229.035 132.902 229.206C132.643 229.377 132.447 229.604 132.315 229.886C132.183 230.168 132.13 230.477 132.154 230.813C132.18 231.16 132.277 231.453 132.447 231.691C132.617 231.929 132.843 232.108 133.124 232.229C133.395 232.351 133.709 232.399 134.066 232.373C134.424 232.347 134.739 232.253 135.01 232.091C135.271 231.93 135.468 231.725 135.602 231.476C135.736 231.226 135.791 230.933 135.767 230.597C135.742 230.261 135.643 229.958 135.471 229.687C135.299 229.417 135.071 229.21 134.788 229.067C134.495 228.936 134.17 228.884 133.812 228.91Z" fill="url(#paint13_linear_1_1285)"/>
<path d="M122.603 227.389C123.353 227.413 123.989 227.595 124.511 227.938C125.033 228.291 125.424 228.803 125.686 229.474C125.937 230.156 126.046 231.018 126.014 232.061C125.982 233.114 125.825 233.968 125.544 234.623C125.262 235.288 124.856 235.776 124.324 236.085C123.782 236.395 123.115 236.537 122.322 236.513C121.518 236.488 120.796 236.275 120.156 235.875C119.505 235.485 119 234.943 118.641 234.247C118.271 233.561 118.1 232.751 118.129 231.817C118.158 230.883 118.378 230.08 118.79 229.408C119.192 228.735 119.729 228.225 120.403 227.876C121.066 227.527 121.8 227.365 122.603 227.389ZM128.252 224.547L127.882 236.538L124.933 236.447L124.979 234.948L125.086 232.032L125.013 229.095L125.157 224.451L128.252 224.547ZM123.179 229.87C122.832 229.859 122.52 229.931 122.243 230.085C121.956 230.239 121.725 230.472 121.553 230.781C121.369 231.091 121.271 231.469 121.257 231.914C121.243 232.359 121.318 232.742 121.482 233.062C121.636 233.382 121.851 233.628 122.128 233.8C122.395 233.971 122.702 234.062 123.049 234.073C123.397 234.084 123.714 234.012 124.002 233.858C124.278 233.703 124.508 233.471 124.692 233.161C124.865 232.852 124.958 232.474 124.971 232.029C124.985 231.583 124.916 231.201 124.762 230.881C124.598 230.56 124.383 230.314 124.117 230.143C123.839 229.971 123.527 229.88 123.179 229.87Z" fill="url(#paint14_linear_1_1285)"/>
<path d="M112.417 227.182L112.22 228.816L112.382 229.246L112.021 232.256C111.963 232.742 112.069 233.132 112.34 233.427C112.599 233.732 113.052 233.923 113.699 234.001C114.12 234.051 114.555 234.032 115.003 233.944C115.45 233.866 115.839 233.727 116.17 233.526L116.955 235.738C116.42 236.002 115.796 236.179 115.085 236.269C114.362 236.368 113.655 236.376 112.964 236.293C111.54 236.122 110.479 235.661 109.782 234.91C109.072 234.168 108.8 233.101 108.967 231.709L109.552 226.838L112.417 227.182ZM115.023 227.347C115.725 227.431 116.304 227.621 116.761 227.917C117.218 228.212 117.551 228.581 117.761 229.022C117.96 229.461 118.029 229.935 117.968 230.442C117.903 230.981 117.713 231.429 117.396 231.785C117.068 232.151 116.605 232.402 116.009 232.538C115.411 232.685 114.659 232.704 113.753 232.595L111.682 232.347L111.874 230.745L113.525 230.943C114.021 231.002 114.381 230.964 114.606 230.826C114.819 230.688 114.942 230.484 114.975 230.214C115.007 229.944 114.93 229.716 114.745 229.53C114.559 229.343 114.289 229.229 113.933 229.186C113.598 229.146 113.286 229.19 112.997 229.32C112.696 229.459 112.46 229.693 112.289 230.023L112.004 228.84C112.238 228.255 112.612 227.834 113.124 227.579C113.624 227.332 114.257 227.255 115.023 227.347Z" fill="url(#paint15_linear_1_1285)"/>
<path d="M105.699 226.501L104.323 233.423L103.801 232.621L107.255 233.308L106.775 235.722L98.1738 234.013L98.6534 231.599L102.107 232.285L101.302 232.823L102.677 225.9L105.699 226.501Z" fill="url(#paint16_linear_1_1285)"/>
<path d="M93.0474 230.101C91.9238 229.762 91.1361 229.261 90.6843 228.597C90.2326 227.933 90.139 227.148 90.4035 226.24C90.6771 225.301 91.2372 224.661 92.0839 224.319C92.9171 223.985 93.932 223.998 95.1287 224.358L99.7293 225.698L97.2575 234.18L94.2999 233.318L95.0661 230.689L93.0474 230.101ZM94.8331 226.479C94.4784 226.375 94.1776 226.378 93.9308 226.487C93.6839 226.596 93.5103 226.823 93.41 227.167C93.3066 227.522 93.3327 227.801 93.4884 228.005C93.6336 228.206 93.8873 228.365 94.2493 228.482L95.5951 228.874L96.1743 226.886L94.8331 226.479Z" fill="url(#paint17_linear_1_1285)"/>
<path d="M82.9175 220.318C83.5738 220.607 84.1437 220.971 84.6272 221.41C85.1008 221.844 85.4566 222.357 85.6946 222.949C85.9226 223.536 86.0113 224.211 85.9608 224.972C85.9003 225.729 85.6641 226.575 85.2522 227.51C84.9761 228.136 84.6673 228.689 84.3256 229.168C83.984 229.647 83.6074 230.057 83.1959 230.398C82.77 230.744 82.3085 231.01 81.8115 231.195C81.3045 231.375 80.762 231.474 80.1839 231.493C79.6059 231.511 78.9823 231.444 78.3132 231.292L74.0617 230.309L74.719 227.766L78.4024 228.624C78.6287 228.676 78.8794 228.727 79.1542 228.777C79.4192 228.822 79.6923 228.836 79.9736 228.817C80.2505 228.809 80.5322 228.749 80.8187 228.638C81.0953 228.522 81.3655 228.326 81.6295 228.051C81.8791 227.781 82.109 227.407 82.3194 226.93C82.3807 226.791 82.4261 226.674 82.4556 226.58C82.4708 226.492 82.4975 226.391 82.5358 226.277C82.5696 226.173 82.6326 226.017 82.7246 225.808L83.1931 226.887C82.7704 227.2 82.3314 227.428 81.8762 227.572C81.411 227.711 80.9246 227.764 80.417 227.73C79.9094 227.697 79.3871 227.561 78.8501 227.325C78.0646 226.979 77.4563 226.527 77.0254 225.969C76.59 225.42 76.3415 224.812 76.2798 224.144C76.2038 223.481 76.3148 222.811 76.6128 222.135C76.9633 221.34 77.4645 220.741 78.1164 220.34C78.764 219.948 79.5059 219.747 80.3421 219.735C81.1641 219.729 82.0225 219.924 82.9175 220.318ZM81.8964 222.433C81.5683 222.288 81.2542 222.233 80.9542 222.267C80.6443 222.297 80.3649 222.405 80.1161 222.593C79.8674 222.78 79.6751 223.028 79.5392 223.336C79.399 223.654 79.3481 223.958 79.3866 224.248C79.425 224.538 79.54 224.803 79.7316 225.041C79.9133 225.276 80.1682 225.465 80.4964 225.61C80.8245 225.755 81.1463 225.819 81.4618 225.804C81.7674 225.784 82.038 225.696 82.2736 225.538C82.5092 225.381 82.6949 225.148 82.8308 224.84C82.9666 224.531 83.0219 224.217 82.9966 223.897C82.9713 223.578 82.8673 223.288 82.6844 223.03C82.4872 222.776 82.2245 222.578 81.8964 222.433Z" fill="url(#paint18_linear_1_1285)"/>
<path d="M77.9948 218.991L73.6422 226.679L70.9614 225.161L73.2421 221.133L67.7417 223.338L65.2594 221.933L69.6119 214.245L72.3069 215.771L70.0182 219.814L75.4983 217.578L77.9948 218.991Z" fill="url(#paint19_linear_1_1285)"/>
<path d="M68.9043 214.426L67.3562 216.426C67.2999 216.374 67.2481 216.325 67.2007 216.279C67.1472 216.242 67.0981 216.208 67.0535 216.177C66.8303 216.022 66.6191 215.954 66.4198 215.975C66.2053 215.998 65.9987 216.086 65.7998 216.239C65.5921 216.385 65.3849 216.579 65.1784 216.819C64.9568 217.062 64.733 217.337 64.5072 217.643L62.299 220.594L55.7387 216.039L60.7777 208.782L63.3214 210.549L59.2866 216.359L59.124 215.393L62.0293 217.411L61.0754 217.641L62.3457 215.983C62.8249 215.35 63.2951 214.797 63.7563 214.324C64.2023 213.853 64.6447 213.492 65.0835 213.241C65.5223 212.99 65.9692 212.87 66.4242 212.882C66.864 212.896 67.3204 213.068 67.7935 213.396C67.963 213.514 68.1425 213.665 68.332 213.85C68.5187 214.019 68.7094 214.211 68.9043 214.426Z" fill="url(#paint20_linear_1_1285)"/>
<path d="M56.4544 205.585C57.2559 206.252 57.8321 206.987 58.1829 207.788C58.5184 208.591 58.634 209.394 58.5299 210.199C58.4104 211.004 58.069 211.745 57.5057 212.421C56.9424 213.098 56.283 213.567 55.5276 213.828C54.7568 214.092 53.9659 214.133 53.1547 213.952C52.3366 213.78 51.5727 213.398 50.863 212.807C50.195 212.251 49.7003 211.605 49.3787 210.871C49.0502 210.144 48.9422 209.383 49.0547 208.585C49.1673 207.788 49.5365 207.014 50.1624 206.262C50.2319 206.179 50.3161 206.086 50.4149 205.985C50.5136 205.883 50.6054 205.79 50.6903 205.705L56.0631 210.18L55.0199 211.433L50.912 208.011L52.1058 208.412C51.8402 208.713 51.6761 209.029 51.6135 209.359C51.5426 209.682 51.5636 209.996 51.6763 210.302C51.7808 210.601 51.9749 210.869 52.2588 211.106C52.5427 211.342 52.8453 211.488 53.1667 211.544C53.4798 211.592 53.7921 211.549 54.1037 211.412C54.4084 211.284 54.6894 211.066 54.9467 210.757L55.2492 210.393C55.5274 210.059 55.7005 209.716 55.7686 209.362C55.8284 209.002 55.7845 208.647 55.6369 208.298C55.4824 207.957 55.2256 207.637 54.8666 207.338C54.5326 207.06 54.2105 206.869 53.9002 206.767C53.5746 206.665 53.2115 206.617 52.8108 206.623L52.6433 204.277C53.268 204.189 53.8983 204.248 54.5341 204.452C55.1631 204.665 55.8031 205.042 56.4544 205.585Z" fill="url(#paint21_linear_1_1285)"/>
<path d="M50.7375 201.15L45.82 206.212L45.8176 205.256L48.343 207.709L46.6282 209.474L40.3379 203.364L42.0528 201.599L44.5783 204.052L43.6102 204.066L48.5277 199.003L50.7375 201.15Z" fill="url(#paint22_linear_1_1285)"/>
<path d="M35.9608 187.393L33.5316 187.789C33.4819 187.242 33.3702 186.708 33.1963 186.189C33.0224 185.669 32.8112 185.192 32.5628 184.757C32.3144 184.323 32.0461 183.959 31.758 183.665C31.455 183.368 31.1569 183.171 30.8639 183.073C30.5709 182.976 30.2912 183.011 30.0247 183.179C29.7306 183.365 29.5976 183.622 29.6255 183.951C29.6384 184.277 29.7696 184.638 30.019 185.033L31.5762 187.5L29.5775 188.762L28.1595 186.515C27.9275 186.147 27.6742 185.909 27.3996 185.799C27.125 185.69 26.8636 185.714 26.6155 185.87C26.3766 186.021 26.2433 186.227 26.2157 186.489C26.1788 186.756 26.2256 187.054 26.3561 187.383C26.4773 187.718 26.6631 188.063 26.9135 188.419C27.1639 188.775 27.4735 189.113 27.8423 189.433C28.202 189.758 28.5943 190.044 29.0192 190.29L27.4838 192.377C26.7504 191.927 26.0978 191.382 25.5259 190.74C24.9541 190.099 24.4858 189.418 24.1209 188.697C23.7561 187.977 23.5191 187.265 23.4101 186.563C23.2918 185.867 23.3242 185.236 23.5072 184.671C23.6843 184.097 24.0348 183.644 24.5586 183.314C25.0181 183.024 25.5053 182.89 26.0203 182.911C26.5352 182.933 27.0272 183.092 27.4961 183.387C27.9651 183.682 28.3735 184.105 28.7215 184.657L28.0991 184.953C27.6989 184.319 27.4612 183.698 27.386 183.09C27.3049 182.473 27.3762 181.914 27.5998 181.413C27.8083 180.909 28.1607 180.5 28.657 180.187C29.1256 179.891 29.622 179.752 30.1462 179.768C30.6554 179.781 31.1703 179.925 31.691 180.2C32.2117 180.475 32.7086 180.855 33.1819 181.341C33.6585 181.811 34.0923 182.366 34.4833 183.006C34.8835 183.64 35.2113 184.332 35.4669 185.083C35.7166 185.825 35.8813 186.595 35.9608 187.393Z" fill="url(#paint23_linear_1_1285)"/>
<path d="M28.1947 173.379L26.7303 174.131L26.4647 174.506L23.7679 175.891C23.333 176.114 23.069 176.421 22.976 176.811C22.8685 177.196 22.9636 177.678 23.2615 178.258C23.4551 178.635 23.7141 178.985 24.0383 179.307C24.3529 179.634 24.6861 179.878 25.0377 180.04L23.644 181.928C23.1257 181.632 22.6303 181.215 22.1579 180.676C21.6708 180.132 21.2684 179.551 20.9507 178.932C20.2953 177.656 20.0837 176.519 20.3158 175.52C20.5333 174.517 21.2655 173.695 22.5124 173.054L26.8765 170.812L28.1947 173.379ZM29.5168 175.632C29.8395 176.26 30.0063 176.846 30.017 177.39C30.0278 177.934 29.9091 178.417 29.661 178.837C29.4079 179.248 29.0542 179.571 28.5999 179.804C28.1166 180.052 27.6389 180.145 27.1668 180.082C26.6801 180.014 26.2133 179.772 25.7665 179.354C25.3101 178.941 24.8733 178.328 24.4563 177.516L23.503 175.66L24.9384 174.923L25.698 176.402C25.9264 176.847 26.1602 177.124 26.3996 177.233C26.6339 177.332 26.8719 177.32 27.1136 177.196C27.3552 177.072 27.5014 176.881 27.552 176.622C27.6027 176.364 27.5461 176.076 27.3822 175.757C27.2283 175.457 27.0168 175.224 26.7477 175.057C26.464 174.885 26.1376 174.82 25.7688 174.863L26.59 173.965C27.2058 173.832 27.7631 173.906 28.2618 174.187C28.746 174.464 29.1643 174.945 29.5168 175.632Z" fill="url(#paint24_linear_1_1285)"/>
<path d="M24.2597 165.263C24.5267 165.929 24.6797 166.587 24.7186 167.239C24.7536 167.881 24.6492 168.496 24.4056 169.086C24.158 169.665 23.7499 170.209 23.1813 170.718C22.6087 171.217 21.8484 171.657 20.9004 172.037C20.265 172.292 19.6578 172.471 19.0788 172.575C18.4998 172.678 17.9439 172.708 17.4111 172.664C16.8642 172.614 16.3486 172.481 15.8641 172.266C15.3755 172.04 14.9182 171.732 14.4921 171.341C14.0659 170.95 13.6669 170.466 13.2951 169.889L10.9429 166.214L13.1905 164.856L15.2245 168.044C15.3497 168.24 15.4932 168.451 15.6549 168.679C15.8125 168.897 15.9983 169.098 16.2123 169.281C16.4163 169.469 16.6596 169.623 16.9422 169.744C17.2208 169.854 17.5508 169.903 17.9321 169.891C18.2994 169.872 18.725 169.766 19.2091 169.572C19.3503 169.515 19.4643 169.464 19.551 169.417C19.6236 169.365 19.7133 169.311 19.8202 169.256C19.917 169.206 20.0713 169.138 20.2831 169.053L19.8634 170.152C19.3428 170.08 18.8695 169.936 18.4435 169.721C18.0135 169.495 17.6288 169.193 17.2894 168.814C16.9501 168.435 16.6712 167.973 16.4527 167.428C16.1332 166.632 16.0144 165.883 16.0965 165.183C16.1685 164.487 16.4161 163.878 16.8393 163.357C17.2485 162.83 17.7959 162.429 18.4817 162.154C19.2886 161.83 20.0654 161.753 20.8121 161.922C21.5488 162.095 22.2201 162.469 22.826 163.046C23.4177 163.616 23.8957 164.355 24.2597 165.263ZM22.051 166.061C21.9175 165.728 21.7316 165.469 21.4933 165.284C21.251 165.088 20.9754 164.971 20.6667 164.93C20.3579 164.89 20.0472 164.933 19.7345 165.058C19.4118 165.188 19.1628 165.37 18.9874 165.604C18.8121 165.838 18.7095 166.108 18.6795 166.412C18.6454 166.707 18.6952 167.021 18.8287 167.354C18.9622 167.686 19.1471 167.958 19.3833 168.167C19.6156 168.367 19.871 168.493 20.1495 168.545C20.428 168.597 20.7236 168.56 21.0362 168.435C21.3489 168.31 21.608 168.124 21.8136 167.877C22.0191 167.631 22.147 167.351 22.1972 167.039C22.2332 166.72 22.1844 166.394 22.051 166.061Z" fill="url(#paint25_linear_1_1285)"/>
<path d="M20.1998 155.291C20.4068 156.012 20.4272 156.673 20.2609 157.275C20.0842 157.88 19.7164 158.41 19.1573 158.864C18.5848 159.311 17.7973 159.679 16.7946 159.967C15.7816 160.258 14.9205 160.37 14.2114 160.302C13.4919 160.238 12.9034 160 12.4461 159.588C11.9857 159.167 11.646 158.575 11.4269 157.812C11.2049 157.039 11.1866 156.287 11.3721 155.555C11.5441 154.816 11.9066 154.17 12.4595 153.615C12.999 153.053 13.7178 152.643 14.616 152.385C15.5142 152.127 16.3463 152.091 17.1122 152.278C17.8752 152.455 18.5258 152.81 19.0639 153.345C19.5991 153.87 19.9777 154.519 20.1998 155.291ZM24.6329 159.801L13.1029 163.114L12.2882 160.278L13.7294 159.864L16.5381 159.074L19.3129 158.107L23.7776 156.824L24.6329 159.801ZM18.0143 156.598C17.9183 156.264 17.7544 155.988 17.5227 155.772C17.288 155.546 16.9968 155.398 16.6489 155.328C16.298 155.248 15.9085 155.27 15.4803 155.393C15.0521 155.516 14.7105 155.704 14.4557 155.958C14.1978 156.202 14.0296 156.482 13.9509 156.799C13.8693 157.105 13.8765 157.425 13.9725 157.759C14.0686 158.093 14.2339 158.374 14.4686 158.6C14.7003 158.816 14.9916 158.964 15.3424 159.045C15.6903 159.114 16.0784 159.087 16.5066 158.964C16.9348 158.841 17.2778 158.658 17.5356 158.414C17.7905 158.16 17.9587 157.88 18.0404 157.574C18.119 157.257 18.1103 156.932 18.0143 156.598Z" fill="url(#paint26_linear_1_1285)"/>
<path d="M17.3064 145.653L15.6905 145.968L15.331 146.254L12.3552 146.833C11.8752 146.926 11.5363 147.147 11.3384 147.496C11.1279 147.836 11.0849 148.326 11.2095 148.966C11.2905 149.382 11.4418 149.79 11.6635 150.189C11.8746 150.591 12.1265 150.918 12.4193 151.171L10.5548 152.597C10.1393 152.169 9.77976 151.63 9.47619 150.98C9.15988 150.322 8.93527 149.652 8.80236 148.969C8.52824 147.562 8.64173 146.41 9.14284 145.516C9.63121 144.612 10.5634 144.027 11.9393 143.759L16.755 142.821L17.3064 145.653ZM17.9488 148.185C18.0838 148.878 18.0807 149.488 17.9395 150.013C17.7983 150.539 17.5499 150.969 17.1945 151.304C16.8369 151.628 16.4075 151.839 15.9062 151.937C15.3729 152.041 14.8883 151.997 14.4524 151.805C14.0037 151.604 13.6231 151.241 13.3103 150.715C12.9869 150.192 12.738 149.482 12.5636 148.586L12.1649 146.538L13.7488 146.23L14.0665 147.861C14.162 148.352 14.3095 148.683 14.509 148.855C14.7064 149.016 14.9384 149.07 15.205 149.018C15.4717 148.966 15.6653 148.823 15.7858 148.59C15.9063 148.356 15.9323 148.063 15.8638 147.711C15.7994 147.38 15.6613 147.097 15.4494 146.862C15.2247 146.618 14.9293 146.465 14.563 146.403L15.602 145.769C16.2304 145.813 16.745 146.039 17.1457 146.448C17.5337 146.849 17.8014 147.428 17.9488 148.185Z" fill="url(#paint27_linear_1_1285)"/>
<path d="M15.8967 139.066L8.88608 139.88L9.48899 139.137L9.89518 142.635L7.45038 142.919L6.43865 134.208L8.88346 133.924L9.28965 137.421L8.53066 136.82L15.5413 136.006L15.8967 139.066Z" fill="url(#paint28_linear_1_1285)"/>
<path d="M8.57648 128.023C8.55564 126.849 8.79212 125.946 9.28593 125.313C9.77973 124.68 10.4991 124.351 11.4442 124.325C12.4218 124.299 13.2027 124.637 13.7869 125.338C14.36 126.029 14.658 127 14.6809 128.249L14.8103 133.039L5.97917 133.278L5.89595 130.199L8.63329 130.125L8.57648 128.023ZM12.5711 128.616C12.5611 128.247 12.4664 127.961 12.287 127.759C12.1077 127.558 11.8387 127.462 11.4803 127.471C11.111 127.481 10.853 127.592 10.7066 127.802C10.5598 128.002 10.4861 128.292 10.4855 128.672L10.5234 130.073L12.5926 130.018L12.5711 128.616Z" fill="url(#paint29_linear_1_1285)"/>
<path d="M14.7859 114.997C14.7113 115.71 14.5392 116.364 14.2695 116.959C14.001 117.542 13.6214 118.038 13.1309 118.446C12.6415 118.843 12.0266 119.133 11.2862 119.318C10.5469 119.492 9.66931 119.526 8.6534 119.42C7.97252 119.349 7.35189 119.224 6.79151 119.045C6.23112 118.867 5.72559 118.634 5.27489 118.346C4.81452 118.047 4.42036 117.689 4.09242 117.272C3.76561 116.845 3.50502 116.359 3.31064 115.814C3.11626 115.269 2.98923 114.655 2.92954 113.971L2.56439 109.623L5.18604 109.471L5.49698 113.24C5.5165 113.471 5.54457 113.726 5.58119 114.003C5.61894 114.269 5.68967 114.533 5.79339 114.795C5.88631 115.056 6.02955 115.306 6.22312 115.545C6.41782 115.772 6.68672 115.97 7.02982 116.137C7.36324 116.292 7.78934 116.396 8.3081 116.451C8.45941 116.466 8.58426 116.474 8.68266 116.473C8.77138 116.461 8.87574 116.455 8.99575 116.457C9.10496 116.457 9.27304 116.47 9.5 116.493L8.61588 117.269C8.18906 116.963 7.83757 116.615 7.56141 116.225C7.28638 115.825 7.08724 115.378 6.964 114.884C6.84076 114.391 6.80962 113.852 6.87059 113.269C6.95979 112.415 7.20409 111.697 7.60348 111.116C7.99206 110.534 8.4951 110.112 9.11258 109.848C9.72039 109.573 10.3917 109.474 11.1267 109.551C11.9913 109.641 12.7144 109.935 13.2961 110.433C13.867 110.929 14.2858 111.574 14.5526 112.367C14.8097 113.148 14.8875 114.024 14.7859 114.997ZM12.4599 114.672C12.4972 114.315 12.4537 113.999 12.3295 113.724C12.2064 113.438 12.0177 113.205 11.7633 113.026C11.5089 112.846 11.2142 112.739 10.8792 112.704C10.5333 112.668 10.2282 112.713 9.96382 112.838C9.69944 112.963 9.48288 113.154 9.31416 113.409C9.14656 113.654 9.04413 113.955 9.00687 114.311C8.96961 114.668 9.00655 114.994 9.1177 115.29C9.22997 115.575 9.39708 115.805 9.61904 115.981C9.841 116.157 10.1195 116.263 10.4545 116.298C10.7896 116.333 11.1055 116.289 11.4023 116.168C11.6991 116.046 11.9427 115.858 12.133 115.605C12.3137 115.34 12.4226 115.029 12.4599 114.672Z" fill="url(#paint30_linear_1_1285)"/>
<path d="M14.5167 109.979L5.86504 108.192L6.48839 105.175L11.0217 106.112L7.23707 101.551L7.81424 98.7581L16.4659 100.546L15.8392 103.579L11.2899 102.639L15.0972 107.17L14.5167 109.979Z" fill="url(#paint31_linear_1_1285)"/>
<path d="M16.0392 99.9039L13.6631 99.0357C13.6958 98.9662 13.727 98.9019 13.7566 98.8428C13.7758 98.7805 13.7933 98.7234 13.8093 98.6714C13.8893 98.4118 13.8893 98.1901 13.8095 98.0064C13.7224 97.809 13.5759 97.6388 13.3698 97.4958C13.1669 97.3423 12.9197 97.2037 12.6281 97.0798C12.3293 96.9423 11.9998 96.8124 11.6395 96.6901L8.1573 95.4814L10.5077 87.8482L18.9509 90.4481L18.0395 93.4079L11.2787 91.3261L12.1501 90.8781L11.1091 94.2585L10.6 93.4195L12.5652 94.127C13.3137 94.3916 13.9836 94.6717 14.5747 94.9674C15.1586 95.2496 15.6367 95.5617 16.0089 95.9037C16.3812 96.2457 16.6307 96.6352 16.7577 97.0723C16.8774 97.4957 16.8525 97.9826 16.6831 98.5331C16.6223 98.7304 16.5328 98.9473 16.4145 99.1837C16.3098 99.413 16.1847 99.653 16.0392 99.9039Z" fill="url(#paint32_linear_1_1285)"/>
<path d="M20.7185 85.1717C20.3229 86.137 19.7958 86.9074 19.1372 87.483C18.4726 88.0444 17.7411 88.3965 16.9429 88.5391C16.1386 88.6675 15.3293 88.5648 14.5149 88.231C13.7004 87.8973 13.0548 87.4096 12.5779 86.7679C12.0951 86.112 11.8178 85.3701 11.7461 84.5422C11.6643 83.7101 11.7986 82.8667 12.1488 82.0121C12.4785 81.2077 12.9452 80.5417 13.5489 80.014C14.1427 79.4823 14.8366 79.1501 15.6307 79.0176C16.4249 78.885 17.2744 79.0042 18.1794 79.375C18.2799 79.4162 18.3935 79.4687 18.5201 79.5323C18.6467 79.5959 18.7632 79.6554 18.8697 79.7108L16.2181 86.1811L14.7099 85.563L16.7372 80.616L16.7145 81.875C16.3466 81.7125 15.996 81.651 15.6627 81.6906C15.3335 81.7201 15.04 81.8346 14.782 82.0343C14.5282 82.2238 14.3312 82.4895 14.1911 82.8314C14.051 83.1733 14.0028 83.5058 14.0465 83.829C14.0943 84.1422 14.2301 84.4269 14.454 84.683C14.6678 84.9351 14.9607 85.1373 15.3327 85.2898L15.7701 85.469C16.1723 85.6338 16.5521 85.6955 16.9097 85.6542C17.2713 85.6027 17.5964 85.4541 17.885 85.2084C18.1636 84.9585 18.3915 84.6173 18.5687 84.185C18.7335 83.7828 18.8183 83.4183 18.8231 83.0914C18.8219 82.7504 18.7583 82.3896 18.6324 82.0092L20.819 81.1438C21.0907 81.7131 21.2247 82.3317 21.2211 82.9996C21.2074 83.6634 21.0399 84.3874 20.7185 85.1717Z" fill="url(#paint33_linear_1_1285)"/>
<path d="M23.0438 78.7257L16.7304 75.571L17.6415 75.2792L16.0677 78.4286L13.8661 77.3284L17.7858 69.4841L19.9875 70.5842L18.4138 73.7336L18.1074 72.8153L24.4208 75.97L23.0438 78.7257Z" fill="url(#paint34_linear_1_1285)"/>
<path d="M31.5168 60.5805L30.3994 58.3874C30.9052 58.1735 31.3791 57.9045 31.8213 57.5805C32.2634 57.2564 32.6535 56.9099 32.9914 56.541C33.3294 56.172 33.5943 55.8056 33.7862 55.4418C33.9767 55.0626 34.0738 54.7186 34.0777 54.4097C34.0815 54.1009 33.9627 53.8451 33.7213 53.6426C33.455 53.4191 33.1692 53.3708 32.8641 53.4977C32.5576 53.6094 32.2542 53.8442 31.9539 54.2021L30.0784 56.4371L28.2679 54.9179L29.9758 52.8827C30.2551 52.5497 30.4051 52.2358 30.4256 51.9409C30.4461 51.646 30.3439 51.4043 30.1192 51.2157C29.9028 51.0341 29.6658 50.9699 29.4082 51.0233C29.1423 51.0697 28.8726 51.2051 28.5991 51.4296C28.3174 51.6471 28.0451 51.9293 27.7823 52.2762C27.5196 52.6231 27.2921 53.021 27.1 53.4697C26.8995 53.9115 26.747 54.3722 26.6424 54.8518L24.1868 54.0253C24.3914 53.1899 24.712 52.4021 25.1486 51.662C25.5852 50.9219 26.0911 50.2683 26.6663 49.7013C27.2414 49.1342 27.8467 48.6917 28.4823 48.3739C29.1095 48.0491 29.7201 47.8877 30.3142 47.8897C30.9153 47.8834 31.453 48.0793 31.9275 48.4775C32.3437 48.8267 32.6198 49.2499 32.7559 49.7471C32.8919 50.2443 32.8908 50.7611 32.7526 51.2977C32.6145 51.8343 32.3358 52.3523 31.9167 52.8517L31.4447 52.3492C31.9267 51.7749 32.4457 51.3593 33.0017 51.1024C33.5647 50.8372 34.1188 50.7347 34.6639 50.795C35.2078 50.84 35.7045 51.0511 36.154 51.4283C36.5785 51.7845 36.8629 52.2147 37.0073 52.7188C37.1503 53.2077 37.1701 53.742 37.0665 54.3218C36.963 54.9016 36.7523 55.4908 36.4344 56.0894C36.1318 56.6866 35.7354 57.2689 35.2451 57.8363C34.7632 58.4107 34.2035 58.934 33.566 59.4062C32.9356 59.8702 32.2525 60.2616 31.5168 60.5805Z" fill="url(#paint35_linear_1_1285)"/>
<path d="M42.8864 48.4697L41.7265 47.3014L41.2891 47.1615L39.1531 45.0099C38.8086 44.6629 38.4365 44.5041 38.0369 44.5333C37.6373 44.5473 37.2061 44.7839 36.7434 45.2432C36.4427 45.5418 36.1878 45.8943 35.9789 46.3008C35.7623 46.6996 35.6302 47.091 35.5827 47.475L33.361 46.7177C33.4861 46.1342 33.7342 45.5358 34.1052 44.9225C34.4763 44.2937 34.9086 43.7344 35.4022 43.2444C36.4201 42.2339 37.4402 41.6882 38.4624 41.6074C39.4847 41.5112 40.4896 41.9605 41.4772 42.9553L44.9338 46.4371L42.8864 48.4697ZM41.139 50.4112C40.6377 50.9088 40.1293 51.245 39.6139 51.4199C39.0985 51.5947 38.6027 51.6275 38.1267 51.5182C37.6585 51.4012 37.2444 51.1615 36.8846 50.7991C36.5018 50.4135 36.269 49.9862 36.1862 49.5172C36.1034 49.0328 36.1937 48.5145 36.4569 47.9622C36.7125 47.4023 37.1642 46.8007 37.812 46.1576L39.2926 44.6877L40.4295 45.8329L39.2496 47.0042C38.8949 47.3564 38.7017 47.663 38.67 47.9242C38.646 48.1777 38.7297 48.4008 38.9211 48.5936C39.1125 48.7864 39.3389 48.8679 39.6002 48.8381C39.8616 48.8083 40.1195 48.6671 40.374 48.4144C40.613 48.1771 40.7716 47.9049 40.8495 47.5979C40.9275 47.2754 40.8903 46.9449 40.7379 46.6062L41.8425 47.1174C42.1555 47.6641 42.2534 48.2177 42.1361 48.7781C42.0189 49.3233 41.6865 49.8676 41.139 50.4112Z" fill="url(#paint36_linear_1_1285)"/>
<path d="M226.85 136.584L228.446 136.988L228.893 136.882L231.832 137.627C232.306 137.747 232.707 137.691 233.035 137.46C233.37 137.243 233.618 136.818 233.778 136.186C233.882 135.775 233.919 135.341 233.888 134.885C233.869 134.432 233.78 134.028 233.623 133.675L235.918 133.18C236.111 133.744 236.206 134.385 236.204 135.102C236.21 135.832 236.128 136.534 235.957 137.208C235.605 138.599 235.011 139.592 234.177 140.187C233.35 140.796 232.257 140.929 230.898 140.585L226.142 139.381L226.85 136.584ZM227.348 134.02C227.522 133.335 227.784 132.785 228.136 132.37C228.488 131.954 228.896 131.671 229.36 131.519C229.822 131.378 230.3 131.371 230.795 131.496C231.322 131.629 231.742 131.876 232.054 132.235C232.375 132.608 232.564 133.098 232.623 133.707C232.692 134.319 232.615 135.067 232.391 135.952L231.879 137.975L230.314 137.579L230.722 135.967C230.845 135.482 230.853 135.12 230.746 134.88C230.636 134.65 230.449 134.502 230.186 134.435C229.922 134.369 229.686 134.415 229.477 134.576C229.269 134.736 229.12 134.99 229.032 135.337C228.95 135.664 228.954 135.979 229.045 136.282C229.145 136.599 229.347 136.863 229.652 137.075L228.442 137.205C227.892 136.898 227.523 136.474 227.335 135.933C227.154 135.405 227.159 134.768 227.348 134.02Z" fill="url(#paint37_linear_1_1285)"/>
<path d="M49.106 42.5357C48.5533 42.9927 47.9724 43.3389 47.3635 43.5745C46.763 43.8031 46.1449 43.8912 45.5093 43.8386C44.882 43.7792 44.2394 43.5562 43.5814 43.1696C42.9318 42.7761 42.2816 42.1858 41.6307 41.3986C41.1945 40.871 40.8389 40.3472 40.5641 39.8271C40.2892 39.3071 40.0916 38.7867 39.9711 38.2659C39.8522 37.7298 39.8215 37.1982 39.8792 36.6711C39.9453 36.1371 40.0997 35.6076 40.3424 35.0826C40.5851 34.5576 40.9246 34.0303 41.3607 33.5005L44.1452 30.1408L46.1232 31.8681L43.7057 34.7763C43.5575 34.9552 43.3995 35.1563 43.2317 35.3797C43.0723 35.5961 42.9378 35.8342 42.8282 36.094C42.7118 36.3453 42.6391 36.624 42.6101 36.93C42.5894 37.2291 42.6431 37.5583 42.7711 37.9178C42.9006 38.2619 43.1315 38.635 43.4638 39.037C43.5608 39.1542 43.6446 39.2471 43.7153 39.3155C43.7874 39.3686 43.8658 39.4378 43.9503 39.523C44.0279 39.5998 44.1394 39.7262 44.2848 39.9021L43.1101 39.837C43.0203 39.3191 43.0132 38.8244 43.0887 38.3531C43.1727 37.8748 43.3435 37.4163 43.6012 36.9777C43.8589 36.539 44.2138 36.1327 44.6661 35.7588C45.3277 35.2118 46.0045 34.8708 46.6965 34.7357C47.3816 34.5923 48.0367 34.6428 48.6618 34.8873C49.2884 35.1165 49.8371 35.5158 50.308 36.0853C50.8619 36.7553 51.1722 37.4716 51.2388 38.2343C51.2985 38.9886 51.146 39.7421 50.7814 40.4948C50.4182 41.2322 49.8597 41.9125 49.106 42.5357ZM47.6732 40.6748C47.9495 40.4463 48.1397 40.1903 48.2438 39.9069C48.3562 39.6166 48.3845 39.3182 48.3287 39.0119C48.2728 38.7056 48.1375 38.4227 47.9229 38.1631C47.7013 37.8951 47.4523 37.7132 47.1758 37.6176C46.8993 37.5219 46.6113 37.5062 46.312 37.5704C46.0209 37.6277 45.7373 37.7706 45.4609 37.9991C45.1845 38.2276 44.9825 38.4863 44.8548 38.7752C44.7354 39.0572 44.6933 39.3388 44.7284 39.6199C44.7635 39.9011 44.8883 40.1715 45.103 40.4311C45.3176 40.6907 45.5736 40.881 45.8709 41.0018C46.1681 41.1226 46.4734 41.1592 46.7866 41.1117C47.1013 41.0489 47.3968 40.9033 47.6732 40.6748Z" fill="url(#paint38_linear_1_1285)"/>
<path d="M57.7471 35.3259C57.1235 35.7422 56.4998 35.9626 55.8759 35.9871C55.246 36.0026 54.6296 35.8131 54.0266 35.4187C53.4266 35.0092 52.8369 34.3707 52.2577 33.5031C51.6725 32.6265 51.3043 31.8401 51.1531 31.144C50.9959 30.4389 51.0438 29.806 51.2965 29.2452C51.5584 28.6785 52.0192 28.1749 52.6789 27.7344C53.3477 27.2879 54.0587 27.0418 54.8122 26.9961C55.5686 26.9354 56.295 27.0841 56.9914 27.4423C57.6909 27.7854 58.3 28.3455 58.8189 29.1228C59.3378 29.9 59.6246 30.6819 59.6794 31.4684C59.7432 32.249 59.602 32.9769 59.2559 33.6522C58.9188 34.3215 58.4158 34.8794 57.7471 35.3259ZM54.7987 40.9199L48.1377 30.9426L50.5914 29.3045L51.424 30.5516L53.0304 32.9872L54.795 35.3368L57.3744 39.2004L54.7987 40.9199ZM55.8382 33.6409C56.1274 33.4478 56.3397 33.2081 56.4752 32.9217C56.6196 32.6293 56.6722 32.3067 56.6327 31.9542C56.6024 31.5955 56.4635 31.231 56.2161 30.8604C55.9687 30.4899 55.6853 30.2218 55.3657 30.0563C55.0552 29.8847 54.7372 29.8096 54.4117 29.8309C54.0952 29.8462 53.7924 29.9503 53.5032 30.1434C53.214 30.3365 52.9972 30.5792 52.8527 30.8717C52.7173 31.1581 52.6648 31.4806 52.6951 31.8392C52.7346 32.1918 52.8779 32.5534 53.1253 32.9239C53.3727 33.2944 53.6516 33.5655 53.9622 33.7371C54.2818 33.9026 54.5998 33.9778 54.9162 33.9625C55.2417 33.9412 55.549 33.834 55.8382 33.6409Z" fill="url(#paint39_linear_1_1285)"/>
<path d="M66.1533 29.5687L65.3635 28.1243L64.9821 27.8685L63.5275 25.2084C63.2929 24.7794 62.9796 24.5235 62.5875 24.4406C62.1997 24.3431 61.7198 24.4507 61.1478 24.7635C60.776 24.9668 60.4333 25.2347 60.1197 25.5672C59.8009 25.8901 59.5653 26.2295 59.4131 26.5852L57.489 25.2408C57.7712 24.715 58.1756 24.209 58.7024 23.7228C59.2335 23.2218 59.8041 22.8045 60.4143 22.4708C61.6728 21.7827 62.8043 21.5417 63.8087 21.7479C64.8175 21.9393 65.6582 22.65 66.3307 23.8799L68.6846 28.1846L66.1533 29.5687ZM63.9355 30.9487C63.3158 31.2876 62.7341 31.4694 62.1904 31.4943C61.6466 31.5191 61.1613 31.413 60.7344 31.1758C60.317 30.9334 59.9858 30.5882 59.7407 30.1401C59.4801 29.6634 59.3751 29.1882 59.4257 28.7147C59.4807 28.2264 59.7113 27.7535 60.1176 27.296C60.5186 26.829 61.1196 26.3766 61.9204 25.9386L63.751 24.9376L64.5252 26.3534L63.0665 27.1511C62.6279 27.3909 62.3571 27.6319 62.2542 27.8739C62.1608 28.1108 62.1792 28.3484 62.3096 28.5867C62.4399 28.8251 62.6348 28.9663 62.8941 29.0102C63.1535 29.0542 63.4405 28.9901 63.7551 28.8181C64.0506 28.6565 64.2785 28.439 64.4386 28.1656C64.6031 27.8775 64.6591 27.5497 64.6067 27.182L65.5259 27.9798C65.6749 28.5919 65.6152 29.1509 65.3469 29.6567C65.0829 30.1479 64.6125 30.5785 63.9355 30.9487Z" fill="url(#paint40_linear_1_1285)"/>
<path d="M71.5074 26.4602L68.5893 20.034L69.4808 20.381L66.2751 21.8366L65.2575 19.5956L73.2421 15.9699L74.2597 18.211L71.054 19.6666L71.3943 18.7603L74.3124 25.1865L71.5074 26.4602Z" fill="url(#paint41_linear_1_1285)"/>
<path d="M79.8729 16.0494C80.9843 15.6722 81.9166 15.6224 82.6698 15.9001C83.4231 16.1777 83.9558 16.7627 84.2678 17.6551C84.5907 18.5782 84.5069 19.4249 84.0164 20.195C83.5326 20.9513 82.6992 21.5306 81.516 21.9328L76.9925 23.5147L74.0762 15.1756L76.9842 14.1586L77.8881 16.7435L79.8729 16.0494ZM80.5242 20.0349C80.8729 19.9129 81.116 19.7358 81.2535 19.5035C81.391 19.2713 81.4006 18.9859 81.2822 18.6474C81.1603 18.2987 80.9767 18.0866 80.7316 18.0111C80.4968 17.9321 80.198 17.9502 79.8355 18.0655L78.5123 18.5282L79.1956 20.4822L80.5242 20.0349Z" fill="url(#paint42_linear_1_1285)"/>
<path d="M93.464 18.1547C92.7622 18.3025 92.087 18.3392 91.4384 18.2648C90.8004 18.1882 90.2122 17.9789 89.6738 17.637C89.146 17.2929 88.6806 16.7968 88.2776 16.1487C87.8853 15.4985 87.5838 14.6736 87.3733 13.674C87.2323 13.0041 87.1609 12.3751 87.1591 11.7869C87.1574 11.1987 87.2243 10.6461 87.3597 10.1289C87.5034 9.59895 87.7233 9.11399 88.0194 8.67409C88.326 8.23194 88.7088 7.83485 89.1677 7.48279C89.6266 7.13074 90.1722 6.8215 90.8046 6.55506L94.8314 4.87415L95.7802 7.32282L92.2881 8.77452C92.0738 8.86408 91.8404 8.96875 91.588 9.08853C91.3462 9.20608 91.1165 9.3544 90.8988 9.5335C90.6789 9.70197 90.485 9.91493 90.3171 10.1724C90.1599 10.4276 90.0544 10.7441 90.0007 11.1218C89.9554 11.4867 89.9865 11.9244 90.094 12.4348C90.1253 12.5836 90.1564 12.7048 90.1872 12.7983C90.2264 12.8789 90.2636 12.9765 90.2989 13.0912C90.3319 13.1953 90.3719 13.359 90.4189 13.5823L89.409 12.9788C89.5702 12.4785 89.7937 12.0372 90.0797 11.6549C90.3762 11.2704 90.7405 10.9438 91.1726 10.6752C91.6046 10.4065 92.1077 10.2117 92.6819 10.0908C93.5219 9.91388 94.2797 9.92641 94.9552 10.1284C95.6285 10.3197 96.1851 10.6689 96.625 11.1759C97.0733 11.6701 97.3736 12.2787 97.5259 13.0017C97.705 13.8524 97.6469 14.6309 97.3514 15.3372C97.0537 16.0328 96.5686 16.6292 95.8959 17.1262C95.2316 17.6103 94.421 17.9532 93.464 18.1547ZM93.0601 15.8411C93.411 15.7672 93.6983 15.629 93.9222 15.4264C94.1567 15.2215 94.3203 14.9705 94.4132 14.6733C94.5061 14.3762 94.5178 14.0628 94.4484 13.7331C94.3768 13.3929 94.2407 13.1161 94.0404 12.9029C93.84 12.6897 93.5924 12.542 93.2974 12.4597C93.0131 12.3752 92.6955 12.37 92.3446 12.4439C91.9937 12.5178 91.6946 12.6529 91.4472 12.8494C91.2105 13.0436 91.0424 13.2733 90.9428 13.5386C90.8432 13.8039 90.8281 14.1014 90.8975 14.431C90.9669 14.7606 91.1052 15.048 91.3123 15.2931C91.5193 15.5382 91.7726 15.7125 92.072 15.816C92.3798 15.9067 92.7092 15.915 93.0601 15.8411Z" fill="url(#paint43_linear_1_1285)"/>
<path d="M98.9658 16.197L98.0479 7.41046L101.112 7.09037L101.593 11.6944L104.792 6.70591L107.629 6.40953L108.547 15.1961L105.467 15.5179L104.984 10.8976L101.819 15.899L98.9658 16.197Z" fill="url(#paint44_linear_1_1285)"/>
<path d="M108.914 14.617L109.015 12.0892C109.091 12.0992 109.162 12.1093 109.227 12.1194C109.293 12.1186 109.352 12.1179 109.407 12.1173C109.678 12.1142 109.889 12.0465 110.04 11.9144C110.201 11.7712 110.319 11.5797 110.392 11.3398C110.476 11.0997 110.533 10.822 110.562 10.5065C110.601 10.18 110.624 9.82655 110.631 9.44612L110.719 5.76114L118.705 5.66866L118.807 14.5025L115.71 14.5383L115.629 7.46476L116.321 8.15767L112.784 8.19863L113.428 7.45764L113.354 9.54499C113.331 10.3386 113.269 11.0619 113.167 11.7151C113.077 12.3574 112.926 12.9079 112.714 13.3668C112.502 13.8256 112.207 14.1822 111.83 14.4366C111.463 14.6799 110.992 14.8049 110.416 14.8115C110.209 14.8139 109.976 14.7949 109.714 14.7545C109.464 14.7248 109.197 14.679 108.914 14.617Z" fill="url(#paint45_linear_1_1285)"/>
<path d="M124.159 14.5515C123.119 14.4711 122.224 14.2057 121.474 13.7554C120.736 13.2951 120.177 12.7069 119.796 11.9908C119.427 11.2648 119.277 10.463 119.345 9.58544C119.412 8.70788 119.679 7.94374 120.143 7.29301C120.619 6.63229 121.24 6.14081 122.006 5.81856C122.773 5.48549 123.617 5.35454 124.538 5.42572C125.405 5.49272 126.182 5.73262 126.869 6.14542C127.557 6.54738 128.086 7.10597 128.456 7.82118C128.826 8.53639 128.973 9.38152 128.898 10.3566C128.889 10.4649 128.874 10.5891 128.853 10.7291C128.831 10.8691 128.81 10.9983 128.79 11.1166L121.818 10.5777L121.944 8.9526L127.274 9.36464L126.069 9.72922C126.111 9.3292 126.062 8.97664 125.922 8.67156C125.793 8.36732 125.594 8.12305 125.324 7.93877C125.066 7.75532 124.753 7.64936 124.385 7.62088C124.016 7.59241 123.685 7.64854 123.391 7.78928C123.107 7.93085 122.878 8.14745 122.703 8.43908C122.528 8.71988 122.426 9.06071 122.395 9.46157L122.358 9.93285C122.325 10.3662 122.383 10.7467 122.532 11.0743C122.692 11.4027 122.933 11.6666 123.255 11.8659C123.579 12.0544 123.973 12.1666 124.439 12.2026C124.872 12.2361 125.245 12.205 125.558 12.1093C125.882 12.0035 126.206 11.8324 126.529 11.5958L128.024 13.4116C127.565 13.8448 127.018 14.1621 126.381 14.3635C125.745 14.5542 125.004 14.6168 124.159 14.5515Z" fill="url(#paint46_linear_1_1285)"/>
<path d="M131.532 14.8267L132.615 7.85253L133.17 8.63154L129.691 8.09142L130.069 5.65931L138.734 7.00461L138.357 9.43672L134.877 8.8966L135.659 8.32514L134.576 15.2993L131.532 14.8267Z" fill="url(#paint47_linear_1_1285)"/>
<path d="M155.125 18.5171L156.938 16.8518C157.279 17.2815 157.666 17.6658 158.097 18.0047C158.528 18.3436 158.966 18.6262 159.412 18.8527C159.858 19.0792 160.283 19.2359 160.685 19.323C161.101 19.4047 161.458 19.4059 161.757 19.3266C162.056 19.2474 162.27 19.0643 162.4 18.7774C162.544 18.4608 162.514 18.1725 162.31 17.9127C162.12 17.6475 161.812 17.4183 161.387 17.2251L158.73 16.0188L159.707 13.8668L162.126 14.9653C162.522 15.145 162.865 15.2051 163.154 15.1457C163.444 15.0862 163.649 14.9229 163.771 14.6558C163.887 14.3985 163.885 14.153 163.765 13.9192C163.649 13.6756 163.446 13.4521 163.156 13.249C162.871 13.036 162.526 12.8495 162.121 12.6896C161.717 12.5297 161.272 12.4174 160.788 12.3529C160.309 12.2784 159.824 12.2552 159.334 12.2833L159.471 9.69589C160.331 9.66859 161.176 9.76584 162.006 9.98765C162.836 10.2095 163.601 10.5212 164.302 10.923C165.003 11.3247 165.591 11.789 166.068 12.3158C166.55 12.8327 166.869 13.3776 167.027 13.9504C167.194 14.5276 167.15 15.0983 166.894 15.6622C166.669 16.1569 166.336 16.5366 165.893 16.8011C165.451 17.0657 164.953 17.2035 164.399 17.2145C163.845 17.2255 163.271 17.0962 162.677 16.8267L163.035 16.237C163.717 16.547 164.257 16.9353 164.654 17.4019C165.06 17.873 165.308 18.3792 165.396 18.9206C165.499 19.4565 165.429 19.9916 165.187 20.5259C164.957 21.0305 164.619 21.42 164.173 21.6945C163.74 21.9636 163.231 22.1261 162.644 22.1821C162.058 22.238 161.434 22.1933 160.772 22.0479C160.115 21.9168 159.448 21.6914 158.77 21.3715C158.087 21.0615 157.433 20.6629 156.807 20.1757C156.19 19.693 155.63 19.1401 155.125 18.5171Z" fill="url(#paint48_linear_1_1285)"/>
<path d="M169.4 25.9812L170.211 24.5486L170.228 24.0896L171.721 21.4514C171.962 21.0258 172.014 20.6246 171.878 20.2478C171.757 19.8668 171.412 19.5158 170.845 19.1945C170.476 18.9858 170.068 18.8358 169.62 18.7445C169.177 18.6439 168.765 18.6226 168.382 18.6807L168.511 16.337C169.106 16.2996 169.749 16.3766 170.44 16.5679C171.146 16.7551 171.801 17.0201 172.406 17.3627C173.655 18.0694 174.456 18.9039 174.81 19.8661C175.179 20.8243 175.018 21.9133 174.328 23.1332L171.911 27.4026L169.4 25.9812ZM167.058 24.824C166.444 24.476 165.983 24.0775 165.675 23.6286C165.367 23.1796 165.201 22.7113 165.178 22.2234C165.164 21.741 165.283 21.2775 165.534 20.8331C165.802 20.3603 166.15 20.0206 166.579 19.814C167.023 19.6033 167.547 19.55 168.15 19.6541C168.758 19.7487 169.459 20.0209 170.254 20.4706L172.069 21.4985L171.274 22.9027L169.827 22.0836C169.392 21.8373 169.045 21.7343 168.785 21.7744C168.534 21.8199 168.342 21.9608 168.208 22.1972C168.075 22.4336 168.057 22.6736 168.157 22.9172C168.256 23.1607 168.462 23.3708 168.774 23.5475C169.067 23.7135 169.372 23.7924 169.689 23.7844C170.02 23.7723 170.328 23.6471 170.613 23.4088L170.42 24.6104C169.978 25.0597 169.472 25.3036 168.9 25.3423C168.344 25.3769 167.73 25.2041 167.058 24.824Z" fill="url(#paint49_linear_1_1285)"/>
<path d="M177.495 30.8049C176.907 30.3937 176.419 29.9259 176.03 29.4017C175.65 28.8836 175.4 28.3112 175.282 27.6845C175.172 27.0641 175.216 26.3853 175.414 25.6481C175.62 24.9173 176.016 24.1334 176.602 23.2965C176.995 22.7357 177.405 22.2536 177.833 21.8502C178.261 21.4469 178.71 21.118 179.18 20.8633C179.665 20.606 180.17 20.435 180.693 20.3504C181.225 20.272 181.777 20.2799 182.348 20.3742C182.918 20.4685 183.517 20.6554 184.144 20.9349L188.123 22.7251L186.984 25.0914L183.538 23.5348C183.326 23.4396 183.09 23.3408 182.83 23.2384C182.579 23.1423 182.314 23.076 182.034 23.0396C181.761 22.9942 181.473 22.9982 181.17 23.0517C180.876 23.1114 180.573 23.2507 180.261 23.4697C179.964 23.6861 179.665 24.0079 179.366 24.4353C179.279 24.5599 179.212 24.6654 179.165 24.7518C179.133 24.8354 179.087 24.9294 179.027 25.0335C178.974 25.1288 178.882 25.2699 178.751 25.4568L178.501 24.3072C178.976 24.0828 179.451 23.9443 179.926 23.8917C180.409 23.8454 180.896 23.8881 181.388 24.0198C181.879 24.1515 182.365 24.3855 182.846 24.722C183.549 25.2142 184.058 25.7759 184.373 26.407C184.693 27.0292 184.819 27.6742 184.749 28.3418C184.695 29.0068 184.456 29.642 184.032 30.2474C183.534 30.9596 182.926 31.4493 182.209 31.7164C181.497 31.9747 180.73 32.0282 179.908 31.8769C179.1 31.723 178.296 31.3657 177.495 30.8049ZM178.907 28.9286C179.201 29.1343 179.499 29.2495 179.799 29.2744C180.109 29.3055 180.404 29.2534 180.685 29.1181C180.965 28.9827 181.202 28.7771 181.395 28.5011C181.594 28.2162 181.703 27.9278 181.722 27.6358C181.741 27.3438 181.679 27.062 181.538 26.7905C181.405 26.5253 181.192 26.2898 180.898 26.0842C180.604 25.8786 180.301 25.7527 179.989 25.7064C179.685 25.6664 179.402 25.7007 179.141 25.8093C178.879 25.918 178.652 26.1103 178.458 26.3863C178.265 26.6622 178.15 26.9596 178.113 27.2783C178.075 27.597 178.121 27.901 178.25 28.1903C178.395 28.4769 178.614 28.723 178.907 28.9286Z" fill="url(#paint50_linear_1_1285)"/>
<path d="M186.167 36.768C185.598 36.2798 185.217 35.7386 185.025 35.1445C184.84 34.5421 184.857 33.8974 185.074 33.2104C185.306 32.5222 185.762 31.7822 186.441 30.9905C187.128 30.1905 187.786 29.6238 188.415 29.2906C189.052 28.949 189.674 28.8244 190.282 28.9166C190.899 29.0159 191.508 29.3238 192.11 29.8403C192.72 30.3638 193.149 30.9822 193.396 31.6954C193.659 32.4074 193.711 33.147 193.554 33.9142C193.413 34.6803 193.037 35.4179 192.429 36.1272C191.82 36.8365 191.145 37.3235 190.402 37.5884C189.668 37.8603 188.929 37.9207 188.185 37.7695C187.45 37.6254 186.777 37.2915 186.167 36.768ZM179.985 35.4375L187.796 26.3325L190.035 28.2535L189.059 29.3916L187.147 31.5954L185.36 33.9283L182.335 37.454L179.985 35.4375ZM187.274 34.4754C187.538 34.7018 187.826 34.8416 188.139 34.8948C188.459 34.9551 188.784 34.9187 189.113 34.7856C189.45 34.6597 189.764 34.4276 190.054 34.0895C190.344 33.7513 190.525 33.4061 190.599 33.0537C190.68 32.7084 190.667 32.3819 190.558 32.0743C190.458 31.7737 190.276 31.5102 190.013 31.2837C189.749 31.0573 189.456 30.914 189.136 30.8537C188.824 30.8006 188.499 30.837 188.162 30.9629C187.833 31.096 187.523 31.3316 187.233 31.6697C186.943 32.0078 186.757 32.3495 186.676 32.6949C186.603 33.0472 186.616 33.3737 186.716 33.6743C186.824 33.982 187.01 34.249 187.274 34.4754Z" fill="url(#paint51_linear_1_1285)"/>
<path d="M193.936 43.2566L195.112 42.1053L195.255 41.6689L197.422 39.5486C197.772 39.2066 197.934 38.8357 197.907 38.4358C197.896 38.0361 197.663 37.6033 197.207 37.1373C196.91 36.8343 196.56 36.5769 196.155 36.3651C195.757 36.1456 195.367 36.0107 194.983 35.9604L195.757 33.7443C196.339 33.8736 196.936 34.126 197.547 34.5015C198.173 34.8771 198.729 35.3135 199.215 35.8106C200.218 36.8358 200.757 37.8598 200.83 38.8826C200.919 39.9056 200.462 40.9073 199.46 41.8876L195.953 45.3188L193.936 43.2566ZM192.007 41.4951C191.513 40.9903 191.18 40.4795 191.009 39.9628C190.838 39.4461 190.809 38.9501 190.922 38.475C191.042 38.0075 191.285 37.5952 191.65 37.2381C192.038 36.8581 192.467 36.6284 192.937 36.549C193.422 36.4697 193.939 36.5638 194.49 36.831C195.048 37.0907 195.646 37.5467 196.285 38.1992L197.744 39.6904L196.59 40.8189L195.427 39.6306C195.078 39.2733 194.773 39.0779 194.512 39.0443C194.258 39.0185 194.035 39.1006 193.841 39.2906C193.646 39.4805 193.563 39.7063 193.591 39.9679C193.619 40.2295 193.758 40.4884 194.009 40.7447C194.245 40.9855 194.516 41.146 194.822 41.2261C195.144 41.3065 195.475 41.2717 195.815 41.1217L195.296 42.2226C194.747 42.5316 194.192 42.6255 193.633 42.5041C193.088 42.3829 192.546 42.0466 192.007 41.4951Z" fill="url(#paint52_linear_1_1285)"/>
<path d="M198.815 48.0473L204.222 43.5105L204.127 44.4625L201.864 41.7655L203.749 40.1834L209.386 46.9009L207.501 48.483L205.238 45.786L206.202 45.8704L200.796 50.4071L198.815 48.0473Z" fill="url(#paint53_linear_1_1285)"/>
<path d="M210.932 53.1138C211.596 54.0815 211.896 54.9656 211.833 55.7658C211.769 56.5661 211.35 57.2373 210.576 57.7794C209.775 58.3401 208.937 58.4887 208.063 58.2251C207.204 57.9642 206.42 57.3187 205.713 56.2886L202.965 52.3625L210.203 47.2971L211.97 49.821L209.726 51.3911L210.932 53.1138ZM207.271 54.82C207.483 55.1227 207.72 55.3087 207.98 55.3782C208.241 55.4477 208.518 55.3796 208.812 55.174C209.115 54.9621 209.269 54.728 209.276 54.4717C209.288 54.2242 209.19 53.9415 208.981 53.6237L208.177 52.4752L206.481 53.6622L207.271 54.82Z" fill="url(#paint54_linear_1_1285)"/>
<path d="M212.712 67.0091C212.379 66.3736 212.161 65.7335 212.057 65.089C211.958 64.4541 212 63.8312 212.183 63.2203C212.371 62.619 212.723 62.0367 213.237 61.4732C213.757 60.9193 214.47 60.4057 215.375 59.9322C215.981 59.6149 216.567 59.3758 217.133 59.2148C217.699 59.0538 218.249 58.9684 218.783 58.9586C219.333 58.9534 219.859 59.0337 220.363 59.1995C220.871 59.3749 221.357 59.6358 221.82 59.9821C222.284 60.3285 222.729 60.7699 223.157 61.3065L225.866 64.7273L223.766 66.304L221.422 63.3358C221.278 63.1537 221.114 62.9575 220.931 62.747C220.752 62.5461 220.547 62.3651 220.315 62.2041C220.094 62.038 219.836 61.9091 219.543 61.8172C219.255 61.735 218.921 61.7192 218.543 61.7699C218.18 61.8251 217.767 61.9736 217.305 62.2154C217.17 62.2859 217.062 62.3486 216.98 62.4036C216.913 62.4631 216.829 62.5254 216.728 62.5905C216.637 62.6504 216.49 62.7333 216.288 62.8391L216.595 61.7034C217.121 61.723 217.606 61.8186 218.051 61.9903C218.502 62.1716 218.915 62.4338 219.291 62.7769C219.666 63.12 219.99 63.5515 220.262 64.0715C220.66 64.8322 220.853 65.565 220.842 66.27C220.84 66.9699 220.655 67.6003 220.286 68.1611C219.932 68.7265 219.427 69.1805 218.772 69.5229C218.002 69.9258 217.237 70.0808 216.477 69.9877C215.727 69.8897 215.021 69.5842 214.361 69.0713C213.715 68.5631 213.165 67.8757 212.712 67.0091ZM214.829 65.9934C214.995 66.3112 215.206 66.5503 215.462 66.7109C215.723 66.8811 216.009 66.9707 216.32 66.9796C216.631 66.9885 216.936 66.9149 217.235 66.7587C217.543 66.5976 217.772 66.3917 217.923 66.141C218.074 65.8904 218.149 65.612 218.149 65.3058C218.153 65.0092 218.072 64.7021 217.906 64.3843C217.739 64.0665 217.528 63.8152 217.272 63.6304C217.021 63.4551 216.754 63.3555 216.472 63.3315C216.19 63.3075 215.899 63.3735 215.601 63.5297C215.302 63.6858 215.063 63.8967 214.883 64.1625C214.703 64.4282 214.604 64.7192 214.586 65.0355C214.582 65.3564 214.663 65.6757 214.829 65.9934Z" fill="url(#paint55_linear_1_1285)"/>
<path d="M215.768 71.1363L223.967 67.8475L225.114 70.7067L220.818 72.43L226.492 74.1408L227.553 76.7882L219.354 80.077L218.201 77.2026L222.513 75.4733L216.836 73.7988L215.768 71.1363Z" fill="url(#paint56_linear_1_1285)"/>
<path d="M220.233 80.8016L222.695 80.2199C222.706 80.2959 222.715 80.3668 222.723 80.4324C222.741 80.495 222.758 80.5524 222.773 80.6046C222.849 80.8654 222.971 81.0505 223.139 81.1601C223.32 81.2771 223.536 81.3386 223.787 81.3448C224.041 81.3613 224.323 81.3412 224.635 81.2843C224.96 81.2348 225.307 81.1621 225.675 81.0661L229.248 80.1606L231.483 87.8284L223.001 90.3003L222.135 87.327L228.926 85.3477L228.445 86.2011L227.455 82.8053L228.342 83.226L226.312 83.7159C225.541 83.9066 224.827 84.0409 224.171 84.119C223.528 84.2045 222.957 84.2068 222.458 84.1259C221.959 84.0449 221.537 83.8568 221.19 83.5616C220.857 83.2738 220.61 82.8534 220.449 82.3005C220.391 82.1023 220.347 81.8719 220.316 81.6094C220.277 81.3603 220.249 81.0911 220.233 80.8016Z" fill="url(#paint57_linear_1_1285)"/>
<path d="M224.336 95.3367C224.133 94.3135 224.147 93.3801 224.378 92.5365C224.622 91.7015 225.038 91.0041 225.624 90.4443C226.224 89.8932 226.955 89.5318 227.819 89.3603C228.682 89.1888 229.49 89.2388 230.242 89.5105C231.006 89.7906 231.647 90.256 232.164 90.9066C232.692 91.5552 233.046 92.3324 233.226 93.2383C233.395 94.091 233.374 94.904 233.162 95.6773C232.96 96.4485 232.565 97.1086 231.976 97.6577C231.388 98.2067 230.614 98.5765 229.654 98.7671C229.548 98.7883 229.424 98.8073 229.283 98.8242C229.143 98.841 229.013 98.8558 228.893 98.8684L227.531 92.0099L229.13 91.6923L230.171 96.9361L229.495 95.874C229.891 95.8063 230.218 95.6639 230.474 95.4469C230.732 95.2405 230.913 94.9829 231.018 94.674C231.125 94.3758 231.143 94.0455 231.071 93.6831C230.999 93.3207 230.855 93.0169 230.64 92.7715C230.427 92.5368 230.157 92.3745 229.829 92.2846C229.511 92.1925 229.156 92.1857 228.761 92.264L228.298 92.3561C227.871 92.4408 227.52 92.5992 227.245 92.8311C226.972 93.0737 226.783 93.3771 226.678 93.7414C226.584 94.1036 226.582 94.5138 226.674 94.9721C226.758 95.3984 226.889 95.7492 227.065 96.0243C227.255 96.308 227.507 96.5736 227.822 96.8212L226.477 98.7503C225.936 98.4256 225.483 97.9839 225.117 97.4251C224.762 96.8642 224.502 96.1681 224.336 95.3367Z" fill="url(#paint58_linear_1_1285)"/>
<path d="M226.021 102.397L233.029 101.555L232.429 102.301L232.009 98.8049L234.453 98.5115L235.498 107.218L233.054 107.512L232.635 104.016L233.396 104.614L226.388 105.455L226.021 102.397Z" fill="url(#paint59_linear_1_1285)"/>
<defs>
<linearGradient id="paint0_linear_1_1285" x1="241.492" y1="126.425" x2="225.56" y2="124.947" gradientUnits="userSpaceOnUse">
<stop stop-color="white"/>
</linearGradient>
<linearGradient id="paint1_linear_1_1285" x1="238.453" y1="148.396" x2="223.042" y2="144.094" gradientUnits="userSpaceOnUse">
<stop stop-color="white"/>
</linearGradient>
<linearGradient id="paint2_linear_1_1285" x1="235.355" y1="159.434" x2="220.461" y2="153.589" gradientUnits="userSpaceOnUse">
<stop stop-color="white"/>
</linearGradient>
<linearGradient id="paint3_linear_1_1285" x1="231.304" y1="169.799" x2="216.991" y2="162.647" gradientUnits="userSpaceOnUse">
<stop stop-color="white"/>
</linearGradient>
<linearGradient id="paint4_linear_1_1285" x1="226.48" y1="179.356" x2="212.764" y2="171.117" gradientUnits="userSpaceOnUse">
<stop stop-color="white"/>
</linearGradient>
<linearGradient id="paint5_linear_1_1285" x1="221.456" y1="187.676" x2="208.517" y2="178.264" gradientUnits="userSpaceOnUse">
<stop stop-color="white"/>
</linearGradient>
<linearGradient id="paint6_linear_1_1285" x1="212.16" y1="199.892" x2="200.522" y2="188.912" gradientUnits="userSpaceOnUse">
<stop stop-color="white"/>
</linearGradient>
<linearGradient id="paint7_linear_1_1285" x1="204.3" y1="208.204" x2="193.838" y2="196.098" gradientUnits="userSpaceOnUse">
<stop stop-color="white"/>
</linearGradient>
<linearGradient id="paint8_linear_1_1285" x1="195.196" y1="216.017" x2="185.879" y2="203.009" gradientUnits="userSpaceOnUse">
<stop stop-color="white"/>
</linearGradient>
<linearGradient id="paint9_linear_1_1285" x1="186.347" y1="222.305" x2="178.209" y2="208.529" gradientUnits="userSpaceOnUse">
<stop stop-color="white"/>
</linearGradient>
<linearGradient id="paint10_linear_1_1285" x1="177.573" y1="227.427" x2="170.528" y2="213.062" gradientUnits="userSpaceOnUse">
<stop stop-color="white"/>
</linearGradient>
<linearGradient id="paint11_linear_1_1285" x1="156.859" y1="236.154" x2="152.85" y2="220.665" gradientUnits="userSpaceOnUse">
<stop stop-color="white"/>
</linearGradient>
<linearGradient id="paint12_linear_1_1285" x1="146.361" y1="238.887" x2="143.725" y2="223.105" gradientUnits="userSpaceOnUse">
<stop stop-color="white"/>
</linearGradient>
<linearGradient id="paint13_linear_1_1285" x1="134.872" y1="240.746" x2="133.7" y2="224.788" gradientUnits="userSpaceOnUse">
<stop stop-color="white"/>
</linearGradient>
<linearGradient id="paint14_linear_1_1285" x1="123.077" y1="241.557" x2="123.571" y2="225.565" gradientUnits="userSpaceOnUse">
<stop stop-color="white"/>
</linearGradient>
<linearGradient id="paint15_linear_1_1285" x1="112.024" y1="241.235" x2="113.931" y2="225.349" gradientUnits="userSpaceOnUse">
<stop stop-color="white"/>
</linearGradient>
<linearGradient id="paint16_linear_1_1285" x1="101.471" y1="239.934" x2="104.589" y2="224.241" gradientUnits="userSpaceOnUse">
<stop stop-color="white"/>
</linearGradient>
<linearGradient id="paint17_linear_1_1285" x1="91.9541" y1="238.015" x2="96.4308" y2="222.654" gradientUnits="userSpaceOnUse">
<stop stop-color="white"/>
</linearGradient>
<linearGradient id="paint18_linear_1_1285" x1="77.279" y1="233.382" x2="83.7311" y2="218.74" gradientUnits="userSpaceOnUse">
<stop stop-color="white"/>
</linearGradient>
<linearGradient id="paint19_linear_1_1285" x1="66.9076" y1="228.802" x2="74.7905" y2="214.879" gradientUnits="userSpaceOnUse">
<stop stop-color="white"/>
</linearGradient>
<linearGradient id="paint20_linear_1_1285" x1="56.4897" y1="222.849" x2="65.6157" y2="209.707" gradientUnits="userSpaceOnUse">
<stop stop-color="white"/>
</linearGradient>
<linearGradient id="paint21_linear_1_1285" x1="47.6295" y1="216.645" x2="57.8696" y2="204.352" gradientUnits="userSpaceOnUse">
<stop stop-color="white"/>
</linearGradient>
<linearGradient id="paint22_linear_1_1285" x1="39.8861" y1="210.127" x2="51.0342" y2="198.65" gradientUnits="userSpaceOnUse">
<stop stop-color="white"/>
</linearGradient>
<linearGradient id="paint23_linear_1_1285" x1="22.1427" y1="190.08" x2="35.6733" y2="181.541" gradientUnits="userSpaceOnUse">
<stop stop-color="white"/>
</linearGradient>
<linearGradient id="paint24_linear_1_1285" x1="16.3287" y1="180.919" x2="30.561" y2="173.608" gradientUnits="userSpaceOnUse">
<stop stop-color="white"/>
</linearGradient>
<linearGradient id="paint25_linear_1_1285" x1="11.0945" y1="170.66" x2="25.9445" y2="164.704" gradientUnits="userSpaceOnUse">
<stop stop-color="white"/>
</linearGradient>
<linearGradient id="paint26_linear_1_1285" x1="6.85475" y1="160.074" x2="22.2325" y2="155.655" gradientUnits="userSpaceOnUse">
<stop stop-color="white"/>
</linearGradient>
<linearGradient id="paint27_linear_1_1285" x1="3.81007" y1="149.59" x2="19.5152" y2="146.532" gradientUnits="userSpaceOnUse">
<stop stop-color="white"/>
</linearGradient>
<linearGradient id="paint28_linear_1_1285" x1="1.81376" y1="139.162" x2="17.7069" y2="137.316" gradientUnits="userSpaceOnUse">
<stop stop-color="white"/>
</linearGradient>
<linearGradient id="paint29_linear_1_1285" x1="0.706887" y1="129.4" x2="16.701" y2="128.968" gradientUnits="userSpaceOnUse">
<stop stop-color="white"/>
</linearGradient>
<linearGradient id="paint30_linear_1_1285" x1="0.623436" y1="113.626" x2="16.5368" y2="115.289" gradientUnits="userSpaceOnUse">
<stop stop-color="white"/>
</linearGradient>
<linearGradient id="paint31_linear_1_1285" x1="1.78048" y1="102.432" x2="17.4495" y2="105.669" gradientUnits="userSpaceOnUse">
<stop stop-color="white"/>
</linearGradient>
<linearGradient id="paint32_linear_1_1285" x1="4.24621" y1="90.63" x2="19.5377" y2="95.3386" gradientUnits="userSpaceOnUse">
<stop stop-color="white"/>
</linearGradient>
<linearGradient id="paint33_linear_1_1285" x1="7.5153" y1="80.0831" x2="22.3203" y2="86.1504" gradientUnits="userSpaceOnUse">
<stop stop-color="white"/>
</linearGradient>
<linearGradient id="paint34_linear_1_1285" x1="11.2037" y1="71.1001" x2="25.5163" y2="78.2519" gradientUnits="userSpaceOnUse">
<stop stop-color="white"/>
</linearGradient>
<linearGradient id="paint35_linear_1_1285" x1="24.7464" y1="48.2385" x2="37.0029" y2="58.5233" gradientUnits="userSpaceOnUse">
<stop stop-color="white"/>
</linearGradient>
<linearGradient id="paint36_linear_1_1285" x1="32.1109" y1="39.4397" x2="43.3834" y2="50.7945" gradientUnits="userSpaceOnUse">
<stop stop-color="white"/>
</linearGradient>
<linearGradient id="paint37_linear_1_1285" x1="240.738" y1="138.774" x2="225.227" y2="134.847" gradientUnits="userSpaceOnUse">
<stop stop-color="white"/>
</linearGradient>
<linearGradient id="paint38_linear_1_1285" x1="39.9562" y1="31.6391" x2="50.1515" y2="43.9702" gradientUnits="userSpaceOnUse">
<stop stop-color="white"/>
</linearGradient>
<linearGradient id="paint39_linear_1_1285" x1="49.1346" y1="24.066" x2="58.0186" y2="37.373" gradientUnits="userSpaceOnUse">
<stop stop-color="white"/>
</linearGradient>
<linearGradient id="paint40_linear_1_1285" x1="58.3088" y1="17.9019" x2="65.9853" y2="31.9401" gradientUnits="userSpaceOnUse">
<stop stop-color="white"/>
</linearGradient>
<linearGradient id="paint41_linear_1_1285" x1="67.1112" y1="13.0807" x2="73.7265" y2="27.649" gradientUnits="userSpaceOnUse">
<stop stop-color="white"/>
</linearGradient>
<linearGradient id="paint42_linear_1_1285" x1="76.1643" y1="8.97296" x2="81.4461" y2="24.076" gradientUnits="userSpaceOnUse">
<stop stop-color="white"/>
</linearGradient>
<linearGradient id="paint43_linear_1_1285" x1="90.4259" y1="4.25424" x2="93.7232" y2="19.9108" gradientUnits="userSpaceOnUse">
<stop stop-color="white"/>
</linearGradient>
<linearGradient id="paint44_linear_1_1285" x1="102.3" y1="1.77256" x2="103.962" y2="17.686" gradientUnits="userSpaceOnUse">
<stop stop-color="white"/>
</linearGradient>
<linearGradient id="paint45_linear_1_1285" x1="114.144" y1="0.55552" x2="114.329" y2="16.5544" gradientUnits="userSpaceOnUse">
<stop stop-color="white"/>
</linearGradient>
<linearGradient id="paint46_linear_1_1285" x1="124.952" y1="0.423884" x2="123.719" y2="16.3763" gradientUnits="userSpaceOnUse">
<stop stop-color="white"/>
</linearGradient>
<linearGradient id="paint47_linear_1_1285" x1="135.191" y1="1.22702" x2="132.736" y2="17.0376" gradientUnits="userSpaceOnUse">
<stop stop-color="white"/>
</linearGradient>
<linearGradient id="paint48_linear_1_1285" x1="165.195" y1="8.68075" x2="158.58" y2="23.2491" gradientUnits="userSpaceOnUse">
<stop stop-color="white"/>
</linearGradient>
<linearGradient id="paint49_linear_1_1285" x1="175.179" y1="13.165" x2="167.296" y2="27.0884" gradientUnits="userSpaceOnUse">
<stop stop-color="white"/>
</linearGradient>
<linearGradient id="paint50_linear_1_1285" x1="185.564" y1="19.0858" x2="176.39" y2="32.1944" gradientUnits="userSpaceOnUse">
<stop stop-color="white"/>
</linearGradient>
<linearGradient id="paint51_linear_1_1285" x1="194.687" y1="25.438" x2="184.269" y2="37.5815" gradientUnits="userSpaceOnUse">
<stop stop-color="white"/>
</linearGradient>
<linearGradient id="paint52_linear_1_1285" x1="203.044" y1="32.547" x2="191.607" y2="43.7367" gradientUnits="userSpaceOnUse">
<stop stop-color="white"/>
</linearGradient>
<linearGradient id="paint53_linear_1_1285" x1="210.523" y1="40.2193" x2="198.266" y2="50.5042" gradientUnits="userSpaceOnUse">
<stop stop-color="white"/>
</linearGradient>
<linearGradient id="paint54_linear_1_1285" x1="216.739" y1="47.6277" x2="203.631" y2="56.8017" gradientUnits="userSpaceOnUse">
<stop stop-color="white"/>
</linearGradient>
<linearGradient id="paint55_linear_1_1285" x1="225.269" y1="60.3186" x2="211.091" y2="67.7343" gradientUnits="userSpaceOnUse">
<stop stop-color="white"/>
</linearGradient>
<linearGradient id="paint56_linear_1_1285" x1="230.554" y1="70.393" x2="215.704" y2="76.3493" gradientUnits="userSpaceOnUse">
<stop stop-color="white"/>
</linearGradient>
<linearGradient id="paint57_linear_1_1285" x1="235.183" y1="82.0616" x2="219.822" y2="86.5384" gradientUnits="userSpaceOnUse">
<stop stop-color="white"/>
</linearGradient>
<linearGradient id="paint58_linear_1_1285" x1="238.154" y1="92.2876" x2="222.46" y2="95.4054" gradientUnits="userSpaceOnUse">
<stop stop-color="white"/>
</linearGradient>
<linearGradient id="paint59_linear_1_1285" x1="240.104" y1="102.246" x2="224.218" y2="104.153" gradientUnits="userSpaceOnUse">
<stop stop-color="white"/>
</linearGradient>
</defs>
</svg>
