<svg width="1138" height="760" viewBox="0 0 1138 760" fill="none" xmlns="http://www.w3.org/2000/svg">
<path fill-rule="evenodd" clip-rule="evenodd" d="M258.139 0.0100334C346.772 0.728096 435.007 45.5893 488.068 140.974C539.395 233.241 540.606 355.896 517.906 466.975C496.55 571.474 444.284 656.947 372.515 706.404C298.185 757.626 208.569 784.017 135.006 730.835C64.1376 679.601 48.0277 562.627 28.536 457.726C8.27001 348.657 -22.0561 230.441 24.7064 137.22C74.6447 37.6672 168.784 -0.713879 258.139 0.0100334Z" fill="#1B6AB2"/>
<path fill-rule="evenodd" clip-rule="evenodd" d="M827.842 120.135C941.261 133.895 977.836 238.023 1038.98 312.886C1087.04 371.722 1151.88 428.324 1135.37 496.663C1118.25 567.569 1035.58 610.21 957.532 650.046C855.291 702.228 749.05 785.44 634.097 752.508C514.779 718.325 482.708 603.778 459.477 507.359C437.747 417.174 442.41 323.038 512.793 249.052C586.743 171.316 704.257 105.143 827.842 120.135Z" fill="#080C8D"/>
</svg>
