<svg width="807" height="652" viewBox="0 0 807 652" fill="none" xmlns="http://www.w3.org/2000/svg">
<path fill-rule="evenodd" clip-rule="evenodd" d="M286.061 0.602949C395.417 8.67464 402.197 112.83 475.441 167.669C560.234 231.155 747.541 252.364 735.44 337.058C723.322 421.873 545.932 432.665 432.088 471.091C313.246 511.204 192.364 603.094 76.2546 559.556C-39.4385 516.173 14.3027 399.709 5.86208 311.266C-0.0559337 249.255 -12.2472 188.439 35.7575 135.215C93.914 70.7359 174.047 -7.66499 286.061 0.602949Z" fill="#AA009E"/>
<path fill-rule="evenodd" clip-rule="evenodd" d="M540.657 97.0015C633.887 96.5032 663.102 220.433 714.07 298.5C755.518 361.985 824.598 424.128 801.346 496.292C778.83 566.176 685.562 568.695 617.859 597.103C557.599 622.388 502.766 661.485 438.73 648.446C346.185 629.603 224.256 605.842 205.848 513.21C187.492 420.84 310.524 373.721 369.553 300.341C427.97 227.723 447.46 97.4996 540.657 97.0015Z" fill="#BE2E00"/>
</svg>
