<svg width="770" height="700" viewBox="0 0 770 700" fill="none" xmlns="http://www.w3.org/2000/svg">
<path fill-rule="evenodd" clip-rule="evenodd" d="M390.159 60.1354C276.74 73.8948 240.165 178.023 179.021 252.886C130.966 311.722 66.1178 368.324 82.6267 436.663C99.7556 507.569 182.419 550.21 260.469 590.046C362.71 642.228 468.951 725.44 583.904 692.508C703.222 658.325 735.293 543.778 758.524 447.359C780.254 357.174 775.591 263.038 705.208 189.052C631.258 111.316 513.744 45.1429 390.159 60.1354Z" fill="#4903BC"/>
<path fill-rule="evenodd" clip-rule="evenodd" d="M285.608 50.8743C218.548 59.1127 145.877 31.7948 94.5638 75.7489C31.9568 129.378 -13.3121 211.787 3.55554 292.478C20.6662 374.332 98.0175 425.027 174.598 458.617C247.177 490.451 325.509 492.363 400.446 466.564C491.282 435.292 591.663 396.085 621.493 304.765C653.539 206.659 628.565 82.4949 546.232 20.2608C472.817 -35.2327 376.95 39.6528 285.608 50.8743Z" fill="#080C8D"/>
</svg>

