<svg width="73" height="73" viewBox="0 0 73 73" fill="none" xmlns="http://www.w3.org/2000/svg">
<g>
<path d="M33.15 61.9286H39.525V57.375C42.5607 56.8286 45.1714 55.6446 47.3571 53.8232C49.5429 52.0018 50.6357 49.3 50.6357 45.7179C50.6357 43.1679 49.9071 40.8304 48.45 38.7054C46.9929 36.5804 44.0786 34.7286 39.7071 33.15C36.0643 31.9357 33.5446 30.8732 32.1482 29.9625C30.7518 29.0518 30.0536 27.8071 30.0536 26.2286C30.0536 24.65 30.6158 23.4054 31.7402 22.4946C32.8646 21.5839 34.4881 21.1286 36.6107 21.1286C38.5536 21.1286 40.0714 21.5985 41.1643 22.5384C42.2571 23.4782 43.0464 24.6476 43.5321 26.0464L49.3607 23.6786C48.6929 21.5536 47.464 19.7018 45.6741 18.1232C43.8843 16.5446 41.8953 15.6643 39.7071 15.4821V10.9286H33.3321V15.4821C30.2964 16.15 27.9286 17.4857 26.2286 19.4893C24.5286 21.4929 23.6786 23.7393 23.6786 26.2286C23.6786 29.0821 24.514 31.3893 26.1849 33.15C27.8557 34.9107 30.481 36.4286 34.0607 37.7036C37.8857 39.1 40.5426 40.3446 42.0313 41.4375C43.52 42.5304 44.2631 43.9571 44.2607 45.7179C44.2607 47.7214 43.5467 49.1944 42.1187 50.1366C40.6907 51.0789 38.9761 51.5489 36.975 51.5464C34.9714 51.5464 33.1949 50.9247 31.6455 49.6813C30.0961 48.4379 28.9583 46.5703 28.2321 44.0786L22.2214 46.4464C23.0714 49.3607 24.3926 51.714 26.1849 53.5063C27.9771 55.2986 30.2989 56.5274 33.15 57.1929V61.9286ZM36.4286 72.8571C31.3893 72.8571 26.6536 71.9003 22.2214 69.9866C17.7893 68.0729 13.9339 65.4779 10.6554 62.2018C7.37679 58.9232 4.78186 55.0679 2.87057 50.6357C0.959286 46.2036 0.00242857 41.4679 0 36.4286C0 31.3893 0.956857 26.6536 2.87057 22.2214C4.78429 17.7893 7.37921 13.9339 10.6554 10.6554C13.9339 7.37679 17.7893 4.78186 22.2214 2.87057C26.6536 0.959286 31.3893 0.00242857 36.4286 0C41.4679 0 46.2036 0.956857 50.6357 2.87057C55.0679 4.78429 58.9232 7.37921 62.2018 10.6554C65.4804 13.9339 68.0765 17.7893 69.9902 22.2214C71.9039 26.6536 72.8596 31.3893 72.8571 36.4286C72.8571 41.4679 71.9003 46.2036 69.9866 50.6357C68.0729 55.0679 65.4779 58.9232 62.2018 62.2018C58.9232 65.4804 55.0679 68.0765 50.6357 69.9902C46.2036 71.9039 41.4679 72.8596 36.4286 72.8571Z" fill="url(#paint0_linear_765_80)" fill-opacity="0.5"/>
</g>
<defs>
<linearGradient id="paint0_linear_765_80" x1="40.4034" y1="29.1266" x2="6.68929" y2="-16.662" gradientUnits="userSpaceOnUse">
<stop stop-color="white"/>
<stop offset="1" stop-color="#F2F2F2"/>
</linearGradient>
</defs>
</svg>
