<svg width="75" height="77" viewBox="0 0 75 77" fill="none" xmlns="http://www.w3.org/2000/svg">
<g filter="url(#filter0_b_765_66)">
<path d="M74.1667 22.8516V23.1223C74.1667 26.3115 74.1667 27.9098 73.399 29.2151C72.6314 30.5205 71.2334 31.2955 68.4447 32.8493L65.504 34.481C67.5287 27.628 68.2074 20.2632 68.4558 13.9665L68.4929 13.1469L68.5003 12.9541C70.9145 13.7922 72.2717 14.4189 73.1172 15.5907C74.1667 17.0481 74.1667 18.9838 74.1667 22.8516ZM0 22.8516V23.1223C0 26.3115 5.52585e-08 27.9098 0.767625 29.2151C1.53525 30.5205 2.93329 31.2955 5.72196 32.8493L8.66637 34.481C6.63792 27.628 5.95929 20.2632 5.71083 13.9665L5.67375 13.1469L5.67004 12.9541C3.25221 13.7922 1.89496 14.4189 1.04946 15.5907C0 17.0481 0 18.9876 0 22.8516Z" fill="url(#paint0_linear_765_66)" fill-opacity="0.5"/>
</g>
<g filter="url(#filter1_b_765_66)">
<path fill-rule="evenodd" clip-rule="evenodd" d="M53.3123 1.28766C47.947 0.408314 42.5177 -0.0221069 37.0809 0.000873648C30.4689 0.000873648 25.0177 0.583082 20.8495 1.28766C16.6257 1.99966 14.5157 2.35566 12.7505 4.52875C10.9891 6.70183 11.0818 9.04921 11.2672 13.744C11.9087 29.8678 15.3871 50.0115 34.2996 51.7915V64.8967H28.9967C28.1398 64.8972 27.3094 65.1945 26.6469 65.7381C25.9843 66.2816 25.5305 67.0379 25.3626 67.8782L24.658 71.3863H14.8309C14.0933 71.3863 13.3858 71.6793 12.8642 72.2009C12.3427 72.7225 12.0496 73.4299 12.0496 74.1675C12.0496 74.9052 12.3427 75.6126 12.8642 76.1342C13.3858 76.6558 14.0933 76.9488 14.8309 76.9488H59.3309C60.0685 76.9488 60.7759 76.6558 61.2975 76.1342C61.8191 75.6126 62.1121 74.9052 62.1121 74.1675C62.1121 73.4299 61.8191 72.7225 61.2975 72.2009C60.7759 71.6793 60.0685 71.3863 59.3309 71.3863H49.5038L48.7992 67.8782C48.6313 67.0379 48.1774 66.2816 47.5149 65.7381C46.8524 65.1945 46.022 64.8972 45.1651 64.8967H39.8621V51.7915C58.7746 50.0115 62.2568 29.8715 62.8946 13.744C63.08 9.04921 63.1764 6.69812 61.4113 4.52875C59.6461 2.35566 57.5361 1.99966 53.3123 1.28766ZM39.9993 14.1185C40.5076 14.329 40.942 14.6855 41.2477 15.143C41.5533 15.6004 41.7164 16.1382 41.7163 16.6884V31.5217C41.7163 32.2593 41.4233 32.9668 40.9017 33.4883C40.3801 34.0099 39.6727 34.303 38.9351 34.303C38.1974 34.303 37.49 34.0099 36.9684 33.4883C36.4468 32.9668 36.1538 32.2593 36.1538 31.5217V23.4005L35.338 24.2163C35.0833 24.4895 34.7763 24.7087 34.4351 24.8607C34.094 25.0127 33.7257 25.0945 33.3522 25.1011C32.9788 25.1077 32.6079 25.039 32.2615 24.8991C31.9152 24.7592 31.6006 24.551 31.3365 24.2869C31.0724 24.0228 30.8642 23.7082 30.7243 23.3619C30.5845 23.0156 30.5158 22.6446 30.5224 22.2712C30.5289 21.8977 30.6107 21.5295 30.7627 21.1883C30.9147 20.8471 31.1339 20.5401 31.4071 20.2855L36.9696 14.723C37.3583 14.334 37.8536 14.069 38.3928 13.9614C38.9321 13.8538 39.4912 13.9085 39.9993 14.1185Z" fill="url(#paint1_linear_765_66)" fill-opacity="0.5"/>
</g>
<defs>
<filter id="filter0_b_765_66" x="-5.70626" y="7.24784" width="85.579" height="32.9394" filterUnits="userSpaceOnUse" color-interpolation-filters="sRGB">
<feFlood flood-opacity="0" result="BackgroundImageFix"/>
<feGaussianBlur in="BackgroundImageFix" stdDeviation="2.85313"/>
<feComposite in2="SourceAlpha" operator="in" result="effect1_backgroundBlur_765_66"/>
<feBlend mode="normal" in="SourceGraphic" in2="effect1_backgroundBlur_765_66" result="shape"/>
</filter>
<filter id="filter1_b_765_66" x="5.46562" y="-5.70626" width="63.2314" height="88.3612" filterUnits="userSpaceOnUse" color-interpolation-filters="sRGB">
<feFlood flood-opacity="0" result="BackgroundImageFix"/>
<feGaussianBlur in="BackgroundImageFix" stdDeviation="2.85313"/>
<feComposite in2="SourceAlpha" operator="in" result="effect1_backgroundBlur_765_66"/>
<feBlend mode="normal" in="SourceGraphic" in2="effect1_backgroundBlur_765_66" result="shape"/>
</filter>
<linearGradient id="paint0_linear_765_66" x1="41.1296" y1="21.5601" x2="36.8656" y2="1.60773" gradientUnits="userSpaceOnUse">
<stop stop-color="white"/>
<stop offset="1" stop-color="#F2F2F2"/>
</linearGradient>
<linearGradient id="paint1_linear_765_66" x1="39.9083" y1="30.7624" x2="2.76739" y2="-3.20654" gradientUnits="userSpaceOnUse">
<stop stop-color="white"/>
<stop offset="1" stop-color="#F2F2F2"/>
</linearGradient>
</defs>
</svg>
