<svg width="73" height="71" viewBox="0 0 73 71" fill="none" xmlns="http://www.w3.org/2000/svg">
<g>
<path d="M32.0576 0C33.079 0.00110003 34.0614 0.380853 34.804 1.06167C35.5467 1.74248 35.9937 2.67297 36.0535 3.66302C36.1134 4.65306 35.7816 5.62794 35.1261 6.38846C34.4706 7.14898 33.5407 7.63774 32.5265 7.75487L32.0576 7.78211H8.01441V62.2569H64.1153V38.9105C64.1164 37.9188 64.5075 36.9649 65.2086 36.2437C65.9098 35.5226 66.868 35.0886 67.8876 35.0305C68.9072 34.9724 69.9112 35.2945 70.6944 35.931C71.4776 36.5676 71.981 37.4705 72.1016 38.4553L72.1297 38.9105V62.2569C72.1303 64.2202 71.3667 66.1112 69.9919 67.5508C68.617 68.9904 66.7326 69.8723 64.7164 70.0195L64.1153 70.039H8.01441C5.99247 70.0396 4.04501 69.2981 2.56242 67.9631C1.07982 66.6281 0.171682 64.7983 0.0200369 62.8405L4.01794e-07 62.2569V7.78211C-0.000639467 5.81877 0.762998 3.92776 2.13783 2.48814C3.51267 1.04852 5.39708 0.166706 7.41333 0.0194557L8.01441 0H32.0576ZM67.1207 0C69.8856 0 72.1297 2.17899 72.1297 4.86382V19.4553C72.1297 20.4872 71.7075 21.4769 70.956 22.2067C70.2045 22.9364 69.1853 23.3463 68.1225 23.3463C67.0597 23.3463 66.0405 22.9364 65.289 22.2067C64.5375 21.4769 64.1153 20.4872 64.1153 19.4553V13.2841L37.7238 38.9105H44.0793C45.142 38.9105 46.1613 39.3205 46.9128 40.0502C47.6643 40.7799 48.0865 41.7696 48.0865 42.8016C48.0865 43.8336 47.6643 44.8233 46.9128 45.553C46.1613 46.2827 45.142 46.6926 44.0793 46.6926H29.0522C26.2873 46.6926 24.0432 44.5137 24.0432 41.8288V27.2374C24.0432 26.2054 24.4654 25.2157 25.2169 24.486C25.9684 23.7563 26.9877 23.3463 28.0504 23.3463C29.1132 23.3463 30.1325 23.7563 30.884 24.486C31.6354 25.2157 32.0576 26.2054 32.0576 27.2374V33.4086L58.4491 7.78211H52.0937C51.0309 7.78211 50.0116 7.37216 49.2601 6.64244C48.5086 5.91273 48.0865 4.92303 48.0865 3.89105C48.0865 2.85908 48.5086 1.86938 49.2601 1.13966C50.0116 0.409949 51.0309 0 52.0937 0H67.1207Z" fill="url(#paint0_linear_765_63)" fill-opacity="0.5"/>
</g>
<defs>
<linearGradient id="paint0_linear_765_63" x1="40" y1="28" x2="7.88436" y2="-16.9197" gradientUnits="userSpaceOnUse">
<stop stop-color="white"/>
<stop offset="1" stop-color="#F2F2F2"/>
</linearGradient>
</defs>
</svg>
