<svg width="47" height="67" viewBox="0 0 47 67" fill="none" xmlns="http://www.w3.org/2000/svg">
<g>
<path fill-rule="evenodd" clip-rule="evenodd" d="M35.5294 3.77382C31.3469 3.08832 27.1145 2.75279 22.8762 2.7707C17.7218 2.7707 13.4723 3.22456 10.223 3.77382C6.93028 4.32887 5.28539 4.60639 3.90935 6.30043C2.53619 7.99446 2.60846 9.82437 2.75301 13.4842C3.1996 24.7084 5.40968 38.4315 16.376 42.2283C18.7505 43.0504 20.7081 45.0646 20.7081 47.5774V49.2266C20.7081 51.5097 18.8572 53.3605 16.5741 53.3605V53.3605C15.9061 53.3609 15.2588 53.5927 14.7423 54.0164C14.2258 54.4402 13.8721 55.0297 13.7411 55.6848V55.6848C13.4217 57.2752 12.0247 58.4195 10.4025 58.4195H5.53111C4.95609 58.4195 4.40461 58.6479 3.99801 59.0546C3.5914 59.4612 3.36297 60.0126 3.36297 60.5877C3.36297 61.1627 3.5914 61.7142 3.99801 62.1208C4.40461 62.5274 4.95609 62.7558 5.53111 62.7558H40.2213C40.7963 62.7558 41.3478 62.5274 41.7544 62.1208C42.161 61.7142 42.3894 61.1627 42.3894 60.5877C42.3894 60.0126 42.161 59.4612 41.7544 59.0546C41.3478 58.6479 40.7963 58.4195 40.2213 58.4195H35.3499C33.7277 58.4195 32.3307 57.2752 32.0113 55.6848V55.6848C31.8803 55.0297 31.5266 54.4402 31.0101 54.0164C30.4936 53.5927 29.8463 53.3609 29.1782 53.3605V53.3605C26.8951 53.3605 25.0443 51.5097 25.0443 49.2266V47.5774C25.0443 45.0646 27.0019 43.0504 29.3764 42.2284C40.3433 38.4321 42.5554 24.711 42.9994 13.4842C43.1439 9.82437 43.2191 7.99157 41.8431 6.30043C40.467 4.60639 38.8221 4.32887 35.5294 3.77382Z" fill="url(#paint0_linear_765_65)" />
</g>
<defs>
<linearGradient id="paint0_linear_765_65" x1="22.8764" y1="39.9949" x2="1.57655" y2="-9.5348" gradientUnits="userSpaceOnUse">
<stop stop-color="white"/>
<stop offset="1" stop-color="#EBEBEB" stop-opacity="0"/>
</linearGradient>
</defs>
</svg>
