<svg width="66" height="63" viewBox="0 0 66 63" fill="none" xmlns="http://www.w3.org/2000/svg">
<g filter="url(#filter0_b_765_82)">
<path d="M18.0219 62.5417C13.0295 62.5417 8.77778 60.7861 5.26667 57.275C1.75556 53.7639 0 49.5121 0 44.5198C0 39.8017 1.57781 35.7277 4.73342 32.2978C7.88903 28.8679 11.8248 26.962 16.5406 26.5802L5.67812 4.77292C5.12951 3.67569 5.17121 2.6059 5.80321 1.56354C6.43521 0.52118 7.38101 0 8.64063 0H22.301C23.5628 0 24.7018 0.329166 25.7178 0.9875C26.7338 1.64583 27.5425 2.52361 28.1438 3.62083L32.9167 13.1667L37.6896 3.62083C38.2931 2.52361 39.1028 1.64583 40.1188 0.9875C41.1349 0.329166 42.2727 0 43.5323 0H57.1927C58.4545 0 59.4014 0.52118 60.0334 1.56354C60.6654 2.6059 60.706 3.67569 60.1552 4.77292L49.375 26.4156C54.0382 26.8545 57.9476 28.7889 61.1032 32.2188C64.2588 35.6487 65.8355 39.7216 65.8333 44.4375C65.8333 49.4847 64.0778 53.7639 60.5667 57.275C57.0556 60.7861 52.7764 62.5417 47.7292 62.5417C47.2354 62.5417 46.7274 62.5274 46.2051 62.4989C45.6829 62.4703 45.1759 62.4023 44.6844 62.2948C47.7017 60.3198 50.0608 57.7556 51.7615 54.6022C53.4622 51.4487 54.3125 48.0605 54.3125 44.4375C54.3125 38.4576 52.2409 33.3972 48.0978 29.2563C43.9547 25.1154 38.8943 23.0439 32.9167 23.0417C26.9368 23.0417 21.8764 25.1132 17.7355 29.2563C13.5946 33.3994 11.523 38.4598 11.5208 44.4375C11.5208 48.168 12.2889 51.6792 13.825 54.9708C15.3611 58.2625 17.775 60.7038 21.0667 62.2948C20.5729 62.4045 20.0649 62.4736 19.5426 62.5022C19.0203 62.5307 18.5112 62.5439 18.0219 62.5417ZM32.9167 59.25C28.8021 59.25 25.3041 57.8093 22.4228 54.928C19.5415 52.0467 18.102 48.5499 18.1042 44.4375C18.1042 40.3229 19.5448 36.825 22.4261 33.9437C25.3074 31.0624 28.8043 29.6228 32.9167 29.625C37.0313 29.625 40.5292 31.0656 43.4105 33.947C46.2918 36.8283 47.7314 40.3251 47.7292 44.4375C47.7292 48.5521 46.2885 52.05 43.4072 54.9313C40.5259 57.8126 37.0291 59.2522 32.9167 59.25ZM32.9167 48.8812L36.949 51.926C37.2781 52.2003 37.6073 52.2146 37.9365 51.9688C38.2656 51.723 38.3753 51.407 38.2656 51.0208L36.7021 46.001L40.7344 43.1208C41.0635 42.8465 41.1733 42.5305 41.0635 42.1728C40.9538 41.8151 40.6795 41.6374 40.2406 41.6396H35.3031L33.7396 36.2906C33.6299 35.9066 33.3556 35.7146 32.9167 35.7146C32.4778 35.7146 32.2035 35.9066 32.0938 36.2906L30.5302 41.6396H25.5927C25.1538 41.6396 24.8795 41.8184 24.7698 42.1761C24.6601 42.5338 24.7698 42.8487 25.099 43.1208L29.1313 46.001L27.5677 51.0208C27.458 51.4049 27.5677 51.7209 27.8969 51.9688C28.226 52.2168 28.5552 52.2025 28.8844 51.926L32.9167 48.8812Z" fill="url(#paint0_linear_765_82)" fill-opacity="0.5"/>
</g>
<defs>
<filter id="filter0_b_765_82" x="-5.06511" y="-5.06511" width="75.9632" height="72.6722" filterUnits="userSpaceOnUse" color-interpolation-filters="sRGB">
<feFlood flood-opacity="0" result="BackgroundImageFix"/>
<feGaussianBlur in="BackgroundImageFix" stdDeviation="2.53255"/>
<feComposite in2="SourceAlpha" operator="in" result="effect1_backgroundBlur_765_82"/>
<feBlend mode="normal" in="SourceGraphic" in2="effect1_backgroundBlur_765_82" result="shape"/>
</filter>
<linearGradient id="paint0_linear_765_82" x1="36.5083" y1="25.0028" x2="8.03868" y2="-15.6979" gradientUnits="userSpaceOnUse">
<stop stop-color="white"/>
<stop offset="1" stop-color="#F2F2F2"/>
</linearGradient>
</defs>
</svg>
