<svg width="80" height="79" viewBox="0 0 80 79" fill="none" xmlns="http://www.w3.org/2000/svg">
<g>
<mask id="path-1-inside-1_765_71" fill="white">
<path d="M74.25 41.25C74.25 61.7535 57.6285 78.375 37.125 78.375C16.6215 78.375 0 61.7535 0 41.25C0 20.7465 16.6215 4.125 37.125 4.125"/>
</mask>
<path d="M67.7346 41.25C67.7346 58.1552 54.0302 71.8596 37.125 71.8596V84.8904C61.2269 84.8904 80.7654 65.3519 80.7654 41.25H67.7346ZM37.125 71.8596C20.2198 71.8596 6.51538 58.1552 6.51538 41.25H-6.51538C-6.51538 65.3519 13.0231 84.8904 37.125 84.8904V71.8596ZM6.51538 41.25C6.51538 24.3448 20.2198 10.6404 37.125 10.6404V-2.39038C13.0231 -2.39038 -6.51538 17.1481 -6.51538 41.25H6.51538Z" fill="url(#paint0_linear_765_71)" fill-opacity="0.5" mask="url(#path-1-inside-1_765_71)"/>
</g>
<path d="M18.3438 47.166C35.875 47.166 43.0937 46.1348 57.5312 27.5723" stroke="url(#paint1_linear_765_71)" stroke-opacity="0.5" stroke-width="8.28384" stroke-linecap="round" stroke-linejoin="round"/>
<path d="M40.918 27.1279H57.418V43.6279" stroke="url(#paint2_linear_765_71)" stroke-opacity="0.5" stroke-width="8.28384" stroke-linecap="round" stroke-linejoin="round"/>
<g>
<path d="M74.0213 4.125L66 12.1463Z" fill="url(#paint3_linear_765_71)"/>
</g>
<defs>
<linearGradient id="paint0_linear_765_71" x1="37.0582" y1="64.022" x2="15.8259" y2="-18.7656" gradientUnits="userSpaceOnUse">
<stop stop-color="white"/>
<stop offset="1" stop-color="#F2F2F2"/>
</linearGradient>
<linearGradient id="paint1_linear_765_71" x1="33.7516" y1="42.7651" x2="71.9318" y2="35.6609" gradientUnits="userSpaceOnUse">
<stop stop-color="white"/>
<stop offset="1" stop-color="#F2F2F2"/>
</linearGradient>
<linearGradient id="paint2_linear_765_71" x1="49.168" y1="38.6624" x2="44.3023" y2="22.0401" gradientUnits="userSpaceOnUse">
<stop stop-color="white"/>
<stop offset="1" stop-color="#F2F2F2"/>
</linearGradient>
<linearGradient id="paint3_linear_765_71" x1="70.0034" y1="10.5957" x2="67.7097" y2="1.65211" gradientUnits="userSpaceOnUse">
<stop stop-color="#FF0909"/>
<stop offset="1" stop-color="#F2F2F2"/>
</linearGradient>
</defs>
</svg>
