<svg width="63" height="61" viewBox="0 0 63 61" fill="none" xmlns="http://www.w3.org/2000/svg">
<g>
<path d="M18.6945 55.5749C14.4605 55.5749 10.8546 54.086 7.87682 51.1082C4.89904 48.1304 3.41016 44.5245 3.41016 40.2905C3.41016 36.2891 4.7483 32.834 7.42457 29.925C8.42991 28.8323 9.52861 27.922 10.7207 27.194C13.6257 25.4201 15.7862 21.7591 14.2685 18.7123L8.22578 6.58112C7.7605 5.65056 7.79586 4.74327 8.33186 3.85924C8.86786 2.97522 9.67 2.5332 10.7383 2.5332H22.3237C23.3938 2.5332 24.3598 2.81237 25.2214 3.3707C26.0831 3.92904 26.769 4.67348 27.2789 5.60404V5.60404C28.9467 8.9397 33.7069 8.9397 35.3747 5.60404V5.60404C35.8865 4.67348 36.5733 3.92904 37.435 3.3707C38.2967 2.81237 39.2617 2.5332 40.3299 2.5332H51.9154C52.9855 2.5332 53.7886 2.97522 54.3246 3.85924C54.8606 4.74327 54.895 5.65056 54.4279 6.58112L48.4107 18.6614C46.905 21.6842 49.0151 25.3179 51.8931 27.0846C53.0989 27.8248 54.2118 28.7493 55.2319 29.858C57.9081 32.767 59.2453 36.2212 59.2435 40.2207C59.2435 44.5013 57.7546 48.1304 54.7768 51.1082C51.799 54.086 48.1699 55.5749 43.8893 55.5749C43.4706 55.5749 43.0397 55.5628 42.5968 55.5386V55.5386C41.1162 55.4577 40.9728 54.6777 42.4487 54.5351C45.7345 54.2177 49.767 54.3246 50.9557 53.1359C52.7189 49.6096 49.4727 43.2934 49.4727 40.2207C47.4891 35.5043 47.7158 30.8575 44.202 27.3455C38.0856 25.5131 36.3965 22.0767 31.3268 22.0749C28.0944 24.3376 21.9636 23.8318 18.4517 27.3455C14.9397 30.8593 13.1828 35.151 13.181 40.2207C13.181 43.3846 13.8324 46.3624 15.1352 49.154C17.0196 51.0384 24.0685 54.7252 26.8601 56.0745C26.4414 56.1675 21.0916 55.6832 20.6487 55.7074C20.2057 55.7316 19.1096 55.5767 18.6945 55.5749ZM26.8601 56.0745C23.3705 56.0745 17.5788 51.5977 15.1352 49.154C12.6915 46.7104 13.1791 43.7084 13.181 40.2207C13.181 36.7311 13.9891 29.0394 18.4517 27.3455C20.8953 24.9019 27.8391 22.073 31.3268 22.0749C34.8164 22.0749 41.7583 24.9019 44.202 27.3455C46.6456 29.7892 49.4745 36.733 49.4727 40.2207C49.4727 43.7103 53.3066 50.1973 50.9557 53.1359C48.5121 55.5795 30.3478 56.0764 26.8601 56.0745Z" fill="url(#paint0_linear_765_81)" />
</g>
<defs>
<linearGradient id="paint0_linear_765_81" x1="31.3268" y1="35.7662" x2="17.8152" y2="-12.8766" gradientUnits="userSpaceOnUse">
<stop stop-color="white"/>
<stop offset="1" stop-color="#EBEBEB" stop-opacity="0"/>
</linearGradient>
</defs>
</svg>
