<svg width="95" height="108" viewBox="0 0 95 108" fill="none" xmlns="http://www.w3.org/2000/svg">
<g filter="url(#filter0_d_366_1137)">
<circle cx="59" cy="72" r="30" fill="url(#paint0_linear_366_1137)" shape-rendering="crispEdges"/>
</g>
<g filter="url(#filter1_b_366_1137)">
<path d="M60.5142 10.4857H60.5097L67.947 11.9723C68.3464 12.0522 68.6747 12.345 68.7901 12.74C68.8484 12.9318 68.8536 13.1359 68.8051 13.3304C68.7567 13.525 68.6564 13.7028 68.515 13.8449L62.4223 19.942C61.6934 20.6696 60.7054 21.0782 59.6755 21.078H54.6256L41.9344 33.7737C42.1765 34.688 42.221 35.6433 42.065 36.5761C41.909 37.5088 41.5559 38.3977 41.0295 39.1833C40.503 39.969 39.8151 40.6334 39.0117 41.1323C38.2083 41.6313 37.3078 41.9533 36.3702 42.077C35.4325 42.2006 34.4793 42.123 33.574 41.8494C32.6687 41.5757 31.8322 41.1123 31.12 40.49C30.4079 39.8677 29.8365 39.1008 29.444 38.2403C29.0515 37.3799 28.8469 36.4457 28.8438 35.4999C28.8444 34.4788 29.0799 33.4715 29.5318 32.5559C29.9838 31.6403 30.6403 30.8408 31.4505 30.2194C32.2607 29.5979 33.203 29.171 34.2044 28.9717C35.2059 28.7724 36.2398 28.806 37.2262 29.07L49.9219 16.3699V11.3244C49.9219 10.2949 50.3301 9.30536 51.0579 8.5776L57.155 2.48048C57.2971 2.33905 57.4749 2.23878 57.6695 2.19034C57.864 2.1419 58.0681 2.14708 58.2599 2.20536C58.6549 2.32073 58.9478 2.64911 59.0276 3.04848L60.5142 10.4857Z" fill="url(#paint1_linear_366_1137)" fill-opacity="0.5"/>
</g>
<g filter="url(#filter2_b_366_1137)">
<path d="M8.8763 35.5C8.88086 39.3072 9.70186 43.0692 11.2839 46.5321C12.866 49.995 15.1724 53.0784 18.0474 55.5742C20.9224 58.07 24.2993 59.9202 27.9502 60.9999C31.601 62.0797 35.441 62.3639 39.2111 61.8334C42.9812 61.3029 46.5936 59.9701 49.8048 57.9248C53.0159 55.8795 55.7511 53.1693 57.8258 49.977C59.9005 46.7848 61.2664 43.1847 61.8314 39.4196C62.3965 35.6546 62.1475 31.8122 61.1012 28.1515C60.9543 27.7239 60.896 27.2708 60.9298 26.8198C60.9636 26.3689 61.0889 25.9296 61.2979 25.5286C61.5069 25.1276 61.7953 24.7733 62.1456 24.4874C62.4959 24.2014 62.9008 23.9897 63.3355 23.8652C63.7702 23.7407 64.2257 23.706 64.6743 23.7632C65.1229 23.8203 65.5551 23.9682 65.9447 24.1977C66.3343 24.4272 66.6731 24.7337 66.9405 25.0983C67.2079 25.463 67.3983 25.8783 67.5001 26.3188C69.5259 33.4079 69.1411 40.9688 66.406 47.8156C63.671 54.6623 58.7404 60.4074 52.3878 64.1494C46.0353 67.8915 38.6202 69.4189 31.3059 68.4919C23.9916 67.565 17.1919 64.2361 11.9737 59.0277C6.76113 53.8107 3.42871 47.0104 2.49963 39.6944C1.57054 32.3784 3.0974 24.961 6.84047 18.6068C10.5835 12.2525 16.3309 7.32129 23.1801 4.58725C30.0294 1.85321 37.5926 1.47121 44.6825 3.50122C45.5267 3.74799 46.2389 4.3189 46.6634 5.08918C47.088 5.85946 47.1903 6.76648 46.9482 7.61201C46.706 8.45754 46.139 9.17284 45.371 9.60158C44.6031 10.0303 43.6966 10.1376 42.8498 9.90009C38.8853 8.76261 34.7107 8.56158 30.6552 9.31286C26.5997 10.0641 22.7741 11.7472 19.4801 14.2293C16.1861 16.7114 13.5137 19.9248 11.6735 23.616C9.83337 27.3073 8.8758 31.3755 8.8763 35.5Z" fill="url(#paint2_linear_366_1137)" fill-opacity="0.5"/>
</g>
<g filter="url(#filter3_b_366_1137)">
<path d="M22.1857 35.5003C22.186 37.9258 22.8484 40.3052 24.1017 42.3818C25.3549 44.4585 27.1513 46.1536 29.2971 47.2843C31.443 48.4149 33.8568 48.9383 36.2782 48.7979C38.6996 48.6575 41.0368 47.8587 43.0375 46.4876C45.0379 45.113 46.6245 43.2177 47.6256 41.0066C48.6267 38.7956 49.0043 36.3529 48.7175 33.9428C48.64 33.3579 48.7197 32.7629 48.9485 32.2191C49.1773 31.6753 49.5469 31.2023 50.0193 30.8489C50.4916 30.4954 51.0497 30.2742 51.6359 30.2081C52.2222 30.1419 52.8155 30.2333 53.3547 30.4726C53.8938 30.7089 54.3606 31.0839 54.7075 31.5594C55.0544 32.035 55.269 32.594 55.3294 33.1795C55.8116 37.2979 54.9997 41.4643 53.0064 45.1004C51.0132 48.7365 47.9374 51.6619 44.2061 53.4705C40.4748 55.2792 36.273 55.8814 32.1838 55.1936C28.0947 54.5058 24.3211 52.5621 21.3868 49.6322C18.4525 46.7024 16.5031 42.9318 15.809 38.8437C15.115 34.7556 15.7109 30.5529 17.5138 26.8188C19.3168 23.0847 22.2375 20.0045 25.8706 18.0058C29.5036 16.007 33.6688 15.1888 37.788 15.6647C38.229 15.7056 38.6575 15.8342 39.0482 16.0428C39.439 16.2515 39.7841 16.5361 40.0634 16.8798C40.3428 17.2236 40.5507 17.6197 40.675 18.0449C40.7992 18.47 40.8374 18.9157 40.7872 19.3559C40.7369 19.796 40.5994 20.2216 40.3825 20.6079C40.1657 20.9941 39.8739 21.3332 39.5243 21.6052C39.1747 21.8772 38.7743 22.0767 38.3466 22.192C37.9189 22.3073 37.4725 22.336 37.0336 22.2766C35.1683 22.06 33.2783 22.2405 31.4878 22.8062C29.6972 23.3719 28.0466 24.31 26.6443 25.5589C25.242 26.8078 24.1198 28.3392 23.3514 30.0526C22.583 31.766 22.1857 33.6225 22.1857 35.5003Z" fill="url(#paint3_linear_366_1137)" fill-opacity="0.5"/>
</g>
<defs>
<filter id="filter0_d_366_1137" x="25.4027" y="39.1222" width="68.6335" height="68.6335" filterUnits="userSpaceOnUse" color-interpolation-filters="sRGB">
<feFlood flood-opacity="0" result="BackgroundImageFix"/>
<feColorMatrix in="SourceAlpha" type="matrix" values="0 0 0 0 0 0 0 0 0 0 0 0 0 0 0 0 0 0 127 0" result="hardAlpha"/>
<feOffset dx="0.71946" dy="1.43892"/>
<feGaussianBlur stdDeviation="2.15838"/>
<feComposite in2="hardAlpha" operator="out"/>
<feColorMatrix type="matrix" values="0 0 0 0 0.109804 0 0 0 0 0.372549 0 0 0 0 0.215686 0 0 0 0.6 0"/>
<feBlend mode="normal" in2="BackgroundImageFix" result="effect1_dropShadow_366_1137"/>
<feBlend mode="normal" in="SourceGraphic" in2="effect1_dropShadow_366_1137" result="shape"/>
</filter>
<filter id="filter1_b_366_1137" x="24.2916" y="-2.39471" width="49.0985" height="49.0809" filterUnits="userSpaceOnUse" color-interpolation-filters="sRGB">
<feFlood flood-opacity="0" result="BackgroundImageFix"/>
<feGaussianBlur in="BackgroundImageFix" stdDeviation="2.27609"/>
<feComposite in2="SourceAlpha" operator="in" result="effect1_backgroundBlur_366_1137"/>
<feBlend mode="normal" in="SourceGraphic" in2="effect1_backgroundBlur_366_1137" result="shape"/>
</filter>
<filter id="filter2_b_366_1137" x="-2.31781" y="-2.33685" width="75.6512" height="75.6451" filterUnits="userSpaceOnUse" color-interpolation-filters="sRGB">
<feFlood flood-opacity="0" result="BackgroundImageFix"/>
<feGaussianBlur in="BackgroundImageFix" stdDeviation="2.27609"/>
<feComposite in2="SourceAlpha" operator="in" result="effect1_backgroundBlur_366_1137"/>
<feBlend mode="normal" in="SourceGraphic" in2="effect1_backgroundBlur_366_1137" result="shape"/>
</filter>
<filter id="filter3_b_366_1137" x="10.9752" y="10.9805" width="49.0419" height="49.0419" filterUnits="userSpaceOnUse" color-interpolation-filters="sRGB">
<feFlood flood-opacity="0" result="BackgroundImageFix"/>
<feGaussianBlur in="BackgroundImageFix" stdDeviation="2.27609"/>
<feComposite in2="SourceAlpha" operator="in" result="effect1_backgroundBlur_366_1137"/>
<feBlend mode="normal" in="SourceGraphic" in2="effect1_backgroundBlur_366_1137" result="shape"/>
</filter>
<linearGradient id="paint0_linear_366_1137" x1="59" y1="79.2337" x2="43.315" y2="25.0726" gradientUnits="userSpaceOnUse">
<stop stop-color="white"/>
<stop offset="1" stop-color="#EBEBEB" stop-opacity="0"/>
</linearGradient>
<linearGradient id="paint1_linear_366_1137" x1="51.0228" y1="18.1392" x2="32.5264" y2="-6.99273" gradientUnits="userSpaceOnUse">
<stop stop-color="white"/>
<stop offset="1" stop-color="#F2F2F2"/>
</linearGradient>
<linearGradient id="paint2_linear_366_1137" x1="39.1385" y1="28.8168" x2="8.34807" y2="-13.0049" gradientUnits="userSpaceOnUse">
<stop stop-color="white"/>
<stop offset="1" stop-color="#F2F2F2"/>
</linearGradient>
<linearGradient id="paint3_linear_366_1137" x1="37.675" y1="31.4988" x2="19.1942" y2="6.39924" gradientUnits="userSpaceOnUse">
<stop stop-color="white"/>
<stop offset="1" stop-color="#F2F2F2"/>
</linearGradient>
</defs>
</svg>
