<svg width="89" height="115" viewBox="0 0 89 115" fill="none" xmlns="http://www.w3.org/2000/svg">
<g filter="url(#filter0_d_366_1118)">
<path fill-rule="evenodd" clip-rule="evenodd" d="M77.2091 52.0038C73.0266 51.3183 68.7942 50.9828 64.5559 51.0007C59.4015 51.0007 55.152 51.4545 51.9026 52.0038C48.61 52.5588 46.9651 52.8364 45.589 54.5304C44.2159 56.2244 44.2882 58.0543 44.4327 61.7142C44.8793 72.9384 47.0894 86.6615 58.0557 90.4583C60.4302 91.2804 62.3877 93.2945 62.3877 95.8073V97.4566C62.3877 99.7397 60.5369 101.591 58.2538 101.591C57.5858 101.591 56.9385 101.823 56.422 102.246C55.9055 102.67 55.5517 103.26 55.4208 103.915C55.1014 105.505 53.7044 106.65 52.0822 106.65H47.2108C46.6358 106.65 46.0843 106.878 45.6777 107.285C45.2711 107.691 45.0427 108.243 45.0427 108.818C45.0427 109.393 45.2711 109.944 45.6777 110.351C46.0843 110.757 46.6358 110.986 47.2108 110.986H81.901C82.476 110.986 83.0275 110.757 83.4341 110.351C83.8407 109.944 84.0691 109.393 84.0691 108.818C84.0691 108.243 83.8407 107.691 83.4341 107.285C83.0275 106.878 82.476 106.65 81.901 106.65H77.0296C75.4074 106.65 74.0104 105.505 73.691 103.915C73.56 103.26 73.2062 102.67 72.6898 102.246C72.1733 101.823 71.526 101.591 70.8579 101.591C68.5748 101.591 66.724 99.7397 66.724 97.4566V95.8073C66.724 93.2945 68.6815 91.2804 71.0561 90.4584C82.0229 86.6621 84.2351 72.941 84.6791 61.7142C84.8236 58.0543 84.8988 56.2216 83.5227 54.5304C82.1467 52.8364 80.5018 52.5588 77.2091 52.0038Z" fill="url(#paint0_linear_366_1118)" shape-rendering="crispEdges"/>
</g>
<g filter="url(#filter1_b_366_1118)">
<path d="M84.8464 29.0816V29.3523C84.8464 32.5415 84.8464 34.1398 84.0787 35.4451C83.3111 36.7505 81.9131 37.5255 79.1244 39.0793L76.1837 40.711C78.2084 33.858 78.8871 26.4932 79.1355 20.1965L79.1726 19.3769L79.18 19.1841C81.5941 20.0222 82.9514 20.6489 83.7969 21.8207C84.8464 23.2781 84.8464 25.2138 84.8464 29.0816ZM10.6797 29.0816V29.3523C10.6797 32.5415 10.6797 34.1398 11.4473 35.4451C12.2149 36.7505 13.613 37.5255 16.4016 39.0793L19.3461 40.711C17.3176 33.858 16.639 26.4932 16.3905 20.1965L16.3534 19.3769L16.3497 19.1841C13.9319 20.0222 12.5746 20.6489 11.7291 21.8207C10.6797 23.2781 10.6797 25.2175 10.6797 29.0816Z" fill="url(#paint1_linear_366_1118)" fill-opacity="0.5"/>
</g>
<g filter="url(#filter2_b_366_1118)">
<path fill-rule="evenodd" clip-rule="evenodd" d="M63.992 7.51765C58.6267 6.63829 53.1974 6.20787 47.7606 6.23085C41.1486 6.23085 35.6974 6.81306 31.5292 7.51765C27.3054 8.22965 25.1954 8.58565 23.4302 10.7587C21.6687 12.9318 21.7615 15.2792 21.9469 19.9739C22.5884 36.0978 26.0668 56.2414 44.9793 58.0214V71.1267H39.6764C38.8194 71.1272 37.9891 71.4245 37.3266 71.9681C36.664 72.5116 36.2102 73.2679 36.0422 74.1082L35.3377 77.6163H25.5106C24.7729 77.6163 24.0655 77.9093 23.5439 78.4309C23.0223 78.9525 22.7293 79.6599 22.7293 80.3975C22.7293 81.1352 23.0223 81.8426 23.5439 82.3642C24.0655 82.8858 24.7729 83.1788 25.5106 83.1788H70.0106C70.7482 83.1788 71.4556 82.8858 71.9772 82.3642C72.4988 81.8426 72.7918 81.1352 72.7918 80.3975C72.7918 79.6599 72.4988 78.9525 71.9772 78.4309C71.4556 77.9093 70.7482 77.6163 70.0106 77.6163H60.1835L59.4789 74.1082C59.3109 73.2679 58.8571 72.5116 58.1946 71.9681C57.532 71.4245 56.7017 71.1272 55.8447 71.1267H50.5418V58.0214C69.4543 56.2414 72.9365 36.1015 73.5743 19.9739C73.7597 15.2792 73.8561 12.9281 72.091 10.7587C70.3258 8.58565 68.2157 8.22965 63.992 7.51765ZM50.679 20.3485C51.1873 20.559 51.6217 20.9155 51.9273 21.373C52.233 21.8304 52.3961 22.3682 52.396 22.9184V37.7517C52.396 38.4893 52.103 39.1967 51.5814 39.7183C51.0598 40.2399 50.3524 40.5329 49.6147 40.5329C48.8771 40.5329 48.1697 40.2399 47.6481 39.7183C47.1265 39.1967 46.8335 38.4893 46.8335 37.7517V29.6304L46.0177 30.4463C45.763 30.7195 45.456 30.9387 45.1148 31.0907C44.7737 31.2427 44.4054 31.3245 44.0319 31.331C43.6585 31.3376 43.2875 31.2689 42.9412 31.1291C42.5949 30.9892 42.2803 30.781 42.0162 30.5169C41.7521 30.2528 41.5439 29.9382 41.404 29.5919C41.2642 29.2455 41.1955 28.8746 41.202 28.5012C41.2086 28.1277 41.2904 27.7594 41.4424 27.4183C41.5944 27.0771 41.8136 26.7701 42.0868 26.5154L47.6493 20.9529C48.038 20.564 48.5333 20.2989 49.0725 20.1914C49.6118 20.0838 50.1708 20.1384 50.679 20.3485Z" fill="url(#paint2_linear_366_1118)" fill-opacity="0.5"/>
</g>
<defs>
<filter id="filter0_d_366_1118" x="41.8626" y="49.0033" width="46.3855" height="65.9758" filterUnits="userSpaceOnUse" color-interpolation-filters="sRGB">
<feFlood flood-opacity="0" result="BackgroundImageFix"/>
<feColorMatrix in="SourceAlpha" type="matrix" values="0 0 0 0 0 0 0 0 0 0 0 0 0 0 0 0 0 0 127 0" result="hardAlpha"/>
<feOffset dx="0.499164" dy="0.998328"/>
<feGaussianBlur stdDeviation="1.49749"/>
<feComposite in2="hardAlpha" operator="out"/>
<feColorMatrix type="matrix" values="0 0 0 0 0.109804 0 0 0 0 0.372549 0 0 0 0 0.215686 0 0 0 0.6 0"/>
<feBlend mode="normal" in2="BackgroundImageFix" result="effect1_dropShadow_366_1118"/>
<feBlend mode="normal" in="SourceGraphic" in2="effect1_dropShadow_366_1118" result="shape"/>
</filter>
<filter id="filter1_b_366_1118" x="4.97343" y="13.4778" width="85.5795" height="32.9394" filterUnits="userSpaceOnUse" color-interpolation-filters="sRGB">
<feFlood flood-opacity="0" result="BackgroundImageFix"/>
<feGaussianBlur in="BackgroundImageFix" stdDeviation="2.85313"/>
<feComposite in2="SourceAlpha" operator="in" result="effect1_backgroundBlur_366_1118"/>
<feBlend mode="normal" in="SourceGraphic" in2="effect1_backgroundBlur_366_1118" result="shape"/>
</filter>
<filter id="filter2_b_366_1118" x="16.1453" y="0.523721" width="63.2309" height="88.3612" filterUnits="userSpaceOnUse" color-interpolation-filters="sRGB">
<feFlood flood-opacity="0" result="BackgroundImageFix"/>
<feGaussianBlur in="BackgroundImageFix" stdDeviation="2.85313"/>
<feComposite in2="SourceAlpha" operator="in" result="effect1_backgroundBlur_366_1118"/>
<feBlend mode="normal" in="SourceGraphic" in2="effect1_backgroundBlur_366_1118" result="shape"/>
</filter>
<linearGradient id="paint0_linear_366_1118" x1="64.5561" y1="88.2248" x2="43.2562" y2="38.6952" gradientUnits="userSpaceOnUse">
<stop stop-color="white"/>
<stop offset="1" stop-color="#EBEBEB" stop-opacity="0"/>
</linearGradient>
<linearGradient id="paint1_linear_366_1118" x1="51.8093" y1="27.79" x2="47.5453" y2="7.83771" gradientUnits="userSpaceOnUse">
<stop stop-color="white"/>
<stop offset="1" stop-color="#F2F2F2"/>
</linearGradient>
<linearGradient id="paint2_linear_366_1118" x1="50.5879" y1="36.9924" x2="13.4471" y2="3.02344" gradientUnits="userSpaceOnUse">
<stop stop-color="white"/>
<stop offset="1" stop-color="#F2F2F2"/>
</linearGradient>
</defs>
</svg>
