<svg width="96" height="118" viewBox="0 0 96 118" fill="none" xmlns="http://www.w3.org/2000/svg">
<g clip-path="url(#clip0_366_1108)">
<g filter="url(#filter0_d_366_1108)">
<path d="M54.2766 105.158C50.0425 105.158 46.4366 103.669 43.4589 100.692C40.4811 97.7139 38.9922 94.108 38.9922 89.874C38.9922 85.8726 40.3303 82.4174 43.0066 79.5085C44.0119 78.4158 45.1106 77.5055 46.3027 76.7775C49.2077 75.0035 51.3682 71.3426 49.8505 68.2958L43.8078 56.1646C43.3425 55.2341 43.3779 54.3268 43.9139 53.4427C44.4499 52.5587 45.252 52.1167 46.3203 52.1167H57.9057C58.9759 52.1167 59.9418 52.3959 60.8035 52.9542C61.6652 53.5125 62.351 54.257 62.8609 55.1875C64.5288 58.5232 69.2889 58.5232 70.9568 55.1875C71.4686 54.257 72.1553 53.5125 73.017 52.9542C73.8787 52.3959 74.8437 52.1167 75.912 52.1167H87.4974C88.5675 52.1167 89.3706 52.5587 89.9066 53.4427C90.4426 54.3268 90.477 55.2341 90.0099 56.1646L83.9927 68.2449C82.487 71.2677 84.5971 74.9014 87.4751 76.6681C88.6809 77.4083 89.7938 78.3328 90.8139 79.4415C93.4902 82.3504 94.8274 85.8047 94.8255 89.8042C94.8255 94.0848 93.3366 97.7139 90.3588 100.692C87.3811 103.669 83.7519 105.158 79.4714 105.158C79.0526 105.158 78.6218 105.146 78.1788 105.122C76.6982 105.041 76.5549 104.261 78.0308 104.119C81.3165 103.801 85.3491 103.908 86.5378 102.719C88.3009 99.1931 85.0547 92.8769 85.0547 89.8042C83.0711 85.0878 83.2978 80.4409 79.784 76.929C73.6676 75.0966 71.9785 71.6602 66.9089 71.6584C63.6764 73.9211 57.5456 73.4153 54.0337 76.929C50.5218 80.4428 48.7649 84.7345 48.763 89.8042C48.763 92.9681 49.4144 95.9459 50.7172 98.7375C52.6016 100.622 59.6505 104.309 62.4422 105.658C62.0234 105.751 56.6736 105.267 56.2307 105.291C55.7877 105.315 54.6916 105.16 54.2766 105.158ZM62.4422 105.658C58.9526 105.658 53.1608 101.181 50.7172 98.7375C48.2735 96.2939 48.7612 93.2919 48.763 89.8042C48.763 86.3146 49.5711 78.6229 54.0337 76.929C56.4773 74.4854 63.4211 71.6565 66.9089 71.6584C70.3984 71.6584 77.3404 74.4854 79.784 76.929C82.2277 79.3727 85.0565 86.3165 85.0547 89.8042C85.0547 93.2938 88.8886 99.7808 86.5378 102.719C84.0941 105.163 65.9299 105.66 62.4422 105.658Z" fill="url(#paint0_linear_366_1108)" shape-rendering="crispEdges"/>
</g>
</g>
<g filter="url(#filter1_b_366_1108)">
<path d="M24.6039 69.1252C19.6115 69.1252 15.3598 67.3696 11.8487 63.8585C8.33759 60.3474 6.58203 56.0956 6.58203 51.1033C6.58203 46.3852 8.15984 42.3112 11.3154 38.8813C14.4711 35.4514 18.4068 33.5455 23.1227 33.1637L12.2602 11.3564C11.7115 10.2592 11.7532 9.1894 12.3852 8.14704C13.0172 7.10468 13.963 6.5835 15.2227 6.5835H28.8831C30.1449 6.5835 31.2838 6.91266 32.2998 7.571C33.3159 8.22933 34.1245 9.10711 34.7258 10.2043L39.4987 19.7502L44.2716 10.2043C44.8751 9.10711 45.6848 8.22933 46.7009 7.571C47.7169 6.91266 48.8547 6.5835 50.1143 6.5835H63.7747C65.0365 6.5835 65.9835 7.10468 66.6155 8.14704C67.2475 9.1894 67.288 10.2592 66.7372 11.3564L55.957 32.9991C60.6202 33.438 64.5296 35.3724 67.6852 38.8023C70.8409 42.2322 72.4176 46.3051 72.4154 51.021C72.4154 56.0682 70.6598 60.3474 67.1487 63.8585C63.6376 67.3696 59.3584 69.1252 54.3112 69.1252C53.8174 69.1252 53.3094 69.1109 52.7872 69.0824C52.2649 69.0538 51.758 68.9858 51.2664 68.8783C54.2838 66.9033 56.6428 64.3391 58.3435 61.1857C60.0442 58.0322 60.8945 54.644 60.8945 51.021C60.8945 45.0411 58.823 39.9807 54.6799 35.8398C50.5368 31.6989 45.4764 29.6274 39.4987 29.6252C33.5188 29.6252 28.4584 31.6967 24.3175 35.8398C20.1766 39.9829 18.1051 45.0433 18.1029 51.021C18.1029 54.7515 18.8709 58.2627 20.407 61.5543C21.9431 64.846 24.357 67.2873 27.6487 68.8783C27.1549 68.988 26.6469 69.0571 26.1247 69.0857C25.6024 69.1142 25.0933 69.1273 24.6039 69.1252ZM39.4987 65.8335C35.3841 65.8335 31.8862 64.3928 29.0049 61.5115C26.1236 58.6302 24.684 55.1334 24.6862 51.021C24.6862 46.9064 26.1269 43.4085 29.0082 40.5272C31.8895 37.6459 35.3863 36.2063 39.4987 36.2085C43.6133 36.2085 47.1112 37.6491 49.9925 40.5304C52.8738 43.4118 54.3134 46.9086 54.3112 51.021C54.3112 55.1356 52.8705 58.6335 49.9892 61.5148C47.1079 64.3961 43.6111 65.8357 39.4987 65.8335ZM39.4987 55.4647L43.531 58.5095C43.8602 58.7838 44.1893 58.7981 44.5185 58.5523C44.8477 58.3065 44.9574 57.9905 44.8477 57.6043L43.2841 52.5845L47.3164 49.7043C47.6456 49.43 47.7553 49.114 47.6456 48.7563C47.5359 48.3986 47.2615 48.2209 46.8227 48.2231H41.8852L40.3216 42.8741C40.2119 42.4901 39.9376 42.2981 39.4987 42.2981C39.0598 42.2981 38.7855 42.4901 38.6758 42.8741L37.1122 48.2231H32.1747C31.7358 48.2231 31.4615 48.4019 31.3518 48.7596C31.2421 49.1173 31.3518 49.4322 31.681 49.7043L35.7133 52.5845L34.1497 57.6043C34.04 57.9883 34.1497 58.3044 34.4789 58.5523C34.8081 58.8003 35.1372 58.786 35.4664 58.5095L39.4987 55.4647Z" fill="url(#paint1_linear_366_1108)" fill-opacity="0.5"/>
</g>
<defs>
<filter id="filter0_d_366_1108" x="36.5276" y="50.1451" width="61.7479" height="59.4682" filterUnits="userSpaceOnUse" color-interpolation-filters="sRGB">
<feFlood flood-opacity="0" result="BackgroundImageFix"/>
<feColorMatrix in="SourceAlpha" type="matrix" values="0 0 0 0 0 0 0 0 0 0 0 0 0 0 0 0 0 0 127 0" result="hardAlpha"/>
<feOffset dx="0.492912" dy="0.985823"/>
<feGaussianBlur stdDeviation="1.47873"/>
<feComposite in2="hardAlpha" operator="out"/>
<feColorMatrix type="matrix" values="0 0 0 0 0.109804 0 0 0 0 0.372549 0 0 0 0 0.215686 0 0 0 0.6 0"/>
<feBlend mode="normal" in2="BackgroundImageFix" result="effect1_dropShadow_366_1108"/>
<feBlend mode="normal" in="SourceGraphic" in2="effect1_dropShadow_366_1108" result="shape"/>
</filter>
<filter id="filter1_b_366_1108" x="1.51692" y="1.51839" width="75.9632" height="72.6722" filterUnits="userSpaceOnUse" color-interpolation-filters="sRGB">
<feFlood flood-opacity="0" result="BackgroundImageFix"/>
<feGaussianBlur in="BackgroundImageFix" stdDeviation="2.53255"/>
<feComposite in2="SourceAlpha" operator="in" result="effect1_backgroundBlur_366_1108"/>
<feBlend mode="normal" in="SourceGraphic" in2="effect1_backgroundBlur_366_1108" result="shape"/>
</filter>
<linearGradient id="paint0_linear_366_1108" x1="66.9089" y1="85.3497" x2="53.3973" y2="36.7069" gradientUnits="userSpaceOnUse">
<stop stop-color="white"/>
<stop offset="1" stop-color="#EBEBEB" stop-opacity="0"/>
</linearGradient>
<linearGradient id="paint1_linear_366_1108" x1="43.0903" y1="31.5863" x2="14.6207" y2="-9.11443" gradientUnits="userSpaceOnUse">
<stop stop-color="white"/>
<stop offset="1" stop-color="#F2F2F2"/>
</linearGradient>
<clipPath id="clip0_366_1108">
<rect width="67" height="67" fill="white" transform="translate(29 51)"/>
</clipPath>
</defs>
</svg>
