<svg width="111" height="114" viewBox="0 0 111 114" fill="none" xmlns="http://www.w3.org/2000/svg">
<g filter="url(#filter0_d_366_1129)">
<path d="M78 110C73.85 110 69.95 109.212 66.3 107.636C62.65 106.06 59.475 103.923 56.775 101.225C54.075 98.525 51.938 95.35 50.364 91.7C48.79 88.05 48.002 84.15 48 80C48 75.85 48.788 71.95 50.364 68.3C51.94 64.65 54.077 61.475 56.775 58.775C59.475 56.075 62.65 53.938 66.3 52.364C69.95 50.79 73.85 50.002 78 50C82.15 50 86.05 50.788 89.7 52.364C93.35 53.94 96.525 56.077 99.225 58.775C101.925 61.475 104.063 64.65 105.639 68.3C107.215 71.95 108.002 75.85 108 80C108 84.15 107.212 88.05 105.636 91.7C104.06 95.35 101.923 98.525 99.225 101.225C96.525 103.925 93.35 106.063 89.7 107.639C86.05 109.215 82.15 110.002 78 110Z" fill="url(#paint0_linear_366_1129)" shape-rendering="crispEdges"/>
</g>
<g filter="url(#filter1_b_366_1129)">
<path d="M40.4352 69.2142H46.8102V64.6606C49.8459 64.1142 52.4566 62.9303 54.6423 61.1089C56.828 59.2874 57.9209 56.5856 57.9209 53.0035C57.9209 50.4535 57.1923 48.116 55.7352 45.991C54.278 43.866 51.3637 42.0142 46.9923 40.4356C43.3494 39.2214 40.8298 38.1589 39.4334 37.2481C38.0369 36.3374 37.3387 35.0928 37.3387 33.5142C37.3387 31.9356 37.9009 30.691 39.0254 29.7803C40.1498 28.8696 41.7733 28.4142 43.8959 28.4142C45.8387 28.4142 47.3566 28.8841 48.4494 29.824C49.5423 30.7639 50.3316 31.9332 50.8173 33.3321L56.6459 30.9642C55.978 28.8392 54.7492 26.9874 52.9593 25.4089C51.1694 23.8303 49.1804 22.9499 46.9923 22.7678V18.2142H40.6173V22.7678C37.5816 23.4356 35.2137 24.7714 33.5137 26.7749C31.8137 28.7785 30.9637 31.0249 30.9637 33.5142C30.9637 36.3678 31.7992 38.6749 33.47 40.4356C35.1409 42.1964 37.7662 43.7142 41.3459 44.9892C45.1709 46.3856 47.8277 47.6303 49.3164 48.7231C50.8052 49.816 51.5483 51.2428 51.5459 53.0035C51.5459 55.0071 50.8319 56.48 49.4039 57.4223C47.9759 58.3646 46.2613 58.8345 44.2602 58.8321C42.2566 58.8321 40.4801 58.2104 38.9307 56.9669C37.3812 55.7235 36.2434 53.8559 35.5173 51.3642L29.5066 53.7321C30.3566 56.6464 31.6777 58.9996 33.47 60.7919C35.2623 62.5842 37.584 63.8131 40.4352 64.4785V69.2142ZM43.7137 80.1428C38.6744 80.1428 33.9387 79.1859 29.5066 77.2722C25.0744 75.3585 21.2191 72.7636 17.9405 69.4874C14.6619 66.2089 12.067 62.3535 10.1557 57.9214C8.24444 53.4892 7.28758 48.7535 7.28516 43.7142C7.28516 38.6749 8.24201 33.9392 10.1557 29.5071C12.0694 25.0749 14.6644 21.2196 17.9405 17.941C21.2191 14.6624 25.0744 12.0675 29.5066 10.1562C33.9387 8.24493 38.6744 7.28807 43.7137 7.28564C48.753 7.28564 53.4887 8.2425 57.9209 10.1562C62.353 12.0699 66.2084 14.6649 69.4869 17.941C72.7655 21.2196 75.3617 25.0749 77.2754 29.5071C79.1891 33.9392 80.1447 38.6749 80.1423 43.7142C80.1423 48.7535 79.1854 53.4892 77.2717 57.9214C75.358 62.3535 72.7631 66.2089 69.4869 69.4874C66.2084 72.766 62.353 75.3621 57.9209 77.2759C53.4887 79.1896 48.753 80.1452 43.7137 80.1428Z" fill="url(#paint1_linear_366_1129)" fill-opacity="0.5"/>
</g>
<defs>
<filter id="filter0_d_366_1129" x="45.9033" y="48.3226" width="65.0321" height="65.0321" filterUnits="userSpaceOnUse" color-interpolation-filters="sRGB">
<feFlood flood-opacity="0" result="BackgroundImageFix"/>
<feColorMatrix in="SourceAlpha" type="matrix" values="0 0 0 0 0 0 0 0 0 0 0 0 0 0 0 0 0 0 127 0" result="hardAlpha"/>
<feOffset dx="0.419343" dy="0.838685"/>
<feGaussianBlur stdDeviation="1.25803"/>
<feComposite in2="hardAlpha" operator="out"/>
<feColorMatrix type="matrix" values="0 0 0 0 0.109804 0 0 0 0 0.372549 0 0 0 0 0.215686 0 0 0 0.6 0"/>
<feBlend mode="normal" in2="BackgroundImageFix" result="effect1_dropShadow_366_1129"/>
<feBlend mode="normal" in="SourceGraphic" in2="effect1_dropShadow_366_1129" result="shape"/>
</filter>
<filter id="filter1_b_366_1129" x="3.54815" y="3.54864" width="80.3314" height="80.3312" filterUnits="userSpaceOnUse" color-interpolation-filters="sRGB">
<feFlood flood-opacity="0" result="BackgroundImageFix"/>
<feGaussianBlur in="BackgroundImageFix" stdDeviation="1.8685"/>
<feComposite in2="SourceAlpha" operator="in" result="effect1_backgroundBlur_366_1129"/>
<feBlend mode="normal" in="SourceGraphic" in2="effect1_backgroundBlur_366_1129" result="shape"/>
</filter>
<linearGradient id="paint0_linear_366_1129" x1="78" y1="87.2337" x2="62.315" y2="33.0726" gradientUnits="userSpaceOnUse">
<stop stop-color="white"/>
<stop offset="1" stop-color="#EBEBEB" stop-opacity="0"/>
</linearGradient>
<linearGradient id="paint1_linear_366_1129" x1="47.6886" y1="36.4123" x2="13.9744" y2="-9.37635" gradientUnits="userSpaceOnUse">
<stop stop-color="white"/>
<stop offset="1" stop-color="#F2F2F2"/>
</linearGradient>
</defs>
</svg>
