<svg width="109" height="129" viewBox="0 0 109 129" fill="none" xmlns="http://www.w3.org/2000/svg">
<g filter="url(#filter0_d_366_1095)">
<circle cx="73.7461" cy="92.4158" r="30" fill="url(#paint0_linear_366_1095)" shape-rendering="crispEdges"/>
</g>
<g filter="url(#filter1_b_366_1095)">
<mask id="path-2-inside-1_366_1095" fill="white">
<path d="M84.1523 51.9116C84.1523 72.4151 67.5309 89.0366 47.0273 89.0366C26.5238 89.0366 9.90234 72.4151 9.90234 51.9116C9.90234 31.4081 26.5238 14.7866 47.0273 14.7866"/>
</mask>
<path d="M77.637 51.9116C77.637 68.8168 63.9325 82.5212 47.0273 82.5212V95.552C71.1292 95.552 90.6677 76.0135 90.6677 51.9116H77.637ZM47.0273 82.5212C30.1222 82.5212 16.4177 68.8168 16.4177 51.9116H3.38696C3.38696 76.0135 22.9255 95.552 47.0273 95.552V82.5212ZM16.4177 51.9116C16.4177 35.0064 30.1222 21.302 47.0273 21.302V8.27124C22.9255 8.27124 3.38696 27.8098 3.38696 51.9116H16.4177Z" fill="url(#paint1_linear_366_1095)" fill-opacity="0.5" mask="url(#path-2-inside-1_366_1095)"/>
</g>
<path d="M28.2461 57.8276C45.7773 57.8276 52.9961 56.7964 67.4336 38.2339" stroke="url(#paint2_linear_366_1095)" stroke-opacity="0.5" stroke-width="8.28384" stroke-linecap="round" stroke-linejoin="round"/>
<path d="M50.8203 37.7896H67.3203V54.2895" stroke="url(#paint3_linear_366_1095)" stroke-opacity="0.5" stroke-width="8.28384" stroke-linecap="round" stroke-linejoin="round"/>
<g filter="url(#filter2_b_366_1095)">
<path d="M83.9236 14.7866L75.9023 22.8079L83.9236 14.7866Z" fill="url(#paint4_linear_366_1095)"/>
</g>
<defs>
<filter id="filter0_d_366_1095" x="40.1488" y="59.5379" width="68.6335" height="68.6335" filterUnits="userSpaceOnUse" color-interpolation-filters="sRGB">
<feFlood flood-opacity="0" result="BackgroundImageFix"/>
<feColorMatrix in="SourceAlpha" type="matrix" values="0 0 0 0 0 0 0 0 0 0 0 0 0 0 0 0 0 0 127 0" result="hardAlpha"/>
<feOffset dx="0.71946" dy="1.43892"/>
<feGaussianBlur stdDeviation="2.15838"/>
<feComposite in2="hardAlpha" operator="out"/>
<feColorMatrix type="matrix" values="0 0 0 0 0.109804 0 0 0 0 0.372549 0 0 0 0 0.215686 0 0 0 0.6 0"/>
<feBlend mode="normal" in2="BackgroundImageFix" result="effect1_dropShadow_366_1095"/>
<feBlend mode="normal" in="SourceGraphic" in2="effect1_dropShadow_366_1095" result="shape"/>
</filter>
<filter id="filter1_b_366_1095" x="1.54763" y="6.43191" width="90.9594" height="90.9594" filterUnits="userSpaceOnUse" color-interpolation-filters="sRGB">
<feFlood flood-opacity="0" result="BackgroundImageFix"/>
<feGaussianBlur in="BackgroundImageFix" stdDeviation="4.17736"/>
<feComposite in2="SourceAlpha" operator="in" result="effect1_backgroundBlur_366_1095"/>
<feBlend mode="normal" in="SourceGraphic" in2="effect1_backgroundBlur_366_1095" result="shape"/>
</filter>
<filter id="filter2_b_366_1095" x="74.5993" y="13.4835" width="10.6276" height="10.6274" filterUnits="userSpaceOnUse" color-interpolation-filters="sRGB">
<feFlood flood-opacity="0" result="BackgroundImageFix"/>
<feGaussianBlur in="BackgroundImageFix" stdDeviation="0.651538"/>
<feComposite in2="SourceAlpha" operator="in" result="effect1_backgroundBlur_366_1095"/>
<feBlend mode="normal" in="SourceGraphic" in2="effect1_backgroundBlur_366_1095" result="shape"/>
</filter>
<linearGradient id="paint0_linear_366_1095" x1="73.7461" y1="99.6494" x2="58.0611" y2="45.4883" gradientUnits="userSpaceOnUse">
<stop stop-color="white"/>
<stop offset="1" stop-color="#EBEBEB" stop-opacity="0"/>
</linearGradient>
<linearGradient id="paint1_linear_366_1095" x1="46.9606" y1="74.6836" x2="25.7282" y2="-8.10403" gradientUnits="userSpaceOnUse">
<stop stop-color="white"/>
<stop offset="1" stop-color="#F2F2F2"/>
</linearGradient>
<linearGradient id="paint2_linear_366_1095" x1="43.654" y1="53.4267" x2="81.8341" y2="46.3225" gradientUnits="userSpaceOnUse">
<stop stop-color="white"/>
<stop offset="1" stop-color="#F2F2F2"/>
</linearGradient>
<linearGradient id="paint3_linear_366_1095" x1="59.0703" y1="49.3241" x2="54.2047" y2="32.7018" gradientUnits="userSpaceOnUse">
<stop stop-color="white"/>
<stop offset="1" stop-color="#F2F2F2"/>
</linearGradient>
<linearGradient id="paint4_linear_366_1095" x1="79.9058" y1="21.2573" x2="77.612" y2="12.3137" gradientUnits="userSpaceOnUse">
<stop stop-color="#FF0909"/>
<stop offset="1" stop-color="#F2F2F2"/>
</linearGradient>
</defs>
</svg>
