<svg width="1138" height="760" fill="none" xmlns="http://www.w3.org/2000/svg"><path fill-rule="evenodd" clip-rule="evenodd" d="M258.139.01c88.633.718 176.868 45.58 229.929 140.964 51.327 92.267 52.538 214.922 29.838 326.001-21.356 104.499-73.622 189.972-145.391 239.429-74.33 51.222-163.946 77.613-237.509 24.431-70.868-51.234-86.978-168.208-106.47-273.109C8.27 348.657-22.056 230.441 24.706 137.22 74.645 37.667 168.784-.714 258.14.01z" fill="#1B6AB2"/><path fill-rule="evenodd" clip-rule="evenodd" d="M827.842 120.135c113.419 13.76 149.994 117.888 211.138 192.751 48.06 58.836 112.9 115.438 96.39 183.777-17.12 70.906-99.79 113.547-177.838 153.383C855.291 702.228 749.05 785.44 634.097 752.508c-119.318-34.183-151.389-148.73-174.62-245.149-21.73-90.185-17.067-184.321 53.316-258.307 73.95-77.736 191.464-143.909 315.049-128.917z" fill="#080C8D"/></svg>