<svg width="807" height="652" fill="none" xmlns="http://www.w3.org/2000/svg"><path fill-rule="evenodd" clip-rule="evenodd" d="M286.062.603C395.418 8.675 402.197 112.83 475.441 167.669c84.793 63.486 272.1 84.695 260 169.389-12.119 84.815-189.509 95.607-303.353 134.033-118.842 40.113-239.724 132.003-355.833 88.465-115.694-43.383-61.952-159.847-70.393-248.29-5.918-62.011-18.11-122.827 29.895-176.051C93.915 70.735 174.047-7.665 286.063.603z" fill="#AA009E"/><path fill-rule="evenodd" clip-rule="evenodd" d="M540.657 97.001c93.23-.498 122.445 123.432 173.413 201.499 41.448 63.485 110.528 125.628 87.276 197.792-22.516 69.884-115.784 72.403-183.487 100.811-60.26 25.285-115.093 64.382-179.129 51.343-92.545-18.843-214.474-42.604-232.882-135.236-18.356-92.37 104.676-139.489 163.705-212.869C427.97 227.723 447.46 97.5 540.657 97.001z" fill="#7400BE"/></svg>