<svg width="770" height="700" fill="none" xmlns="http://www.w3.org/2000/svg"><path fill-rule="evenodd" clip-rule="evenodd" d="M390.159 60.135C276.74 73.895 240.165 178.023 179.021 252.886c-48.055 58.836-112.903 115.438-96.394 183.777 17.129 70.906 99.792 113.547 177.842 153.383C362.71 642.228 468.951 725.44 583.904 692.508c119.318-34.183 151.389-148.73 174.62-245.149 21.73-90.185 17.067-184.321-53.316-258.307-73.95-77.736-191.464-143.91-315.049-128.917z" fill="#4903BC"/><path fill-rule="evenodd" clip-rule="evenodd" d="M285.608 50.874c-67.06 8.239-139.731-19.08-191.044 24.875C31.957 129.378-13.312 211.787 3.556 292.478c17.11 81.854 94.462 132.549 171.042 166.139 72.579 31.834 150.911 33.746 225.848 7.947 90.836-31.272 191.217-70.479 221.047-161.799 32.046-98.106 7.072-222.27-75.261-284.504-73.415-55.494-169.282 19.392-260.624 30.613z" fill="#080C8D"/></svg>