<svg width="47" height="67" fill="none" xmlns="http://www.w3.org/2000/svg"><path fill-rule="evenodd" clip-rule="evenodd" d="M35.53 3.774A76.24 76.24 0 0022.875 2.77c-5.154 0-9.404.454-12.653 1.003-3.293.555-4.938.832-6.314 2.526-1.373 1.694-1.3 3.524-1.156 7.184C3.2 24.708 5.41 38.431 16.376 42.228c2.374.822 4.332 2.837 4.332 5.35v1.649a4.134 4.134 0 01-4.134 4.134 2.891 2.891 0 00-2.833 2.324 3.405 3.405 0 01-3.338 2.734H5.53a2.168 2.168 0 100 4.337h34.69a2.168 2.168 0 100-4.337h-4.87a3.405 3.405 0 01-3.339-2.734 2.891 2.891 0 00-2.833-2.325 4.134 4.134 0 01-4.134-4.133v-1.65c0-2.512 1.958-4.527 4.332-5.349C40.343 38.432 42.556 24.711 43 13.484c.145-3.66.22-5.492-1.156-7.184-1.376-1.694-3.02-1.971-6.314-2.526z" fill="url(#paint0_linear_765_65)"/><defs><linearGradient id="paint0_linear_765_65" x1="22.876" y1="39.995" x2="1.577" y2="-9.535" gradientUnits="userSpaceOnUse"><stop stop-color="#fff"/><stop offset="1" stop-color="#EBEBEB" stop-opacity="0"/></linearGradient></defs></svg>