<svg width="63" height="61" fill="none" xmlns="http://www.w3.org/2000/svg"><path d="M18.695 55.575c-4.235 0-7.84-1.489-10.818-4.467C4.899 48.13 3.41 44.525 3.41 40.291c0-4.002 1.338-7.457 4.015-10.366a15.341 15.341 0 013.296-2.731c2.905-1.774 5.065-5.435 3.547-8.482L8.226 6.582c-.466-.931-.43-1.839.106-2.723.536-.884 1.338-1.326 2.406-1.326h11.586c1.07 0 2.036.28 2.897.838a6.111 6.111 0 012.058 2.233c1.668 3.336 6.428 3.336 8.096 0a6.135 6.135 0 012.06-2.233c.862-.559 1.827-.838 2.895-.838h11.585c1.07 0 1.874.442 2.41 1.326.536.884.57 1.792.103 2.722l-6.017 12.08c-1.506 3.023.604 6.657 3.482 8.424a15.688 15.688 0 013.339 2.773c2.676 2.909 4.013 6.363 4.011 10.363 0 4.28-1.488 7.91-4.466 10.887-2.978 2.978-6.607 4.467-10.888 4.467-.418 0-.85-.012-1.292-.036-1.48-.081-1.624-.861-.148-1.004 3.285-.317 7.318-.21 8.507-1.4 1.763-3.525-1.483-9.842-1.483-12.914-1.984-4.717-1.757-9.363-5.271-12.875-6.116-1.833-7.805-5.27-12.875-5.271-3.233 2.263-9.363 1.757-12.875 5.27-3.512 3.514-5.27 7.806-5.271 12.876 0 3.164.651 6.141 1.954 8.933 1.885 1.884 8.934 5.571 11.725 6.92-.419.093-5.768-.39-6.211-.367-.443.025-1.54-.13-1.954-.132zm8.165.5c-3.49 0-9.281-4.477-11.725-6.921-2.444-2.444-1.956-5.446-1.954-8.933 0-3.49.808-11.182 5.27-12.875 2.444-2.444 9.388-5.273 12.876-5.271 3.49 0 10.431 2.827 12.875 5.27 2.444 2.444 5.273 9.388 5.27 12.876 0 3.49 3.835 9.976 1.484 12.915-2.444 2.444-20.608 2.94-24.096 2.938z" fill="url(#paint0_linear_765_81)"/><defs><linearGradient id="paint0_linear_765_81" x1="31.327" y1="35.766" x2="17.815" y2="-12.877" gradientUnits="userSpaceOnUse"><stop stop-color="#fff"/><stop offset="1" stop-color="#EBEBEB" stop-opacity="0"/></linearGradient></defs></svg>