<svg width="71" height="71" fill="none" xmlns="http://www.w3.org/2000/svg"><path d="M60.514 10.486h-.004l7.437 1.486c.4.08.728.373.843.768a1.108 1.108 0 01-.275 1.105l-6.093 6.097a3.887 3.887 0 01-2.746 1.136h-5.05L41.934 33.774A6.658 6.658 0 0131.12 40.49a6.656 6.656 0 01-2.276-4.99 6.66 6.66 0 018.382-6.43l12.696-12.7v-5.046a3.88 3.88 0 011.136-2.746l6.097-6.098a1.11 1.11 0 011.105-.275c.395.116.688.444.768.843l1.486 7.438z" fill="url(#paint0_linear_765_84)" fill-opacity=".5"/><path d="M8.876 35.5a26.626 26.626 0 1052.225-7.349 3.332 3.332 0 116.4-1.832 33.29 33.29 0 01-55.527 32.709A33.286 33.286 0 0144.683 3.5a3.328 3.328 0 01-1.833 6.4A26.63 26.63 0 008.876 35.5z" fill="url(#paint1_linear_765_84)" fill-opacity=".5"/><path d="M22.186 35.5a13.32 13.32 0 0020.852 10.988 13.313 13.313 0 005.68-12.545 3.32 3.32 0 014.637-3.47 3.329 3.329 0 011.974 2.706 19.968 19.968 0 11-17.541-17.514 3.329 3.329 0 11-.754 6.612A13.312 13.312 0 0022.186 35.5z" fill="url(#paint2_linear_765_84)" fill-opacity=".5"/><defs><linearGradient id="paint0_linear_765_84" x1="51.023" y1="18.139" x2="32.526" y2="-6.993" gradientUnits="userSpaceOnUse"><stop stop-color="#fff"/><stop offset="1" stop-color="#F2F2F2"/></linearGradient><linearGradient id="paint1_linear_765_84" x1="39.139" y1="28.817" x2="8.348" y2="-13.005" gradientUnits="userSpaceOnUse"><stop stop-color="#fff"/><stop offset="1" stop-color="#F2F2F2"/></linearGradient><linearGradient id="paint2_linear_765_84" x1="37.675" y1="31.499" x2="19.194" y2="6.399" gradientUnits="userSpaceOnUse"><stop stop-color="#fff"/><stop offset="1" stop-color="#F2F2F2"/></linearGradient></defs></svg>