<svg width="73" height="73" fill="none" xmlns="http://www.w3.org/2000/svg"><path d="M33.15 61.929h6.375v-4.554c3.036-.546 5.646-1.73 7.832-3.552 2.186-1.821 3.279-4.523 3.279-8.105 0-2.55-.729-4.888-2.186-7.013-1.457-2.125-4.371-3.976-8.743-5.555-3.643-1.214-6.162-2.277-7.559-3.188-1.396-.91-2.094-2.155-2.094-3.733 0-1.579.562-2.824 1.686-3.734 1.125-.911 2.748-1.366 4.87-1.366 1.944 0 3.461.47 4.554 1.41a7.999 7.999 0 012.368 3.507l5.829-2.367c-.668-2.125-1.897-3.977-3.687-5.556-1.79-1.578-3.779-2.459-5.967-2.64v-4.554h-6.375v4.553c-3.036.668-5.403 2.004-7.103 4.007-1.7 2.004-2.55 4.25-2.55 6.74 0 2.853.835 5.16 2.506 6.921 1.67 1.76 4.296 3.279 7.876 4.554 3.825 1.396 6.482 2.64 7.97 3.733 1.489 1.093 2.232 2.52 2.23 4.28 0 2.004-.714 3.477-2.142 4.42-1.428.942-3.143 1.412-5.144 1.41-2.004 0-3.78-.622-5.33-1.866-1.549-1.243-2.687-3.11-3.413-5.602l-6.01 2.367c.85 2.915 2.17 5.268 3.963 7.06 1.792 1.793 4.114 3.021 6.965 3.687v4.736zm3.279 10.928c-5.04 0-9.775-.957-14.208-2.87-4.432-1.914-8.287-4.51-11.566-7.785-3.278-3.279-5.873-7.134-7.784-11.566C.959 46.204.002 41.468 0 36.429c0-5.04.957-9.775 2.87-14.208 1.914-4.432 4.51-8.287 7.785-11.566 3.279-3.278 7.134-5.873 11.566-7.784C26.654.959 31.39.002 36.43 0c5.039 0 9.775.957 14.207 2.87 4.432 1.914 8.287 4.51 11.566 7.785 3.278 3.279 5.874 7.134 7.788 11.566 1.914 4.433 2.87 9.168 2.867 14.208 0 5.039-.957 9.775-2.87 14.207-1.914 4.432-4.51 8.287-7.785 11.566-3.279 3.278-7.134 5.874-11.566 7.788-4.432 1.914-9.168 2.87-14.207 2.867z" fill="url(#paint0_linear_765_80)" fill-opacity=".5"/><defs><linearGradient id="paint0_linear_765_80" x1="40.403" y1="29.127" x2="6.689" y2="-16.662" gradientUnits="userSpaceOnUse"><stop stop-color="#fff"/><stop offset="1" stop-color="#F2F2F2"/></linearGradient></defs></svg>