<svg width="66" height="63" fill="none" xmlns="http://www.w3.org/2000/svg"><path d="M18.022 62.542c-4.992 0-9.244-1.756-12.755-5.267C1.756 53.764 0 49.512 0 44.52c0-4.718 1.578-8.792 4.733-12.222 3.156-3.43 7.092-5.336 11.808-5.718L5.678 4.773c-.548-1.097-.507-2.167.125-3.21C6.435.522 7.381 0 8.641 0H22.3c1.262 0 2.4.33 3.417.988a7.207 7.207 0 012.426 2.633l4.773 9.546L37.69 3.62A7.234 7.234 0 0140.119.987C41.135.33 42.273 0 43.532 0h13.66c1.263 0 2.21.521 2.841 1.564.632 1.042.673 2.112.122 3.209l-10.78 21.643c4.663.439 8.573 2.373 11.728 5.803 3.156 3.43 4.732 7.503 4.73 12.218 0 5.048-1.755 9.327-5.266 12.838-3.511 3.511-7.79 5.267-12.838 5.267-.494 0-1.002-.015-1.524-.043a9.552 9.552 0 01-1.52-.204c3.017-1.975 5.376-4.54 7.076-7.693 1.701-3.153 2.551-6.541 2.551-10.164 0-5.98-2.071-11.04-6.214-15.182-4.143-4.14-9.204-6.212-15.181-6.214-5.98 0-11.04 2.071-15.182 6.214-4.14 4.143-6.212 9.204-6.214 15.181 0 3.731.768 7.242 2.304 10.534 1.536 3.292 3.95 5.733 7.242 7.324a9.381 9.381 0 01-1.524.207 25.64 25.64 0 01-1.521.04zm14.895-3.292c-4.115 0-7.613-1.44-10.494-4.322-2.881-2.881-4.321-6.378-4.319-10.49 0-4.115 1.44-7.613 4.322-10.494 2.881-2.882 6.378-4.321 10.49-4.319 4.115 0 7.613 1.44 10.495 4.322 2.88 2.881 4.32 6.378 4.318 10.49 0 4.115-1.44 7.613-4.322 10.494-2.881 2.882-6.378 4.321-10.49 4.319zm0-10.369l4.032 3.045c.33.274.658.289.988.043.329-.246.438-.562.329-.948L36.702 46l4.032-2.88c.33-.275.44-.59.33-.948-.11-.358-.385-.536-.823-.533h-4.938l-1.563-5.35c-.11-.383-.384-.575-.823-.575-.44 0-.714.192-.823.576l-1.564 5.35h-4.937c-.44 0-.713.178-.823.536-.11.358 0 .673.329.945L29.131 46l-1.563 5.02c-.11.384 0 .7.329.948s.658.233.987-.043l4.033-3.045z" fill="url(#paint0_linear_765_82)" fill-opacity=".5"/><defs><linearGradient id="paint0_linear_765_82" x1="36.508" y1="25.003" x2="8.039" y2="-15.698" gradientUnits="userSpaceOnUse"><stop stop-color="#fff"/><stop offset="1" stop-color="#F2F2F2"/></linearGradient></defs></svg>