<svg width="73" height="71" fill="none" xmlns="http://www.w3.org/2000/svg"><path d="M32.058 0a4.072 4.072 0 012.746 1.062 3.845 3.845 0 011.25 2.601c.06.99-.272 1.965-.928 2.725a4.042 4.042 0 01-2.6 1.367l-.468.027H8.014v54.475h56.101V38.91a3.831 3.831 0 011.094-2.667 4.059 4.059 0 012.679-1.213 4.086 4.086 0 012.806.9 3.86 3.86 0 011.408 2.524l.028.456v23.346a7.66 7.66 0 01-2.138 5.294 8.11 8.11 0 01-5.276 2.468l-.6.02H8.013a8.146 8.146 0 01-5.452-2.076A7.696 7.696 0 01.02 62.841L0 62.256V7.782a7.66 7.66 0 012.138-5.294A8.11 8.11 0 017.413.02L8.014 0h24.044zM67.12 0c2.765 0 5.009 2.179 5.009 4.864v14.591a3.835 3.835 0 01-1.174 2.752 4.069 4.069 0 01-2.834 1.14 4.069 4.069 0 01-2.833-1.14 3.835 3.835 0 01-1.174-2.752v-6.17L37.724 38.91h6.355a4.07 4.07 0 012.834 1.14 3.835 3.835 0 011.174 2.752 3.835 3.835 0 01-1.174 2.751 4.069 4.069 0 01-2.834 1.14H29.052c-2.765 0-5.009-2.18-5.009-4.864V27.237c0-1.032.422-2.021 1.174-2.751a4.069 4.069 0 012.833-1.14 4.07 4.07 0 012.834 1.14 3.835 3.835 0 011.174 2.751v6.172L58.449 7.782h-6.355a4.069 4.069 0 01-2.834-1.14 3.835 3.835 0 01-1.173-2.751c0-1.032.422-2.022 1.173-2.751A4.069 4.069 0 0152.094 0H67.12z" fill="url(#paint0_linear_765_63)" fill-opacity=".5"/><defs><linearGradient id="paint0_linear_765_63" x1="40" y1="28" x2="7.884" y2="-16.92" gradientUnits="userSpaceOnUse"><stop stop-color="#fff"/><stop offset="1" stop-color="#F2F2F2"/></linearGradient></defs></svg>