<svg width="75" height="77" fill="none" xmlns="http://www.w3.org/2000/svg"><path d="M74.167 22.852v.27c0 3.19 0 4.788-.768 6.093-.768 1.305-2.166 2.08-4.954 3.634l-2.941 1.632c2.025-6.853 2.703-14.218 2.952-20.515l.037-.82.007-.192c2.415.838 3.772 1.465 4.617 2.637 1.05 1.457 1.05 3.393 1.05 7.26zM0 22.852v.27c0 3.19 0 4.788.768 6.093.767 1.305 2.165 2.08 4.954 3.634l2.944 1.632C6.638 27.628 5.96 20.263 5.711 13.966l-.037-.82-.004-.192c-2.418.838-3.775 1.465-4.62 2.637C0 17.048 0 18.988 0 22.85z" fill="url(#paint0_linear_765_66)" fill-opacity=".5"/><g filter="url(#filter1_b_765_66)"><path fill-rule="evenodd" clip-rule="evenodd" d="M53.312 1.288A97.8 97.8 0 0037.081 0c-6.612 0-12.063.582-16.232 1.287-4.223.712-6.333 1.068-8.098 3.24-1.762 2.174-1.67 4.521-1.484 9.216.642 16.124 4.12 36.267 23.033 38.047v13.106h-5.303a3.708 3.708 0 00-3.634 2.981l-.705 3.508h-9.827a2.781 2.781 0 100 5.563h44.5a2.781 2.781 0 100-5.563h-9.827l-.705-3.508a3.708 3.708 0 00-3.634-2.981h-5.303V51.79c18.913-1.78 22.395-21.92 23.033-38.047.185-4.695.281-7.046-1.484-9.215-1.765-2.173-3.875-2.53-8.099-3.241zM40 14.118a2.781 2.781 0 011.717 2.57v14.834a2.781 2.781 0 11-5.562 0V23.4l-.816.815a2.782 2.782 0 11-3.93-3.93l5.562-5.563a2.781 2.781 0 013.03-.605z" fill="url(#paint1_linear_765_66)" fill-opacity=".5"/></g><defs><linearGradient id="paint0_linear_765_66" x1="41.13" y1="21.56" x2="36.866" y2="1.608" gradientUnits="userSpaceOnUse"><stop stop-color="#fff"/><stop offset="1" stop-color="#F2F2F2"/></linearGradient><linearGradient id="paint1_linear_765_66" x1="39.908" y1="30.762" x2="2.767" y2="-3.207" gradientUnits="userSpaceOnUse"><stop stop-color="#fff"/><stop offset="1" stop-color="#F2F2F2"/></linearGradient></defs></svg>