<svg width="66" height="66" fill="none" xmlns="http://www.w3.org/2000/svg"><path d="M32.715 61.714c-4.15 0-8.05-.788-11.7-2.364-3.65-1.576-6.825-3.713-9.525-6.41-2.7-2.7-4.837-5.876-6.411-9.526-1.574-3.65-2.362-7.55-2.364-11.7 0-4.15.788-8.05 2.364-11.7 1.576-3.65 3.713-6.825 6.41-9.525 2.7-2.7 5.876-4.837 9.526-6.41 3.65-1.575 7.55-2.363 11.7-2.365 4.15 0 8.05.788 11.7 2.364 3.65 1.576 6.825 3.713 9.525 6.411 2.7 2.7 4.838 5.875 6.414 9.525 1.576 3.65 2.363 7.55 2.36 11.7 0 4.15-.787 8.05-2.363 11.7-1.576 3.65-3.713 6.825-6.411 9.525-2.7 2.7-5.875 4.838-9.525 6.414-3.65 1.576-7.55 2.363-11.7 2.361z" fill="url(#paint0_linear_765_79)"/><defs><linearGradient id="paint0_linear_765_79" x1="32.715" y1="38.948" x2="17.03" y2="-15.213" gradientUnits="userSpaceOnUse"><stop stop-color="#fff"/><stop offset="1" stop-color="#EBEBEB" stop-opacity="0"/></linearGradient></defs></svg>