<svg width="80" height="79" fill="none" xmlns="http://www.w3.org/2000/svg"><mask id="a" fill="#fff"><path d="M74.25 41.25c0 20.504-16.621 37.125-37.125 37.125C16.622 78.375 0 61.754 0 41.25 0 20.747 16.622 4.125 37.125 4.125"/></mask><path d="M67.735 41.25c0 16.905-13.705 30.61-30.61 30.61v13.03c24.102 0 43.64-19.538 43.64-43.64h-13.03zm-30.61 30.61c-16.905 0-30.61-13.705-30.61-30.61h-13.03c0 24.102 19.538 43.64 43.64 43.64V71.86zM6.515 41.25c0-16.905 13.705-30.61 30.61-30.61V-2.39c-24.102 0-43.64 19.538-43.64 43.64h13.03z" fill="url(#paint0_linear_765_71)" fill-opacity=".5" mask="url(#a)"/><path d="M18.344 47.166c17.531 0 24.75-1.031 39.187-19.594" stroke="url(#paint1_linear_765_71)" stroke-opacity=".5" stroke-width="8.284" stroke-linecap="round" stroke-linejoin="round"/><path d="M40.918 27.128h16.5v16.5" stroke="url(#paint2_linear_765_71)" stroke-opacity=".5" stroke-width="8.284" stroke-linecap="round" stroke-linejoin="round"/><path d="M74.021 4.125L66 12.146z" fill="url(#paint3_linear_765_71)"/><defs><linearGradient id="paint0_linear_765_71" x1="37.058" y1="64.022" x2="15.826" y2="-18.766" gradientUnits="userSpaceOnUse"><stop stop-color="#fff"/><stop offset="1" stop-color="#F2F2F2"/></linearGradient><linearGradient id="paint1_linear_765_71" x1="33.752" y1="42.765" x2="71.932" y2="35.661" gradientUnits="userSpaceOnUse"><stop stop-color="#fff"/><stop offset="1" stop-color="#F2F2F2"/></linearGradient><linearGradient id="paint2_linear_765_71" x1="49.168" y1="38.662" x2="44.302" y2="22.04" gradientUnits="userSpaceOnUse"><stop stop-color="#fff"/><stop offset="1" stop-color="#F2F2F2"/></linearGradient><linearGradient id="paint3_linear_765_71" x1="70.003" y1="10.596" x2="67.71" y2="1.652" gradientUnits="userSpaceOnUse"><stop stop-color="#FF0909"/><stop offset="1" stop-color="#F2F2F2"/></linearGradient></defs></svg>