<svg><defs><path xmlns="http://www.w3.org/2000/svg" fill="#9C1AB1" fill-rule="evenodd" d="M349.385 50.874c67.06 8.239 139.732-19.08 191.044 24.875 62.607 53.629 107.876 136.038 91.009 216.729-17.111 81.854-94.462 132.549-171.043 166.139-72.578 31.834-150.911 33.746-225.847 7.947C143.711 435.292 43.331 396.085 13.5 304.765c-32.046-98.106-7.072-222.27 75.26-284.504 73.416-55.494 169.283 19.392 260.625 30.613z" clip-rule="evenodd" id="img-trening-image-right"/><path xmlns="http://www.w3.org/2000/svg" fill="#B21B1B" fill-rule="evenodd" d="M258.139.01c88.633.718 176.868 45.58 229.929 140.964 51.327 92.267 52.538 214.922 29.838 326.001-21.356 104.499-73.622 189.972-145.391 239.429-74.33 51.222-163.946 77.613-237.509 24.431-70.868-51.234-86.978-168.208-106.47-273.11C8.27 348.657-22.056 230.441 24.706 137.22 74.645 37.667 168.784-.714 258.14.01z" clip-rule="evenodd" id="img-trening-image-left"/><path xmlns="http://www.w3.org/2000/svg" fill="#080C8D" fill-rule="evenodd" d="M379.842 2.135c113.419 13.76 149.994 117.888 211.138 192.751 48.055 58.836 112.903 115.438 96.394 183.777-17.129 70.906-99.792 113.547-177.842 153.383C407.291 584.228 301.05 667.44 186.097 634.508c-119.318-34.183-151.39-148.73-174.62-245.149-21.73-90.185-17.067-184.321 53.316-258.307 73.95-77.736 191.464-143.91 315.049-128.917z" clip-rule="evenodd" id="img-trening"/><path xmlns="http://www.w3.org/2000/svg" fill="#991AB1" fill-rule="evenodd" d="M349.385 50.874c67.06 8.239 139.732-19.08 191.044 24.875 62.607 53.629 107.876 136.038 91.009 216.729-17.111 81.854-94.462 132.549-171.043 166.139-72.578 31.834-150.911 33.746-225.847 7.947C143.711 435.292 43.331 396.085 13.5 304.765c-32.046-98.106-7.072-222.27 75.26-284.504 73.416-55.494 169.283 19.392 260.625 30.613z" clip-rule="evenodd" id="img-header-image-left"/><g id="img-results" fill-rule="evenodd" clip-rule="evenodd"><path xmlns="http://www.w3.org/2000/svg" fill="#AA009E" d="M286.061.603c109.356 8.072 116.136 112.227 189.38 167.066 84.793 63.486 272.1 84.695 259.999 169.389-12.118 84.815-189.508 95.607-303.352 134.033-118.842 40.113-239.724 132.003-355.833 88.465-115.694-43.383-61.952-159.847-70.393-248.29-5.918-62.011-18.11-122.827 29.895-176.051C93.915 70.735 174.047-7.665 286.062.603z"/><path xmlns="http://www.w3.org/2000/svg" fill="#BE2E00" d="M540.657 97.001c93.23-.498 122.445 123.432 173.413 201.499 41.448 63.485 110.528 125.628 87.276 197.792-22.516 69.884-115.784 72.403-183.487 100.811-60.26 25.285-115.093 64.382-179.129 51.343-92.545-18.843-214.474-42.604-232.882-135.236-18.356-92.37 104.676-139.489 163.705-212.869C427.97 227.723 447.46 97.5 540.657 97.001z"/></g><g id="img-youllget" fill-rule="evenodd" clip-rule="evenodd"><path xmlns="http://www.w3.org/2000/svg" fill="#080C8D" d="M390.159 60.135C276.74 73.895 240.165 178.023 179.021 252.886c-48.055 58.836-112.903 115.438-96.394 183.777 17.129 70.906 99.792 113.547 177.842 153.383C362.71 642.228 468.951 725.44 583.904 692.508c119.318-34.183 151.389-148.73 174.62-245.149 21.73-90.185 17.067-184.321-53.316-258.307-73.95-77.736-191.464-143.91-315.049-128.917z"/><path xmlns="http://www.w3.org/2000/svg" fill="#4903BC" d="M285.608 50.874c-67.06 8.239-139.731-19.08-191.044 24.875C31.957 129.378-13.312 211.787 3.556 292.478c17.11 81.854 94.462 132.549 171.042 166.139 72.579 31.834 150.911 33.746 225.848 7.947 90.836-31.272 191.217-70.479 221.047-161.799 32.046-98.106 7.072-222.27-75.261-284.504-73.415-55.494-169.282 19.392-260.624 30.613z"/></g><g id="img-header-left" fill-rule="evenodd" clip-rule="evenodd"><path xmlns="http://www.w3.org/2000/svg" fill="#1B6AB2" d="M258.139.01c88.633.718 176.868 45.58 229.929 140.964 51.327 92.267 52.538 214.922 29.838 326.001-21.356 104.499-73.622 189.972-145.391 239.429-74.33 51.222-163.946 77.613-237.509 24.431-70.868-51.234-86.978-168.208-106.47-273.109C8.27 348.657-22.056 230.441 24.706 137.22 74.645 37.667 168.784-.714 258.14.01z"/><path xmlns="http://www.w3.org/2000/svg" fill="#080C8D" d="M827.842 120.135c113.419 13.76 149.994 117.888 211.138 192.751 48.06 58.836 112.9 115.438 96.39 183.777-17.12 70.906-99.79 113.547-177.838 153.383C855.291 702.228 749.05 785.44 634.097 752.508c-119.318-34.183-151.389-148.73-174.62-245.149-21.73-90.185-17.067-184.321 53.316-258.307 73.95-77.736 191.464-143.909 315.049-128.917z"/></g><g id="img-header-right" fill-rule="evenodd" clip-rule="evenodd"><path xmlns="http://www.w3.org/2000/svg" fill="#AA009E" d="M286.062.603C395.418 8.675 402.197 112.83 475.441 167.669c84.793 63.486 272.1 84.695 260 169.389-12.119 84.815-189.509 95.607-303.353 134.033-118.842 40.113-239.724 132.003-355.833 88.465-115.694-43.383-61.952-159.847-70.393-248.29-5.918-62.011-18.11-122.827 29.895-176.051C93.915 70.735 174.047-7.665 286.063.603z"/><path xmlns="http://www.w3.org/2000/svg" fill="#7400BE" d="M540.657 97.001c93.23-.498 122.445 123.432 173.413 201.499 41.448 63.485 110.528 125.628 87.276 197.792-22.516 69.884-115.784 72.403-183.487 100.811-60.26 25.285-115.093 64.382-179.129 51.343-92.545-18.843-214.474-42.604-232.882-135.236-18.356-92.37 104.676-139.489 163.705-212.869C427.97 227.723 447.46 97.5 540.657 97.001z"/></g></defs></svg>