<svg width="2928" height="1551" fill="none" xmlns="http://www.w3.org/2000/svg"><g filter="url(#filter0_f_461_149)"><path fill-rule="evenodd" clip-rule="evenodd" d="M508.139 250.01c88.633.718 176.868 45.579 229.929 140.964 51.327 92.267 52.538 214.922 29.838 326.001-21.356 104.499-73.622 189.972-145.391 239.429-74.33 51.226-163.946 77.616-237.509 24.431-70.868-51.234-86.978-168.208-106.47-273.109-20.266-109.069-50.592-227.285-3.83-320.506 49.939-99.553 144.078-137.934 233.433-137.21z" fill="#1B6AB2"/></g><g filter="url(#filter1_f_461_149)"><path fill-rule="evenodd" clip-rule="evenodd" d="M2157.06 649.603c109.36 8.072 116.14 112.227 189.38 167.066 84.79 63.486 272.1 84.695 260 169.389-12.12 84.812-189.51 95.602-303.35 134.032-118.84 40.11-239.73 132-355.84 88.47-115.69-43.39-61.95-159.85-70.39-248.294-5.92-62.011-18.11-122.827 29.9-176.051 58.15-64.479 138.29-142.88 250.3-134.612z" fill="#AA009E"/></g><g filter="url(#filter2_f_461_149)"><path fill-rule="evenodd" clip-rule="evenodd" d="M760.385 701.874c67.06 8.239 139.732-19.079 191.044 24.875 62.611 53.629 107.881 136.038 91.011 216.729-17.11 81.852-94.464 132.552-171.045 166.142-72.578 31.83-150.911 33.74-225.847 7.94-90.837-31.27-191.217-70.47-221.048-161.795-32.046-98.106-7.072-222.27 75.261-284.504 73.415-55.494 169.282 19.392 260.624 30.613z" fill="#991AB1"/></g><g filter="url(#filter3_f_461_149)"><path fill-rule="evenodd" clip-rule="evenodd" d="M1077.84 370.135c113.42 13.76 150 117.888 211.14 192.751 48.06 58.836 112.9 115.438 96.39 183.777-17.12 70.906-99.79 113.547-177.84 153.383-102.24 52.182-208.48 135.394-323.433 102.464-119.318-34.185-151.389-148.732-174.62-245.151-21.73-90.185-17.067-184.321 53.316-258.307 73.95-77.736 191.464-143.909 315.047-128.917z" fill="#080C8D"/></g><g filter="url(#filter4_f_461_149)"><path fill-rule="evenodd" clip-rule="evenodd" d="M2411.66 746.001c93.23-.498 122.44 123.432 173.41 201.499 41.45 63.49 110.53 125.63 87.28 197.79-22.52 69.89-115.79 72.41-183.49 100.81-60.26 25.29-115.09 64.39-179.13 51.35-92.54-18.85-214.47-42.61-232.88-135.24-18.36-92.37 104.67-139.49 163.7-212.869 58.42-72.618 77.91-202.841 171.11-203.34z" fill="#7400BE"/></g><defs><filter id="filter0_f_461_149" x="0" y="0" width="1032" height="1260" filterUnits="userSpaceOnUse" color-interpolation-filters="sRGB"><feFlood flood-opacity="0" result="BackgroundImageFix"/><feBlend in="SourceGraphic" in2="BackgroundImageFix" result="shape"/><feGaussianBlur stdDeviation="125" result="effect1_foregroundBlur_461_149"/></filter><filter id="filter1_f_461_149" x="1621" y="399" width="1236" height="1071" filterUnits="userSpaceOnUse" color-interpolation-filters="sRGB"><feFlood flood-opacity="0" result="BackgroundImageFix"/><feBlend in="SourceGraphic" in2="BackgroundImageFix" result="shape"/><feGaussianBlur stdDeviation="125" result="effect1_foregroundBlur_461_149"/></filter><filter id="filter2_f_461_149" x="161" y="401" width="1134.99" height="984.361" filterUnits="userSpaceOnUse" color-interpolation-filters="sRGB"><feFlood flood-opacity="0" result="BackgroundImageFix"/><feBlend in="SourceGraphic" in2="BackgroundImageFix" result="shape"/><feGaussianBlur stdDeviation="125" result="effect1_foregroundBlur_461_149"/></filter><filter id="filter3_f_461_149" x="448" y="118" width="1190" height="1142" filterUnits="userSpaceOnUse" color-interpolation-filters="sRGB"><feFlood flood-opacity="0" result="BackgroundImageFix"/><feBlend in="SourceGraphic" in2="BackgroundImageFix" result="shape"/><feGaussianBlur stdDeviation="125" result="effect1_foregroundBlur_461_149"/></filter><filter id="filter4_f_461_149" x="1825" y="496" width="1102.01" height="1054.04" filterUnits="userSpaceOnUse" color-interpolation-filters="sRGB"><feFlood flood-opacity="0" result="BackgroundImageFix"/><feBlend in="SourceGraphic" in2="BackgroundImageFix" result="shape"/><feGaussianBlur stdDeviation="125" result="effect1_foregroundBlur_461_149"/></filter></defs></svg>