<svg xmlns="http://www.w3.org/2000/svg" width="1920" height="997" fill="none"><g filter="url(#filter0_di_366_1053)"><path d="M0-111h1920v848c0 55.228-44.74 100-99.96 100H1175.5C1065 837 1115 989 960 989s-99-152-238.5-152H99.804C44.576 837 0 792.228 0 737v-848z" fill="#111"/><path d="M3.5-107.5h1913V737c0 53.297-43.17 96.5-96.46 96.5H1175.5c-28.6 0-47.12 9.909-61.05 24.864-11.38 12.214-19.69 27.834-28.03 43.519a838.114 838.114 0 01-5.06 9.443c-10.3 18.93-21.74 37.36-39.95 51.133-18.12 13.708-43.274 23.041-81.41 23.041-38.129 0-62.908-9.329-80.92-23.035-18.127-13.795-29.718-32.238-41.142-51.266l-1.876-3.131c-10.7-17.87-21.616-36.1-37.977-49.986-17.501-14.855-40.991-24.582-76.585-24.582H99.805C46.518 833.5 3.5 790.304 3.5 737v-844.5z" stroke="#fff" stroke-width="7"/></g><defs><filter id="filter0_di_366_1053" x="-4" y="-111" width="1928" height="1108" filterUnits="userSpaceOnUse" color-interpolation-filters="sRGB"><feFlood flood-opacity="0" result="BackgroundImageFix"/><feColorMatrix in="SourceAlpha" values="0 0 0 0 0 0 0 0 0 0 0 0 0 0 0 0 0 0 127 0" result="hardAlpha"/><feOffset dy="4"/><feGaussianBlur stdDeviation="2"/><feComposite in2="hardAlpha" operator="out"/><feColorMatrix values="0 0 0 0 1 0 0 0 0 1 0 0 0 0 1 0 0 0 0.4 0"/><feBlend in2="BackgroundImageFix" result="effect1_dropShadow_366_1053"/><feBlend in="SourceGraphic" in2="effect1_dropShadow_366_1053" result="shape"/><feColorMatrix in="SourceAlpha" values="0 0 0 0 0 0 0 0 0 0 0 0 0 0 0 0 0 0 127 0" result="hardAlpha"/><feOffset dy="4"/><feGaussianBlur stdDeviation="2"/><feComposite in2="hardAlpha" operator="arithmetic" k2="-1" k3="1"/><feColorMatrix values="0 0 0 0 1 0 0 0 0 1 0 0 0 0 1 0 0 0 0.25 0"/><feBlend in2="shape" result="effect2_innerShadow_366_1053"/></filter></defs></svg>