<svg width="1307" height="1152" fill="none" xmlns="http://www.w3.org/2000/svg"><g filter="url(#filter0_f_516_755)"><path fill-rule="evenodd" clip-rule="evenodd" d="M536.061 250.603c109.356 8.072 116.136 112.227 189.38 167.066 84.793 63.486 272.1 84.695 259.999 169.389-12.118 84.815-189.508 95.607-303.352 134.033-118.842 40.113-239.724 132.003-355.833 88.465-115.693-43.383-61.952-159.847-70.393-248.29-5.918-62.011-18.109-122.827 29.895-176.051 58.157-64.479 138.29-142.88 250.304-134.612z" fill="#AA009E"/></g><g filter="url(#filter1_f_516_755)"><path fill-rule="evenodd" clip-rule="evenodd" d="M790.657 347.001c93.23-.498 122.445 123.432 173.413 201.499 41.45 63.485 110.53 125.628 87.28 197.792-22.52 69.884-115.788 72.403-183.491 100.811-60.26 25.285-115.093 64.382-179.129 51.343-92.545-18.843-214.474-42.604-232.882-135.236-18.356-92.37 104.676-139.489 163.705-212.869 58.417-72.618 77.907-202.841 171.104-203.34z" fill="#BE2E00"/></g><defs><filter id="filter0_f_516_755" x="0" y="0" width="1236" height="1071" filterUnits="userSpaceOnUse" color-interpolation-filters="sRGB"><feFlood flood-opacity="0" result="BackgroundImageFix"/><feBlend in="SourceGraphic" in2="BackgroundImageFix" result="shape"/><feGaussianBlur stdDeviation="125" result="effect1_foregroundBlur_516_755"/></filter><filter id="filter1_f_516_755" x="204" y="97" width="1102.01" height="1054.04" filterUnits="userSpaceOnUse" color-interpolation-filters="sRGB"><feFlood flood-opacity="0" result="BackgroundImageFix"/><feBlend in="SourceGraphic" in2="BackgroundImageFix" result="shape"/><feGaussianBlur stdDeviation="125" result="effect1_foregroundBlur_516_755"/></filter></defs></svg>