<svg width="1270" height="1200" fill="none" xmlns="http://www.w3.org/2000/svg"><g filter="url(#filter0_f_461_168)"><path fill-rule="evenodd" clip-rule="evenodd" d="M640.159 310.135c-113.419 13.76-149.994 117.888-211.138 192.751-48.055 58.836-112.903 115.438-96.394 183.777 17.129 70.906 99.792 113.547 177.842 153.383C612.71 892.228 718.951 975.44 833.904 942.508c119.318-34.183 151.389-148.73 174.616-245.149 21.73-90.185 17.07-184.321-53.312-258.307-73.95-77.736-191.464-143.909-315.049-128.917z" fill="#080C8D"/></g><g filter="url(#filter1_f_461_168)"><path fill-rule="evenodd" clip-rule="evenodd" d="M535.608 300.874c-67.06 8.239-139.731-19.079-191.044 24.875-62.607 53.629-107.876 136.038-91.008 216.729 17.11 81.854 94.462 132.549 171.042 166.139 72.579 31.834 150.911 33.746 225.848 7.947 90.836-31.272 191.217-70.479 221.047-161.799 32.046-98.106 7.072-222.27-75.261-284.504-73.415-55.494-169.282 19.392-260.624 30.613z" fill="#4903BC"/></g><defs><filter id="filter0_f_461_168" x="80.001" y="58" width="1190" height="1142" filterUnits="userSpaceOnUse" color-interpolation-filters="sRGB"><feFlood flood-opacity="0" result="BackgroundImageFix"/><feBlend in="SourceGraphic" in2="BackgroundImageFix" result="shape"/><feGaussianBlur stdDeviation="125" result="effect1_foregroundBlur_461_168"/></filter><filter id="filter1_f_461_168" x="0" y="0" width="1134.99" height="984.361" filterUnits="userSpaceOnUse" color-interpolation-filters="sRGB"><feFlood flood-opacity="0" result="BackgroundImageFix"/><feBlend in="SourceGraphic" in2="BackgroundImageFix" result="shape"/><feGaussianBlur stdDeviation="125" result="effect1_foregroundBlur_461_168"/></filter></defs></svg>